<svg width="20" height="20" viewBox="0 0 20 20" fill="none" xmlns="http://www.w3.org/2000/svg">
<circle cx="9.64917" cy="6.06495" r="3.98169" stroke="#808099" stroke-width="1.5" stroke-linecap="round" stroke-linejoin="round"/>
<path fill-rule="evenodd" clip-rule="evenodd" d="M3.33351 15.5844C3.33244 15.3045 3.39504 15.028 3.51658 14.7758C3.89796 14.0131 4.97348 13.6088 5.86593 13.4257C6.50956 13.2884 7.16208 13.1966 7.81864 13.1511C9.0342 13.0444 10.2568 13.0444 11.4723 13.1511C12.1288 13.1971 12.7813 13.2889 13.425 13.4257C14.3175 13.6088 15.393 13.9749 15.7744 14.7758C16.0188 15.2898 16.0188 15.8866 15.7744 16.4006C15.393 17.2015 14.3175 17.5676 13.425 17.743C12.7822 17.8861 12.1294 17.9804 11.4723 18.0253C10.483 18.1091 9.48898 18.1244 8.49751 18.071C8.26867 18.071 8.04747 18.071 7.81864 18.0253C7.16402 17.981 6.51376 17.8866 5.87356 17.743C4.97348 17.5676 3.90559 17.2015 3.51658 16.4006C3.39566 16.1455 3.33312 15.8667 3.33351 15.5844Z" stroke="#808099" stroke-width="1.5" stroke-linecap="round" stroke-linejoin="round"/>
</svg>
