<svg width="20" height="20" viewBox="0 0 20 20" fill="none" xmlns="http://www.w3.org/2000/svg">
<path fill-rule="evenodd" clip-rule="evenodd" d="M10.0481 1.66682C7.1218 1.65506 4.40446 3.17245 2.88367 5.6667C1.36268 8.16127 1.26057 11.2688 2.61455 13.8576L2.76773 14.1562C2.8263 14.266 2.83759 14.3844 2.80366 14.4938C2.58487 15.072 2.39264 15.6964 2.23925 16.3308L2.22297 16.4674C2.22297 17.1052 2.5633 17.5435 3.23876 17.5285L3.35123 17.515C3.96482 17.3795 4.56909 17.2049 5.16034 16.9923C5.23872 16.9725 5.36709 16.9802 5.48293 17.0276L6.05171 17.3495C6.05299 17.3535 6.05395 17.3564 6.0599 17.3599L6.09807 17.3733C9.16062 18.9836 12.9009 18.5393 15.4996 16.2565C18.0987 13.9734 19.0165 10.325 17.8061 7.08651C16.5959 3.8483 13.5094 1.69225 10.0481 1.66682ZM9.80608 2.83248L10.0401 2.82882C13.0191 2.85148 15.6755 4.70714 16.7169 7.49358C17.7582 10.2797 16.9687 13.4184 14.7322 15.3829L14.5487 15.5388C12.3854 17.315 9.38168 17.673 6.86041 16.4556L6.62064 16.3355L6.63092 16.3368L6.61575 16.3327L6.26381 16.1307C6.13709 16.0591 6.03657 16.0049 5.95555 15.9658C5.56958 15.8067 5.17779 15.7833 4.80928 15.8847L4.46043 16.0046C4.22988 16.0807 4.00294 16.1495 3.77711 16.2117L3.4479 16.2977L3.36947 16.604C3.51166 16.016 3.68987 15.4372 3.90308 14.8709C4.04028 14.4319 3.99832 13.9921 3.79779 13.6168L3.64702 13.3228C2.48006 11.0915 2.5679 8.41822 3.87647 6.27204C5.14432 4.19263 7.37896 2.90193 9.80608 2.83248ZM5.39534 10.0001C5.39534 9.47495 5.82138 9.04959 6.34647 9.04959C6.87156 9.04959 7.2976 9.47495 7.2976 10.0001C7.2976 10.5253 6.87156 10.9506 6.34647 10.9506C5.82138 10.9506 5.39534 10.5253 5.39534 10.0001ZM9.09273 10.0001C9.09273 9.47495 9.51878 9.04959 10.0439 9.04959C10.569 9.04959 10.995 9.47495 10.995 10.0001C10.995 10.5253 10.569 10.9506 10.0439 10.9506C9.51878 10.9506 9.09273 10.5253 9.09273 10.0001ZM13.7413 9.04959C13.2162 9.04959 12.7901 9.47495 12.7901 10.0001C12.7901 10.5253 13.2162 10.9506 13.7413 10.9506C14.2664 10.9506 14.6924 10.5253 14.6924 10.0001C14.6924 9.47495 14.2664 9.04959 13.7413 9.04959Z" fill="#808099"/>
</svg>
