<svg width="17" height="17" viewBox="0 0 17 17" fill="none" xmlns="http://www.w3.org/2000/svg">
<path fill-rule="evenodd" clip-rule="evenodd" d="M5.01123 0H2.47978C1.10908 0 0 1.1187 0 2.49627V5.04969C0 6.42669 1.10931 7.54596 2.47978 7.54596H5.01123C6.38171 7.54596 7.49102 6.42669 7.49102 5.04969V2.49627C7.49102 1.1187 6.38194 0 5.01123 0ZM2.47978 1.16279H5.01123C5.73749 1.16279 6.32823 1.75866 6.32823 2.49627V5.04969C6.32823 5.78681 5.73718 6.38317 5.01123 6.38317H2.47978C1.75384 6.38317 1.16279 5.78681 1.16279 5.04969V2.49627C1.16279 1.75866 1.75353 1.16279 2.47978 1.16279ZM14.1877 0H11.6554C10.2847 0 9.17565 1.1187 9.17565 2.49627V5.04969C9.17565 6.42669 10.285 7.54596 11.6554 7.54596H14.1877C15.5575 7.54596 16.6667 6.42653 16.6667 5.04969V2.49627C16.6667 1.11887 15.5578 0 14.1877 0ZM11.6554 1.16279H14.1877C14.9132 1.16279 15.5039 1.75874 15.5039 2.49627V5.04969C15.5039 5.78673 14.9129 6.38317 14.1877 6.38317H11.6554C10.9295 6.38317 10.3384 5.78681 10.3384 5.04969V2.49627C10.3384 1.75866 10.9292 1.16279 11.6554 1.16279ZM2.47978 9.12071H5.01123C6.3821 9.12071 7.49102 10.2396 7.49102 11.6178V14.1704C7.49102 15.548 6.38194 16.6667 5.01123 16.6667H2.47978C1.10908 16.6667 0 15.548 0 14.1704V11.6178C0 10.2396 1.10891 9.12071 2.47978 9.12071ZM5.01123 10.2835H2.47978C1.75344 10.2835 1.16279 10.8795 1.16279 11.6178V14.1704C1.16279 14.908 1.75353 15.5039 2.47978 15.5039H5.01123C5.73749 15.5039 6.32823 14.908 6.32823 14.1704V11.6178C6.32823 10.8795 5.73757 10.2835 5.01123 10.2835ZM14.1877 9.12071H11.6554C10.2846 9.12071 9.17565 10.2396 9.17565 11.6178V14.1704C9.17565 15.548 10.2847 16.6667 11.6554 16.6667H14.1877C15.5578 16.6667 16.6667 15.5478 16.6667 14.1704V11.6178C16.6667 10.2397 15.5579 9.12071 14.1877 9.12071ZM11.6554 10.2835H14.1877C14.9133 10.2835 15.5039 10.8795 15.5039 11.6178V14.1704C15.5039 14.9079 14.9132 15.5039 14.1877 15.5039H11.6554C10.9292 15.5039 10.3384 14.908 10.3384 14.1704V11.6178C10.3384 10.8795 10.9291 10.2835 11.6554 10.2835Z" fill="#808099"/>
</svg>
