<svg width="30" height="30" viewBox="0 0 30 30" fill="none" xmlns="http://www.w3.org/2000/svg">
<path d="M27.9325 18.6081L23.9764 16.0141L25.4996 13.2157C25.867 12.5169 26.0595 11.7392 26.0605 10.9494V6.51309C26.0635 5.2657 25.703 4.04457 25.0232 2.99964C24.3434 1.95471 23.3739 1.13148 22.2337 0.631033C21.0935 0.130585 19.8323 -0.0252934 18.605 0.18254C17.3776 0.390372 16.2376 0.952869 15.3248 1.80096L16.6619 3.24749C17.2944 2.66145 18.0838 2.2731 18.9333 2.13004C19.7828 1.98699 20.6555 2.09545 21.4444 2.44213C22.2332 2.78881 22.904 3.35864 23.3745 4.08176C23.845 4.80487 24.0947 5.64985 24.093 6.51309V10.9494C24.0928 11.4093 23.9828 11.8625 23.7723 12.2711L21.3796 16.6672L26.8553 20.2578C27.2167 20.4948 27.5133 20.8187 27.7181 21.1998C27.9229 21.581 28.0294 22.0074 28.028 22.4403V25.737H23.6011V27.7087H29.9955V22.4402C29.9974 21.6798 29.8098 20.9309 29.4495 20.2617C29.0892 19.5924 28.5678 19.024 27.9325 18.6081Z" fill="#070452"/>
<path d="M19.0778 20.5798L15.1217 17.9858L16.6448 15.1874C17.0122 14.4886 17.2047 13.7109 17.2057 12.921V8.48476C17.2044 6.78433 16.5302 5.15383 15.3308 3.95098C14.1314 2.74812 12.5049 2.07114 10.8081 2.06854C7.284 2.06854 4.417 4.94689 4.417 8.48476V12.921C4.41324 13.7105 4.60361 14.4887 4.97127 15.1869L6.50272 18.0005L2.56964 20.5798C1.93513 20.9951 1.41414 21.5625 1.05395 22.2307C0.693754 22.8989 0.505762 23.6466 0.50703 24.4061L0.476288 29.6803H21.1407V24.4119C21.1427 23.6515 20.955 22.9026 20.5947 22.2334C20.2345 21.5641 19.713 20.9957 19.0778 20.5798ZM19.1732 27.7086H2.45522L2.47428 24.4119C2.47279 23.979 2.57929 23.5526 2.78409 23.1714C2.98889 22.7903 3.28551 22.4665 3.64697 22.2294L9.09951 18.6539L6.69849 14.2428C6.49034 13.8335 6.38269 13.3804 6.38449 12.921V8.48476C6.38449 7.30819 6.85089 6.1798 7.68109 5.34784C8.51128 4.51587 9.63727 4.04848 10.8114 4.04848C11.9854 4.04848 13.1114 4.51587 13.9416 5.34784C14.7718 6.1798 15.2382 7.30819 15.2382 8.48476V12.921C15.238 13.3809 15.1281 13.8341 14.9176 14.2428L12.5249 18.6389L18.0005 22.2295C18.362 22.4665 18.6586 22.7903 18.8634 23.1715C19.0682 23.5526 19.1747 23.979 19.1732 24.4119V27.7086Z" fill="#070452"/>
</svg>
