<svg width="23" height="23" viewBox="0 0 23 23" fill="none" xmlns="http://www.w3.org/2000/svg">
<path d="M15.7331 7.63914C15.7331 7.53172 15.6452 7.44383 15.5377 7.44383L13.9264 7.45116L11.4997 10.3442L9.07534 7.4536L7.46157 7.44627C7.35415 7.44627 7.26626 7.53172 7.26626 7.64159C7.26626 7.68797 7.28335 7.73192 7.31264 7.76854L10.4889 11.5527L7.31264 15.3345C7.28314 15.3702 7.26677 15.415 7.26626 15.4614C7.26626 15.5688 7.35415 15.6567 7.46157 15.6567L9.07534 15.6494L11.4997 12.7563L13.924 15.647L15.5353 15.6543C15.6427 15.6543 15.7306 15.5688 15.7306 15.459C15.7306 15.4126 15.7135 15.3686 15.6842 15.332L12.5128 11.5503L15.6891 7.7661C15.7184 7.73192 15.7331 7.68553 15.7331 7.63914Z" fill="#C1C0CE"/>
<path d="M11.5 0.5625C5.45996 0.5625 0.5625 5.45996 0.5625 11.5C0.5625 17.54 5.45996 22.4375 11.5 22.4375C17.54 22.4375 22.4375 17.54 22.4375 11.5C22.4375 5.45996 17.54 0.5625 11.5 0.5625ZM11.5 20.582C6.48535 20.582 2.41797 16.5146 2.41797 11.5C2.41797 6.48535 6.48535 2.41797 11.5 2.41797C16.5146 2.41797 20.582 6.48535 20.582 11.5C20.582 16.5146 16.5146 20.582 11.5 20.582Z" fill="#C1C0CE"/>
</svg>
