<svg width="60" height="60" viewBox="0 0 60 60" fill="none" xmlns="http://www.w3.org/2000/svg">
<rect width="60" height="60" rx="14" fill="white"/>
<path fill-rule="evenodd" clip-rule="evenodd" d="M44.6251 48.25C46.117 48.25 47.5477 47.6574 48.6026 46.6025C49.6575 45.5476 50.2501 44.1168 50.2501 42.625C50.2501 41.1332 49.6575 39.7024 48.6026 38.6475C47.5477 37.5926 46.117 37 44.6251 37C43.1333 37 41.7025 37.5926 40.6476 38.6475C39.5928 39.7024 39.0001 41.1332 39.0001 42.625C39.0001 44.1168 39.5928 45.5476 40.6476 46.6025C41.7025 47.6574 43.1333 48.25 44.6251 48.25ZM44.6251 50.5C46.7137 50.5 48.7167 49.6703 50.1936 48.1935C51.6704 46.7166 52.5001 44.7136 52.5001 42.625C52.5001 40.5364 51.6704 38.5334 50.1936 37.0565C48.7167 35.5797 46.7137 34.75 44.6251 34.75C42.5365 34.75 40.5335 35.5797 39.0567 37.0565C37.5798 38.5334 36.7501 40.5364 36.7501 42.625C36.7501 44.7136 37.5798 46.7166 39.0567 48.1935C40.5335 49.6703 42.5365 50.5 44.6251 50.5Z" fill="#2651ED"/>
<path fill-rule="evenodd" clip-rule="evenodd" d="M44.6251 38.6875C44.9235 38.6875 45.2096 38.806 45.4206 39.017C45.6316 39.228 45.7501 39.5141 45.7501 39.8125V42.1593L46.5455 42.9546C46.7504 43.1668 46.8638 43.451 46.8613 43.746C46.8587 44.0409 46.7404 44.3231 46.5318 44.5317C46.3232 44.7403 46.0411 44.8586 45.7461 44.8611C45.4511 44.8637 45.1669 44.7503 44.9547 44.5454L43.5001 43.0908V39.8125C43.5001 39.5141 43.6186 39.228 43.8296 39.017C44.0406 38.806 44.3268 38.6875 44.6251 38.6875Z" fill="#2651ED"/>
<path fill-rule="evenodd" clip-rule="evenodd" d="M21.0001 29.125H18.7501V31.375H21.0001V29.125ZM18.7501 26.875C18.1534 26.875 17.5811 27.1121 17.1591 27.534C16.7372 27.956 16.5001 28.5283 16.5001 29.125V31.375C16.5001 31.9717 16.7372 32.544 17.1591 32.966C17.5811 33.3879 18.1534 33.625 18.7501 33.625H21.0001C21.5969 33.625 22.1692 33.3879 22.5911 32.966C23.0131 32.544 23.2501 31.9717 23.2501 31.375V29.125C23.2501 28.5283 23.0131 27.956 22.5911 27.534C22.1692 27.1121 21.5969 26.875 21.0001 26.875H18.7501Z" fill="#2651ED"/>
<path fill-rule="evenodd" clip-rule="evenodd" d="M30 29.125H27.75V31.375H30V29.125ZM27.75 26.875C27.1533 26.875 26.581 27.1121 26.159 27.534C25.7371 27.956 25.5 28.5283 25.5 29.125V31.375C25.5 31.9717 25.7371 32.544 26.159 32.966C26.581 33.3879 27.1533 33.625 27.75 33.625H30C30.5967 33.625 31.169 33.3879 31.591 32.966C32.0129 32.544 32.25 31.9717 32.25 31.375V29.125C32.25 28.5283 32.0129 27.956 31.591 27.534C31.169 27.1121 30.5967 26.875 30 26.875H27.75Z" fill="#2651ED"/>
<path fill-rule="evenodd" clip-rule="evenodd" d="M38.9999 29.125H36.7499V31.375H38.9999V29.125ZM36.7499 26.875C36.1531 26.875 35.5808 27.1121 35.1589 27.534C34.7369 27.956 34.4999 28.5283 34.4999 29.125V31.375C34.4999 31.9717 34.7369 32.544 35.1589 32.966C35.5808 33.3879 36.1531 33.625 36.7499 33.625H38.9999C39.5966 33.625 40.1689 33.3879 40.5909 32.966C41.0128 32.544 41.2499 31.9717 41.2499 31.375V29.125C41.2499 28.5283 41.0128 27.956 40.5909 27.534C40.1689 27.1121 39.5966 26.875 38.9999 26.875H36.7499Z" fill="#2651ED"/>
<path fill-rule="evenodd" clip-rule="evenodd" d="M21.0001 38.125H18.7501V40.375H21.0001V38.125ZM18.7501 35.875C18.1534 35.875 17.5811 36.1121 17.1591 36.534C16.7372 36.956 16.5001 37.5283 16.5001 38.125V40.375C16.5001 40.9717 16.7372 41.544 17.1591 41.966C17.5811 42.3879 18.1534 42.625 18.7501 42.625H21.0001C21.5969 42.625 22.1692 42.3879 22.5911 41.966C23.0131 41.544 23.2501 40.9717 23.2501 40.375V38.125C23.2501 37.5283 23.0131 36.956 22.5911 36.534C22.1692 36.1121 21.5969 35.875 21.0001 35.875H18.7501Z" fill="#2651ED"/>
<path fill-rule="evenodd" clip-rule="evenodd" d="M30 38.125H27.75V40.375H30V38.125ZM27.75 35.875C27.1533 35.875 26.581 36.1121 26.159 36.534C25.7371 36.956 25.5 37.5283 25.5 38.125V40.375C25.5 40.9717 25.7371 41.544 26.159 41.966C26.581 42.3879 27.1533 42.625 27.75 42.625H30C30.5967 42.625 31.169 42.3879 31.591 41.966C32.0129 41.544 32.25 40.9717 32.25 40.375V38.125C32.25 37.5283 32.0129 36.956 31.591 36.534C31.169 36.1121 30.5967 35.875 30 35.875H27.75Z" fill="#2651ED"/>
<path fill-rule="evenodd" clip-rule="evenodd" d="M14.25 16.75C14.25 16.4516 14.3685 16.1655 14.5795 15.9545C14.7905 15.7435 15.0766 15.625 15.375 15.625H21V13.375H15.375C14.4799 13.375 13.6214 13.7306 12.9885 14.3635C12.3556 14.9964 12 15.8549 12 16.75V43.75C12 44.6451 12.3556 45.5035 12.9885 46.1365C13.6214 46.7694 14.4799 47.125 15.375 47.125H38.1619C37.6821 46.4378 37.3156 45.6782 37.0763 44.875H15.375C15.0766 44.875 14.7905 44.7565 14.5795 44.5455C14.3685 44.3345 14.25 44.0484 14.25 43.75V16.75ZM43.5 34.8288C44.2462 34.722 45.0038 34.722 45.75 34.8288V16.75C45.75 15.8549 45.3944 14.9964 44.7615 14.3635C44.1285 13.7306 43.2701 13.375 42.375 13.375H39V15.625H42.375C42.6734 15.625 42.9595 15.7435 43.1705 15.9545C43.3815 16.1655 43.5 16.4516 43.5 16.75V34.8288ZM23.25 15.625H35.1334V13.375H23.25V15.625Z" fill="#2651ED"/>
<path fill-rule="evenodd" clip-rule="evenodd" d="M36.7501 13.375H23.2501V16.75C23.2501 17.0484 23.1316 17.3345 22.9206 17.5455C22.7096 17.7565 22.4235 17.875 22.1251 17.875C21.8268 17.875 21.5406 17.7565 21.3296 17.5455C21.1186 17.3345 21.0001 17.0484 21.0001 16.75V13.375H15.3751C14.7784 13.375 14.2061 13.6121 13.7841 14.034C13.3622 14.456 13.1251 15.0283 13.1251 15.625V21.25C13.1251 21.8467 13.3622 22.419 13.7841 22.841C14.2061 23.2629 14.7784 23.5 15.3751 23.5H42.3751C42.9719 23.5 43.5442 23.2629 43.9661 22.841C44.3881 22.419 44.6251 21.8467 44.6251 21.25V15.625C44.6251 15.0283 44.3881 14.456 43.9661 14.034C43.5442 13.6121 42.9719 13.375 42.3751 13.375H39.0001V16.75C39.0001 17.0484 38.8816 17.3345 38.6706 17.5455C38.4596 17.7565 38.1735 17.875 37.8751 17.875C37.5768 17.875 37.2906 17.7565 37.0796 17.5455C36.8687 17.3345 36.7501 17.0484 36.7501 16.75V13.375Z" fill="#2651ED"/>
<path fill-rule="evenodd" clip-rule="evenodd" d="M45.7499 23.5H14.2499V21.25H45.7499V23.5Z" fill="#2651ED"/>
<path d="M18.75 11.125C18.75 10.8266 18.8685 10.5405 19.0795 10.3295C19.2905 10.1185 19.5766 10 19.875 10C20.1734 10 20.4595 10.1185 20.6705 10.3295C20.8815 10.5405 21 10.8266 21 11.125V15.625C21 15.9234 20.8815 16.2095 20.6705 16.4205C20.4595 16.6315 20.1734 16.75 19.875 16.75C19.5766 16.75 19.2905 16.6315 19.0795 16.4205C18.8685 16.2095 18.75 15.9234 18.75 15.625V11.125Z" fill="#2651ED"/>
<path d="M34.4999 11.125C34.4999 10.8266 34.6184 10.5405 34.8294 10.3295C35.0404 10.1185 35.3265 10 35.6249 10C35.9232 10 36.2094 10.1185 36.4204 10.3295C36.6314 10.5405 36.7499 10.8266 36.7499 11.125V15.625C36.7499 15.9234 36.6314 16.2095 36.4204 16.4205C36.2094 16.6315 35.9232 16.75 35.6249 16.75C35.3265 16.75 35.0404 16.6315 34.8294 16.4205C34.6184 16.2095 34.4999 15.9234 34.4999 15.625V11.125Z" fill="#2651ED"/>
</svg>
