<svg width="60" height="60" viewBox="0 0 60 60" fill="none" xmlns="http://www.w3.org/2000/svg">
<rect width="60" height="60" rx="14" fill="white"/>
<path d="M44.2632 12.9C43.0072 12.901 41.8029 13.4018 40.9148 14.2924C40.0267 15.1829 39.5273 16.3905 39.5263 17.65C39.5263 18.3283 39.6741 18.9724 39.9318 19.5595L36.2276 23.7376C34.9692 22.8666 33.4764 22.4001 31.9474 22.4C30.5453 22.4 29.2493 22.8104 28.1219 23.4754L23.8133 19.1567L23.7697 19.2004C24.1411 18.4442 24.3684 17.6025 24.3684 16.7C24.3684 15.5726 24.035 14.4706 23.4105 13.5333C22.7859 12.5959 21.8981 11.8653 20.8595 11.4339C19.8208 11.0025 18.6779 10.8896 17.5753 11.1095C16.4726 11.3295 15.4598 11.8723 14.6649 12.6695C13.8699 13.4667 13.3285 14.4823 13.1092 15.588C12.8899 16.6937 13.0025 17.8398 13.4327 18.8813C13.8629 19.9228 14.5915 20.8131 15.5262 21.4394C16.461 22.0657 17.56 22.4 18.6842 22.4C19.5842 22.4 20.4217 22.172 21.1777 21.7996L21.1341 21.8433L25.4427 26.162C24.7467 27.3211 24.3755 28.647 24.3684 30C24.3684 31.8943 25.0884 33.6081 26.2347 34.9419L21.352 39.8363C20.8047 39.6166 20.221 39.5025 19.6316 39.5C17.0206 39.5 14.8947 41.6299 14.8947 44.25C14.8947 46.8701 17.0206 49 19.6316 49C22.2425 49 24.3684 46.8701 24.3684 44.25C24.3684 43.6401 24.2434 43.0606 24.0331 42.5229L29.4103 37.1307C30.208 37.4157 31.0531 37.6 31.9474 37.6C36.1272 37.6 39.5263 34.1914 39.5263 30C39.5263 28.7916 39.2175 27.6649 38.7154 26.6484L42.7265 22.1207C43.2116 22.2879 43.7232 22.4 44.2632 22.4C46.876 22.4 49 20.2701 49 17.65C49 15.0299 46.876 12.9 44.2632 12.9ZM31.9474 33.8C29.8575 33.8 28.1579 32.0957 28.1579 30C28.1579 27.9043 29.8575 26.2 31.9474 26.2C34.0373 26.2 35.7368 27.9043 35.7368 30C35.7368 32.0957 34.0373 33.8 31.9474 33.8Z" fill="#2651ED"/>
</svg>
