<svg width="19" height="19" viewBox="0 0 19 19" fill="none" xmlns="http://www.w3.org/2000/svg">
<g filter="url(#filter0_i)">
<path fill-rule="evenodd" clip-rule="evenodd" d="M0.791687 2.24659C0.791687 1.86068 0.94499 1.49057 1.21787 1.21769C1.49075 0.944809 1.86086 0.791506 2.24677 0.791506H16.7517C16.9429 0.791193 17.1324 0.828606 17.3091 0.9016C17.4859 0.974595 17.6465 1.08174 17.7818 1.2169C17.9171 1.35206 18.0245 1.51257 18.0977 1.68926C18.1708 1.86595 18.2085 2.05534 18.2084 2.24659V16.7515C18.2086 16.9428 18.1711 17.1322 18.098 17.309C18.0249 17.4858 17.9177 17.6464 17.7825 17.7817C17.6472 17.917 17.4867 18.0243 17.3099 18.0975C17.1332 18.1707 16.9438 18.2083 16.7525 18.2082H2.24677C2.05562 18.2082 1.86634 18.1705 1.68975 18.0973C1.51316 18.0242 1.35272 17.9169 1.21759 17.7817C1.08246 17.6465 0.9753 17.486 0.902222 17.3094C0.829143 17.1327 0.791583 16.9434 0.791687 16.7523V2.24659ZM7.68552 7.43201H10.0439V8.61634C10.3843 7.93551 11.2551 7.32276 12.5638 7.32276C15.0726 7.32276 15.6671 8.67888 15.6671 11.1671V15.7762H13.1282V11.7339C13.1282 10.3168 12.7878 9.51726 11.9233 9.51726C10.7239 9.51726 10.2252 10.3794 10.2252 11.7339V15.7762H7.68552V7.43201ZM3.33135 15.6677H5.87102V7.32276H3.33135V15.6669V15.6677ZM6.2344 4.60101C6.23918 4.81846 6.20049 5.03467 6.12059 5.23696C6.04068 5.43926 5.92117 5.62355 5.76908 5.77903C5.61698 5.93451 5.43537 6.05805 5.23488 6.14239C5.0344 6.22673 4.81909 6.27017 4.60158 6.27017C4.38408 6.27017 4.16877 6.22673 3.96829 6.14239C3.7678 6.05805 3.58618 5.93451 3.43409 5.77903C3.28199 5.62355 3.16249 5.43926 3.08258 5.23696C3.00268 5.03467 2.96398 4.81846 2.96877 4.60101C2.97817 4.17418 3.15433 3.76801 3.45951 3.46947C3.7647 3.17092 4.17466 3.00375 4.60158 3.00375C5.02851 3.00375 5.43847 3.17092 5.74365 3.46947C6.04884 3.76801 6.225 4.17418 6.2344 4.60101Z" fill="#5B7DF5"/>
</g>
<defs>
<filter id="filter0_i" x="0" y="0" width="19" height="23" filterUnits="userSpaceOnUse" color-interpolation-filters="sRGB">
<feFlood flood-opacity="0" result="BackgroundImageFix"/>
<feBlend mode="normal" in="SourceGraphic" in2="BackgroundImageFix" result="shape"/>
<feColorMatrix in="SourceAlpha" type="matrix" values="0 0 0 0 0 0 0 0 0 0 0 0 0 0 0 0 0 0 127 0" result="hardAlpha"/>
<feOffset dy="4"/>
<feGaussianBlur stdDeviation="7.5"/>
<feComposite in2="hardAlpha" operator="arithmetic" k2="-1" k3="1"/>
<feColorMatrix type="matrix" values="0 0 0 0 0 0 0 0 0 0 0 0 0 0 0 0 0 0 0.2 0"/>
<feBlend mode="normal" in2="shape" result="effect1_innerShadow"/>
</filter>
</defs>
</svg>
