<svg width="60" height="60" viewBox="0 0 60 60" fill="none" xmlns="http://www.w3.org/2000/svg">
<rect width="60" height="60" rx="14" fill="white"/>
<path fill-rule="evenodd" clip-rule="evenodd" d="M29.6897 12C27.946 12 25.0322 12.6697 22.2903 13.4152C19.4853 14.1733 16.6574 15.0704 14.9946 15.6137C14.2994 15.8433 13.683 16.2644 13.2163 16.8285C12.7497 17.3927 12.4516 18.077 12.3563 18.8029C10.8502 30.1167 14.3452 38.5016 18.5856 44.0486C20.3838 46.4214 22.5279 48.511 24.9463 50.2475C25.9218 50.9374 26.8265 51.4656 27.5947 51.827C28.3023 52.1605 29.0629 52.4335 29.6897 52.4335C30.3164 52.4335 31.0745 52.1605 31.7846 51.827C32.7108 51.3768 33.5968 50.8484 34.433 50.2475C36.8514 48.5111 38.9955 46.4215 40.7937 44.0486C45.0342 38.5016 48.5291 30.1167 47.023 18.8029C46.9279 18.0766 46.6299 17.3919 46.1632 16.8273C45.6966 16.2628 45.0801 15.8413 44.3847 15.6112C41.9708 14.8198 39.5382 14.0867 37.089 13.4126C34.3471 12.6722 31.4333 12 29.6897 12ZM29.6897 24.6355C30.5849 24.6341 31.4516 24.9497 32.1365 25.5262C32.8213 26.1027 33.28 26.9029 33.4314 27.7853C33.5827 28.6676 33.4169 29.575 32.9633 30.3467C32.5098 31.1185 31.7977 31.7049 30.9532 32.0019L31.9261 37.0308C31.9615 37.2137 31.956 37.4022 31.9101 37.5828C31.8641 37.7633 31.7787 37.9314 31.6602 38.0751C31.5416 38.2188 31.3927 38.3345 31.2242 38.4139C31.0556 38.4933 30.8716 38.5345 30.6853 38.5345H28.694C28.5079 38.5341 28.3242 38.4927 28.156 38.4131C27.9877 38.3336 27.8392 38.2178 27.7209 38.0742C27.6026 37.9305 27.5175 37.7625 27.4716 37.5822C27.4258 37.4018 27.4203 37.2135 27.4557 37.0308L28.4261 32.0019C27.5816 31.7049 26.8696 31.1185 26.416 30.3467C25.9624 29.575 25.7966 28.6676 25.9479 27.7853C26.0993 26.9029 26.558 26.1027 27.2428 25.5262C27.9277 24.9497 28.7945 24.6341 29.6897 24.6355Z" fill="#2651ED"/>
</svg>
