<svg width="60" height="60" viewBox="0 0 60 60" fill="none" xmlns="http://www.w3.org/2000/svg">
<rect width="60" height="60" rx="14" fill="white"/>
<path d="M48.75 27.375V23.125H44.5833V18.875C44.58 17.7489 44.14 16.6698 43.3593 15.8735C42.5786 15.0772 41.5207 14.6284 40.4167 14.625H36.25V10.375H32.0833V14.625H27.9167V10.375H23.75V14.625H19.5833C18.4793 14.6284 17.4214 15.0772 16.6407 15.8735C15.86 16.6698 15.42 17.7489 15.4167 18.875V23.125H11.25V27.375H15.4167V31.625H11.25V35.875H15.4167V40.125C15.42 41.2511 15.86 42.3302 16.6407 43.1265C17.4214 43.9228 18.4793 44.3716 19.5833 44.375H23.75V48.625H27.9167V44.375H32.0833V48.625H36.25V44.375H40.4167C41.5207 44.3716 42.5786 43.9228 43.3593 43.1265C44.14 42.3302 44.58 41.2511 44.5833 40.125V35.875H48.75V31.625H44.5833V27.375H48.75ZM40.4167 40.125H19.5833V18.875H40.4167V40.125Z" fill="#2651ED"/>
<path d="M28.6688 21H25.8667L21.6792 38H23.8188L24.7855 34.0156H29.6105L30.5521 38H32.7646L28.6688 21ZM25.0667 32.3135L27.1875 23.0187H27.2834L29.3313 32.3135H25.0667Z" fill="#2651ED"/>
<path d="M34.6749 21H36.7583V38H34.6749V21Z" fill="#2651ED"/>
</svg>
