<svg width="86" height="86" viewBox="0 0 86 86" fill="none" xmlns="http://www.w3.org/2000/svg">
<circle cx="43" cy="43" r="43" fill="url(#paint0_linear_591_6932)"/>
<path d="M63.52 23.68V30.4C61.6 30.64 59.96 31.4 58.6 32.68C57.32 33.96 56.32 35.6 55.6 37.6C54.96 39.52 54.64 41.6 54.64 43.84H62.8V60.4H46V45.4C46 40.6 46.8 36.68 48.4 33.64C50.08 30.6 52.24 28.28 54.88 26.68C57.52 25.08 60.4 24.08 63.52 23.68ZM38.44 23.68V30.4C36.6 30.64 35 31.4 33.64 32.68C32.36 33.96 31.36 35.6 30.64 37.6C30 39.52 29.68 41.6 29.68 43.84H37.84V60.4H21.04V45.4C21.04 40.6 21.84 36.68 23.44 33.64C25.12 30.6 27.28 28.28 29.92 26.68C32.56 25.08 35.4 24.08 38.44 23.68Z" fill="white"/>
<defs>
<linearGradient id="paint0_linear_591_6932" x1="-7.93358" y1="5.25749" x2="85.6068" y2="10.0295" gradientUnits="userSpaceOnUse">
<stop stop-color="#3B68DF"/>
<stop offset="1" stop-color="#8D32D5"/>
</linearGradient>
</defs>
</svg>
