<svg width="584" height="436" viewBox="0 0 584 436" fill="none" xmlns="http://www.w3.org/2000/svg">
<path d="M584 382.404H0V382.696H584V382.404Z" fill="#FAFAFA"/>
<path d="M494.322 395.111H465.32V395.403H494.322V395.111Z" fill="#E0E0E0"/>
<path d="M512.694 394.959H502.895V395.251H512.694V394.959Z" fill="#E0E0E0"/>
<path d="M387.812 396.922H327.088V397.214H387.812V396.922Z" fill="#E0E0E0"/>
<path d="M312.755 400.086H303.703V400.378H312.755V400.086Z" fill="#E0E0E0"/>
<path d="M130.757 390.849H115.152V391.141H130.757V390.849Z" fill="#E0E0E0"/>
<path d="M216.386 390.849H137.242V391.141H216.386V390.849Z" fill="#E0E0E0"/>
<path d="M148.921 397.903H93.8613V398.195H148.921V397.903Z" fill="#E0E0E0"/>
<path d="M276.818 330.31H51.2885C49.5217 330.307 47.8283 329.603 46.5801 328.353C45.3319 327.102 44.6309 325.408 44.6309 323.641V6.61088C44.6462 4.85424 45.3541 3.1746 46.6006 1.9368C47.8472 0.698999 49.5318 0.00300922 51.2885 0H276.818C278.586 0 280.283 0.702654 281.533 1.95339C282.784 3.20412 283.487 4.90048 283.487 6.66928V323.641C283.487 325.41 282.784 327.106 281.533 328.357C280.283 329.608 278.586 330.31 276.818 330.31ZM51.2885 0.233601C49.5991 0.236695 47.98 0.909948 46.7866 2.10558C45.5931 3.30122 44.9229 4.92154 44.9229 6.61088V323.641C44.9229 325.33 45.5931 326.951 46.7866 328.146C47.98 329.342 49.5991 330.015 51.2885 330.018H276.818C278.508 330.015 280.128 329.342 281.324 328.147C282.519 326.952 283.192 325.331 283.195 323.641V6.61088C283.192 4.92047 282.519 3.30017 281.324 2.10487C280.128 0.909569 278.508 0.236688 276.818 0.233601H51.2885Z" fill="#E0E0E0"/>
<path d="M529.468 330.31H303.927C302.159 330.307 300.465 329.604 299.215 328.354C297.965 327.104 297.261 325.409 297.258 323.641V6.61088C297.276 4.85317 297.987 3.17355 299.235 1.93607C300.483 0.698591 302.169 0.0029764 303.927 0H529.468C531.223 0.00607885 532.904 0.703427 534.148 1.9409C535.392 3.17837 536.098 4.85625 536.114 6.61088V323.641C536.114 325.406 535.414 327.099 534.169 328.349C532.923 329.599 531.233 330.304 529.468 330.31ZM303.927 0.233601C302.237 0.236688 300.616 0.909569 299.421 2.10487C298.226 3.30017 297.553 4.92047 297.55 6.61088V323.641C297.553 325.331 298.226 326.952 299.421 328.147C300.616 329.342 302.237 330.015 303.927 330.018H529.468C531.158 330.015 532.779 329.342 533.974 328.147C535.169 326.952 535.842 325.331 535.845 323.641V6.61088C535.842 4.92047 535.169 3.30017 533.974 2.10487C532.779 0.909569 531.158 0.236688 529.468 0.233601H303.927Z" fill="#E0E0E0"/>
<path d="M399.164 382.404H440.43V307.512H399.164V382.404Z" fill="#E0E0E0"/>
<path d="M489.661 307.511H440.43V382.403H489.661V307.511Z" fill="#EBEBEB"/>
<g style="mix-blend-mode:multiply" opacity="0.7">
<path d="M399.165 317.241H490.094V313.854H399.165V317.241Z" fill="#E0E0E0"/>
</g>
<path d="M396.887 315.266H440.43V299.661H396.887V315.266Z" fill="#E0E0E0"/>
<path d="M491.938 299.673H440.43V315.277H491.938V299.673Z" fill="#EBEBEB"/>
<path d="M226.662 22.1807H87.752V187.92H226.662V22.1807Z" fill="#E0E0E0"/>
<path d="M233.028 22.1807H90.7305V187.92H233.028V22.1807Z" fill="#EBEBEB"/>
<path d="M226.662 187.918H87.752V199.726H226.662V187.918Z" fill="#E0E0E0"/>
<path d="M243.61 187.918H101.312V199.726H243.61V187.918Z" fill="#EBEBEB"/>
<path d="M224.129 179.02V31.0811L99.6318 31.0811L99.6318 179.02H224.129Z" fill="#F5F5F5"/>
<path d="M114.906 179.02L167.128 31.0811H191.772L139.563 179.02H114.906Z" fill="#FAFAFA"/>
<path d="M103.74 128.83C103.572 128.827 103.411 128.758 103.293 128.638C103.175 128.518 103.109 128.356 103.109 128.188V36.8622C103.109 36.6949 103.176 36.5345 103.294 36.4162C103.412 36.2979 103.573 36.2314 103.74 36.2314C103.908 36.2314 104.07 36.2975 104.19 36.4155C104.31 36.5334 104.379 36.6938 104.382 36.8622V128.188C104.382 128.358 104.315 128.522 104.194 128.642C104.074 128.763 103.91 128.83 103.74 128.83Z" fill="#EBEBEB"/>
<path d="M144.854 179.02L197.075 31.0811H206.687L154.466 179.02H144.854Z" fill="#FAFAFA"/>
<path d="M224.115 179.02V31.0811H222.982V179.02H224.115Z" fill="#E0E0E0"/>
<path d="M235.119 42.4561H96.2199L95.4023 34.5371H234.301L235.119 42.4561Z" fill="#E0E0E0"/>
<path d="M235.119 48.2618H96.2199L95.4023 40.3311H234.301L235.119 48.2618Z" fill="#E0E0E0"/>
<path d="M235.119 55.2227H96.2199L95.4023 47.292H234.301L235.119 55.2227Z" fill="#E0E0E0"/>
<path d="M235.119 62.9669H96.2199L95.4023 55.0479H234.301L235.119 62.9669Z" fill="#E0E0E0"/>
<path d="M235.119 72.253H96.2199L95.4023 64.3223H234.301L235.119 72.253Z" fill="#E0E0E0"/>
<path d="M235.119 82.6827H96.2199L95.4023 74.7637H234.301L235.119 82.6827Z" fill="#E0E0E0"/>
<path d="M479.299 22.1807H340.389V187.92H479.299V22.1807Z" fill="#E0E0E0"/>
<path d="M485.657 22.1807H343.359V187.92H485.657V22.1807Z" fill="#EBEBEB"/>
<path d="M479.299 187.918H340.389V199.726H479.299V187.918Z" fill="#E0E0E0"/>
<path d="M496.249 187.918H353.951V199.726H496.249V187.918Z" fill="#EBEBEB"/>
<path d="M476.766 179.02V31.0811L352.269 31.0811V179.02H476.766Z" fill="#F5F5F5"/>
<path d="M367.547 179.02L419.768 31.0811H444.413L392.192 179.02H367.547Z" fill="#FAFAFA"/>
<path d="M356.381 128.83C356.212 128.827 356.052 128.758 355.934 128.638C355.816 128.518 355.75 128.356 355.75 128.188V36.8622C355.75 36.6949 355.816 36.5345 355.935 36.4162C356.053 36.2979 356.213 36.2314 356.381 36.2314C356.548 36.2314 356.708 36.2979 356.827 36.4162C356.945 36.5345 357.011 36.6949 357.011 36.8622V128.188C357.011 128.356 356.945 128.518 356.827 128.638C356.71 128.758 356.549 128.827 356.381 128.83Z" fill="#EBEBEB"/>
<path d="M397.494 179.02L449.715 31.0811H459.316L407.107 179.02H397.494Z" fill="#FAFAFA"/>
<path d="M476.754 179.02V31.0811H475.621V179.02H476.754Z" fill="#E0E0E0"/>
<path d="M487.759 42.4561H348.861L348.031 34.5371H486.941L487.759 42.4561Z" fill="#E0E0E0"/>
<path d="M487.759 48.2618H348.861L348.031 40.3311H486.941L487.759 48.2618Z" fill="#E0E0E0"/>
<path d="M487.759 55.2227H348.861L348.031 47.292H486.941L487.759 55.2227Z" fill="#E0E0E0"/>
<path d="M487.759 62.9669H348.861L348.031 55.0479H486.941L487.759 62.9669Z" fill="#E0E0E0"/>
<path d="M487.759 72.253H348.861L348.031 64.3223H486.941L487.759 72.253Z" fill="#E0E0E0"/>
<path d="M487.759 82.6827H348.861L348.031 74.7637H486.941L487.759 82.6827Z" fill="#E0E0E0"/>
<path d="M371.472 277.354H343.732V382.404H371.472V277.354Z" fill="#E0E0E0"/>
<path d="M366.193 382.404H371.46V369.532H360.668L366.193 382.404Z" fill="#F5F5F5"/>
<path d="M102.271 277.354H74.5312V382.404H102.271V277.354Z" fill="#E0E0E0"/>
<path d="M371.469 277.354H97.666V375.326H371.469V277.354Z" fill="#F5F5F5"/>
<path d="M236.332 282.259V352.223H367.382V282.259H236.332Z" fill="#E0E0E0"/>
<path d="M101.756 282.259V352.223H232.805V282.259H101.756Z" fill="#E0E0E0"/>
<path d="M367.371 367.009V359.219H236.322V367.009H367.371Z" fill="#E0E0E0"/>
<path d="M232.795 367.021V359.23H101.745V367.021H232.795Z" fill="#E0E0E0"/>
<path d="M213.429 286.441H121.157C119.108 286.442 117.08 286.029 115.196 285.226C113.311 284.423 111.608 283.247 110.189 281.769H224.443C223.019 283.253 221.309 284.432 219.416 285.235C217.522 286.038 215.486 286.448 213.429 286.441Z" fill="#F5F5F5"/>
<path d="M348.495 286.441H256.223C254.175 286.442 252.147 286.029 250.262 285.226C248.377 284.423 246.674 283.247 245.256 281.769H359.51C358.088 283.256 356.378 284.437 354.484 285.241C352.591 286.044 350.553 286.452 348.495 286.441Z" fill="#F5F5F5"/>
<path d="M102.936 382.404H97.6562V369.532H108.449L102.936 382.404Z" fill="#F5F5F5"/>
<g style="mix-blend-mode:multiply" opacity="0.4">
<path d="M298.495 212.855H267.613V277.352H298.495V212.855Z" fill="#E0E0E0"/>
</g>
<path d="M324.435 277.353H272.167L267.25 207.705H319.506L324.435 277.353Z" fill="#E0E0E0"/>
<path d="M330.379 277.353H273.65L268.732 207.705H325.451L330.379 277.353Z" fill="#F5F5F5"/>
<path d="M276.28 274.691L271.736 210.369H322.836L327.392 274.691H276.28Z" fill="#FAFAFA"/>
<path d="M288.65 260.289L286.139 224.771H310.468L312.979 260.289H288.65Z" fill="#F5F5F5"/>
<path d="M186.119 265.92C193.615 265.92 199.691 259.843 199.691 252.348C199.691 244.852 193.615 238.775 186.119 238.775C178.623 238.775 172.547 244.852 172.547 252.348C172.547 259.843 178.623 265.92 186.119 265.92Z" fill="#EBEBEB"/>
<path d="M209.363 272.389C216.859 272.389 222.935 266.313 222.935 258.817C222.935 251.322 216.859 245.245 209.363 245.245C201.867 245.245 195.791 251.322 195.791 258.817C195.791 266.313 201.867 272.389 209.363 272.389Z" fill="#EBEBEB"/>
<path d="M232.459 261.521C237.081 259.616 239.285 254.326 237.381 249.703C235.476 245.081 230.185 242.877 225.563 244.782C220.941 246.686 218.737 251.977 220.641 256.599C222.546 261.221 227.837 263.425 232.459 261.521Z" fill="#EBEBEB"/>
<path d="M208.65 245.592C209.45 240.657 206.097 236.008 201.162 235.209C196.227 234.41 191.579 237.762 190.779 242.697C189.98 247.632 193.333 252.281 198.268 253.08C203.203 253.879 207.851 250.527 208.65 245.592Z" fill="#EBEBEB"/>
<path d="M164.418 256.389C164.418 256.389 165.481 277.354 206.209 277.354C246.937 277.354 248 256.389 248 256.389H164.418Z" fill="#E0E0E0"/>
<path d="M126.809 270.17C126.809 270.17 113.541 247.301 131.948 229.092C131.948 229.092 136.749 232.222 136.62 236.439C136.492 240.655 131.47 241.706 132.556 245.222C133.642 248.738 138.396 252.23 135.301 255.091C132.205 257.953 135.803 260.569 135.593 264.132C135.382 267.694 126.809 270.17 126.809 270.17Z" fill="#E0E0E0"/>
<path d="M127.814 272.261C127.814 272.261 133.187 246.378 109.979 234.885C109.979 234.885 106.405 239.382 107.806 243.353C109.208 247.324 114.347 246.728 114.429 250.361C114.511 253.993 111.042 258.817 114.943 260.581C118.844 262.344 116.193 265.954 117.512 269.259C118.832 272.564 127.814 272.261 127.814 272.261Z" fill="#E0E0E0"/>
<path d="M107.455 260.287C107.455 260.287 107.899 277.352 124.812 277.352C141.724 277.352 142.168 260.287 142.168 260.287H107.455Z" fill="#EBEBEB"/>
<path d="M291.999 435.15C417.071 435.15 518.462 429.23 518.462 421.928C518.462 414.626 417.071 408.706 291.999 408.706C166.926 408.706 65.5352 414.626 65.5352 421.928C65.5352 429.23 166.926 435.15 291.999 435.15Z" fill="#F5F5F5"/>
<path d="M210.767 253.969C210.075 253.924 209.426 253.617 208.951 253.11C208.477 252.604 208.213 251.936 208.213 251.242C208.213 250.548 208.477 249.88 208.951 249.373C209.426 248.867 210.075 248.56 210.767 248.515C217.448 248.515 223.078 238.949 223.078 227.619C223.123 226.927 223.431 226.277 223.937 225.803C224.444 225.328 225.111 225.064 225.805 225.064C226.499 225.064 227.167 225.328 227.674 225.803C228.18 226.277 228.487 226.927 228.533 227.619C228.533 242.394 220.754 253.969 210.767 253.969Z" fill="#407BFF"/>
<path d="M251.984 253.969C251.292 253.924 250.642 253.617 250.168 253.11C249.694 252.604 249.43 251.936 249.43 251.242C249.43 250.548 249.694 249.88 250.168 249.373C250.642 248.867 251.292 248.56 251.984 248.515C258.665 248.515 264.295 238.949 264.295 227.619C264.34 226.927 264.647 226.277 265.154 225.803C265.66 225.328 266.328 225.064 267.022 225.064C267.716 225.064 268.384 225.328 268.891 225.803C269.397 226.277 269.704 226.927 269.75 227.619C269.808 242.394 261.947 253.969 251.984 253.969Z" fill="#407BFF"/>
<path d="M293.168 253.972C292.475 253.927 291.826 253.619 291.352 253.113C290.877 252.607 290.613 251.939 290.613 251.245C290.613 250.551 290.877 249.883 291.352 249.376C291.826 248.87 292.475 248.563 293.168 248.517C299.837 248.517 305.479 238.951 305.479 227.622C305.479 226.9 305.765 226.208 306.276 225.697C306.786 225.187 307.478 224.9 308.2 224.9C308.922 224.9 309.614 225.187 310.124 225.697C310.635 226.208 310.921 226.9 310.921 227.622C310.956 242.397 303.166 253.972 293.168 253.972Z" fill="#407BFF"/>
<path d="M334.423 253.972C334.05 253.996 333.676 253.944 333.324 253.818C332.972 253.692 332.649 253.495 332.376 253.239C332.103 252.984 331.886 252.675 331.737 252.332C331.588 251.989 331.512 251.619 331.512 251.245C331.512 250.871 331.588 250.501 331.737 250.158C331.886 249.814 332.103 249.506 332.376 249.25C332.649 248.994 332.972 248.797 333.324 248.671C333.676 248.545 334.05 248.493 334.423 248.517C341.093 248.517 346.734 238.951 346.734 227.622C346.734 226.9 347.021 226.208 347.531 225.697C348.042 225.187 348.734 224.9 349.456 224.9C350.177 224.9 350.87 225.187 351.38 225.697C351.89 226.208 352.177 226.9 352.177 227.622C352.177 242.397 344.375 253.972 334.423 253.972Z" fill="#407BFF"/>
<path d="M375.629 253.969C374.936 253.924 374.287 253.617 373.813 253.11C373.338 252.604 373.074 251.936 373.074 251.242C373.074 250.548 373.338 249.88 373.813 249.373C374.287 248.867 374.936 248.56 375.629 248.515C382.31 248.515 387.939 238.949 387.939 227.619C387.985 226.927 388.292 226.277 388.798 225.803C389.305 225.328 389.973 225.064 390.667 225.064C391.361 225.064 392.029 225.328 392.535 225.803C393.042 226.277 393.349 226.927 393.394 227.619C393.394 242.394 385.592 253.969 375.629 253.969Z" fill="#407BFF"/>
<path d="M416.848 253.969C416.155 253.924 415.506 253.617 415.031 253.11C414.557 252.604 414.293 251.936 414.293 251.242C414.293 250.548 414.557 249.88 415.031 249.373C415.506 248.867 416.155 248.56 416.848 248.515C423.517 248.515 429.158 238.949 429.158 227.619C429.204 226.927 429.511 226.277 430.017 225.803C430.524 225.328 431.192 225.064 431.886 225.064C432.579 225.064 433.247 225.328 433.754 225.803C434.26 226.277 434.567 226.927 434.613 227.619C434.613 242.394 426.811 253.969 416.848 253.969Z" fill="#407BFF"/>
<g opacity="0.3">
<path d="M210.767 253.973C210.075 253.928 209.426 253.621 208.951 253.114C208.477 252.608 208.213 251.94 208.213 251.246C208.213 250.552 208.477 249.884 208.951 249.377C209.426 248.871 210.075 248.564 210.767 248.518C217.448 248.518 223.078 238.953 223.078 227.623C223.123 226.93 223.431 226.281 223.937 225.807C224.444 225.332 225.111 225.068 225.805 225.068C226.499 225.068 227.167 225.332 227.674 225.807C228.18 226.281 228.487 226.93 228.533 227.623C228.533 242.398 220.754 253.973 210.767 253.973Z" fill="black"/>
<path d="M251.986 253.973C251.294 253.928 250.644 253.621 250.17 253.114C249.696 252.608 249.432 251.94 249.432 251.246C249.432 250.552 249.696 249.884 250.17 249.377C250.644 248.871 251.294 248.564 251.986 248.518C258.667 248.518 264.297 238.953 264.297 227.623C264.342 226.93 264.649 226.281 265.156 225.807C265.662 225.332 266.33 225.068 267.024 225.068C267.718 225.068 268.386 225.332 268.893 225.807C269.399 226.281 269.706 226.93 269.751 227.623C269.81 242.398 261.949 253.973 251.986 253.973Z" fill="black"/>
<path d="M293.172 253.973C292.479 253.928 291.83 253.62 291.356 253.114C290.881 252.608 290.617 251.94 290.617 251.246C290.617 250.552 290.881 249.884 291.356 249.377C291.83 248.871 292.479 248.564 293.172 248.518C299.841 248.518 305.482 238.952 305.482 227.623C305.482 226.901 305.769 226.209 306.28 225.698C306.79 225.188 307.482 224.901 308.204 224.901C308.926 224.901 309.618 225.188 310.128 225.698C310.639 226.209 310.925 226.901 310.925 227.623C310.96 242.398 303.17 253.973 293.172 253.973Z" fill="black"/>
<path d="M334.423 253.973C334.05 253.997 333.676 253.945 333.324 253.819C332.972 253.693 332.649 253.496 332.376 253.24C332.103 252.985 331.886 252.676 331.737 252.333C331.588 251.99 331.512 251.62 331.512 251.246C331.512 250.872 331.588 250.502 331.737 250.159C331.886 249.815 332.103 249.506 332.376 249.251C332.649 248.995 332.972 248.798 333.324 248.672C333.676 248.546 334.05 248.494 334.423 248.518C341.093 248.518 346.734 238.952 346.734 227.623C346.734 226.901 347.021 226.209 347.531 225.698C348.042 225.188 348.734 224.901 349.456 224.901C350.177 224.901 350.87 225.188 351.38 225.698C351.89 226.209 352.177 226.901 352.177 227.623C352.177 242.398 344.375 253.973 334.423 253.973Z" fill="black"/>
<path d="M375.631 253.973C374.938 253.928 374.289 253.621 373.815 253.114C373.34 252.608 373.076 251.94 373.076 251.246C373.076 250.552 373.34 249.884 373.815 249.377C374.289 248.871 374.938 248.564 375.631 248.518C382.312 248.518 387.941 238.953 387.941 227.623C387.987 226.93 388.294 226.281 388.8 225.807C389.307 225.332 389.975 225.068 390.669 225.068C391.363 225.068 392.031 225.332 392.537 225.807C393.044 226.281 393.351 226.93 393.396 227.623C393.396 242.398 385.594 253.973 375.631 253.973Z" fill="black"/>
<path d="M416.849 253.973C416.157 253.928 415.508 253.621 415.033 253.114C414.559 252.608 414.295 251.94 414.295 251.246C414.295 250.552 414.559 249.884 415.033 249.377C415.508 248.871 416.157 248.564 416.849 248.518C423.519 248.518 429.16 238.953 429.16 227.623C429.206 226.93 429.513 226.281 430.019 225.807C430.526 225.332 431.194 225.068 431.887 225.068C432.581 225.068 433.249 225.332 433.756 225.807C434.262 226.281 434.569 226.93 434.615 227.623C434.615 242.398 426.813 253.973 416.849 253.973Z" fill="black"/>
</g>
<path d="M184.942 230.412H450.288C453.846 230.483 457.255 231.85 459.876 234.256C462.498 236.663 464.151 239.943 464.526 243.482L479.219 409.139C479.398 410.801 479.222 412.482 478.702 414.071C478.183 415.66 477.332 417.121 476.205 418.357C475.079 419.592 473.703 420.574 472.169 421.238C470.635 421.903 468.977 422.233 467.306 422.209H201.948C198.392 422.133 194.985 420.764 192.364 418.359C189.744 415.953 188.089 412.676 187.71 409.139L173.028 243.482C172.847 241.819 173.022 240.137 173.541 238.547C174.06 236.957 174.911 235.496 176.037 234.26C177.164 233.024 178.541 232.042 180.076 231.378C181.611 230.715 183.269 230.385 184.942 230.412Z" fill="#407BFF"/>
<path opacity="0.4" d="M184.942 230.412H450.288C453.846 230.483 457.255 231.85 459.876 234.256C462.498 236.663 464.151 239.943 464.526 243.482L479.219 409.139C479.398 410.801 479.222 412.482 478.702 414.071C478.183 415.66 477.332 417.121 476.205 418.357C475.079 419.592 473.703 420.574 472.169 421.238C470.635 421.903 468.977 422.233 467.306 422.209H201.948C198.392 422.133 194.985 420.764 192.364 418.359C189.744 415.953 188.089 412.676 187.71 409.139L173.028 243.482C172.847 241.819 173.022 240.137 173.541 238.547C174.06 236.957 174.911 235.496 176.037 234.26C177.164 233.024 178.541 232.042 180.076 231.378C181.611 230.715 183.269 230.385 184.942 230.412Z" fill="#FAFAFA"/>
<path d="M448.08 230.412H182.723C179.213 230.454 175.849 231.827 173.313 234.253C170.776 236.679 169.255 239.978 169.057 243.482L161.582 409.14C161.493 410.827 161.749 412.515 162.335 414.1C162.921 415.685 163.825 417.134 164.991 418.358C166.156 419.581 167.56 420.554 169.114 421.216C170.669 421.879 172.343 422.217 174.033 422.21H439.414C442.924 422.168 446.287 420.795 448.824 418.369C451.36 415.943 452.881 412.644 453.079 409.14L460.566 243.482C460.654 241.792 460.395 240.102 459.806 238.515C459.217 236.929 458.311 235.479 457.142 234.255C455.972 233.031 454.566 232.059 453.008 231.398C451.45 230.738 449.773 230.402 448.08 230.412Z" fill="#407BFF"/>
<path opacity="0.2" d="M448.08 230.412H182.723C179.213 230.454 175.849 231.827 173.313 234.253C170.776 236.679 169.255 239.978 169.057 243.482L161.582 409.14C161.493 410.827 161.749 412.515 162.335 414.1C162.921 415.685 163.825 417.134 164.991 418.358C166.156 419.581 167.56 420.554 169.114 421.216C170.669 421.879 172.343 422.217 174.033 422.21H439.414C442.924 422.168 446.287 420.795 448.824 418.369C451.36 415.943 452.881 412.644 453.079 409.14L460.566 243.482C460.654 241.792 460.395 240.102 459.806 238.515C459.217 236.929 458.311 235.479 457.142 234.255C455.972 233.031 454.566 232.059 453.008 231.398C451.45 230.738 449.773 230.402 448.08 230.412Z" fill="#FAFAFA"/>
<path d="M187.592 378.432L193.771 241.624C193.845 240.282 194.427 239.019 195.399 238.09C196.371 237.162 197.66 236.638 199.004 236.625H431.237C431.884 236.621 432.526 236.749 433.122 237.002C433.718 237.255 434.256 237.626 434.704 238.095C435.151 238.563 435.498 239.117 435.723 239.724C435.949 240.331 436.048 240.978 436.014 241.624L429.824 378.432C429.75 379.774 429.168 381.037 428.196 381.966C427.224 382.894 425.935 383.418 424.591 383.431H192.369C191.722 383.435 191.081 383.307 190.484 383.054C189.888 382.801 189.35 382.43 188.903 381.962C188.456 381.494 188.109 380.939 187.883 380.332C187.658 379.725 187.559 379.079 187.592 378.432Z" fill="#407BFF"/>
<path opacity="0.1" d="M187.592 378.432L193.771 241.624C193.845 240.282 194.427 239.019 195.399 238.09C196.371 237.162 197.66 236.638 199.004 236.625H431.237C431.884 236.621 432.526 236.749 433.122 237.002C433.718 237.255 434.256 237.626 434.704 238.095C435.151 238.563 435.498 239.117 435.723 239.724C435.949 240.331 436.048 240.978 436.014 241.624L429.824 378.432C429.75 379.774 429.168 381.037 428.196 381.966C427.224 382.894 425.935 383.418 424.591 383.431H192.369C191.722 383.435 191.081 383.307 190.484 383.054C189.888 382.801 189.35 382.43 188.903 381.962C188.456 381.494 188.109 380.939 187.883 380.332C187.658 379.725 187.559 379.079 187.592 378.432Z" fill="#FAFAFA"/>
<path opacity="0.1" d="M181.042 389.599L187.524 245.935C187.599 244.526 188.208 243.198 189.229 242.224C190.249 241.249 191.603 240.701 193.014 240.691H436.892C437.572 240.685 438.245 240.818 438.871 241.083C439.497 241.347 440.063 241.737 440.532 242.229C441.002 242.72 441.365 243.303 441.601 243.94C441.837 244.577 441.94 245.256 441.903 245.935L435.409 389.599C435.335 391.007 434.727 392.334 433.71 393.311C432.692 394.287 431.341 394.839 429.931 394.855H186.029C185.35 394.859 184.677 394.724 184.052 394.458C183.427 394.192 182.864 393.801 182.396 393.308C181.929 392.815 181.567 392.232 181.334 391.594C181.101 390.956 181.002 390.277 181.042 389.599Z" fill="black"/>
<path d="M175.016 401.185L181.779 251.331C181.87 249.865 182.509 248.488 183.569 247.473C184.63 246.458 186.034 245.879 187.502 245.853H441.904C442.614 245.847 443.317 245.987 443.971 246.263C444.625 246.539 445.215 246.947 445.705 247.46C446.195 247.973 446.575 248.581 446.822 249.247C447.068 249.913 447.175 250.622 447.137 251.331L440.339 401.185C440.248 402.65 439.609 404.028 438.548 405.043C437.488 406.058 436.084 406.636 434.616 406.663H180.249C179.538 406.671 178.834 406.532 178.18 406.256C177.525 405.98 176.934 405.573 176.444 405.059C175.953 404.546 175.573 403.937 175.328 403.27C175.082 402.604 174.976 401.894 175.016 401.185Z" fill="#FAFAFA"/>
<path d="M416.811 254.835C416.333 254.836 415.859 254.739 415.42 254.55C414.98 254.361 414.584 254.084 414.256 253.736C413.928 253.388 413.674 252.976 413.511 252.527C413.348 252.077 413.278 251.599 413.307 251.121C413.352 250.184 413.753 249.299 414.428 248.648C415.103 247.997 416.002 247.628 416.94 247.617C417.418 247.616 417.891 247.713 418.331 247.903C418.77 248.092 419.166 248.369 419.495 248.717C419.823 249.065 420.077 249.476 420.24 249.926C420.403 250.376 420.472 250.854 420.444 251.331C420.399 252.269 419.998 253.153 419.323 253.804C418.648 254.456 417.749 254.825 416.811 254.835Z" fill="#407BFF"/>
<path d="M375.596 254.835C375.118 254.836 374.644 254.739 374.205 254.55C373.765 254.361 373.369 254.084 373.041 253.736C372.713 253.388 372.459 252.976 372.296 252.527C372.133 252.077 372.064 251.599 372.092 251.121C372.137 250.184 372.538 249.299 373.213 248.648C373.888 247.997 374.787 247.628 375.725 247.617C376.203 247.616 376.677 247.713 377.116 247.903C377.555 248.092 377.952 248.369 378.28 248.717C378.608 249.065 378.862 249.476 379.025 249.926C379.188 250.376 379.257 250.854 379.229 251.331C379.187 252.269 378.787 253.156 378.111 253.808C377.435 254.46 376.535 254.827 375.596 254.835Z" fill="#407BFF"/>
<path d="M334.376 254.835C333.897 254.836 333.424 254.739 332.984 254.55C332.545 254.361 332.149 254.084 331.82 253.736C331.492 253.388 331.239 252.976 331.075 252.527C330.912 252.077 330.843 251.599 330.872 251.121C330.919 250.185 331.321 249.302 331.995 248.651C332.67 248.001 333.567 247.631 334.504 247.617C334.982 247.616 335.456 247.713 335.895 247.903C336.335 248.092 336.731 248.369 337.059 248.717C337.387 249.065 337.641 249.476 337.804 249.926C337.967 250.376 338.037 250.854 338.008 251.331C337.966 252.269 337.566 253.156 336.89 253.808C336.215 254.46 335.314 254.827 334.376 254.835Z" fill="#407BFF"/>
<path d="M293.169 254.835C292.69 254.836 292.217 254.739 291.777 254.55C291.338 254.361 290.942 254.084 290.613 253.736C290.285 253.388 290.032 252.976 289.868 252.527C289.705 252.077 289.636 251.599 289.665 251.121C289.715 250.184 290.119 249.301 290.796 248.65C291.472 248 292.37 247.631 293.309 247.617C293.787 247.616 294.261 247.713 294.7 247.903C295.139 248.092 295.535 248.369 295.864 248.717C296.192 249.065 296.446 249.476 296.609 249.926C296.772 250.376 296.841 250.854 296.813 251.331C296.771 252.271 296.369 253.159 295.691 253.812C295.013 254.464 294.109 254.83 293.169 254.835Z" fill="#407BFF"/>
<path d="M251.95 254.835C251.471 254.836 250.998 254.739 250.558 254.55C250.119 254.361 249.723 254.084 249.395 253.736C249.066 253.388 248.813 252.976 248.65 252.527C248.486 252.077 248.417 251.599 248.446 251.121C248.49 250.184 248.891 249.299 249.566 248.648C250.242 247.997 251.14 247.628 252.078 247.617C252.557 247.616 253.03 247.713 253.47 247.903C253.909 248.092 254.305 248.369 254.633 248.717C254.962 249.065 255.215 249.476 255.378 249.926C255.542 250.376 255.611 250.854 255.582 251.331C255.538 252.269 255.137 253.153 254.462 253.804C253.786 254.456 252.888 254.825 251.95 254.835Z" fill="#407BFF"/>
<path d="M210.731 254.835C210.253 254.836 209.779 254.739 209.34 254.55C208.9 254.361 208.504 254.084 208.176 253.736C207.848 253.388 207.594 252.976 207.431 252.527C207.268 252.077 207.198 251.599 207.227 251.121C207.272 250.184 207.673 249.299 208.348 248.648C209.023 247.997 209.921 247.628 210.859 247.617C211.338 247.616 211.811 247.713 212.251 247.903C212.69 248.092 213.086 248.369 213.415 248.717C213.743 249.065 213.996 249.476 214.16 249.926C214.323 250.376 214.392 250.854 214.363 251.331C214.322 252.269 213.922 253.156 213.246 253.808C212.57 254.46 211.67 254.827 210.731 254.835Z" fill="#407BFF"/>
<g opacity="0.1">
<path d="M416.811 254.834C416.333 254.835 415.859 254.738 415.42 254.549C414.98 254.36 414.584 254.083 414.256 253.735C413.928 253.387 413.674 252.975 413.511 252.526C413.348 252.076 413.278 251.598 413.307 251.12C413.352 250.183 413.753 249.298 414.428 248.647C415.103 247.996 416.002 247.627 416.94 247.616C417.418 247.615 417.891 247.712 418.331 247.902C418.77 248.091 419.166 248.368 419.495 248.716C419.823 249.064 420.077 249.475 420.24 249.925C420.403 250.375 420.472 250.853 420.444 251.33C420.399 252.268 419.998 253.152 419.323 253.804C418.648 254.455 417.749 254.824 416.811 254.834Z" fill="#FAFAFA"/>
<path d="M375.592 254.834C375.114 254.835 374.64 254.738 374.201 254.549C373.762 254.36 373.366 254.083 373.037 253.735C372.709 253.387 372.455 252.975 372.292 252.526C372.129 252.076 372.06 251.598 372.088 251.12C372.133 250.183 372.534 249.298 373.209 248.647C373.884 247.996 374.783 247.627 375.721 247.616C376.199 247.615 376.673 247.712 377.112 247.902C377.552 248.091 377.948 248.368 378.276 248.716C378.604 249.064 378.858 249.475 379.021 249.925C379.184 250.375 379.254 250.853 379.225 251.33C379.183 252.268 378.783 253.155 378.107 253.807C377.431 254.459 376.531 254.826 375.592 254.834Z" fill="#FAFAFA"/>
<path d="M334.374 254.834C333.895 254.835 333.422 254.738 332.982 254.549C332.543 254.36 332.147 254.083 331.818 253.735C331.49 253.387 331.237 252.975 331.073 252.526C330.91 252.076 330.841 251.598 330.87 251.12C330.917 250.184 331.319 249.301 331.993 248.65C332.668 248 333.565 247.63 334.502 247.616C334.98 247.615 335.454 247.712 335.893 247.902C336.333 248.091 336.729 248.368 337.057 248.716C337.385 249.064 337.639 249.475 337.802 249.925C337.965 250.375 338.035 250.853 338.006 251.33C337.964 252.268 337.564 253.155 336.888 253.807C336.213 254.459 335.313 254.826 334.374 254.834Z" fill="#FAFAFA"/>
<path d="M293.165 254.834C292.686 254.835 292.213 254.738 291.773 254.549C291.334 254.36 290.938 254.083 290.61 253.735C290.281 253.387 290.028 252.975 289.864 252.526C289.701 252.076 289.632 251.598 289.661 251.12C289.711 250.183 290.115 249.3 290.792 248.649C291.468 247.999 292.366 247.63 293.305 247.616C293.783 247.615 294.257 247.712 294.696 247.902C295.136 248.091 295.532 248.368 295.86 248.716C296.188 249.064 296.442 249.475 296.605 249.925C296.768 250.375 296.837 250.853 296.809 251.33C296.767 252.27 296.365 253.158 295.687 253.811C295.009 254.463 294.106 254.829 293.165 254.834Z" fill="#FAFAFA"/>
<path d="M251.948 254.834C251.469 254.835 250.996 254.738 250.556 254.549C250.117 254.36 249.721 254.083 249.393 253.735C249.064 253.387 248.811 252.975 248.648 252.526C248.484 252.076 248.415 251.598 248.444 251.12C248.488 250.183 248.889 249.298 249.565 248.647C250.24 247.996 251.138 247.627 252.076 247.616C252.555 247.615 253.028 247.712 253.468 247.902C253.907 248.091 254.303 248.368 254.631 248.716C254.96 249.064 255.213 249.475 255.376 249.925C255.54 250.375 255.609 250.853 255.58 251.33C255.536 252.268 255.135 253.152 254.46 253.804C253.784 254.455 252.886 254.824 251.948 254.834Z" fill="#FAFAFA"/>
<path d="M210.729 254.834C210.251 254.835 209.777 254.738 209.338 254.549C208.898 254.36 208.502 254.083 208.174 253.735C207.846 253.387 207.592 252.975 207.429 252.526C207.266 252.076 207.196 251.598 207.225 251.12C207.27 250.183 207.671 249.298 208.346 248.647C209.021 247.996 209.919 247.627 210.858 247.616C211.336 247.615 211.809 247.712 212.249 247.902C212.688 248.091 213.084 248.368 213.413 248.716C213.741 249.064 213.994 249.475 214.158 249.925C214.321 250.375 214.39 250.853 214.362 251.33C214.32 252.268 213.92 253.155 213.244 253.807C212.568 254.459 211.668 254.826 210.729 254.834Z" fill="#FAFAFA"/>
</g>
<path d="M221.034 267.894H200.302C200.001 267.896 199.703 267.836 199.427 267.718C199.151 267.599 198.902 267.425 198.697 267.205C198.492 266.986 198.334 266.726 198.234 266.442C198.135 266.159 198.095 265.857 198.117 265.558C198.141 264.946 198.394 264.365 198.827 263.932C199.261 263.498 199.841 263.245 200.453 263.222H221.185C221.486 263.219 221.784 263.279 222.06 263.398C222.336 263.516 222.585 263.691 222.79 263.91C222.996 264.13 223.153 264.39 223.253 264.673C223.352 264.957 223.392 265.258 223.37 265.558C223.347 266.17 223.093 266.751 222.66 267.184C222.227 267.617 221.646 267.871 221.034 267.894Z" fill="#407BFF"/>
<path d="M262.25 267.894H241.518C241.218 267.896 240.92 267.836 240.644 267.718C240.368 267.599 240.119 267.425 239.914 267.205C239.708 266.986 239.551 266.726 239.451 266.442C239.351 266.159 239.312 265.857 239.334 265.558C239.358 264.936 239.62 264.347 240.065 263.912C240.511 263.477 241.106 263.23 241.729 263.222H262.449C262.75 263.219 263.048 263.279 263.325 263.398C263.602 263.516 263.851 263.691 264.057 263.91C264.264 264.129 264.422 264.389 264.523 264.672C264.624 264.956 264.666 265.257 264.645 265.558C264.621 266.18 264.359 266.769 263.914 267.203C263.468 267.638 262.873 267.885 262.25 267.894Z" fill="#407BFF"/>
<path d="M303.468 267.894H282.736C282.435 267.896 282.137 267.836 281.86 267.718C281.583 267.599 281.334 267.425 281.128 267.206C280.922 266.986 280.763 266.727 280.662 266.443C280.561 266.16 280.52 265.858 280.54 265.558C280.564 264.936 280.826 264.347 281.272 263.912C281.717 263.477 282.312 263.23 282.935 263.222H303.679C303.979 263.219 304.277 263.279 304.553 263.398C304.829 263.516 305.078 263.691 305.283 263.91C305.489 264.13 305.646 264.39 305.746 264.673C305.845 264.957 305.885 265.258 305.863 265.558C305.842 266.181 305.581 266.771 305.135 267.207C304.689 267.642 304.092 267.888 303.468 267.894Z" fill="#407BFF"/>
<path d="M344.678 267.894H323.946C323.646 267.896 323.348 267.836 323.072 267.718C322.795 267.599 322.547 267.425 322.341 267.205C322.136 266.986 321.979 266.726 321.879 266.442C321.779 266.159 321.739 265.857 321.762 265.558C321.785 264.946 322.039 264.365 322.472 263.932C322.905 263.498 323.486 263.245 324.098 263.222H344.83C345.131 263.219 345.428 263.279 345.705 263.398C345.981 263.516 346.229 263.691 346.435 263.91C346.64 264.13 346.798 264.39 346.897 264.673C346.997 264.957 347.037 265.258 347.014 265.558C346.991 266.17 346.738 266.751 346.304 267.184C345.871 267.617 345.29 267.871 344.678 267.894Z" fill="#407BFF"/>
<path d="M385.895 267.894H365.163C364.862 267.896 364.565 267.836 364.288 267.718C364.012 267.599 363.764 267.425 363.558 267.205C363.353 266.986 363.195 266.726 363.096 266.442C362.996 266.159 362.956 265.857 362.979 265.558C363.003 264.936 363.264 264.347 363.71 263.912C364.155 263.477 364.751 263.23 365.373 263.222H386.105C386.406 263.219 386.704 263.279 386.98 263.398C387.256 263.516 387.505 263.691 387.71 263.91C387.915 264.13 388.073 264.39 388.172 264.673C388.272 264.957 388.312 265.258 388.289 265.558C388.266 266.18 388.004 266.769 387.558 267.203C387.113 267.638 386.517 267.885 385.895 267.894Z" fill="#407BFF"/>
<path d="M427.114 267.894H406.382C406.081 267.896 405.783 267.836 405.507 267.718C405.231 267.599 404.982 267.425 404.777 267.205C404.572 266.986 404.414 266.726 404.314 266.442C404.215 266.159 404.175 265.857 404.198 265.558C404.221 264.936 404.483 264.347 404.929 263.912C405.374 263.477 405.97 263.23 406.592 263.222H427.312C427.613 263.219 427.912 263.279 428.188 263.398C428.465 263.516 428.714 263.691 428.921 263.91C429.127 264.129 429.286 264.389 429.387 264.672C429.488 264.956 429.529 265.257 429.508 265.558C429.484 266.18 429.223 266.769 428.777 267.203C428.331 267.638 427.736 267.885 427.114 267.894Z" fill="#407BFF"/>
<g opacity="0.3">
<path d="M221.034 267.894H200.302C200.001 267.896 199.703 267.836 199.427 267.718C199.151 267.599 198.902 267.425 198.697 267.205C198.492 266.986 198.334 266.726 198.234 266.442C198.135 266.159 198.095 265.857 198.117 265.558C198.141 264.946 198.394 264.365 198.827 263.932C199.261 263.498 199.841 263.245 200.453 263.222H221.185C221.486 263.219 221.784 263.279 222.06 263.398C222.336 263.516 222.585 263.691 222.79 263.91C222.996 264.13 223.153 264.39 223.253 264.673C223.352 264.957 223.392 265.258 223.37 265.558C223.347 266.17 223.093 266.751 222.66 267.184C222.227 267.617 221.646 267.871 221.034 267.894Z" fill="black"/>
<path d="M262.252 267.894H241.52C241.22 267.896 240.922 267.836 240.646 267.718C240.37 267.599 240.121 267.425 239.916 267.205C239.71 266.986 239.553 266.726 239.453 266.442C239.353 266.159 239.314 265.857 239.336 265.558C239.36 264.936 239.622 264.347 240.067 263.912C240.513 263.477 241.108 263.23 241.731 263.222H262.451C262.752 263.219 263.05 263.279 263.327 263.398C263.604 263.516 263.853 263.691 264.059 263.91C264.266 264.129 264.424 264.389 264.525 264.672C264.626 264.956 264.668 265.257 264.647 265.558C264.623 266.18 264.361 266.769 263.916 267.203C263.47 267.638 262.875 267.885 262.252 267.894Z" fill="black"/>
<path d="M303.472 267.894H282.74C282.439 267.896 282.141 267.836 281.864 267.718C281.587 267.599 281.338 267.425 281.132 267.206C280.926 266.986 280.767 266.727 280.666 266.443C280.565 266.16 280.523 265.858 280.544 265.558C280.568 264.936 280.83 264.347 281.275 263.912C281.721 263.477 282.316 263.23 282.939 263.222H303.682C303.983 263.219 304.281 263.279 304.557 263.398C304.833 263.516 305.082 263.691 305.287 263.91C305.492 264.13 305.65 264.39 305.75 264.673C305.849 264.957 305.889 265.258 305.867 265.558C305.846 266.181 305.585 266.771 305.139 267.207C304.692 267.642 304.095 267.888 303.472 267.894Z" fill="black"/>
<path d="M344.678 267.894H323.946C323.646 267.896 323.348 267.836 323.072 267.718C322.795 267.599 322.547 267.425 322.341 267.205C322.136 266.986 321.979 266.726 321.879 266.442C321.779 266.159 321.739 265.857 321.762 265.558C321.785 264.946 322.039 264.365 322.472 263.932C322.905 263.498 323.486 263.245 324.098 263.222H344.83C345.131 263.219 345.428 263.279 345.705 263.398C345.981 263.516 346.229 263.691 346.435 263.91C346.64 264.13 346.798 264.39 346.897 264.673C346.997 264.957 347.037 265.258 347.014 265.558C346.991 266.17 346.738 266.751 346.304 267.184C345.871 267.617 345.29 267.871 344.678 267.894Z" fill="black"/>
<path d="M385.897 267.894H365.165C364.864 267.896 364.567 267.836 364.29 267.718C364.014 267.599 363.766 267.425 363.56 267.205C363.355 266.986 363.197 266.726 363.098 266.442C362.998 266.159 362.958 265.857 362.981 265.558C363.005 264.936 363.266 264.347 363.712 263.912C364.157 263.477 364.753 263.23 365.375 263.222H386.107C386.408 263.219 386.706 263.279 386.982 263.398C387.258 263.516 387.507 263.691 387.712 263.91C387.917 264.13 388.075 264.39 388.174 264.673C388.274 264.957 388.314 265.258 388.291 265.558C388.267 266.18 388.006 266.769 387.56 267.203C387.115 267.638 386.519 267.885 385.897 267.894Z" fill="black"/>
<path d="M427.116 267.894H406.384C406.083 267.896 405.785 267.836 405.509 267.718C405.233 267.599 404.984 267.425 404.779 267.205C404.574 266.986 404.416 266.726 404.316 266.442C404.217 266.159 404.177 265.857 404.2 265.558C404.223 264.936 404.485 264.347 404.931 263.912C405.376 263.477 405.972 263.23 406.594 263.222H427.314C427.615 263.219 427.914 263.279 428.19 263.398C428.467 263.516 428.716 263.691 428.923 263.91C429.129 264.129 429.287 264.389 429.389 264.672C429.49 264.956 429.531 265.257 429.51 265.558C429.486 266.18 429.224 266.769 428.779 267.203C428.333 267.638 427.738 267.885 427.116 267.894Z" fill="black"/>
</g>
<path d="M222.179 312.009H195.175C194.582 312.011 193.996 311.893 193.451 311.661C192.906 311.429 192.414 311.088 192.005 310.66C191.596 310.231 191.279 309.724 191.073 309.169C190.867 308.613 190.776 308.022 190.806 307.43L191.974 280.426C192.045 279.199 192.579 278.044 193.467 277.194C194.356 276.345 195.534 275.863 196.763 275.848H223.767C224.36 275.845 224.946 275.964 225.491 276.196C226.036 276.428 226.528 276.768 226.937 277.197C227.346 277.625 227.663 278.133 227.869 278.688C228.075 279.243 228.166 279.835 228.136 280.426L226.968 307.43C226.894 308.657 226.36 309.81 225.472 310.659C224.584 311.508 223.407 311.991 222.179 312.009Z" fill="#407BFF"/>
<path d="M263.394 312.009H236.39C235.797 312.013 235.21 311.896 234.664 311.664C234.119 311.433 233.626 311.092 233.217 310.663C232.808 310.235 232.491 309.726 232.285 309.17C232.08 308.614 231.99 308.022 232.022 307.43L233.19 280.426C233.261 279.199 233.794 278.044 234.683 277.194C235.572 276.345 236.749 275.863 237.979 275.848H265.018C265.611 275.845 266.198 275.964 266.743 276.196C267.289 276.428 267.781 276.768 268.191 277.196C268.601 277.625 268.919 278.132 269.127 278.687C269.334 279.242 269.426 279.834 269.398 280.426L268.172 307.43C268.104 308.657 267.573 309.812 266.686 310.662C265.799 311.512 264.623 311.993 263.394 312.009Z" fill="#407BFF"/>
<path d="M304.604 312.009H277.612C277.019 312.011 276.432 311.893 275.886 311.661C275.341 311.429 274.848 311.089 274.438 310.66C274.029 310.232 273.71 309.725 273.503 309.17C273.295 308.614 273.203 308.023 273.232 307.43L274.4 280.426C274.47 279.199 275.004 278.044 275.893 277.194C276.781 276.345 277.959 275.863 279.188 275.848H306.181C306.774 275.844 307.361 275.961 307.907 276.192C308.452 276.424 308.945 276.764 309.354 277.193C309.763 277.622 310.081 278.13 310.286 278.686C310.492 279.242 310.581 279.834 310.549 280.426L309.381 307.43C309.311 308.656 308.779 309.809 307.892 310.659C307.006 311.508 305.831 311.99 304.604 312.009Z" fill="#407BFF"/>
<path d="M345.822 312.009H318.864C318.271 312.013 317.683 311.896 317.137 311.664C316.59 311.433 316.097 311.093 315.687 310.664C315.277 310.235 314.959 309.727 314.752 309.171C314.545 308.615 314.454 308.023 314.484 307.43L315.652 280.426C315.72 279.2 316.251 278.045 317.138 277.195C318.025 276.345 319.201 275.864 320.429 275.848H347.433C348.026 275.845 348.612 275.964 349.157 276.196C349.702 276.428 350.194 276.768 350.603 277.197C351.012 277.625 351.329 278.133 351.535 278.688C351.741 279.243 351.832 279.835 351.802 280.426L350.634 307.43C350.563 308.662 350.026 309.82 349.132 310.67C348.239 311.521 347.055 311.999 345.822 312.009Z" fill="#407BFF"/>
<path d="M387.038 312.009H360.034C359.442 312.011 358.855 311.893 358.31 311.661C357.765 311.429 357.273 311.088 356.865 310.66C356.456 310.231 356.139 309.724 355.933 309.169C355.726 308.613 355.636 308.022 355.666 307.43L356.834 280.426C356.905 279.199 357.438 278.044 358.327 277.194C359.215 276.345 360.393 275.863 361.623 275.848H388.615C389.208 275.844 389.796 275.961 390.342 276.192C390.889 276.424 391.382 276.764 391.792 277.193C392.202 277.621 392.521 278.129 392.727 278.685C392.934 279.241 393.025 279.834 392.995 280.426L391.827 307.43C391.754 308.657 391.219 309.81 390.331 310.659C389.443 311.509 388.267 311.991 387.038 312.009Z" fill="#407BFF"/>
<path d="M428.246 312.009H401.254C400.661 312.013 400.073 311.896 399.528 311.664C398.982 311.433 398.489 311.092 398.08 310.663C397.671 310.235 397.354 309.726 397.148 309.17C396.943 308.614 396.853 308.022 396.885 307.43L398.053 280.426C398.124 279.199 398.658 278.044 399.546 277.194C400.435 276.345 401.613 275.863 402.842 275.848H429.835C430.427 275.845 431.014 275.964 431.56 276.196C432.105 276.428 432.598 276.768 433.008 277.196C433.418 277.625 433.736 278.132 433.943 278.687C434.151 279.242 434.243 279.834 434.215 280.426L432.988 307.43C432.921 308.651 432.395 309.801 431.515 310.65C430.636 311.499 429.468 311.984 428.246 312.009Z" fill="#407BFF"/>
<g opacity="0.8">
<path d="M222.177 312.008H195.173C194.581 312.01 193.994 311.892 193.449 311.66C192.904 311.428 192.412 311.087 192.003 310.659C191.594 310.23 191.277 309.723 191.071 309.168C190.865 308.612 190.774 308.021 190.804 307.429L191.972 280.425C192.043 279.198 192.577 278.043 193.466 277.193C194.354 276.344 195.532 275.862 196.761 275.847H223.765C224.358 275.844 224.944 275.963 225.489 276.195C226.034 276.427 226.526 276.767 226.935 277.196C227.344 277.624 227.661 278.132 227.867 278.687C228.073 279.242 228.164 279.834 228.134 280.425L226.966 307.429C226.892 308.656 226.358 309.809 225.47 310.658C224.582 311.507 223.406 311.99 222.177 312.008Z" fill="#FAFAFA"/>
<path d="M263.396 312.008H236.392C235.799 312.012 235.212 311.895 234.666 311.663C234.121 311.432 233.628 311.091 233.219 310.662C232.81 310.234 232.493 309.725 232.287 309.169C232.082 308.613 231.992 308.021 232.024 307.429L233.192 280.425C233.263 279.198 233.796 278.043 234.685 277.193C235.574 276.344 236.751 275.862 237.981 275.847H265.02C265.613 275.844 266.2 275.963 266.745 276.195C267.291 276.427 267.783 276.767 268.193 277.195C268.603 277.624 268.921 278.131 269.129 278.686C269.336 279.241 269.428 279.833 269.4 280.425L268.173 307.429C268.106 308.656 267.574 309.811 266.688 310.661C265.801 311.511 264.625 311.992 263.396 312.008Z" fill="#FAFAFA"/>
<path d="M304.604 312.008H277.612C277.019 312.01 276.432 311.892 275.886 311.66C275.341 311.428 274.848 311.088 274.438 310.659C274.029 310.231 273.71 309.724 273.503 309.169C273.295 308.613 273.203 308.022 273.232 307.429L274.4 280.425C274.47 279.198 275.004 278.043 275.893 277.193C276.781 276.344 277.959 275.862 279.188 275.847H306.181C306.774 275.843 307.361 275.96 307.907 276.191C308.452 276.423 308.945 276.763 309.354 277.192C309.763 277.621 310.081 278.129 310.286 278.685C310.492 279.241 310.581 279.833 310.549 280.425L309.381 307.429C309.311 308.655 308.779 309.808 307.892 310.658C307.006 311.507 305.831 311.989 304.604 312.008Z" fill="#FAFAFA"/>
<path d="M345.822 312.008H318.864C318.271 312.012 317.683 311.895 317.137 311.663C316.59 311.432 316.097 311.092 315.687 310.663C315.277 310.234 314.959 309.726 314.752 309.17C314.545 308.614 314.454 308.022 314.484 307.429L315.652 280.425C315.72 279.199 316.251 278.044 317.138 277.194C318.025 276.344 319.201 275.863 320.429 275.847H347.433C348.026 275.844 348.612 275.963 349.157 276.195C349.702 276.427 350.194 276.767 350.603 277.196C351.012 277.624 351.329 278.132 351.535 278.687C351.741 279.242 351.832 279.834 351.802 280.425L350.634 307.429C350.563 308.661 350.026 309.819 349.132 310.669C348.239 311.52 347.055 311.998 345.822 312.008Z" fill="#FAFAFA"/>
<path d="M387.04 312.008H360.036C359.444 312.01 358.857 311.892 358.312 311.66C357.767 311.428 357.275 311.087 356.867 310.659C356.458 310.23 356.141 309.723 355.934 309.168C355.728 308.612 355.638 308.021 355.668 307.429L356.836 280.425C356.907 279.198 357.44 278.043 358.329 277.193C359.217 276.344 360.395 275.862 361.625 275.847H388.617C389.21 275.843 389.798 275.96 390.344 276.191C390.891 276.423 391.384 276.763 391.794 277.192C392.204 277.62 392.523 278.128 392.729 278.684C392.936 279.24 393.027 279.833 392.997 280.425L391.829 307.429C391.756 308.656 391.221 309.809 390.333 310.658C389.445 311.508 388.269 311.99 387.04 312.008Z" fill="#FAFAFA"/>
<path d="M428.248 312.008H401.255C400.663 312.012 400.075 311.895 399.53 311.663C398.984 311.432 398.491 311.091 398.082 310.662C397.673 310.234 397.356 309.725 397.15 309.169C396.945 308.613 396.855 308.021 396.887 307.429L398.055 280.425C398.126 279.198 398.66 278.043 399.548 277.193C400.437 276.344 401.615 275.862 402.844 275.847H429.836C430.429 275.844 431.016 275.963 431.562 276.195C432.107 276.427 432.6 276.767 433.01 277.195C433.42 277.624 433.738 278.131 433.945 278.686C434.153 279.241 434.245 279.833 434.216 280.425L432.99 307.429C432.923 308.65 432.396 309.8 431.517 310.649C430.638 311.498 429.47 311.983 428.248 312.008Z" fill="#FAFAFA"/>
</g>
<path d="M220.286 353.904H193.282C192.69 353.907 192.103 353.788 191.558 353.556C191.013 353.324 190.522 352.984 190.113 352.555C189.704 352.127 189.387 351.619 189.181 351.064C188.974 350.509 188.884 349.917 188.914 349.326L190.082 322.322C190.155 321.095 190.69 319.942 191.578 319.093C192.466 318.244 193.642 317.762 194.871 317.743H221.922C222.514 317.741 223.1 317.859 223.645 318.091C224.19 318.323 224.682 318.664 225.091 319.092C225.5 319.521 225.817 320.028 226.023 320.584C226.229 321.139 226.32 321.73 226.29 322.322L225.122 349.326C225.048 350.56 224.507 351.72 223.609 352.571C222.711 353.421 221.523 353.898 220.286 353.904Z" fill="#407BFF"/>
<path d="M261.503 353.905H234.499C233.907 353.907 233.32 353.788 232.775 353.556C232.23 353.324 231.738 352.984 231.33 352.555C230.921 352.127 230.603 351.619 230.397 351.064C230.191 350.509 230.1 349.917 230.131 349.326L231.299 322.322C231.369 321.094 231.903 319.939 232.792 319.09C233.68 318.24 234.858 317.759 236.087 317.743H263.08C263.678 317.739 264.27 317.858 264.82 318.092C265.371 318.326 265.867 318.67 266.279 319.104C266.69 319.537 267.009 320.051 267.214 320.612C267.419 321.174 267.507 321.772 267.472 322.369L266.304 349.326C266.235 350.556 265.701 351.715 264.809 352.565C263.918 353.416 262.735 353.895 261.503 353.905Z" fill="#407BFF"/>
<path d="M302.711 353.905H275.718C275.126 353.909 274.538 353.791 273.993 353.56C273.447 353.328 272.954 352.988 272.545 352.559C272.136 352.13 271.819 351.622 271.613 351.066C271.408 350.51 271.318 349.918 271.35 349.326L272.518 322.322C272.589 321.094 273.122 319.939 274.011 319.09C274.9 318.24 276.077 317.759 277.307 317.743H304.299C304.892 317.739 305.479 317.856 306.025 318.088C306.571 318.319 307.063 318.66 307.473 319.089C307.882 319.518 308.199 320.026 308.404 320.582C308.61 321.138 308.7 321.73 308.668 322.322L307.5 349.326C307.429 350.553 306.895 351.708 306.007 352.558C305.118 353.408 303.94 353.889 302.711 353.905Z" fill="#407BFF"/>
<path d="M343.932 353.905H316.94C316.347 353.907 315.76 353.789 315.214 353.557C314.669 353.325 314.176 352.985 313.766 352.557C313.357 352.128 313.038 351.621 312.831 351.066C312.623 350.51 312.531 349.919 312.56 349.327L313.728 322.322C313.796 321.096 314.327 319.941 315.214 319.091C316.1 318.241 317.277 317.76 318.505 317.744H345.509C346.11 317.733 346.707 317.847 347.263 318.078C347.818 318.309 348.319 318.653 348.735 319.087C349.151 319.522 349.472 320.038 349.679 320.603C349.885 321.167 349.973 321.769 349.936 322.369L348.768 349.373C348.685 350.6 348.14 351.75 347.242 352.592C346.345 353.433 345.162 353.902 343.932 353.905Z" fill="#407BFF"/>
<path d="M385.148 353.905H358.143C357.551 353.908 356.965 353.789 356.42 353.557C355.875 353.325 355.383 352.985 354.974 352.556C354.565 352.128 354.248 351.62 354.042 351.065C353.836 350.51 353.745 349.918 353.775 349.327L354.943 322.323C355.005 321.086 355.536 319.919 356.428 319.06C357.32 318.201 358.505 317.714 359.744 317.697H386.748C387.34 317.695 387.927 317.813 388.472 318.045C389.016 318.277 389.508 318.618 389.917 319.047C390.326 319.475 390.643 319.982 390.849 320.538C391.056 321.093 391.146 321.684 391.116 322.276L389.948 349.28C389.886 350.517 389.355 351.683 388.463 352.543C387.571 353.402 386.386 353.889 385.148 353.905Z" fill="#407BFF"/>
<path d="M426.318 353.904H399.361C398.768 353.909 398.181 353.791 397.635 353.56C397.089 353.328 396.597 352.988 396.188 352.559C395.778 352.13 395.461 351.622 395.256 351.066C395.05 350.51 394.961 349.918 394.993 349.326L396.161 322.322C396.231 321.094 396.765 319.939 397.654 319.09C398.542 318.24 399.72 317.759 400.949 317.743H427.942C428.535 317.741 429.122 317.859 429.667 318.091C430.213 318.323 430.705 318.663 431.115 319.092C431.525 319.52 431.843 320.027 432.051 320.583C432.258 321.138 432.35 321.73 432.322 322.322L431.096 349.326C431.028 350.552 430.497 351.707 429.61 352.557C428.723 353.407 427.547 353.889 426.318 353.904Z" fill="#407BFF"/>
<g opacity="0.8">
<path d="M220.282 353.905H193.278C192.686 353.908 192.099 353.789 191.555 353.557C191.01 353.325 190.518 352.985 190.109 352.556C189.7 352.128 189.383 351.62 189.177 351.065C188.971 350.51 188.88 349.918 188.91 349.327L190.078 322.323C190.151 321.096 190.686 319.943 191.574 319.094C192.462 318.245 193.638 317.763 194.867 317.744H221.918C222.51 317.742 223.096 317.86 223.641 318.092C224.186 318.324 224.678 318.665 225.087 319.093C225.496 319.522 225.813 320.029 226.019 320.585C226.225 321.14 226.316 321.731 226.286 322.323L225.118 349.327C225.044 350.561 224.503 351.721 223.605 352.572C222.707 353.422 221.519 353.899 220.282 353.905Z" fill="#FAFAFA"/>
<path d="M261.501 353.906H234.497C233.905 353.908 233.318 353.789 232.773 353.557C232.228 353.325 231.736 352.985 231.328 352.556C230.919 352.128 230.602 351.62 230.395 351.065C230.189 350.51 230.099 349.918 230.129 349.327L231.297 322.323C231.368 321.095 231.901 319.94 232.79 319.091C233.678 318.241 234.856 317.76 236.086 317.744H263.078C263.676 317.74 264.268 317.859 264.818 318.093C265.369 318.327 265.865 318.671 266.277 319.105C266.688 319.538 267.007 320.052 267.212 320.613C267.417 321.175 267.505 321.773 267.47 322.37L266.302 349.327C266.233 350.557 265.699 351.716 264.807 352.566C263.916 353.417 262.733 353.896 261.501 353.906Z" fill="#FAFAFA"/>
<path d="M302.707 353.906H275.714C275.122 353.91 274.534 353.792 273.989 353.561C273.443 353.329 272.95 352.989 272.541 352.56C272.132 352.131 271.815 351.623 271.609 351.067C271.404 350.511 271.314 349.919 271.346 349.327L272.514 322.323C272.585 321.095 273.118 319.94 274.007 319.091C274.896 318.241 276.074 317.76 277.303 317.744H304.295C304.888 317.74 305.475 317.857 306.021 318.089C306.567 318.32 307.06 318.661 307.469 319.09C307.878 319.519 308.195 320.027 308.401 320.583C308.606 321.139 308.696 321.731 308.664 322.323L307.496 349.327C307.425 350.554 306.891 351.709 306.003 352.559C305.114 353.409 303.936 353.89 302.707 353.906Z" fill="#FAFAFA"/>
<path d="M343.926 353.906H316.934C316.341 353.908 315.754 353.79 315.209 353.558C314.663 353.326 314.17 352.986 313.761 352.558C313.351 352.129 313.033 351.622 312.825 351.067C312.618 350.511 312.525 349.92 312.554 349.328L313.722 322.323C313.79 321.097 314.321 319.942 315.208 319.092C316.094 318.242 317.271 317.761 318.499 317.745H345.503C346.104 317.734 346.702 317.848 347.257 318.079C347.812 318.31 348.313 318.654 348.729 319.088C349.145 319.523 349.466 320.039 349.673 320.604C349.88 321.168 349.967 321.77 349.93 322.37L348.762 349.374C348.679 350.601 348.134 351.751 347.237 352.593C346.339 353.434 345.156 353.903 343.926 353.906Z" fill="#FAFAFA"/>
<path d="M385.146 353.906H358.142C357.549 353.909 356.963 353.79 356.418 353.558C355.873 353.326 355.381 352.986 354.972 352.557C354.563 352.129 354.246 351.621 354.04 351.066C353.834 350.511 353.743 349.919 353.773 349.328L354.941 322.324C355.003 321.087 355.534 319.92 356.426 319.061C357.318 318.202 358.503 317.715 359.742 317.698H386.746C387.338 317.696 387.925 317.814 388.47 318.046C389.015 318.278 389.506 318.619 389.915 319.047C390.324 319.476 390.641 319.983 390.847 320.539C391.054 321.094 391.144 321.685 391.114 322.277L389.946 349.281C389.884 350.518 389.353 351.684 388.461 352.544C387.569 353.403 386.384 353.89 385.146 353.906Z" fill="#FAFAFA"/>
<path d="M426.318 353.905H399.361C398.768 353.909 398.181 353.792 397.635 353.561C397.089 353.329 396.597 352.989 396.188 352.56C395.778 352.131 395.461 351.623 395.256 351.067C395.05 350.511 394.961 349.919 394.993 349.327L396.161 322.323C396.231 321.095 396.765 319.94 397.654 319.091C398.542 318.241 399.72 317.76 400.949 317.744H427.942C428.535 317.742 429.122 317.86 429.667 318.092C430.213 318.324 430.705 318.664 431.115 319.093C431.525 319.521 431.843 320.028 432.051 320.584C432.258 321.139 432.35 321.731 432.322 322.323L431.096 349.327C431.028 350.553 430.497 351.708 429.61 352.558C428.723 353.408 427.547 353.89 426.318 353.905Z" fill="#FAFAFA"/>
</g>
<path d="M218.414 395.789H191.386C190.794 395.793 190.206 395.676 189.661 395.445C189.115 395.213 188.622 394.873 188.213 394.444C187.804 394.015 187.487 393.507 187.281 392.951C187.076 392.395 186.986 391.803 187.018 391.211L188.186 364.218C188.257 362.991 188.79 361.836 189.679 360.986C190.568 360.137 191.745 359.655 192.975 359.64H219.979C220.572 359.636 221.159 359.753 221.705 359.984C222.251 360.216 222.743 360.556 223.152 360.985C223.561 361.414 223.879 361.922 224.084 362.478C224.29 363.034 224.379 363.626 224.347 364.218L223.179 391.211C223.111 392.435 222.582 393.588 221.698 394.438C220.813 395.288 219.64 395.771 218.414 395.789Z" fill="#407BFF"/>
<path d="M259.611 395.789H232.607C232.014 395.793 231.427 395.676 230.881 395.445C230.336 395.213 229.843 394.873 229.434 394.444C229.025 394.015 228.707 393.507 228.502 392.951C228.296 392.395 228.207 391.803 228.239 391.211L229.407 364.218C229.475 362.99 230.008 361.833 230.897 360.983C231.786 360.133 232.965 359.653 234.196 359.64H261.188C261.782 359.634 262.37 359.75 262.917 359.981C263.465 360.212 263.959 360.552 264.369 360.981C264.779 361.41 265.098 361.919 265.304 362.476C265.51 363.032 265.6 363.625 265.568 364.218L264.4 391.211C264.335 392.44 263.803 393.598 262.913 394.449C262.023 395.3 260.842 395.779 259.611 395.789Z" fill="#407BFF"/>
<path d="M300.818 395.789H273.826C273.233 395.793 272.646 395.676 272.1 395.445C271.554 395.213 271.062 394.873 270.652 394.444C270.243 394.015 269.926 393.507 269.721 392.951C269.515 392.395 269.426 391.803 269.457 391.211L270.625 364.218C270.694 362.99 271.226 361.833 272.116 360.983C273.005 360.133 274.184 359.653 275.414 359.64H302.512C303.105 359.636 303.693 359.753 304.239 359.984C304.786 360.216 305.279 360.556 305.689 360.985C306.099 361.413 306.417 361.921 306.624 362.477C306.831 363.033 306.922 363.626 306.892 364.218L305.665 391.211C305.597 392.449 305.056 393.614 304.154 394.466C303.252 395.318 302.059 395.791 300.818 395.789Z" fill="#407BFF"/>
<path d="M342.038 395.789H315.046C314.453 395.793 313.865 395.676 313.318 395.445C312.772 395.214 312.279 394.873 311.869 394.444C311.459 394.016 311.14 393.508 310.934 392.952C310.727 392.396 310.636 391.803 310.666 391.211L311.834 364.218C311.899 362.991 312.429 361.834 313.317 360.984C314.204 360.134 315.382 359.653 316.611 359.64H343.615C344.208 359.636 344.795 359.753 345.341 359.984C345.887 360.216 346.379 360.556 346.788 360.985C347.198 361.414 347.515 361.922 347.72 362.478C347.926 363.034 348.015 363.626 347.983 364.218L346.815 391.211C346.747 392.437 346.216 393.592 345.33 394.442C344.443 395.292 343.266 395.773 342.038 395.789Z" fill="#407BFF"/>
<path d="M383.258 395.789H356.242C355.649 395.793 355.062 395.676 354.516 395.445C353.97 395.213 353.478 394.873 353.068 394.444C352.659 394.015 352.342 393.507 352.137 392.951C351.931 392.395 351.842 391.803 351.873 391.211L353.041 364.218C353.112 362.991 353.646 361.836 354.534 360.986C355.423 360.137 356.601 359.655 357.83 359.64H384.834C385.427 359.636 386.014 359.753 386.56 359.984C387.106 360.216 387.599 360.556 388.008 360.985C388.417 361.414 388.734 361.922 388.94 362.478C389.145 363.034 389.235 363.626 389.203 364.218L388.035 391.211C387.964 392.436 387.432 393.59 386.546 394.439C385.66 395.288 384.485 395.771 383.258 395.789Z" fill="#407BFF"/>
<path d="M424.474 395.789H397.47C396.878 395.793 396.29 395.676 395.745 395.445C395.199 395.213 394.706 394.873 394.297 394.444C393.888 394.015 393.571 393.507 393.365 392.951C393.16 392.395 393.07 391.803 393.102 391.211L394.27 364.218C394.338 362.99 394.871 361.833 395.76 360.983C396.649 360.133 397.829 359.653 399.059 359.64H426.051C426.645 359.636 427.232 359.753 427.779 359.984C428.325 360.216 428.818 360.556 429.228 360.985C429.639 361.413 429.957 361.921 430.164 362.477C430.37 363.033 430.461 363.626 430.431 364.218L429.205 391.211C429.14 392.43 428.617 393.58 427.739 394.429C426.862 395.279 425.695 395.764 424.474 395.789Z" fill="#407BFF"/>
<g opacity="0.8">
<path d="M218.418 395.79H191.39C190.797 395.794 190.21 395.677 189.664 395.446C189.119 395.214 188.626 394.874 188.217 394.445C187.808 394.016 187.491 393.508 187.285 392.952C187.08 392.396 186.99 391.804 187.022 391.212L188.19 364.219C188.261 362.992 188.794 361.837 189.683 360.987C190.572 360.138 191.749 359.656 192.979 359.641H219.983C220.576 359.637 221.163 359.754 221.709 359.985C222.254 360.217 222.747 360.557 223.156 360.986C223.565 361.415 223.882 361.923 224.088 362.479C224.294 363.035 224.383 363.627 224.351 364.219L223.183 391.212C223.115 392.436 222.586 393.589 221.702 394.439C220.817 395.289 219.644 395.771 218.418 395.79Z" fill="#FAFAFA"/>
<path d="M259.613 395.79H232.609C232.016 395.794 231.429 395.677 230.883 395.446C230.337 395.214 229.845 394.874 229.436 394.445C229.026 394.016 228.709 393.508 228.504 392.952C228.298 392.396 228.209 391.804 228.241 391.212L229.409 364.219C229.477 362.991 230.009 361.834 230.899 360.984C231.788 360.134 232.967 359.654 234.197 359.641H261.19C261.784 359.635 262.372 359.751 262.919 359.982C263.466 360.213 263.961 360.553 264.371 360.982C264.781 361.411 265.1 361.92 265.306 362.477C265.512 363.033 265.602 363.626 265.57 364.219L264.402 391.212C264.337 392.441 263.805 393.599 262.915 394.45C262.025 395.301 260.844 395.78 259.613 395.79Z" fill="#FAFAFA"/>
<path d="M300.818 395.79H273.826C273.233 395.794 272.646 395.677 272.1 395.446C271.554 395.214 271.062 394.874 270.652 394.445C270.243 394.016 269.926 393.508 269.721 392.952C269.515 392.396 269.426 391.804 269.457 391.212L270.625 364.219C270.694 362.991 271.226 361.834 272.116 360.984C273.005 360.134 274.184 359.654 275.414 359.641H302.512C303.105 359.637 303.693 359.754 304.239 359.985C304.786 360.217 305.279 360.557 305.689 360.986C306.099 361.414 306.417 361.922 306.624 362.478C306.831 363.034 306.922 363.627 306.892 364.219L305.665 391.212C305.597 392.45 305.056 393.615 304.154 394.467C303.252 395.319 302.059 395.792 300.818 395.79Z" fill="#FAFAFA"/>
<path d="M342.04 395.79H315.048C314.455 395.794 313.867 395.677 313.32 395.446C312.774 395.214 312.281 394.874 311.871 394.445C311.461 394.017 311.142 393.509 310.935 392.953C310.729 392.397 310.638 391.804 310.668 391.212L311.836 364.219C311.901 362.992 312.431 361.835 313.319 360.985C314.206 360.134 315.384 359.654 316.613 359.641H343.617C344.21 359.637 344.797 359.754 345.343 359.985C345.889 360.217 346.381 360.557 346.79 360.986C347.2 361.415 347.517 361.923 347.722 362.479C347.928 363.035 348.017 363.627 347.985 364.219L346.817 391.212C346.749 392.438 346.218 393.593 345.332 394.443C344.445 395.293 343.268 395.774 342.04 395.79Z" fill="#FAFAFA"/>
<path d="M383.258 395.79H356.242C355.649 395.794 355.062 395.677 354.516 395.446C353.97 395.214 353.478 394.874 353.068 394.445C352.659 394.016 352.342 393.508 352.137 392.952C351.931 392.396 351.842 391.804 351.873 391.212L353.041 364.219C353.112 362.992 353.646 361.837 354.534 360.987C355.423 360.138 356.601 359.656 357.83 359.641H384.834C385.427 359.637 386.014 359.754 386.56 359.985C387.106 360.217 387.599 360.557 388.008 360.986C388.417 361.415 388.734 361.923 388.94 362.479C389.145 363.035 389.235 363.627 389.203 364.219L388.035 391.212C387.964 392.437 387.432 393.591 386.546 394.44C385.66 395.289 384.485 395.772 383.258 395.79Z" fill="#FAFAFA"/>
<path d="M424.476 395.79H397.472C396.88 395.794 396.292 395.677 395.746 395.446C395.201 395.214 394.708 394.874 394.299 394.445C393.89 394.016 393.573 393.508 393.367 392.952C393.162 392.396 393.072 391.804 393.104 391.212L394.272 364.219C394.34 362.991 394.873 361.834 395.762 360.984C396.651 360.134 397.831 359.654 399.061 359.641H426.053C426.646 359.637 427.234 359.754 427.781 359.985C428.327 360.217 428.82 360.557 429.23 360.986C429.64 361.414 429.959 361.922 430.166 362.478C430.372 363.034 430.463 363.627 430.433 364.219L429.207 391.212C429.142 392.431 428.619 393.581 427.741 394.43C426.864 395.28 425.697 395.765 424.476 395.79Z" fill="#FAFAFA"/>
</g>
<path d="M210.765 253.971C200.814 253.971 193.012 242.396 193.012 227.621C193.012 212.845 200.814 201.282 210.765 201.282C220.717 201.282 228.531 212.857 228.531 227.621C228.485 228.313 228.178 228.962 227.672 229.437C227.165 229.911 226.497 230.175 225.803 230.175C225.109 230.175 224.441 229.911 223.935 229.437C223.428 228.962 223.121 228.313 223.076 227.621C223.076 216.303 217.446 206.725 210.765 206.725C204.084 206.725 198.455 216.303 198.455 227.621C198.455 238.939 204.096 248.516 210.765 248.516C211.138 248.492 211.513 248.544 211.865 248.67C212.217 248.796 212.539 248.993 212.812 249.249C213.085 249.504 213.303 249.813 213.452 250.156C213.6 250.499 213.677 250.869 213.677 251.243C213.677 251.617 213.6 251.987 213.452 252.33C213.303 252.674 213.085 252.983 212.812 253.238C212.539 253.494 212.217 253.691 211.865 253.817C211.513 253.943 211.138 253.995 210.765 253.971Z" fill="#407BFF"/>
<path d="M251.986 253.971C242.035 253.971 234.232 242.396 234.232 227.621C234.232 212.845 242.035 201.282 251.986 201.282C261.937 201.282 269.81 212.857 269.81 227.621C269.764 228.313 269.457 228.962 268.951 229.437C268.444 229.911 267.776 230.175 267.082 230.175C266.388 230.175 265.721 229.911 265.214 229.437C264.708 228.962 264.4 228.313 264.355 227.621C264.355 216.303 258.725 206.725 252.044 206.725C245.363 206.725 239.734 216.303 239.734 227.621C239.734 238.939 245.375 248.516 252.044 248.516C252.737 248.561 253.386 248.869 253.861 249.375C254.335 249.882 254.599 250.549 254.599 251.243C254.599 251.937 254.335 252.605 253.861 253.112C253.386 253.618 252.737 253.925 252.044 253.971H251.986Z" fill="#407BFF"/>
<path d="M293.17 253.971C283.207 253.971 275.404 242.396 275.404 227.621C275.404 212.845 283.207 201.282 293.17 201.282C303.133 201.282 310.923 212.857 310.923 227.621C310.923 228.342 310.636 229.035 310.126 229.545C309.616 230.055 308.924 230.342 308.202 230.342C307.48 230.342 306.788 230.055 306.277 229.545C305.767 229.035 305.48 228.342 305.48 227.621C305.48 216.303 299.839 206.725 293.17 206.725C286.5 206.725 280.859 216.303 280.859 227.621C280.859 238.939 286.5 248.516 293.17 248.516C293.862 248.561 294.511 248.869 294.986 249.375C295.46 249.882 295.724 250.549 295.724 251.243C295.724 251.937 295.46 252.605 294.986 253.112C294.511 253.618 293.862 253.925 293.17 253.971Z" fill="#407BFF"/>
<path d="M334.424 253.971C324.46 253.971 316.658 242.396 316.658 227.621C316.658 212.845 324.46 201.282 334.424 201.282C344.387 201.282 352.177 212.857 352.177 227.621C352.177 228.342 351.89 229.035 351.38 229.545C350.87 230.055 350.177 230.342 349.456 230.342C348.734 230.342 348.042 230.055 347.531 229.545C347.021 229.035 346.734 228.342 346.734 227.621C346.734 216.303 341.093 206.725 334.424 206.725C327.754 206.725 322.113 216.303 322.113 227.621C322.113 238.939 327.743 248.516 334.424 248.516C335.116 248.561 335.765 248.869 336.24 249.375C336.714 249.882 336.978 250.549 336.978 251.243C336.978 251.937 336.714 252.605 336.24 253.112C335.765 253.618 335.116 253.925 334.424 253.971Z" fill="#407BFF"/>
<path d="M375.629 253.971C365.677 253.971 357.875 242.396 357.875 227.621C357.875 212.845 365.677 201.282 375.629 201.282C385.58 201.282 393.394 212.857 393.394 227.621C393.349 228.313 393.042 228.962 392.535 229.437C392.029 229.911 391.361 230.175 390.667 230.175C389.973 230.175 389.305 229.911 388.798 229.437C388.292 228.962 387.985 228.313 387.939 227.621C387.939 216.303 382.31 206.725 375.629 206.725C368.948 206.725 363.318 216.303 363.318 227.621C363.318 238.939 368.959 248.516 375.629 248.516C376.002 248.492 376.376 248.544 376.728 248.67C377.08 248.796 377.403 248.993 377.676 249.249C377.949 249.504 378.166 249.813 378.315 250.156C378.464 250.499 378.54 250.869 378.54 251.243C378.54 251.617 378.464 251.987 378.315 252.33C378.166 252.674 377.949 252.983 377.676 253.238C377.403 253.494 377.08 253.691 376.728 253.817C376.376 253.943 376.002 253.995 375.629 253.971Z" fill="#407BFF"/>
<path d="M416.847 253.971C406.896 253.971 399.094 242.396 399.094 227.621C399.094 212.845 406.896 201.282 416.847 201.282C426.799 201.282 434.613 212.857 434.613 227.621C434.567 228.313 434.26 228.962 433.754 229.437C433.247 229.911 432.579 230.175 431.885 230.175C431.191 230.175 430.523 229.911 430.017 229.437C429.51 228.962 429.203 228.313 429.158 227.621C429.158 216.303 423.517 206.725 416.847 206.725C410.178 206.725 404.537 216.303 404.537 227.621C404.537 238.939 410.178 248.516 416.847 248.516C417.54 248.561 418.189 248.869 418.664 249.375C419.138 249.882 419.402 250.549 419.402 251.243C419.402 251.937 419.138 252.605 418.664 253.112C418.189 253.618 417.54 253.925 416.847 253.971Z" fill="#407BFF"/>
<g opacity="0.3">
<path d="M210.765 253.971C200.814 253.971 193.012 242.396 193.012 227.621C193.012 212.845 200.814 201.282 210.765 201.282C220.717 201.282 228.531 212.857 228.531 227.621C228.485 228.313 228.178 228.962 227.672 229.437C227.165 229.911 226.497 230.175 225.803 230.175C225.109 230.175 224.441 229.911 223.935 229.437C223.428 228.962 223.121 228.313 223.076 227.621C223.076 216.303 217.446 206.725 210.765 206.725C204.084 206.725 198.455 216.303 198.455 227.621C198.455 238.939 204.096 248.516 210.765 248.516C211.138 248.492 211.513 248.544 211.865 248.67C212.217 248.796 212.539 248.993 212.812 249.249C213.085 249.504 213.303 249.813 213.452 250.156C213.6 250.499 213.677 250.869 213.677 251.243C213.677 251.617 213.6 251.987 213.452 252.33C213.303 252.674 213.085 252.983 212.812 253.238C212.539 253.494 212.217 253.691 211.865 253.817C211.513 253.943 211.138 253.995 210.765 253.971Z" fill="black"/>
<path d="M251.984 253.971C242.033 253.971 234.23 242.396 234.23 227.621C234.23 212.845 242.033 201.282 251.984 201.282C261.935 201.282 269.808 212.857 269.808 227.621C269.762 228.313 269.455 228.962 268.949 229.437C268.442 229.911 267.774 230.175 267.08 230.175C266.387 230.175 265.719 229.911 265.212 229.437C264.706 228.962 264.399 228.313 264.353 227.621C264.353 216.303 258.723 206.725 252.042 206.725C245.362 206.725 239.732 216.303 239.732 227.621C239.732 238.939 245.373 248.516 252.042 248.516C252.735 248.561 253.384 248.869 253.859 249.375C254.333 249.882 254.597 250.549 254.597 251.243C254.597 251.937 254.333 252.605 253.859 253.112C253.384 253.618 252.735 253.925 252.042 253.971H251.984Z" fill="black"/>
<path d="M293.17 253.971C283.207 253.971 275.404 242.396 275.404 227.621C275.404 212.845 283.207 201.282 293.17 201.282C303.133 201.282 310.923 212.857 310.923 227.621C310.923 228.342 310.636 229.035 310.126 229.545C309.616 230.055 308.924 230.342 308.202 230.342C307.48 230.342 306.788 230.055 306.277 229.545C305.767 229.035 305.48 228.342 305.48 227.621C305.48 216.303 299.839 206.725 293.17 206.725C286.5 206.725 280.859 216.303 280.859 227.621C280.859 238.939 286.5 248.516 293.17 248.516C293.862 248.561 294.511 248.869 294.986 249.375C295.46 249.882 295.724 250.549 295.724 251.243C295.724 251.937 295.46 252.605 294.986 253.112C294.511 253.618 293.862 253.925 293.17 253.971Z" fill="black"/>
<path d="M334.422 253.971C324.459 253.971 316.656 242.396 316.656 227.621C316.656 212.845 324.459 201.282 334.422 201.282C344.385 201.282 352.175 212.857 352.175 227.621C352.175 228.342 351.888 229.035 351.378 229.545C350.868 230.055 350.175 230.342 349.454 230.342C348.732 230.342 348.04 230.055 347.529 229.545C347.019 229.035 346.732 228.342 346.732 227.621C346.732 216.303 341.091 206.725 334.422 206.725C327.752 206.725 322.111 216.303 322.111 227.621C322.111 238.939 327.741 248.516 334.422 248.516C335.114 248.561 335.763 248.869 336.238 249.375C336.712 249.882 336.976 250.549 336.976 251.243C336.976 251.937 336.712 252.605 336.238 253.112C335.763 253.618 335.114 253.925 334.422 253.971Z" fill="black"/>
<path d="M375.629 253.971C365.677 253.971 357.875 242.396 357.875 227.621C357.875 212.845 365.677 201.282 375.629 201.282C385.58 201.282 393.394 212.857 393.394 227.621C393.349 228.313 393.042 228.962 392.535 229.437C392.029 229.911 391.361 230.175 390.667 230.175C389.973 230.175 389.305 229.911 388.798 229.437C388.292 228.962 387.985 228.313 387.939 227.621C387.939 216.303 382.31 206.725 375.629 206.725C368.948 206.725 363.318 216.303 363.318 227.621C363.318 238.939 368.959 248.516 375.629 248.516C376.002 248.492 376.376 248.544 376.728 248.67C377.08 248.796 377.403 248.993 377.676 249.249C377.949 249.504 378.166 249.813 378.315 250.156C378.464 250.499 378.54 250.869 378.54 251.243C378.54 251.617 378.464 251.987 378.315 252.33C378.166 252.674 377.949 252.983 377.676 253.238C377.403 253.494 377.08 253.691 376.728 253.817C376.376 253.943 376.002 253.995 375.629 253.971Z" fill="black"/>
<path d="M416.847 253.971C406.896 253.971 399.094 242.396 399.094 227.621C399.094 212.845 406.896 201.282 416.847 201.282C426.799 201.282 434.613 212.857 434.613 227.621C434.567 228.313 434.26 228.962 433.754 229.437C433.247 229.911 432.579 230.175 431.885 230.175C431.191 230.175 430.523 229.911 430.017 229.437C429.51 228.962 429.203 228.313 429.158 227.621C429.158 216.303 423.517 206.725 416.847 206.725C410.178 206.725 404.537 216.303 404.537 227.621C404.537 238.939 410.178 248.516 416.847 248.516C417.54 248.561 418.189 248.869 418.664 249.375C419.138 249.882 419.402 250.549 419.402 251.243C419.402 251.937 419.138 252.605 418.664 253.112C418.189 253.618 417.54 253.925 416.847 253.971Z" fill="black"/>
</g>
<path d="M337.178 313.515C327.647 311.623 316.949 313.831 313.129 323.876C310.057 331.958 313.994 340.718 322.473 342.856C329.948 344.736 342.843 342.435 345.506 333.815C348.555 323.957 336.162 320.757 329.213 320.173C327.122 319.998 327.134 323.268 329.213 323.443C332.378 323.712 335.999 323.887 338.802 325.628C344.642 329.283 342.236 335.147 337.26 337.95C332.284 340.753 324.657 341.454 319.74 338.347C314.367 334.925 314.192 327.403 317.404 322.497C321.621 316.015 329.318 315.291 336.256 316.657C338.311 317.066 339.187 313.913 337.12 313.504L337.178 313.515Z" fill="#407BFF"/>
<path opacity="0.1" d="M337.178 313.515C327.647 311.623 316.949 313.831 313.129 323.876C310.057 331.958 313.994 340.718 322.473 342.856C329.948 344.736 342.843 342.435 345.506 333.815C348.555 323.957 336.162 320.757 329.213 320.173C327.122 319.998 327.134 323.268 329.213 323.443C332.378 323.712 335.999 323.887 338.802 325.628C344.642 329.283 342.236 335.147 337.26 337.95C332.284 340.753 324.657 341.454 319.74 338.347C314.367 334.925 314.192 327.403 317.404 322.497C321.621 316.015 329.318 315.291 336.256 316.657C338.311 317.066 339.187 313.913 337.12 313.504L337.178 313.515Z" fill="#FAFAFA"/>
<path d="M232.024 275.896C241.139 287.979 251.301 299.235 262.392 309.534C263.934 310.971 266.258 308.658 264.728 307.198C253.827 297.103 243.834 286.069 234.863 274.225C233.613 272.567 230.775 274.225 232.048 275.872L232.024 275.896Z" fill="#407BFF"/>
<path d="M235.4 308.166C242.291 295.913 254.357 285.46 265.768 277.459C267.474 276.291 265.85 273.418 264.121 274.632C252.255 282.972 239.78 293.741 232.585 306.507C232.388 306.879 232.342 307.313 232.456 307.718C232.57 308.123 232.837 308.469 233.2 308.683C233.562 308.896 233.994 308.962 234.404 308.866C234.814 308.769 235.171 308.519 235.4 308.166Z" fill="#407BFF"/>
<g opacity="0.2">
<path d="M232.022 275.894C241.137 287.977 251.299 299.233 262.39 309.532C263.932 310.969 266.257 308.656 264.726 307.196C253.825 297.101 243.832 286.067 234.861 274.223C233.611 272.565 230.773 274.223 232.046 275.87L232.022 275.894Z" fill="black"/>
<path d="M235.398 308.166C242.29 295.913 254.355 285.46 265.766 277.459C267.472 276.291 265.848 273.418 264.119 274.632C252.253 282.972 239.778 293.741 232.583 306.507C232.386 306.879 232.34 307.313 232.454 307.718C232.569 308.123 232.835 308.469 233.198 308.683C233.56 308.896 233.992 308.962 234.402 308.866C234.812 308.769 235.169 308.519 235.398 308.166Z" fill="black"/>
</g>
<path d="M361.927 286.349H383.243C383.651 286.314 384.032 286.127 384.309 285.826C384.586 285.524 384.74 285.129 384.74 284.719C384.74 284.309 384.586 283.915 384.309 283.613C384.032 283.311 383.651 283.124 383.243 283.09H361.927C361.518 283.124 361.138 283.311 360.861 283.613C360.584 283.915 360.43 284.309 360.43 284.719C360.43 285.129 360.584 285.524 360.861 285.826C361.138 286.127 361.518 286.314 361.927 286.349Z" fill="#407BFF"/>
<path d="M361.682 292.409H374.039C374.473 292.409 374.889 292.237 375.196 291.93C375.502 291.623 375.675 291.208 375.675 290.774C375.675 290.34 375.502 289.924 375.196 289.618C374.889 289.311 374.473 289.139 374.039 289.139H361.682C361.248 289.139 360.832 289.311 360.526 289.618C360.219 289.924 360.047 290.34 360.047 290.774C360.047 291.208 360.219 291.623 360.526 291.93C360.832 292.237 361.248 292.409 361.682 292.409Z" fill="#407BFF"/>
<g opacity="0.1">
<path d="M361.931 286.348H383.247C383.655 286.313 384.035 286.126 384.313 285.825C384.59 285.523 384.744 285.128 384.744 284.718C384.744 284.308 384.59 283.914 384.313 283.612C384.035 283.31 383.655 283.123 383.247 283.089H361.931C361.522 283.123 361.142 283.31 360.865 283.612C360.587 283.914 360.434 284.308 360.434 284.718C360.434 285.128 360.587 285.523 360.865 285.825C361.142 286.126 361.522 286.313 361.931 286.348Z" fill="#FAFAFA"/>
<path d="M361.686 292.409H374.043C374.477 292.409 374.893 292.237 375.2 291.93C375.506 291.623 375.679 291.208 375.679 290.774C375.679 290.34 375.506 289.924 375.2 289.618C374.893 289.311 374.477 289.139 374.043 289.139H361.686C361.252 289.139 360.836 289.311 360.53 289.618C360.223 289.924 360.051 290.34 360.051 290.774C360.051 291.208 360.223 291.623 360.53 291.93C360.836 292.237 361.252 292.409 361.686 292.409Z" fill="#FAFAFA"/>
</g>
<path d="M234.256 370.022H252.535C252.969 370.022 253.385 369.85 253.692 369.543C253.998 369.237 254.171 368.821 254.171 368.387C254.171 367.953 253.998 367.538 253.692 367.231C253.385 366.924 252.969 366.752 252.535 366.752H234.256C233.823 366.752 233.407 366.924 233.1 367.231C232.793 367.538 232.621 367.953 232.621 368.387C232.621 368.821 232.793 369.237 233.1 369.543C233.407 369.85 233.823 370.022 234.256 370.022Z" fill="#407BFF"/>
<path d="M233.6 377.044H257.31C257.744 377.044 258.16 376.872 258.467 376.565C258.773 376.258 258.946 375.842 258.946 375.409C258.946 374.975 258.773 374.559 258.467 374.252C258.16 373.946 257.744 373.773 257.31 373.773H233.6C233.166 373.773 232.75 373.946 232.444 374.252C232.137 374.559 231.965 374.975 231.965 375.409C231.965 375.842 232.137 376.258 232.444 376.565C232.75 376.872 233.166 377.044 233.6 377.044Z" fill="#407BFF"/>
<path d="M233.6 384.274H245.455C245.889 384.274 246.305 384.102 246.612 383.795C246.918 383.489 247.09 383.073 247.09 382.639C247.09 382.205 246.918 381.789 246.612 381.483C246.305 381.176 245.889 381.004 245.455 381.004H233.6C233.166 381.004 232.75 381.176 232.444 381.483C232.137 381.789 231.965 382.205 231.965 382.639C231.965 383.073 232.137 383.489 232.444 383.795C232.75 384.102 233.166 384.274 233.6 384.274Z" fill="#407BFF"/>
<g opacity="0.1">
<path d="M234.254 370.023H252.534C252.967 370.023 253.383 369.851 253.69 369.544C253.996 369.238 254.169 368.822 254.169 368.388C254.169 367.954 253.996 367.539 253.69 367.232C253.383 366.925 252.967 366.753 252.534 366.753H234.254C233.821 366.753 233.405 366.925 233.098 367.232C232.791 367.539 232.619 367.954 232.619 368.388C232.619 368.822 232.791 369.238 233.098 369.544C233.405 369.851 233.821 370.023 234.254 370.023Z" fill="#FAFAFA"/>
<path d="M233.6 377.043H257.31C257.744 377.043 258.16 376.871 258.467 376.564C258.773 376.257 258.946 375.841 258.946 375.408C258.946 374.974 258.773 374.558 258.467 374.251C258.16 373.945 257.744 373.772 257.31 373.772H233.6C233.166 373.772 232.75 373.945 232.444 374.251C232.137 374.558 231.965 374.974 231.965 375.408C231.965 375.841 232.137 376.257 232.444 376.564C232.75 376.871 233.166 377.043 233.6 377.043Z" fill="#FAFAFA"/>
<path d="M233.6 384.273H245.455C245.889 384.273 246.305 384.101 246.612 383.794C246.918 383.488 247.09 383.072 247.09 382.638C247.09 382.204 246.918 381.789 246.612 381.482C246.305 381.175 245.889 381.003 245.455 381.003H233.6C233.166 381.003 232.75 381.175 232.444 381.482C232.137 381.789 231.965 382.204 231.965 382.638C231.965 383.072 232.137 383.488 232.444 383.794C232.75 384.101 233.166 384.273 233.6 384.273Z" fill="#FAFAFA"/>
</g>
<path d="M105.336 186.637L110.861 186.392L108.362 196.904C106.39 195.554 104.593 193.965 103.012 192.173C102.556 191.637 102.33 190.943 102.382 190.241C102.435 189.539 102.762 188.886 103.292 188.424L105.336 186.637Z" fill="#E4897B"/>
<path d="M117.271 192.056L114.795 200.606L108.359 196.88L110.859 186.392L117.271 192.056Z" fill="#E4897B"/>
<path d="M116.184 141.299L104.879 142.346L130.806 422.367L142.111 421.321L116.184 141.299Z" fill="#407BFF"/>
<path opacity="0.3" d="M116.184 141.299L104.879 142.346L130.806 422.367L142.111 421.321L116.184 141.299Z" fill="black"/>
<path d="M138.801 139.199L127.496 140.246L153.424 420.268L164.728 419.221L138.801 139.199Z" fill="#407BFF"/>
<path opacity="0.3" d="M138.801 139.199L127.496 140.246L153.424 420.268L164.728 419.221L138.801 139.199Z" fill="black"/>
<path d="M127.496 140.248L116.191 141.295L142.119 421.316L153.424 420.27L127.496 140.248Z" fill="#407BFF"/>
<path opacity="0.1" d="M127.496 140.248L116.191 141.295L142.119 421.316L153.424 420.27L127.496 140.248Z" fill="black"/>
<path d="M125.113 120.666L114.939 121.612L104.883 142.344L138.802 139.202L125.113 120.666Z" fill="#407BFF"/>
<g opacity="0.8">
<path d="M125.111 120.666L114.937 121.612L104.881 142.344L138.8 139.202L125.111 120.666Z" fill="#FAFAFA"/>
</g>
<path d="M119.247 112.724L114.938 121.612L125.111 120.666L119.247 112.724Z" fill="#263238"/>
<path d="M204.723 128.551C205.891 129.719 206.86 130.828 207.865 132.055C208.869 133.281 209.827 134.391 210.785 135.559C212.712 137.895 214.511 140.359 216.263 142.87C219.874 147.976 222.921 153.459 225.35 159.222C225.642 159.97 225.91 160.753 226.191 161.558L226.611 162.726C226.843 163.426 227.007 164.145 227.102 164.876C227.355 167.2 227.047 169.551 226.202 171.732C224.942 174.95 223.175 177.947 220.97 180.609C217.07 185.381 212.58 189.64 207.608 193.281L203.204 188.609C206.67 184.277 209.838 179.715 212.688 174.955C213.937 172.922 214.896 170.724 215.538 168.426C215.716 167.862 215.736 167.261 215.597 166.686L215.2 165.822C214.931 165.249 214.697 164.654 214.405 164.093C211.933 159.295 209.041 154.726 205.762 150.439C204.127 148.208 202.398 146.036 200.646 143.863C199.77 142.789 198.883 141.714 197.972 140.663L195.309 137.591L204.723 128.551Z" fill="#E4897B"/>
<path d="M196.139 192.172L201.114 202.019L205.985 197.825L201.99 190.829L196.139 192.172Z" fill="#E4897B"/>
<path d="M158.655 134.321C155.626 140.091 152.48 145.795 149.217 151.432C147.617 154.271 145.935 157.062 144.3 159.877L141.789 164.082L141.158 165.133C140.843 165.635 140.492 166.231 140.177 166.628C139.862 167.025 139.546 167.504 139.243 167.866C138.939 168.228 138.612 168.637 138.308 168.976C135.949 171.546 133.437 173.972 130.786 176.241C128.228 178.425 125.67 180.551 123.031 182.571C117.81 186.647 112.449 190.443 106.889 194.064L102.883 189.019L116.724 175.388C118.99 173.052 121.279 170.856 123.44 168.543C125.563 166.367 127.563 164.074 129.431 161.676C129.657 161.395 129.856 161.127 130.027 160.87C130.226 160.589 130.366 160.356 130.506 160.122C130.627 159.934 130.736 159.739 130.833 159.538L131.37 158.452L133.531 154.049C135.014 151.14 136.463 148.209 137.97 145.324C140.952 139.507 144.066 133.757 147.314 128.072L158.655 134.321Z" fill="#E4897B"/>
<path d="M191.442 94.8661C191.29 95.5435 191.535 96.1859 191.967 96.3027C192.399 96.4195 192.878 95.9523 193.03 95.2749C193.182 94.5974 192.925 93.955 192.493 93.8382C192.061 93.7214 191.547 94.1886 191.442 94.8661Z" fill="#263238"/>
<path d="M191.466 96.1748C191.832 98.453 192.5 100.672 193.452 102.774C192.914 102.987 192.337 103.079 191.76 103.045C191.182 103.011 190.62 102.85 190.111 102.575L191.466 96.1748Z" fill="#DE5753"/>
<path d="M193.229 90.7543C193.146 90.7545 193.065 90.7302 192.996 90.6842C192.564 90.4206 192.075 90.2658 191.571 90.2332C191.066 90.2007 190.561 90.2913 190.099 90.4973C189.998 90.5367 189.886 90.5355 189.786 90.4942C189.686 90.4529 189.606 90.3745 189.562 90.2754C189.523 90.1745 189.524 90.0624 189.565 89.9623C189.606 89.8622 189.685 89.7819 189.784 89.7382C190.374 89.4846 191.017 89.3777 191.658 89.4265C192.298 89.4754 192.918 89.6785 193.463 90.0185C193.507 90.0478 193.545 90.0858 193.575 90.1301C193.604 90.1745 193.624 90.2242 193.634 90.2765C193.644 90.3288 193.643 90.3826 193.632 90.4345C193.621 90.4865 193.599 90.5357 193.568 90.5791C193.53 90.6336 193.479 90.6781 193.42 90.7086C193.361 90.7392 193.296 90.7548 193.229 90.7543Z" fill="#263238"/>
<path d="M167.813 97.4473C169.284 103.731 170.955 115.224 166.727 119.417C166.727 119.417 168.689 125.783 180.357 125.783C193.205 125.783 186.197 119.417 186.197 119.417C179.131 117.747 179.107 112.55 180.135 107.679L167.813 97.4473Z" fill="#E4897B"/>
<path d="M165.139 121.602C164.134 119.593 163.037 117.28 165.139 116.556C167.405 115.762 179.984 114.956 184.388 116.439C185.561 116.753 186.566 117.511 187.189 118.554C187.813 119.596 188.006 120.84 187.728 122.022L165.139 121.602Z" fill="#407BFF"/>
<path opacity="0.6" d="M165.139 121.602C164.134 119.593 163.037 117.28 165.139 116.556C167.405 115.762 179.984 114.956 184.388 116.439C185.561 116.753 186.566 117.511 187.189 118.554C187.813 119.596 188.006 120.84 187.728 122.022L165.139 121.602Z" fill="#FAFAFA"/>
<path d="M148.33 414.64C147.576 414.636 146.825 414.554 146.087 414.395C146.05 414.388 146.015 414.37 145.988 414.343C145.96 414.316 145.942 414.281 145.936 414.243C145.928 414.204 145.931 414.163 145.946 414.126C145.96 414.089 145.985 414.057 146.017 414.033C146.111 413.963 148.353 412.351 149.662 412.631C149.803 412.656 149.937 412.712 150.054 412.795C150.171 412.877 150.269 412.985 150.339 413.11C150.444 413.25 150.501 413.42 150.501 413.595C150.501 413.77 150.444 413.94 150.339 414.08C150.059 414.535 149.206 414.64 148.33 414.64ZM146.66 414.103C147.945 414.313 149.697 414.313 150.047 413.834C150.047 413.834 150.187 413.647 149.989 413.309C149.946 413.234 149.887 413.171 149.816 413.122C149.745 413.074 149.665 413.042 149.58 413.028C148.519 413.097 147.503 413.479 146.66 414.126V414.103Z" fill="#FAFAFA"/>
<path d="M146.133 414.432H146.027C145.997 414.414 145.972 414.389 145.956 414.358C145.939 414.327 145.932 414.292 145.934 414.257C145.934 414.151 146.039 411.675 147.009 410.858C147.125 410.753 147.262 410.675 147.411 410.629C147.561 410.583 147.718 410.569 147.873 410.589C148.03 410.589 148.183 410.644 148.305 410.744C148.426 410.844 148.509 410.983 148.539 411.138C148.726 412.096 147.09 413.965 146.203 414.443L146.133 414.432ZM147.733 410.928C147.565 410.93 147.403 410.992 147.277 411.103C146.704 411.888 146.386 412.83 146.366 413.801C147.207 413.135 148.247 411.722 148.142 411.161C148.142 411.103 148.142 410.963 147.826 410.928H147.733Z" fill="#FAFAFA"/>
<path d="M199.864 414.641C198.979 414.641 198.095 414.559 197.225 414.396C197.184 414.389 197.146 414.37 197.117 414.34C197.087 414.311 197.068 414.273 197.061 414.232C197.055 414.192 197.06 414.151 197.077 414.113C197.093 414.076 197.12 414.044 197.155 414.022C197.587 413.777 201.395 411.593 202.317 413.099C202.41 413.231 202.459 413.388 202.459 413.549C202.459 413.71 202.41 413.867 202.317 413.999C202.06 414.513 200.962 414.641 199.864 414.641ZM197.867 414.092C199.479 414.326 201.652 414.291 202.025 413.765C202.025 413.765 202.142 413.601 201.967 413.309C201.453 412.48 199.14 413.473 197.867 414.115V414.092Z" fill="#FAFAFA"/>
<path d="M197.259 414.431C197.221 414.441 197.18 414.441 197.142 414.431C197.113 414.41 197.09 414.381 197.075 414.348C197.061 414.316 197.056 414.279 197.06 414.244C197.06 414.15 197.2 411.838 198.228 410.938C198.384 410.796 198.57 410.69 198.772 410.629C198.974 410.569 199.188 410.555 199.396 410.588C199.969 410.646 200.132 410.938 200.167 411.172C200.331 412.165 198.38 413.975 197.352 414.442L197.259 414.431ZM199.221 410.927C198.962 410.923 198.711 411.02 198.52 411.195C197.906 411.947 197.55 412.877 197.504 413.847C198.532 413.216 199.84 411.779 199.758 411.184C199.758 411.125 199.758 410.973 199.338 410.927H199.221Z" fill="#FAFAFA"/>
<path d="M187.82 414.22H196.405L196.487 394.353H187.914L187.82 414.22Z" fill="#E4897B"/>
<path d="M136.299 414.22H144.884L148.434 394.353H139.85L136.299 414.22Z" fill="#E4897B"/>
<path d="M145.458 413.228H135.822C135.652 413.225 135.487 413.284 135.356 413.393C135.225 413.503 135.138 413.655 135.11 413.823L133.708 421.45C133.68 421.64 133.692 421.833 133.746 422.017C133.799 422.2 133.892 422.37 134.017 422.515C134.143 422.659 134.298 422.775 134.473 422.853C134.647 422.931 134.837 422.971 135.028 422.969C138.392 422.91 140.016 422.712 144.255 422.712C146.86 422.712 152.245 422.992 155.854 422.992C159.463 422.992 159.778 419.488 158.295 419.103C151.626 417.654 149.056 415.657 146.872 413.765C146.482 413.42 145.979 413.229 145.458 413.228Z" fill="#263238"/>
<path d="M196.311 413.228H186.967C186.797 413.225 186.631 413.284 186.501 413.393C186.37 413.503 186.283 413.655 186.255 413.823L184.853 421.45C184.82 421.638 184.83 421.831 184.88 422.015C184.93 422.199 185.021 422.369 185.145 422.514C185.268 422.659 185.423 422.775 185.596 422.854C185.77 422.932 185.959 422.972 186.15 422.969C189.525 422.91 194.396 422.712 198.647 422.712C203.623 422.712 207.921 422.992 213.749 422.992C217.253 422.992 218.106 419.488 216.623 419.103C209.848 417.631 204.359 417.479 198.425 413.905C197.798 413.486 197.065 413.252 196.311 413.228Z" fill="#263238"/>
<path d="M150.362 121.356C142.384 123.201 134.01 145.125 134.01 145.125L150.584 156.197C154.389 150.428 157.724 144.362 160.558 138.058C164.938 128.025 158.503 119.475 150.362 121.356Z" fill="#407BFF"/>
<path opacity="0.7" d="M150.362 121.356C142.384 123.201 134.01 145.125 134.01 145.125L150.584 156.197C154.389 150.428 157.724 144.362 160.558 138.058C164.938 128.025 158.503 119.475 150.362 121.356Z" fill="black"/>
<path d="M156.659 135.337L149.803 155.672L150.585 156.197C150.585 156.197 153.716 151.525 157.044 145.3L156.659 135.337Z" fill="#407BFF"/>
<path opacity="0.8" d="M156.659 135.337L149.803 155.672L150.585 156.197C150.585 156.197 153.716 151.525 157.044 145.3L156.659 135.337Z" fill="black"/>
<path d="M203.891 159.689C203.821 169.266 203.248 181.18 201.823 195.967H155.921C155.325 188.959 158.432 154.55 150.361 121.355C155.41 120.376 160.517 119.729 165.65 119.416C172.147 119.042 178.66 119.042 185.156 119.416C189.636 119.852 194.076 120.633 198.436 121.752C198.436 121.752 202.361 126.004 203.552 145.942C203.786 149.924 203.914 154.456 203.891 159.689Z" fill="#407BFF"/>
<path opacity="0.7" d="M203.891 159.689C203.821 169.266 203.248 181.18 201.823 195.967H155.921C155.325 188.959 158.432 154.55 150.361 121.355C155.41 120.376 160.517 119.729 165.65 119.416C172.147 119.042 178.66 119.042 185.156 119.416C189.636 119.852 194.076 120.633 198.436 121.752C198.436 121.752 202.361 126.004 203.552 145.942C203.786 149.924 203.914 154.456 203.891 159.689Z" fill="black"/>
<path d="M203.892 159.69C201.112 154.621 196.067 144.448 196.779 138.666L203.553 146.001C203.787 149.926 203.916 154.457 203.892 159.69Z" fill="#407BFF"/>
<path opacity="0.8" d="M203.892 159.69C201.112 154.621 196.067 144.448 196.779 138.666L203.553 146.001C203.787 149.926 203.916 154.457 203.892 159.69Z" fill="black"/>
<path d="M189.443 129.555C188.718 137.731 207.255 157.4 207.255 157.4L222.112 145.3C218.22 138.733 213.558 132.655 208.224 127.196C199.534 118.798 190.26 120.398 189.443 129.555Z" fill="#407BFF"/>
<path opacity="0.7" d="M189.443 129.555C188.718 137.731 207.255 157.4 207.255 157.4L222.112 145.3C218.22 138.733 213.558 132.655 208.224 127.196C199.534 118.798 190.26 120.398 189.443 129.555Z" fill="black"/>
<path d="M196.485 394.365L196.438 404.597H187.865L187.9 394.365H196.485Z" fill="#CE6F64"/>
<path d="M139.849 394.365H148.434L146.6 404.597H138.016L139.849 394.365Z" fill="#CE6F64"/>
<path d="M169.356 87.7753C168.106 96.2316 166.95 101.09 170.197 106.463C171.229 108.203 172.718 109.628 174.501 110.582C176.285 111.536 178.296 111.984 180.317 111.877C182.337 111.77 184.289 111.112 185.962 109.974C187.635 108.837 188.965 107.263 189.807 105.424C193.16 98.4157 194.655 85.7546 187.285 80.4052C185.729 79.2044 183.885 78.4342 181.938 78.1722C179.991 77.9102 178.009 78.1655 176.192 78.9126C174.374 79.6596 172.786 80.872 171.586 82.4277C170.386 83.9835 169.617 85.8279 169.356 87.7753Z" fill="#E4897B"/>
<path d="M194.758 83.7698C192.23 85.1503 189.449 86.0046 186.582 86.281C184.444 96.0571 178.756 107.305 169.552 104.07C166.048 102.902 162.544 94.4103 162.182 86.8767C161.575 87.6125 161.166 88.5702 160.851 88.9674C160.326 85.6193 160.705 82.1917 161.949 79.0394C164.495 71.8211 166.189 76.6099 168.957 72.2299C170.744 69.3333 173.921 67.8382 179.469 67.6514C177.915 68.4573 177.623 69.7538 179.924 69.5669C182.225 69.38 192.048 68.8427 197.771 72.7088C193.905 73.5848 196.265 79.7168 201.427 76.4464C199.547 79.4949 197.211 82.3915 194.758 83.7698Z" fill="#263238"/>
<path d="M179.973 93.0089C180.005 95.1593 180.726 97.2427 182.028 98.954C183.769 101.197 185.766 100.122 186.245 97.5991C186.665 95.3566 186.245 91.4788 184.072 90.124C181.9 88.7691 179.961 90.4393 179.973 93.0089Z" fill="#E4897B"/>
<path d="M169.507 73.1407C168.341 73.0668 167.211 72.7089 166.216 72.0981C165.22 71.4873 164.389 70.6423 163.795 69.6367C163.795 69.6367 163.643 76.4812 169.507 73.1407Z" fill="#1E2A4C"/>
<path d="M185.531 195.969C185.531 195.969 178.336 261.54 173.933 286.103C169.121 312.967 150.573 402.623 150.573 402.623H134.805C134.805 402.623 145.994 315.175 148.33 288.498C150.841 259.59 155.969 195.922 155.969 195.922L185.531 195.969Z" fill="#407BFF"/>
<path opacity="0.6" d="M185.531 195.969C185.531 195.969 178.336 261.54 173.933 286.103C169.121 312.967 150.573 402.623 150.573 402.623H134.805C134.805 402.623 145.994 315.175 148.33 288.498C150.841 259.59 155.969 195.922 155.969 195.922L185.531 195.969Z" fill="#FAFAFA"/>
<path d="M152.804 396.828C152.874 396.828 151.414 402.867 151.414 402.867H133.742L133.859 397.482L152.804 396.828Z" fill="#407BFF"/>
<path opacity="0.1" d="M152.804 396.828C152.874 396.828 151.414 402.867 151.414 402.867H133.742L133.859 397.482L152.804 396.828Z" fill="#FAFAFA"/>
<path d="M180.287 219.328C169.109 221.536 171.924 263.525 174.108 285.122C176.771 269.856 180.392 240.481 182.833 219.632C182.043 219.247 181.146 219.14 180.287 219.328Z" fill="#407BFF"/>
<path opacity="0.4" d="M180.287 219.328C169.109 221.536 171.924 263.525 174.108 285.122C176.771 269.856 180.392 240.481 182.833 219.632C182.043 219.247 181.146 219.14 180.287 219.328Z" fill="#FAFAFA"/>
<path d="M201.812 195.967C201.812 195.967 205.48 260.113 205.55 286.288C205.631 313.503 199.569 402.621 199.569 402.621H185.028C185.028 402.621 181.115 315.091 179.433 288.367C177.611 259.226 171.643 195.967 171.643 195.967H201.812Z" fill="#407BFF"/>
<path opacity="0.6" d="M201.812 195.967C201.812 195.967 205.48 260.113 205.55 286.288C205.631 313.503 199.569 402.621 199.569 402.621H185.028C185.028 402.621 181.115 315.091 179.433 288.367C177.611 259.226 171.643 195.967 171.643 195.967H201.812Z" fill="#FAFAFA"/>
<path d="M205.329 187.722L201.252 188.049C200.92 188.077 200.599 188.178 200.311 188.346C200.023 188.514 199.776 188.744 199.588 189.019C199.4 189.294 199.276 189.608 199.224 189.937C199.173 190.266 199.195 190.603 199.29 190.922L200.972 196.587C201.114 197.047 201.365 197.466 201.704 197.809C202.043 198.151 202.459 198.406 202.918 198.553C203.377 198.7 203.864 198.734 204.339 198.652C204.813 198.57 205.261 198.374 205.644 198.082C207.75 196.122 209.26 193.608 210.001 190.829L205.329 187.722Z" fill="#E4897B"/>
<path d="M196.125 392.179C196.085 392.174 196.05 392.154 196.024 392.124C195.998 392.094 195.984 392.055 195.984 392.016C197.596 367.359 201.334 307.686 201.264 286.288C201.264 264.388 198.601 215.403 197.76 200.908C197.758 200.888 197.761 200.869 197.767 200.85C197.773 200.832 197.783 200.815 197.796 200.801C197.81 200.787 197.826 200.775 197.843 200.768C197.861 200.76 197.88 200.756 197.9 200.756C197.938 200.756 197.975 200.77 198.003 200.796C198.032 200.822 198.049 200.858 198.052 200.896C198.846 215.391 201.451 264.377 201.556 286.288C201.626 307.698 197.888 367.371 196.276 392.039C196.276 392.059 196.272 392.078 196.265 392.096C196.257 392.113 196.246 392.129 196.231 392.143C196.217 392.156 196.2 392.166 196.182 392.172C196.163 392.179 196.144 392.181 196.125 392.179Z" fill="#407BFF"/>
<path opacity="0.3" d="M196.125 392.179C196.085 392.174 196.05 392.154 196.024 392.124C195.998 392.094 195.984 392.055 195.984 392.016C197.596 367.359 201.334 307.686 201.264 286.288C201.264 264.388 198.601 215.403 197.76 200.908C197.758 200.888 197.761 200.869 197.767 200.85C197.773 200.832 197.783 200.815 197.796 200.801C197.81 200.787 197.826 200.775 197.843 200.768C197.861 200.76 197.88 200.756 197.9 200.756C197.938 200.756 197.975 200.77 198.003 200.796C198.032 200.822 198.049 200.858 198.052 200.896C198.846 215.391 201.451 264.377 201.556 286.288C201.626 307.698 197.888 367.371 196.276 392.039C196.276 392.059 196.272 392.078 196.265 392.096C196.257 392.113 196.246 392.129 196.231 392.143C196.217 392.156 196.2 392.166 196.182 392.172C196.163 392.179 196.144 392.181 196.125 392.179Z" fill="#FAFAFA"/>
<path d="M202.138 396.828C202.208 396.828 201.554 402.867 201.554 402.867H183.871L183.182 397.482L202.138 396.828Z" fill="#407BFF"/>
<path opacity="0.1" d="M202.138 396.828C202.208 396.828 201.554 402.867 201.554 402.867H183.871L183.182 397.482L202.138 396.828Z" fill="#FAFAFA"/>
</svg>
