<svg width="648" height="752" viewBox="0 0 648 752" fill="none" xmlns="http://www.w3.org/2000/svg">
<path d="M0 120.207H612C623.046 120.207 632 129.161 632 140.207V456.207C632 467.253 623.046 476.207 612 476.207H0V120.207Z" fill="url(#paint0_linear_5192_25528)"/>
<rect x="112.423" y="-8" width="728.028" height="379.644" rx="20" transform="rotate(41.6742 112.423 -8)" fill="white" fill-opacity="0.12"/>
<path d="M458.06 255.837L298.731 349.832L139.402 255.837L298.731 119.753L458.06 255.837Z" fill="#0B1142"/>
<path d="M423.006 89.6182H169.779V418.115H423.006V89.6182Z" fill="#C1D8ED"/>
<path d="M399.666 166.029H193.12V173.85H399.666V166.029Z" fill="white"/>
<path d="M399.666 282.026H193.12V289.847H399.666V282.026Z" fill="white"/>
<path d="M399.666 189.228H193.12V197.049H399.666V189.228Z" fill="white"/>
<path d="M399.666 212.428H193.12V220.249H399.666V212.428Z" fill="white"/>
<path d="M399.666 235.626H193.12V243.448H399.666V235.626Z" fill="white"/>
<path d="M399.666 258.826H193.12V266.647H399.666V258.826Z" fill="white"/>
<path d="M372.338 374.823H220.446V382.644H372.338V374.823Z" fill="white"/>
<path d="M399.666 305.225H193.12V313.046H399.666V305.225Z" fill="white"/>
<path d="M399.666 328.424H193.12V336.245H399.666V328.424Z" fill="white"/>
<path d="M399.666 351.624H193.12V359.445H399.666V351.624Z" fill="white"/>
<path d="M399.666 125.089H193.12V146.416H399.666V125.089Z" fill="white"/>
<path d="M458.06 255.837V455.795H139.402V255.837L298.731 349.832L458.06 255.837Z" fill="url(#paint1_linear_5192_25528)"/>
<path d="M507.631 130.212C503.226 128.783 498.482 128.783 494.077 130.212C491.545 131.057 489.284 132.563 487.528 134.574C485.288 137.228 483.634 140.903 483.799 144.423C483.915 146.244 484.491 148.006 485.473 149.543C486.456 151.081 487.812 152.344 489.416 153.214C492.258 154.671 496.533 154.973 499.021 152.641C500.918 150.866 500.821 147.817 499.597 145.701C497.642 142.32 493.372 140.945 489.665 141.416C487.551 141.719 485.52 142.444 483.692 143.548C481.863 144.652 480.275 146.111 479.022 147.841C477.84 149.477 476.984 151.326 476.5 153.286C476.049 155.105 475.865 157.191 476.58 158.97C476.709 159.389 476.993 159.744 477.375 159.961C477.757 160.177 478.207 160.24 478.634 160.136C479.427 159.918 480.138 158.924 479.799 158.082C479.593 157.608 479.476 157.1 479.456 156.584C479.426 155.946 479.476 155.307 479.605 154.682C479.902 153.238 480.442 151.854 481.203 150.591C482.741 148.074 485.119 146.18 487.917 145.246C490.594 144.351 493.753 144.359 495.901 146.387C496.301 146.747 496.628 147.181 496.864 147.664C496.895 147.719 496.992 147.963 496.878 147.675C496.929 147.806 496.975 147.939 497.014 148.076C497.039 148.161 497.062 148.248 497.082 148.333C497.11 148.447 497.15 148.983 497.125 148.495C497.131 148.628 497.247 149.415 497.121 149.491C497.084 149.513 497.22 149.016 497.144 149.308C497.131 149.359 497.13 149.413 497.115 149.463C497.084 149.605 497.044 149.745 496.996 149.881C496.782 150.229 496.46 150.498 496.08 150.646C496.324 150.531 495.827 150.733 495.831 150.732C495.727 150.764 495.623 150.79 495.517 150.815C495.211 150.895 494.898 150.943 494.582 150.959C494.039 150.997 493.492 150.983 492.952 150.916C492.373 150.813 491.807 150.644 491.267 150.412C490.084 149.837 489.076 148.955 488.349 147.858C487.622 146.762 487.202 145.49 487.133 144.177C487.165 142.682 487.502 141.21 488.122 139.851C488.369 139.299 488.651 138.763 488.966 138.247C489.241 137.787 489.55 137.347 489.892 136.933C490.238 136.522 490.611 136.133 491.007 135.77C491.2 135.593 491.398 135.422 491.602 135.257C491.998 134.935 491.346 135.436 491.756 135.139C491.881 135.049 492.007 134.96 492.134 134.874C492.575 134.575 493.034 134.303 493.508 134.059C493.754 133.933 494.003 133.814 494.252 133.701C494.306 133.677 494.548 133.58 494.267 133.694C494.429 133.629 494.591 133.566 494.755 133.506C495.845 133.116 496.971 132.834 498.116 132.663C498.595 132.587 497.768 132.695 498.249 132.647C498.393 132.632 498.535 132.615 498.681 132.601C498.968 132.574 499.254 132.553 499.54 132.538C500.105 132.508 500.669 132.501 501.234 132.516C501.778 132.53 502.322 132.563 502.864 132.617C502.982 132.629 503.79 132.731 503.33 132.665C503.582 132.701 503.832 132.739 504.082 132.782C504.982 132.936 505.871 133.152 506.742 133.428C508.794 134.084 509.673 130.861 507.63 130.208L507.631 130.212Z" fill="#F7BC76"/>
<path d="M616.53 188.072C612.125 186.643 607.381 186.643 602.976 188.072C600.443 188.917 598.182 190.423 596.426 192.434C594.186 195.088 592.533 198.763 592.697 202.283C592.813 204.104 593.389 205.866 594.372 207.403C595.354 208.941 596.711 210.204 598.315 211.074C601.156 212.531 605.432 212.833 607.919 210.501C609.817 208.726 609.719 205.677 608.496 203.562C606.54 200.18 602.27 198.806 598.564 199.276C596.45 199.579 594.418 200.304 592.59 201.408C590.762 202.512 589.174 203.971 587.921 205.701C586.739 207.337 585.882 209.186 585.398 211.146C584.947 212.965 584.763 215.051 585.478 216.83C585.607 217.249 585.892 217.604 586.274 217.821C586.655 218.038 587.106 218.1 587.532 217.996C588.326 217.778 589.036 216.784 588.698 215.942C588.491 215.468 588.375 214.96 588.354 214.444C588.324 213.806 588.374 213.167 588.504 212.542C588.801 211.098 589.341 209.714 590.101 208.451C591.64 205.934 594.018 204.041 596.816 203.106C599.492 202.211 602.652 202.219 604.799 204.248C605.199 204.607 605.526 205.041 605.763 205.524C605.793 205.579 605.89 205.823 605.776 205.535C605.828 205.666 605.873 205.799 605.913 205.936C605.938 206.021 605.961 206.108 605.981 206.193C606.008 206.307 606.048 206.843 606.023 206.355C606.03 206.488 606.146 207.275 606.02 207.351C605.982 207.373 606.119 206.876 606.042 207.168C606.029 207.219 606.028 207.273 606.013 207.323C605.983 207.465 605.943 207.605 605.894 207.742C605.68 208.089 605.359 208.358 604.978 208.506C605.222 208.391 604.725 208.594 604.729 208.592C604.625 208.624 604.521 208.65 604.416 208.675C604.11 208.755 603.796 208.804 603.481 208.819C602.937 208.857 602.391 208.843 601.85 208.776C601.271 208.673 600.706 208.504 600.165 208.272C598.982 207.697 597.975 206.815 597.248 205.719C596.521 204.622 596.101 203.351 596.031 202.037C596.064 200.542 596.4 199.071 597.021 197.711C597.268 197.159 597.549 196.623 597.864 196.107C598.139 195.647 598.449 195.207 598.79 194.793C599.137 194.382 599.509 193.994 599.905 193.63C600.098 193.453 600.296 193.282 600.5 193.117C600.896 192.795 600.244 193.297 600.655 192.999C600.78 192.909 600.905 192.82 601.032 192.734C601.474 192.435 601.933 192.163 602.406 191.919C602.652 191.793 602.901 191.674 603.151 191.562C603.205 191.537 603.447 191.44 603.166 191.554C603.327 191.489 603.49 191.426 603.653 191.366C604.743 190.977 605.869 190.694 607.014 190.523C607.493 190.447 606.666 190.555 607.148 190.507C607.292 190.493 607.434 190.475 607.58 190.461C607.866 190.434 608.153 190.413 608.439 190.398C609.003 190.368 609.567 190.361 610.132 190.376C610.677 190.39 611.22 190.424 611.762 190.477C611.881 190.489 612.688 190.592 612.229 190.525C612.48 190.561 612.73 190.599 612.98 190.643C613.881 190.796 614.77 191.012 615.64 191.288C617.693 191.944 618.571 188.721 616.529 188.068L616.53 188.072Z" fill="#F7BC76"/>
<path d="M188.736 68.96C192.996 67.4288 197.439 70.5249 199.443 74.3161C201.416 78.0528 200.956 83.3906 197.096 85.7812C195.455 86.797 193.158 87.1377 191.727 85.8339C190.235 84.474 190.326 82.7797 191.801 81.4197C192.146 81.1102 192.522 80.8369 192.924 80.6044C193.157 80.4635 193.396 80.3301 193.64 80.2075C193.729 80.1629 193.82 80.1199 193.91 80.0776C194.158 79.963 193.55 80.2075 193.999 80.0403C194.36 79.9041 194.729 79.7894 195.103 79.6968C195.281 79.654 195.46 79.6159 195.64 79.5823C195.744 79.5628 195.849 79.5456 195.953 79.529C195.609 79.5834 196.119 79.5136 196.145 79.5113C196.993 79.4332 197.847 79.4474 198.693 79.5536C198.976 79.5891 198.467 79.517 198.75 79.5639C198.861 79.5828 198.973 79.6012 199.083 79.6212C199.278 79.6571 199.472 79.6977 199.665 79.7432C200.137 79.8538 200.602 79.99 201.059 80.1514C201.189 80.1972 201.581 80.3478 201.579 80.3467C201.44 80.2894 201.698 80.4005 201.694 80.3988C201.798 80.4463 201.902 80.495 202.005 80.5454C202.444 80.7581 202.869 80.9966 203.28 81.2594C203.983 81.7038 204.619 82.2464 205.169 82.8707C205.71 83.4773 206.158 84.1603 206.499 84.8977C206.567 85.0336 206.624 85.1742 206.671 85.3186C206.773 85.6003 206.863 85.8872 206.945 86.1775C207.128 86.7995 207.264 87.4342 207.354 88.0762C207.646 90.4373 207.27 92.833 206.268 94.9907C205.266 97.1484 203.678 98.9816 201.686 100.282C200.891 100.779 199.989 101.079 199.055 101.158C198.121 101.237 197.182 101.092 196.315 100.735C196.075 100.619 195.844 100.485 195.624 100.334C195.361 100.158 195.748 100.458 195.596 100.317C195.557 100.28 195.516 100.245 195.478 100.206C195.428 100.154 195.384 100.099 195.336 100.046C195.771 100.527 195.387 100.136 195.413 100.124C195.376 100.064 195.342 100.001 195.312 99.9371C195.405 100.082 195.384 100.227 195.341 99.9852C195.33 99.9279 195.236 99.4418 195.266 99.7155C195.294 99.9726 195.273 99.5528 195.271 99.4698C195.269 99.3868 195.282 99.3072 195.285 99.2253C195.285 99.2889 195.2 99.5878 195.278 99.2917C195.329 99.0953 195.366 98.8989 195.429 98.7048C195.462 98.6069 195.632 98.217 195.5 98.4987C195.588 98.3116 195.683 98.1288 195.786 97.9501C195.897 97.76 196.015 97.5762 196.145 97.397C196.158 97.3781 196.331 97.1542 196.202 97.3197C196.277 97.2252 196.356 97.1336 196.436 97.0437C197.127 96.2676 197.935 95.6039 198.83 95.0763C199.106 94.9102 199.386 94.7504 199.672 94.6056C199.769 94.5563 200.219 94.3651 199.852 94.5094C200.204 94.3705 200.563 94.2524 200.929 94.1555C201.668 93.9344 202.436 93.8295 203.208 93.8446C203.643 93.8379 204.079 93.8541 204.513 93.8933C204.66 93.8964 204.806 93.9156 204.948 93.9505C205.212 93.9992 205.475 94.0536 205.736 94.1223C206.604 94.3205 207.423 94.6955 208.141 95.224C209.463 96.294 210.395 97.7716 210.789 99.4263C211.238 101.151 211.278 102.955 210.909 104.698C210.564 106.422 209.809 108.037 208.707 109.407C208.149 110.085 207.491 110.676 206.757 111.158C204.964 112.328 206.636 115.224 208.443 114.042C212.581 111.343 214.799 106.279 214.472 101.399C214.355 98.9232 213.522 96.5347 212.075 94.5226C210.513 92.4659 208.214 91.096 205.662 90.7016C200.846 89.912 195.699 91.8308 193.032 96.0577C191.977 97.7297 191.453 100.016 192.532 101.81C193.9 104.086 197.205 104.73 199.639 104.43C202.633 104.063 205.098 102.254 206.974 99.9577C209.057 97.507 210.364 94.4917 210.727 91.2959C211.054 88.3221 210.488 85.3183 209.101 82.6674C207.934 80.6413 206.217 78.9872 204.149 77.8971C200.191 75.7699 195.071 75.3605 191.145 77.7734C188.576 79.3521 186.564 82.1361 187.528 85.2688C187.984 86.6785 188.884 87.9032 190.093 88.7605C191.301 89.6179 192.755 90.0621 194.236 90.0271C200.592 89.9194 204.596 83.2704 203.856 77.4299C203.086 71.3717 198.13 65.9446 191.959 65.2587C190.57 65.1047 189.164 65.2677 187.847 65.7356C187.426 65.8631 187.07 66.1474 186.853 66.5298C186.636 66.9122 186.574 67.3634 186.681 67.7901C186.802 68.2151 187.085 68.5755 187.469 68.7936C187.854 69.0118 188.308 69.0703 188.735 68.9565L188.736 68.96Z" fill="#F7BC76"/>
<path d="M82.533 231.905C78.4054 233.764 73.7339 231.024 71.44 227.401C69.1818 223.829 69.2235 218.472 72.8856 215.787C74.4419 214.646 76.7055 214.127 78.2338 215.316C79.8276 216.555 79.8691 218.251 78.5048 219.722C78.1846 220.058 77.8308 220.359 77.449 220.623C77.2271 220.781 76.9994 220.933 76.7658 221.074C76.6802 221.126 76.5934 221.175 76.5065 221.225C76.2688 221.358 76.8554 221.067 76.4209 221.269C76.0717 221.433 75.7132 221.576 75.3471 221.698C75.1735 221.754 74.998 221.806 74.8206 221.854C74.7182 221.881 74.6157 221.906 74.5131 221.931C74.8513 221.85 74.3487 221.959 74.3232 221.964C73.4835 222.108 72.6307 222.16 71.7796 222.12C71.4948 222.107 72.0074 222.139 71.7217 222.115C71.6095 222.104 71.4968 222.095 71.385 222.084C71.1881 222.063 70.9916 222.038 70.7955 222.007C70.3167 221.934 69.8422 221.834 69.3742 221.709C69.241 221.674 68.8377 221.554 68.84 221.555C68.9832 221.601 68.7171 221.511 68.7218 221.512C68.6142 221.473 68.5065 221.432 68.3998 221.39C67.946 221.212 67.5031 221.008 67.0733 220.778C66.3374 220.39 65.6608 219.898 65.0638 219.319C64.4776 218.756 63.9776 218.11 63.5801 217.402C63.5021 217.272 63.4338 217.136 63.3759 216.996C63.2523 216.723 63.1403 216.444 63.0355 216.161C62.8049 215.555 62.6189 214.933 62.4791 214.3C62.0037 211.969 62.1921 209.551 63.0228 207.322C63.8534 205.092 65.2931 203.141 67.1779 201.689C67.9315 201.132 68.807 200.762 69.7321 200.61C70.6572 200.459 71.605 200.53 72.4971 200.818C72.7454 200.915 72.9861 201.03 73.2168 201.163C73.4932 201.319 73.0838 201.05 73.2462 201.179C73.2884 201.212 73.3317 201.245 73.3724 201.281C73.4262 201.329 73.475 201.379 73.5264 201.428C73.0551 200.983 73.4692 201.343 73.4433 201.357C73.4856 201.414 73.5244 201.474 73.5595 201.535C73.4552 201.398 73.4644 201.252 73.5267 201.49C73.542 201.546 73.6735 202.023 73.6219 201.753C73.5739 201.499 73.6283 201.915 73.6365 201.998C73.6447 202.081 73.6378 202.161 73.6419 202.243C73.6369 202.179 73.6975 201.875 73.6436 202.176C73.6075 202.376 73.5857 202.575 73.5381 202.773C73.5138 202.873 73.3741 203.275 73.484 202.984C73.411 203.177 73.3302 203.367 73.2414 203.553C73.146 203.751 73.0422 203.944 72.9272 204.133C72.9155 204.152 72.7606 204.389 72.8761 204.214C72.8087 204.314 72.7371 204.412 72.6648 204.508C72.0361 205.335 71.2826 206.06 70.431 206.656C70.1694 206.843 69.9027 207.024 69.628 207.191C69.5354 207.247 69.1022 207.473 69.4563 207.301C69.1166 207.467 68.7674 207.613 68.4107 207.738C67.6913 208.016 66.933 208.18 66.163 208.225C65.7291 208.266 65.2934 208.284 64.8576 208.279C64.7111 208.287 64.5642 208.279 64.4193 208.256C64.1524 208.228 63.8861 208.194 63.621 208.146C62.7394 208.016 61.894 207.706 61.1374 207.235C59.7354 206.272 58.6915 204.871 58.1686 203.253C57.5873 201.569 57.4056 199.772 57.6378 198.006C57.8469 196.261 58.4738 194.592 59.4653 193.14C59.9692 192.42 60.5785 191.78 61.2729 191.242C62.9695 189.935 61.0766 187.179 59.3672 188.498C55.4529 191.512 53.6366 196.734 54.3429 201.573C54.6534 204.032 55.67 206.349 57.2698 208.242C58.9873 210.17 61.3865 211.356 63.9616 211.55C68.8241 211.962 73.8063 209.647 76.1349 205.225C77.0565 203.476 77.3998 201.155 76.1848 199.451C74.6428 197.289 71.2976 196.904 68.8943 197.394C65.938 197.993 63.6216 199.989 61.9308 202.425C60.0454 205.031 58.9783 208.139 58.8655 211.353C58.7717 214.344 59.5706 217.294 61.1602 219.828C62.4813 221.757 64.3222 223.272 66.4693 224.198C70.581 226.01 75.7176 226.018 79.4436 223.306C81.8812 221.532 83.6699 218.599 82.4646 215.551C81.8992 214.181 80.9067 213.031 79.6348 212.27C78.3628 211.51 76.8793 211.181 75.4051 211.331C69.077 211.934 65.604 218.876 66.798 224.641C68.0386 230.62 73.403 235.644 79.608 235.846C81.005 235.891 82.3941 235.619 83.6707 235.05C84.0803 234.89 84.4128 234.579 84.5994 234.18C84.786 233.782 84.8124 233.328 84.6731 232.91C84.5192 232.496 84.2087 232.159 83.8086 231.972C83.4085 231.784 82.9507 231.761 82.5339 231.908L82.533 231.905Z" fill="#F7BC76"/>
<path d="M374.293 113.619C379.158 113.162 383.732 111.096 387.291 107.747C389.336 105.753 390.762 103.21 391.396 100.425C392.186 96.9823 391.872 92.8968 389.9 89.9003C388.98 88.5629 387.768 87.451 386.357 86.6479C384.946 85.8447 383.372 85.371 381.752 85.2623C378.656 85.1312 374.702 86.5031 373.374 89.5528C372.312 91.9921 373.626 94.8865 375.73 96.3055C379.066 98.5563 383.42 98.037 386.723 96.0088C388.519 94.851 390.062 93.3427 391.261 91.5742C392.46 89.8058 393.289 87.8136 393.7 85.7169C394.421 82.0076 393.986 77.4056 391.181 74.6279C390.539 73.9924 389.348 74.2535 388.833 74.9039C388.568 75.2557 388.449 75.6959 388.5 76.1331C388.552 76.5703 388.77 76.9709 389.109 77.2516C388.859 77.0037 389.227 77.401 389.243 77.4234C389.314 77.5133 389.382 77.606 389.447 77.6999C389.572 77.8695 389.679 78.052 389.764 78.2445C390.037 78.8309 390.244 79.4453 390.383 80.0768C390.657 81.4188 390.716 82.7956 390.558 84.156C390.2 87.125 388.795 89.869 386.595 91.8947C384.519 93.7843 381.682 95.0635 378.898 94.1817C378.336 94.0251 377.816 93.7473 377.373 93.368C377.288 93.297 377.205 93.2231 377.124 93.1464C377.382 93.3921 377.042 93.0479 377.013 93.0124C376.953 92.9361 376.894 92.8597 376.838 92.7834C376.781 92.7032 376.491 92.1879 376.706 92.6116C376.561 92.3253 376.498 91.9583 376.34 91.688C376.35 91.7035 376.388 92.0791 376.356 91.7367C376.327 91.564 376.32 91.3882 376.337 91.2139C376.418 90.6613 376.308 91.2683 376.403 90.9722C376.416 90.9322 376.586 90.58 376.485 90.7581C376.568 90.629 376.659 90.5051 376.757 90.3871C376.795 90.3349 377.057 90.0561 376.859 90.2485C377.268 89.8745 377.73 89.5617 378.228 89.3197C379.231 88.7807 380.361 88.5235 381.498 88.5753C381.262 88.5668 381.627 88.5908 381.681 88.5971C381.825 88.6137 381.97 88.6263 382.115 88.6475C382.406 88.6881 382.694 88.7454 382.979 88.8193C382.782 88.7672 383.064 88.8462 383.082 88.8513C383.253 88.9086 383.425 88.9659 383.59 89.0351C383.903 89.1613 384.208 89.3033 384.506 89.4606C385.583 90.0453 386.507 90.874 387.206 91.8804C388.708 94.1708 388.674 97.3837 388.091 99.922C388.021 100.229 387.977 100.38 387.929 100.538C387.842 100.812 387.745 101.084 387.64 101.352C387.433 101.873 387.192 102.38 386.92 102.87C386.659 103.34 387.092 102.612 386.805 103.065C386.747 103.157 386.688 103.249 386.628 103.34C386.478 103.565 386.321 103.786 386.158 104.003C385.802 104.473 385.417 104.92 385.005 105.342C384.931 105.418 384.856 105.494 384.779 105.568C385.029 105.324 384.631 105.701 384.58 105.746C384.363 105.94 384.142 106.128 383.915 106.309C383.424 106.702 382.912 107.068 382.382 107.406C382.141 107.56 381.896 107.704 381.651 107.85C381.579 107.893 381.279 108.06 381.572 107.899C381.437 107.973 381.301 108.044 381.164 108.114C380.626 108.39 380.077 108.642 379.517 108.871C378.527 109.272 377.511 109.606 376.477 109.873C376.387 109.897 376.083 109.964 376.446 109.882C376.319 109.911 376.192 109.94 376.064 109.967C375.818 110.02 375.57 110.067 375.32 110.111C374.861 110.191 374.4 110.254 373.937 110.299C371.793 110.512 372.146 113.833 374.285 113.62L374.293 113.619Z" fill="#F7BC76"/>
<path d="M236.275 36.9373L230.977 40.3438L239.044 52.8913L244.342 49.4848L236.275 36.9373Z" fill="#F7BC76"/>
<path d="M340.952 146.656L331.841 160.413L337.092 163.891L346.204 150.134L340.952 146.656Z" fill="#F7BC76"/>
<path d="M45.985 77.2516L38 89.4753L43.2732 92.92L51.2582 80.6962L45.985 77.2516Z" fill="#F7BC76"/>
<path d="M546.711 202.917L540.596 204.427L544.504 220.26L550.619 218.75L546.711 202.917Z" fill="#0CBC8B"/>
<path d="M559.318 77.1891L554.133 80.7634L563.742 94.7048L568.928 91.1305L559.318 77.1891Z" fill="#F7BC76"/>
<path d="M98.3917 139.919L86.6162 153.861L91.4281 157.925L103.204 143.983L98.3917 139.919Z" fill="#F7BC76"/>
<path d="M112.572 97.4847L98.583 85.7649L94.538 90.593L108.527 102.313L112.572 97.4847Z" fill="#F7BC76"/>
<path d="M195.066 240.759L183.687 252.442L188.198 256.837L199.578 245.154L195.066 240.759Z" fill="#F7BC76"/>
<path d="M357.38 44L346 55.6824L350.512 60.0773L361.892 48.3949L357.38 44Z" fill="#F7BC76"/>
<path d="M440.266 225.856L434.968 229.263L443.036 241.81L448.333 238.404L440.266 225.856Z" fill="#F7BC76"/>
<path d="M494.582 269.843C495.884 261.429 493.307 255.727 489.204 252.207C485.157 248.735 471.54 244.259 464.761 253.765C460.338 259.968 461.358 262.561 458.831 273.153C456.304 283.746 452.38 284.329 446.692 296.79C442.225 306.563 458.208 314.398 472.793 316.023C487.378 317.648 497.042 315.76 499.216 306.649C502.332 293.574 492.031 286.332 494.582 269.843Z" fill="#0F1011"/>
<path d="M482.575 291.894C482.575 291.894 478.554 288.902 481.362 277.135L472.577 274.07C472.577 274.07 471.952 284.91 466.857 287.6L482.575 291.894Z" fill="#E98862"/>
<g opacity="0.15">
<path d="M469.053 285.651L477.447 281.058L471.557 280.091C471.076 282.084 470.226 283.969 469.053 285.651Z" fill="black"/>
</g>
<path d="M487.201 273.302C486.02 276.821 483.521 279.944 480.152 280.62C476.464 281.466 472.625 281.397 468.97 280.418C459.195 278.087 464.609 255.88 469.98 252.23C475.351 248.58 488.719 253.466 489.273 261.036C489.56 264.951 488.325 269.952 487.201 273.302Z" fill="#E98862"/>
<path d="M473.594 268.352C474.053 268.352 474.424 267.98 474.424 267.522C474.424 267.064 474.053 266.692 473.594 266.692C473.136 266.692 472.765 267.064 472.765 267.522C472.765 267.98 473.136 268.352 473.594 268.352Z" fill="#0F1011"/>
<path d="M467.206 266.828C467.664 266.828 468.035 266.456 468.035 265.998C468.035 265.54 467.664 265.168 467.206 265.168C466.747 265.168 466.376 265.54 466.376 265.998C466.376 266.456 466.747 266.828 467.206 266.828Z" fill="#0F1011"/>
<path d="M481.979 262.911C480.077 271.293 479.695 279.949 480.852 288.466C480.852 288.466 489.589 277.634 492.189 267.892C494.624 258.76 488.623 252.226 484.158 250.485C467.191 243.858 464.125 256.489 464.125 256.489C464.63 261.021 483.407 266.496 483.407 266.496" fill="#0F1011"/>
<path d="M477.194 271.693C477.08 272.144 477.058 272.613 477.127 273.074C477.197 273.534 477.357 273.976 477.598 274.374C477.84 274.771 478.158 275.117 478.534 275.391C478.91 275.666 479.337 275.862 479.789 275.97C480.242 276.078 480.712 276.095 481.171 276.02C481.63 275.946 482.07 275.78 482.465 275.534C482.86 275.288 483.203 274.966 483.472 274.587C483.742 274.208 483.934 273.778 484.036 273.325C484.152 272.875 484.175 272.407 484.106 271.948C484.036 271.489 483.875 271.049 483.632 270.653C483.389 270.258 483.069 269.916 482.691 269.647C482.313 269.377 481.884 269.187 481.431 269.087C478.965 268.626 477.643 269.803 477.194 271.693Z" fill="#E98862"/>
<path d="M552 420.013L503.471 428.875C502.033 429.138 500.551 428.985 499.196 428.435C497.842 427.885 496.672 426.96 495.823 425.769L495.458 425.253L474 395.076L493.149 384L506.52 413.364L550.227 408.118L552 420.013Z" fill="#E98862"/>
<path d="M560.932 434.065C561.011 434.383 561.021 434.713 560.963 435.035C560.905 435.356 560.78 435.663 560.595 435.935C560.41 436.208 560.169 436.44 559.888 436.618C559.607 436.796 559.292 436.915 558.961 436.968C558.503 437.042 558.033 436.987 557.607 436.809C557.18 436.63 556.814 436.337 556.552 435.963L548.369 423.366C548.211 423.122 548.11 422.847 548.071 422.561C548.032 422.275 548.058 421.984 548.145 421.708C549.01 419.498 549.126 417.075 548.475 414.795C547.893 413.038 546.817 411.475 545.368 410.286C545.229 410.185 545.122 410.046 545.06 409.888C544.998 409.729 544.984 409.556 545.019 409.39C545.054 409.224 545.136 409.071 545.257 408.948C545.378 408.826 545.532 408.74 545.701 408.7L552.583 407.045C552.786 406.996 552.997 406.987 553.204 407.018C553.411 407.049 553.609 407.119 553.788 407.225C553.966 407.331 554.122 407.47 554.245 407.635C554.369 407.8 554.457 407.987 554.507 408.185L560.932 434.065Z" fill="#F7BC76"/>
<path d="M446.615 434L464 501.627L452.614 505L431 438.691L446.615 434Z" fill="#E98862"/>
<path d="M440.099 514.879C439.794 514.979 439.47 515.018 439.149 514.992C438.827 514.966 438.515 514.876 438.231 514.728C437.947 514.58 437.698 514.376 437.499 514.131C437.3 513.885 437.156 513.602 437.075 513.3C436.963 512.881 436.977 512.441 437.115 512.03C437.253 511.619 437.509 511.255 437.854 510.98L449.522 502.309C449.748 502.142 450.009 502.024 450.287 501.964C450.565 501.903 450.852 501.902 451.131 501.959C453.377 502.573 455.767 502.473 457.95 501.674C459.626 500.984 461.068 499.851 462.111 498.406C462.198 498.268 462.325 498.157 462.475 498.086C462.626 498.015 462.794 497.987 462.96 498.005C463.127 498.023 463.284 498.087 463.415 498.189C463.545 498.29 463.643 498.426 463.697 498.579L465.917 504.82C465.982 505.004 466.01 505.199 465.997 505.393C465.985 505.588 465.933 505.778 465.844 505.953C465.755 506.128 465.632 506.284 465.481 506.412C465.33 506.541 465.154 506.639 464.963 506.702L440.099 514.879Z" fill="#F7BC76"/>
<path d="M442.001 347C442.001 347 426.884 395.356 422.752 409.159C413.403 440.384 430.873 463.697 430.873 463.697C430.873 463.697 454.506 467.044 466.258 451.497C487.991 422.741 515.806 442.755 517 410.883C501.177 407.919 483.431 350.96 483.431 350.96L442.001 347Z" fill="#262626"/>
<path d="M447.147 229L441.025 226.671C441.025 226.671 440.253 218.025 447.315 213.454C449.655 211.938 451.362 214.631 450.934 215.512C449.517 218.418 447.836 221.094 447.87 223.888C448.775 223.019 450.08 221.908 450.465 222.313C451.475 223.379 447.147 229 447.147 229Z" fill="#E98862"/>
<path d="M524.847 246.585L530.881 247C530.881 247 534.046 238.323 529.729 231.18C528.3 228.813 525.872 230.574 525.914 231.561C526.057 234.822 527.14 239.038 526.096 241.59C525.645 240.414 524.944 238.85 524.47 239.061C523.225 239.617 524.847 246.585 524.847 246.585Z" fill="#E98862"/>
<path d="M535 245.569L528.018 282.403C527.852 283.285 527.497 284.12 526.98 284.852C526.462 285.584 525.794 286.194 525.02 286.642L498.522 301.993C498.863 311.135 489.834 321.565 488.183 331.092C486.135 342.935 490.545 349.171 489.105 355.179C486.835 364.625 441.071 354.298 439.66 348.456C438.203 342.444 443.717 339.851 446.664 321.515C448.07 312.784 447.302 301.873 449.583 294.338L428.326 267.162C427.701 266.362 427.28 265.42 427.1 264.419C426.919 263.418 426.985 262.388 427.29 261.418L439.119 224L450.943 227.776L440.11 262.047L458.511 285.573C460.143 285.342 461.801 285.346 463.432 285.585C463.785 285.631 464.354 285.716 465.088 285.831C464.701 288.96 483.791 292.29 484.747 289.195C487.172 289.593 489.516 290.391 491.683 291.558L516.366 277.26L522.812 243.235L535 245.569Z" fill="#642F71"/>
<path d="M322.775 260L296.511 246.329L270.226 260L275.256 231.058L254 210.553L283.368 206.339L296.511 180L309.622 206.339L339 210.553L317.745 231.058L322.775 260Z" fill="url(#paint2_linear_5192_25528)" fill-opacity="0.5"/>
<path d="M484 289.159C483.08 292.065 477.039 296.222 470.477 294.659C465.559 293.494 464.704 288.938 465.077 286C468.894 286.591 477.444 288.036 483.984 289.153C483.987 289.153 483.99 289.153 483.992 289.154C483.995 289.155 483.998 289.157 484 289.159Z" fill="#E98862"/>
<path d="M405.736 150.56L400.749 142.579L392.684 147.427L407.492 85.7317L420.544 88.8644L405.736 150.56Z" fill="#367CFF"/>
<path d="M405.736 151.132C405.639 151.132 405.543 151.108 405.458 151.061C405.373 151.014 405.302 150.946 405.25 150.863L400.562 143.362L392.978 147.921C392.881 147.979 392.77 148.007 392.657 148.002C392.544 147.997 392.436 147.959 392.345 147.892C392.254 147.825 392.184 147.733 392.145 147.627C392.107 147.521 392.1 147.406 392.126 147.297L406.935 85.6006C406.97 85.4536 407.062 85.3267 407.191 85.2474C407.32 85.1681 407.475 85.143 407.622 85.1774L420.677 88.3107C420.75 88.3282 420.819 88.36 420.88 88.4042C420.941 88.4484 420.992 88.5042 421.032 88.5683C421.071 88.6324 421.097 88.7037 421.109 88.778C421.121 88.8523 421.118 88.9281 421.1 89.0012L406.292 150.694C406.266 150.803 406.208 150.903 406.125 150.979C406.043 151.056 405.939 151.107 405.828 151.125C405.797 151.13 405.767 151.132 405.736 151.132ZM400.748 142.006C400.846 142.006 400.941 142.031 401.026 142.078C401.111 142.125 401.183 142.193 401.235 142.275L405.498 149.099L419.852 89.2875L407.913 86.4245L393.558 146.233L400.454 142.088C400.543 142.035 400.645 142.007 400.748 142.008V142.006Z" fill="#292A2E"/>
<path d="M423.247 150.56L428.233 142.579L436.299 147.427L421.491 85.7314L408.438 88.8641L423.247 150.56Z" fill="#367CFF"/>
<path d="M423.246 151.132C423.215 151.132 423.185 151.13 423.154 151.125C423.043 151.107 422.939 151.056 422.857 150.979C422.774 150.903 422.716 150.803 422.69 150.694L407.884 88.9982C407.866 88.9251 407.863 88.8492 407.875 88.7749C407.887 88.7007 407.913 88.6294 407.953 88.5653C407.992 88.5012 408.043 88.4454 408.104 88.4012C408.165 88.357 408.234 88.3252 408.307 88.3077L421.362 85.1744C421.51 85.1391 421.666 85.1638 421.795 85.2432C421.924 85.3225 422.017 85.45 422.052 85.5976L436.858 147.294C436.884 147.403 436.877 147.518 436.838 147.624C436.799 147.73 436.73 147.822 436.639 147.888C436.548 147.955 436.44 147.993 436.327 147.999C436.214 148.004 436.103 147.976 436.006 147.918L428.423 143.359L423.734 150.86C423.683 150.943 423.611 151.012 423.526 151.06C423.44 151.107 423.344 151.132 423.246 151.132ZM409.128 89.2874L423.484 149.098L427.747 142.275C427.827 142.148 427.953 142.057 428.099 142.022C428.245 141.987 428.399 142.011 428.528 142.088L435.423 146.233L421.068 86.4215L409.128 89.2874Z" fill="#292A2E"/>
<path d="M447.942 97.5816C447.942 100.983 443.671 103.67 442.674 106.739C441.643 109.921 443.48 114.597 441.553 117.245C439.606 119.92 434.578 119.605 431.903 121.551C429.255 123.479 428.009 128.369 424.83 129.402C421.76 130.399 417.893 127.206 414.491 127.206C411.089 127.206 407.219 130.399 404.151 129.402C400.97 128.371 399.726 123.479 397.078 121.551C394.403 119.604 389.374 119.919 387.428 117.245C385.501 114.596 387.341 109.921 386.308 106.739C385.311 103.67 381.04 100.983 381.04 97.5816C381.04 94.1798 385.31 91.4937 386.308 88.424C387.339 85.2421 385.501 80.5662 387.428 77.918C389.375 75.2433 394.403 75.5583 397.078 73.6114C399.726 71.6841 400.972 66.7935 404.152 65.7605C407.222 64.7642 411.088 67.957 414.491 67.957C417.893 67.957 421.76 64.7642 424.83 65.7605C428.012 66.794 429.255 71.6846 431.904 73.612C434.578 75.5588 439.607 75.2433 441.554 77.918C443.481 80.5662 441.64 85.2421 442.674 88.424C443.673 91.4937 447.942 94.1792 447.942 97.5816Z" fill="#F7BC76"/>
<path d="M423.551 130.167C422.041 130.167 420.454 129.552 418.906 128.953C417.414 128.376 415.872 127.779 414.492 127.779C413.112 127.779 411.569 128.376 410.076 128.953C408.022 129.749 405.896 130.571 403.976 129.947C401.962 129.293 400.705 127.33 399.489 125.431C398.615 124.066 397.789 122.776 396.741 122.015C395.675 121.239 394.107 120.826 392.595 120.428C390.43 119.855 388.192 119.268 386.965 117.582C385.752 115.915 385.877 113.617 386.001 111.394C386.087 109.82 386.177 108.192 385.763 106.916C385.373 105.714 384.415 104.548 383.401 103.313C381.959 101.558 380.468 99.7432 380.468 97.5817C380.468 95.4201 381.957 93.6049 383.401 91.8493C384.415 90.6148 385.373 89.4484 385.763 88.2471C386.178 86.9714 386.088 85.3429 386.001 83.7688C385.879 81.546 385.752 79.2453 386.965 77.5813C388.192 75.8944 390.43 75.3052 392.595 74.7355C394.109 74.3346 395.675 73.9247 396.741 73.1482C397.788 72.3867 398.614 71.0966 399.49 69.7315C400.706 67.8333 401.963 65.8699 403.976 65.216C405.9 64.593 408.023 65.4147 410.078 66.2094C411.569 66.7872 413.112 67.3844 414.492 67.3844C415.872 67.3844 417.413 66.7872 418.907 66.2094C420.962 65.4147 423.087 64.5924 425.008 65.216C427.022 65.8705 428.279 67.8333 429.495 69.7321C430.369 71.0972 431.194 72.3867 432.243 73.1488C433.31 73.9247 434.877 74.3369 436.389 74.7355C438.553 75.3081 440.792 75.895 442.019 77.5813C443.232 79.2481 443.107 81.546 442.983 83.7688C442.897 85.3435 442.807 86.9714 443.221 88.2471C443.611 89.4496 444.569 90.6148 445.584 91.8499C447.026 93.6049 448.516 95.4201 448.516 97.5817C448.516 99.7432 447.027 101.558 445.584 103.313C444.569 104.548 443.611 105.715 443.221 106.916C442.807 108.192 442.897 109.82 442.983 111.394C443.106 113.617 443.232 115.915 442.019 117.582C440.792 119.268 438.553 119.858 436.389 120.428C434.875 120.829 433.31 121.239 432.243 122.015C431.196 122.777 430.37 124.066 429.494 125.431C428.279 127.33 427.021 129.293 425.007 129.947C424.537 130.097 424.045 130.171 423.551 130.167ZM414.492 126.634C416.085 126.634 417.73 127.27 419.32 127.885C421.274 128.642 423.119 129.356 424.654 128.859C426.278 128.331 427.372 126.626 428.53 124.815C429.423 123.42 430.346 121.978 431.565 121.093C432.805 120.19 434.477 119.75 436.093 119.324C438.154 118.782 440.101 118.269 441.089 116.912C442.062 115.575 441.952 113.577 441.833 111.461C441.741 109.782 441.646 108.045 442.125 106.566C442.583 105.159 443.655 103.853 444.692 102.591C446.006 100.991 447.365 99.3372 447.365 97.5857C447.365 95.8341 446.006 94.1798 444.692 92.5806C443.655 91.3208 442.582 90.0119 442.125 88.6044C441.646 87.126 441.741 85.3893 441.834 83.7098C441.948 81.5946 442.063 79.5963 441.09 78.2592C440.102 76.9028 438.155 76.3897 436.094 75.8469C434.477 75.4214 432.806 74.9811 431.565 74.0787C430.344 73.19 429.421 71.7482 428.531 70.3533C427.372 68.5451 426.279 66.837 424.654 66.3096C423.119 65.8109 421.276 66.5255 419.32 67.2831C417.73 67.898 416.086 68.5348 414.492 68.5348C412.899 68.5348 411.254 67.898 409.664 67.2825C407.71 66.5261 405.864 65.8115 404.33 66.3091C402.706 66.8364 401.612 68.5451 400.454 70.3533C399.561 71.7476 398.638 73.1894 397.42 74.0787C396.179 74.9811 394.507 75.4214 392.891 75.8469C390.83 76.3897 388.883 76.9022 387.896 78.2587C386.922 79.5957 387.033 81.5941 387.151 83.7092C387.243 85.3893 387.339 87.1254 386.859 88.6044C386.4 90.0119 385.329 91.318 384.292 92.5806C382.975 94.1798 381.619 95.8335 381.619 97.5857C381.619 99.3378 382.978 100.991 384.292 102.591C385.329 103.85 386.402 105.159 386.859 106.566C387.339 108.045 387.243 109.782 387.151 111.461C387.036 113.577 386.922 115.575 387.895 116.912C388.883 118.269 390.83 118.781 392.891 119.324C394.507 119.75 396.179 120.19 397.419 121.093C398.64 121.981 399.564 123.423 400.454 124.815C401.612 126.623 402.706 128.331 404.33 128.859C405.863 129.356 407.708 128.643 409.664 127.885C411.254 127.27 412.898 126.634 414.492 126.634Z" fill="#292A2E"/>
<path d="M414.492 112.417C422.685 112.417 429.327 105.775 429.327 97.5818C429.327 89.3884 422.685 82.7463 414.492 82.7463C406.298 82.7463 399.656 89.3884 399.656 97.5818C399.656 105.775 406.298 112.417 414.492 112.417Z" fill="white"/>
<path d="M414.491 112.99C411.444 112.99 408.465 112.086 405.931 110.393C403.397 108.7 401.422 106.294 400.256 103.478C399.09 100.663 398.785 97.5646 399.379 94.5757C399.974 91.5868 401.441 88.8414 403.596 86.6865C405.751 84.5317 408.496 83.0642 411.485 82.4697C414.474 81.8751 417.572 82.1803 420.388 83.3465C423.203 84.5127 425.609 86.4876 427.302 89.0214C428.996 91.5553 429.899 94.5343 429.899 97.5817C429.895 101.667 428.27 105.583 425.381 108.472C422.493 111.36 418.576 112.985 414.491 112.99ZM414.491 83.3188C411.67 83.3188 408.913 84.1553 406.567 85.7225C404.222 87.2898 402.393 89.5173 401.314 92.1235C400.234 94.7297 399.952 97.5975 400.502 100.364C401.053 103.131 402.411 105.672 404.406 107.667C406.4 109.662 408.942 111.02 411.709 111.571C414.475 112.121 417.343 111.838 419.949 110.759C422.556 109.679 424.783 107.851 426.35 105.506C427.918 103.16 428.754 100.403 428.754 97.5817C428.75 93.7999 427.247 90.1739 424.573 87.4995C421.899 84.8251 418.273 83.3207 414.491 83.3165V83.3188Z" fill="#292A2E"/>
<path d="M158.618 456.449C144.43 455.866 134.562 434.524 134.296 432.228C134.198 431.378 133.752 431.327 133.229 431.597C132.469 431.804 131.396 433.025 131.051 433.436C130.518 433.376 128.898 433.233 128.206 433.609C127.641 433.774 127.355 434.119 127.869 434.801C129.262 436.647 136.853 458.901 126.989 469.115C124.916 471.261 126.327 472.263 126.327 472.263L161.27 458.27C161.27 458.27 161.599 456.571 158.618 456.449Z" fill="#F7BC76"/>
<g opacity="0.09">
<path d="M161.269 458.271L159.027 459.169C159.027 459.169 159.357 457.469 156.376 457.347C142.188 456.765 133.921 434.781 133.656 432.485C133.578 431.817 133.285 431.643 132.908 431.731C133.009 431.675 133.117 431.631 133.228 431.599C133.752 431.328 134.198 431.38 134.296 432.228C134.562 434.525 144.43 455.867 158.618 456.449C161.6 456.57 161.269 458.271 161.269 458.271Z" fill="black"/>
</g>
<path d="M168.37 387.37C167.049 394.219 163.421 397.437 159.229 400.673C155.109 403.854 151.55 406.601 150.722 411.896C150.506 413.16 150.489 414.45 150.67 415.72L150.671 415.723C150.716 416.026 150.777 416.326 150.853 416.623C150.959 417.008 150.97 417.413 150.885 417.804C150.811 418.134 150.655 418.441 150.43 418.694C150.206 418.947 149.92 419.138 149.601 419.25C148.656 419.628 147.95 419.467 147.439 419.12C146.978 418.797 146.651 418.316 146.52 417.769C146.49 417.652 146.462 417.534 146.436 417.416C145.995 415.373 145.945 413.264 146.291 411.202C147.394 404.143 152.226 400.414 156.488 397.122C160.397 394.105 162.966 391.705 163.966 386.521C164.462 383.94 163.979 378.665 160.799 375.592C158.324 373.201 155.498 372.35 152.402 373.059C143.949 374.994 143.316 384.238 143.292 384.63C143.25 385.216 142.979 385.761 142.539 386.15C142.099 386.538 141.524 386.738 140.938 386.707C140.351 386.676 139.801 386.417 139.404 385.984C139.007 385.552 138.795 384.981 138.814 384.394C139.011 382.057 139.611 379.771 140.587 377.638C142.755 372.904 146.496 369.81 151.4 368.688C155.938 367.647 160.382 368.954 163.915 372.367C167.943 376.258 169.22 382.964 168.37 387.37Z" fill="#F7BC76"/>
<path d="M72.2598 425.859C77.9432 429.903 83.11 429.599 88.3764 429.047C93.5537 428.505 98.0244 428.036 102.279 431.296C103.307 432.062 104.21 432.984 104.956 434.027L104.957 434.03C105.133 434.281 105.296 434.54 105.446 434.807C105.636 435.159 105.908 435.459 106.239 435.683C106.52 435.872 106.844 435.985 107.181 436.013C107.519 436.041 107.857 435.983 108.166 435.843C109.111 435.465 109.51 434.861 109.64 434.258C109.751 433.705 109.656 433.132 109.373 432.645C109.314 432.54 109.253 432.436 109.19 432.332C108.099 430.549 106.679 428.989 105.006 427.736C99.3356 423.389 93.2649 424.025 87.9088 424.585C82.9977 425.101 79.1615 425.266 74.8604 422.205C72.7203 420.68 69.7488 416.401 69.9287 411.983C70.0698 408.544 71.5266 405.978 74.2562 404.353C81.7085 399.92 88.5472 406.171 88.8347 406.439C89.2696 406.833 89.8418 407.041 90.4284 407.018C91.015 406.995 91.5693 406.743 91.9722 406.316C92.3751 405.889 92.5945 405.321 92.5832 404.735C92.572 404.148 92.331 403.588 91.9121 403.177C90.1564 401.621 88.1446 400.381 85.9659 399.512C81.1297 397.583 76.2871 397.926 71.9639 400.499C67.9627 402.879 65.6489 406.892 65.4478 411.8C65.2196 417.395 68.6035 423.258 72.2598 425.859Z" fill="#F7BC76"/>
<path d="M137.155 371.479C136.785 370.793 136.176 370.267 135.443 370.001C134.71 369.736 133.904 369.749 133.181 370.039L86.0366 388.919C85.3127 389.208 84.7208 389.754 84.3736 390.453C84.0265 391.151 83.9484 391.952 84.1543 392.704C86.0802 399.711 91.923 418.228 101.658 425.838C113.784 435.316 126.448 435.37 128.795 434.43L133.654 432.484C136.001 431.545 145.127 422.764 147.359 407.536C149.152 395.311 140.598 377.878 137.155 371.479Z" fill="#F7BC76"/>
<g opacity="0.09">
<path d="M137.155 371.479C136.785 370.793 136.176 370.267 135.442 370.001C134.709 369.736 133.904 369.749 133.181 370.04L123.737 373.821C123.737 373.821 135.214 397.829 137.156 411.385C139.097 424.942 133.571 432.518 133.655 432.484C136.002 431.545 145.128 422.764 147.36 407.536C149.151 395.311 140.598 377.879 137.155 371.479Z" fill="black"/>
</g>
<path d="M161.27 458.27L126.343 472.257L129.685 480.603L164.613 466.616L161.27 458.27Z" fill="#0B1142"/>
<path d="M166.74 465.764L127.557 481.456L128.361 483.463L167.544 467.772L166.74 465.764Z" fill="#0B1142"/>
<path d="M169.557 466.965L126.347 484.27L127.151 486.277L170.361 468.973L169.557 466.965Z" fill="#0B1142"/>
<defs>
<linearGradient id="paint0_linear_5192_25528" x1="249.039" y1="109.707" x2="249.039" y2="628.707" gradientUnits="userSpaceOnUse">
<stop stop-color="#1139CB"/>
<stop offset="1" stop-color="#6B22A5"/>
</linearGradient>
<linearGradient id="paint1_linear_5192_25528" x1="298.731" y1="255.837" x2="298.731" y2="455.795" gradientUnits="userSpaceOnUse">
<stop stop-color="#642F71"/>
<stop offset="1" stop-color="#506BED"/>
</linearGradient>
<linearGradient id="paint2_linear_5192_25528" x1="245.96" y1="219.789" x2="354.5" y2="219.789" gradientUnits="userSpaceOnUse">
<stop stop-color="#506BED"/>
<stop offset="1" stop-color="#642F71"/>
</linearGradient>
</defs>
</svg>
