<svg width="665" height="559" viewBox="0 0 665 559" fill="none" xmlns="http://www.w3.org/2000/svg">
<path d="M0 113.207H612C623.046 113.207 632 122.161 632 133.207V449.207C632 460.253 623.046 469.207 612 469.207H0V113.207Z" fill="url(#paint0_linear_5192_25450)"/>
<rect x="550.151" y="171.004" width="435.531" height="346.296" rx="20" transform="rotate(116.036 550.151 171.004)" fill="white" fill-opacity="0.12"/>
<g clip-path="url(#clip0_5192_25450)">
<path d="M566.196 138.582H192.455C183.277 138.582 175.837 146.006 175.837 155.164V428.205C175.837 437.363 183.277 444.787 192.455 444.787H566.196C575.374 444.787 582.814 437.363 582.814 428.205V155.164C582.814 146.006 575.374 138.582 566.196 138.582Z" fill="white"/>
<path d="M566.195 445.339H192.456C187.903 445.334 183.538 443.527 180.319 440.315C177.099 437.103 175.288 432.747 175.283 428.204V155.164C175.288 150.621 177.099 146.266 180.319 143.053C183.538 139.841 187.903 138.034 192.456 138.029H566.195C570.748 138.034 575.112 139.841 578.332 143.053C581.551 146.265 583.362 150.621 583.367 155.164V428.204C583.362 432.747 581.551 437.103 578.332 440.315C575.113 443.527 570.748 445.334 566.195 445.339ZM192.456 139.134C188.196 139.139 184.113 140.829 181.101 143.834C178.09 146.839 176.396 150.914 176.391 155.164V428.204C176.396 432.454 178.09 436.529 181.101 439.534C184.113 442.539 188.196 444.229 192.456 444.234H566.195C570.454 444.229 574.537 442.539 577.549 439.534C580.56 436.529 582.254 432.454 582.259 428.204V155.164C582.254 150.914 580.56 146.839 577.549 143.834C574.537 140.829 570.454 139.139 566.195 139.134H192.456Z" fill="white"/>
<path d="M582.813 155.164V171.85H175.839V155.164C175.839 150.766 177.59 146.548 180.706 143.438C183.823 140.328 188.05 138.581 192.457 138.581H566.195C570.602 138.581 574.829 140.328 577.946 143.438C581.062 146.548 582.813 150.766 582.813 155.164Z" fill="url(#paint1_linear_5192_25450)"/>
<path opacity="0.2" d="M351.216 306.66H291.027C283.433 306.66 277.276 312.803 277.276 320.381C277.276 327.959 283.433 334.102 291.027 334.102H351.216C358.81 334.102 364.966 327.959 364.966 320.381C364.966 312.803 358.81 306.66 351.216 306.66Z" fill="#F7BC76"/>
<path opacity="0.2" d="M466.822 306.66H406.633C399.039 306.66 392.883 312.803 392.883 320.381C392.883 327.959 399.039 334.102 406.633 334.102H466.822C474.417 334.102 480.573 327.959 480.573 320.381C480.573 312.803 474.417 306.66 466.822 306.66Z" fill="#F7BC76"/>
<path opacity="0.1" d="M542.616 245.352C542.616 248.812 541.934 252.238 540.607 255.435C539.281 258.632 537.336 261.537 534.885 263.983C532.433 266.43 529.522 268.371 526.319 269.695C523.116 271.02 519.682 271.701 516.215 271.702H252.891C249.424 271.702 245.99 271.02 242.787 269.696C239.583 268.372 236.673 266.431 234.221 263.985C231.769 261.538 229.824 258.634 228.497 255.437C227.17 252.241 226.487 248.815 226.487 245.355C226.487 241.895 227.17 238.469 228.497 235.273C229.824 232.076 231.769 229.172 234.221 226.725C236.673 224.279 239.583 222.338 242.787 221.014C245.99 219.69 249.424 219.009 252.891 219.009H516.215C523.216 219.009 529.931 221.785 534.883 226.725C539.834 231.665 542.615 238.366 542.616 245.352Z" fill="#F7BC76"/>
<path opacity="0.1" d="M542.616 245.352C542.616 248.812 541.934 252.238 540.607 255.435C539.281 258.632 537.336 261.537 534.885 263.983C532.433 266.43 529.522 268.371 526.319 269.695C523.116 271.02 519.682 271.701 516.215 271.702H252.891C249.424 271.702 245.99 271.02 242.787 269.696C239.583 268.372 236.673 266.431 234.221 263.985C231.769 261.538 229.824 258.634 228.497 255.437C227.17 252.241 226.487 248.815 226.487 245.355C226.487 241.895 227.17 238.469 228.497 235.273C229.824 232.076 231.769 229.172 234.221 226.725C236.673 224.279 239.583 222.338 242.787 221.014C245.99 219.69 249.424 219.009 252.891 219.009H516.215C523.216 219.009 529.931 221.785 534.883 226.725C539.834 231.665 542.615 238.366 542.616 245.352Z" fill="#F7BC76"/>
<path d="M542.616 245.352C542.616 248.812 541.934 252.238 540.607 255.435C539.281 258.632 537.336 261.537 534.885 263.983C532.433 266.43 529.523 268.371 526.319 269.695C523.116 271.02 519.682 271.701 516.215 271.702H475.312V219.009H516.215C523.217 219.009 529.932 221.785 534.883 226.725C539.834 231.665 542.616 238.366 542.616 245.352Z" fill="#2651ED"/>
<path d="M502.598 252.682C499.495 252.684 496.493 251.576 494.14 249.558C491.786 247.539 490.236 244.746 489.771 241.684C489.307 238.622 489.958 235.495 491.608 232.872C493.257 230.249 495.795 228.304 498.761 227.39C501.726 226.476 504.921 226.653 507.766 227.89C510.611 229.128 512.917 231.342 514.264 234.132C515.612 236.921 515.911 240.101 515.109 243.092C514.306 246.084 512.455 248.688 509.891 250.433C507.741 251.896 505.2 252.679 502.598 252.682ZM502.558 229.563C499.929 229.564 497.401 230.576 495.5 232.388C493.598 234.2 492.469 236.673 492.347 239.294C492.225 241.914 493.119 244.481 494.843 246.462C496.568 248.442 498.991 249.684 501.608 249.929C504.226 250.174 506.838 249.403 508.901 247.778C510.965 246.152 512.322 243.795 512.69 241.198C513.058 238.6 512.41 235.961 510.88 233.828C509.349 231.694 507.054 230.231 504.471 229.742C503.84 229.623 503.2 229.563 502.558 229.563Z" fill="white"/>
<path d="M521.71 263.907C521.508 263.908 521.307 263.864 521.124 263.778C520.94 263.693 520.778 263.568 520.648 263.413L509.099 249.663C508.863 249.382 508.749 249.019 508.781 248.654C508.813 248.289 508.989 247.951 509.271 247.716C509.552 247.48 509.916 247.366 510.282 247.398C510.648 247.43 510.986 247.606 511.222 247.887L522.771 261.638C522.94 261.839 523.048 262.085 523.083 262.345C523.117 262.606 523.076 262.871 522.965 263.109C522.853 263.348 522.676 263.549 522.454 263.691C522.232 263.832 521.974 263.907 521.71 263.907Z" fill="white"/>
<path d="M99.7699 450.107C96.423 450.106 93.1258 449.299 90.1588 447.754C87.1919 446.208 84.6431 443.97 82.7295 441.23C80.8158 438.49 79.594 435.33 79.168 432.017C78.742 428.705 79.1244 425.339 80.2827 422.205C81.4576 419.024 109.128 344.146 114.375 330.653L153.108 345.647C150.158 353.234 139.47 381.987 130.884 405.151L145.149 403.603L149.638 444.815L102.018 449.981C101.271 450.063 100.521 450.105 99.7699 450.107Z" fill="#642F71"/>
<path d="M124.526 447.923L118.166 505.635H241.693L234.578 446.825L124.526 447.923Z" fill="#262626"/>
<path d="M151.266 307.389C140.987 308.149 130.505 311.482 122.787 318.299C111.146 328.58 112.182 335.009 117.994 363.483C122.993 387.983 121.01 398.689 124.355 443.899C124.454 445.231 124.665 447.986 124.665 447.986L234.623 447.803C234.623 447.803 244.926 387.821 250.615 360.156C254.94 339.124 266.303 313.591 218.395 308.445C218.269 308.433 179.845 305.274 151.266 307.389Z" fill="#642F71"/>
<path d="M376.473 284.709C371.293 284.707 366.245 283.081 362.043 280.059C357.84 277.038 354.697 272.774 353.056 267.872C351.415 262.97 351.361 257.677 352.9 252.742C354.44 247.807 357.495 243.48 361.634 240.373C365.774 237.266 370.787 235.537 375.966 235.429C381.144 235.321 386.226 236.84 390.491 239.773C394.757 242.705 397.99 246.901 399.735 251.767C401.479 256.634 401.646 261.924 400.211 266.89C398.721 272.024 395.601 276.537 391.32 279.75C387.04 282.963 381.829 284.704 376.473 284.709ZM376.456 240.944C371.594 240.941 366.912 242.777 363.353 246.082C359.794 249.388 357.624 253.917 357.28 258.756C356.935 263.595 358.442 268.384 361.496 272.158C364.551 275.933 368.926 278.411 373.739 279.094C378.552 279.777 383.446 278.614 387.434 275.839C391.422 273.064 394.207 268.883 395.228 264.14C396.249 259.397 395.43 254.444 392.936 250.28C390.442 246.116 386.458 243.05 381.788 241.7C380.055 241.2 378.26 240.945 376.456 240.944Z" fill="#B2B0C4"/>
<path d="M355.618 315.079C355.165 315.079 354.72 314.969 354.32 314.757C353.921 314.546 353.579 314.24 353.325 313.866C353.072 313.492 352.914 313.063 352.865 312.614C352.816 312.165 352.878 311.711 353.046 311.292L365.643 279.754C365.923 279.085 366.455 278.551 367.125 278.27C367.796 277.988 368.55 277.981 369.225 278.25C369.901 278.518 370.443 279.041 370.736 279.705C371.028 280.369 371.048 281.121 370.789 281.799L358.191 313.338C357.986 313.852 357.631 314.293 357.173 314.603C356.714 314.914 356.172 315.08 355.618 315.079Z" fill="#B2B0C4"/>
<path d="M345.973 311.62L353.698 294.328C353.868 293.949 354.115 293.608 354.424 293.329C354.733 293.049 355.097 292.837 355.493 292.706C355.888 292.574 356.307 292.527 356.722 292.566C357.137 292.605 357.539 292.73 357.903 292.932C358.564 293.327 359.055 293.953 359.279 294.688C359.504 295.424 359.447 296.216 359.119 296.912L357.462 300.62L368.035 291.346C369.192 290.296 371.287 289.743 372.384 291.116C372.84 291.617 373.113 292.257 373.158 292.933C373.203 293.609 373.017 294.279 372.63 294.836C372.643 294.844 372.654 294.854 372.665 294.865C372.672 294.874 372.678 294.884 372.683 294.895L374.467 293.273C374.798 292.973 375.192 292.75 375.62 292.621C376.048 292.492 376.499 292.46 376.941 292.527C377.383 292.594 377.804 292.759 378.175 293.009C378.545 293.259 378.854 293.588 379.081 293.973C379.425 294.586 379.548 295.298 379.429 295.991C379.31 296.684 378.956 297.315 378.427 297.778L377.668 298.469C377.677 298.499 377.681 298.532 377.68 298.564C378.301 298.217 379.027 298.102 379.726 298.239C380.425 298.376 381.052 298.757 381.495 299.313C381.963 299.936 382.177 300.712 382.096 301.486C382.016 302.26 381.645 302.975 381.059 303.489L379.173 305.202C379.217 305.196 379.261 305.201 379.303 305.217C379.344 305.232 379.382 305.256 379.411 305.289C379.445 305.329 379.466 305.378 379.473 305.43C380.112 305.274 380.786 305.332 381.389 305.595C381.992 305.858 382.492 306.312 382.812 306.886C383.136 307.496 383.244 308.197 383.118 308.876C382.993 309.555 382.641 310.172 382.12 310.627L366.203 325.087C363.976 327.11 361.194 328.423 358.214 328.858C355.235 329.294 352.192 328.831 349.478 327.53C347.137 326.408 345.327 324.42 344.432 321.987C343.538 319.555 343.628 316.87 344.686 314.504L345.973 311.62Z" fill="#E98862"/>
<g opacity="0.2">
<path d="M362.21 304.065C362.259 304.118 362.328 304.15 362.4 304.154C362.473 304.158 362.544 304.133 362.598 304.085L372.642 295.253C372.669 295.229 372.691 295.199 372.707 295.167C372.723 295.134 372.733 295.099 372.735 295.063C372.737 295.026 372.732 294.99 372.72 294.956C372.709 294.921 372.69 294.89 372.666 294.862C372.642 294.835 372.613 294.813 372.58 294.797C372.547 294.781 372.512 294.772 372.476 294.769C372.439 294.767 372.403 294.772 372.368 294.784C372.334 294.796 372.302 294.814 372.275 294.838L362.232 303.67C362.205 303.694 362.183 303.724 362.167 303.756C362.151 303.789 362.141 303.824 362.139 303.86C362.137 303.897 362.142 303.933 362.154 303.967C362.165 304.002 362.184 304.033 362.208 304.061L362.21 304.065Z" fill="#0C0C0C"/>
</g>
<g opacity="0.2">
<path d="M365.992 308.592C366.041 308.646 366.109 308.678 366.181 308.682C366.254 308.685 366.325 308.66 366.379 308.612L377.588 298.755C377.615 298.731 377.637 298.702 377.653 298.67C377.669 298.637 377.679 298.601 377.681 298.565C377.683 298.529 377.679 298.493 377.667 298.458C377.655 298.424 377.636 298.392 377.612 298.365C377.562 298.312 377.494 298.28 377.422 298.276C377.349 298.271 377.277 298.295 377.221 298.341L366.013 308.197C365.985 308.221 365.963 308.25 365.947 308.283C365.931 308.316 365.922 308.351 365.919 308.387C365.917 308.424 365.922 308.46 365.934 308.494C365.946 308.529 365.964 308.56 365.988 308.587L365.992 308.592Z" fill="#0C0C0C"/>
</g>
<g opacity="0.2">
<path d="M370.06 313.519C370.109 313.572 370.177 313.604 370.25 313.608C370.322 313.612 370.393 313.587 370.448 313.539L379.388 305.677C379.416 305.653 379.438 305.624 379.454 305.591C379.47 305.558 379.479 305.523 379.482 305.487C379.484 305.45 379.479 305.414 379.467 305.38C379.455 305.345 379.437 305.314 379.413 305.287C379.389 305.259 379.36 305.237 379.327 305.221C379.294 305.205 379.259 305.196 379.222 305.194C379.186 305.191 379.15 305.196 379.115 305.208C379.081 305.22 379.049 305.238 379.022 305.262L370.081 313.124C370.054 313.148 370.031 313.178 370.015 313.21C370 313.243 369.99 313.278 369.988 313.314C369.986 313.351 369.99 313.387 370.002 313.421C370.014 313.456 370.033 313.487 370.057 313.515L370.06 313.519Z" fill="#0C0C0C"/>
</g>
<path d="M341.144 306.007L294.304 358.639L246.974 317.78L219.791 349.131L282.625 403.375L283.049 403.74C283.197 403.866 283.345 403.989 283.495 404.111C287.683 407.492 293.045 409.075 298.402 408.511C303.76 407.947 308.673 405.283 312.062 401.104L369.632 330.106L341.144 306.007Z" fill="#642F71"/>
<path d="M218.394 308.448C218.267 308.432 214.777 321.537 187.539 319.498C168.683 318.088 164.085 305.281 163.653 305.281C165.686 304.85 168.988 304.402 169.891 303.921C172.86 302.329 175.022 300.391 176.112 296.233C176.963 292.98 177.397 280.46 177.397 274.178L206.412 280.684C206.008 287.77 203.177 304.198 213.098 307.105C214.749 307.586 216.527 308.028 218.394 308.448Z" fill="#E98862"/>
<path d="M205.41 294.616C193.971 295.516 179.277 290.697 176.486 275.469L173.968 261.729C171.176 246.501 176.93 232.693 191.299 230.071C205.668 227.449 218.671 237.834 221.462 253.062L222.577 259.142C223.646 264.988 225.817 293.009 205.41 294.616Z" fill="#E98862"/>
<path d="M216.015 280.636C213.962 270.342 213.02 263.474 213.129 256.228C216.022 251.166 215.261 245.357 214.603 242.846C217.438 244.389 218.623 244.56 221.291 244.56C221.291 244.56 216.508 225.407 200.252 220.253C197.261 219.092 189.631 217.626 179.497 219.012C170.878 220.192 149.631 226.623 146.593 250.491V250.505C146.492 251.296 144.452 273.288 140.385 283.839C134.917 298.023 127.242 302.43 127.436 318.795C127.687 339.846 166.471 342.648 189.866 341.073C213.261 339.499 226.316 331.823 226.486 316.653C226.674 299.65 220.123 301.23 216.015 280.636Z" fill="#0A0A0A"/>
<path d="M216.022 272.005C211.655 272.802 207.261 268.787 206.463 264.43C205.664 260.072 208.763 257.023 213.13 256.226L216.022 272.005Z" fill="#E98862"/>
<path d="M247.987 373.747C247.97 373.747 247.952 373.745 247.935 373.742C247.9 373.735 247.865 373.722 247.835 373.702C247.804 373.682 247.778 373.656 247.757 373.626C247.737 373.596 247.722 373.563 247.715 373.527C247.707 373.492 247.707 373.455 247.714 373.419L250.501 358.683C250.507 358.646 250.52 358.611 250.539 358.579C250.559 358.548 250.584 358.52 250.615 358.499C250.645 358.477 250.679 358.462 250.716 358.454C250.752 358.446 250.79 358.445 250.826 358.452C250.863 358.459 250.898 358.473 250.929 358.494C250.96 358.515 250.986 358.541 251.007 358.572C251.027 358.603 251.041 358.638 251.048 358.675C251.054 358.712 251.053 358.749 251.045 358.785L248.258 373.523C248.246 373.586 248.212 373.642 248.163 373.683C248.113 373.724 248.051 373.747 247.987 373.747Z" fill="#0C0C0C"/>
<path d="M124.664 448.263C124.593 448.263 124.524 448.236 124.472 448.186C124.42 448.137 124.39 448.069 124.387 447.998L120.942 358.744C120.94 358.708 120.946 358.671 120.958 358.637C120.971 358.603 120.99 358.572 121.015 358.545C121.04 358.518 121.069 358.497 121.102 358.482C121.135 358.466 121.171 358.458 121.208 358.456C121.28 358.457 121.35 358.485 121.403 358.534C121.456 358.583 121.489 358.65 121.495 358.722L124.941 447.976C124.943 448.013 124.937 448.049 124.924 448.083C124.911 448.117 124.892 448.148 124.868 448.175C124.843 448.201 124.813 448.223 124.78 448.238C124.747 448.253 124.711 448.262 124.675 448.263H124.664Z" fill="#0C0C0C"/>
<path d="M291.161 363.173C291.109 363.173 291.059 363.159 291.015 363.132C290.971 363.105 290.936 363.066 290.913 363.02C290.89 362.974 290.88 362.923 290.885 362.872C290.89 362.821 290.908 362.772 290.939 362.731L294.084 358.475C294.128 358.417 294.193 358.379 294.265 358.369C294.337 358.359 294.41 358.377 294.468 358.42C294.527 358.463 294.566 358.527 294.577 358.599C294.589 358.67 294.572 358.743 294.53 358.802L291.382 363.061C291.357 363.095 291.323 363.124 291.285 363.143C291.246 363.163 291.204 363.173 291.161 363.173Z" fill="#0C0C0C"/>
</g>
<defs>
<linearGradient id="paint0_linear_5192_25450" x1="249.039" y1="102.707" x2="249.039" y2="621.707" gradientUnits="userSpaceOnUse">
<stop stop-color="#1139CB"/>
<stop offset="1" stop-color="#6B22A5"/>
</linearGradient>
<linearGradient id="paint1_linear_5192_25450" x1="589.5" y1="230.5" x2="166" y2="155" gradientUnits="userSpaceOnUse">
<stop stop-color="#642F71"/>
<stop offset="1" stop-color="#2651ED"/>
</linearGradient>
<clipPath id="clip0_5192_25450">
<rect width="586" height="380" fill="white" transform="translate(79 100)"/>
</clipPath>
</defs>
</svg>
