<svg width="658" height="559" viewBox="0 0 658 559" fill="none" xmlns="http://www.w3.org/2000/svg">
<path d="M0 113.207H612C623.046 113.207 632 122.161 632 133.207V449.207C632 460.253 623.046 469.207 612 469.207H0V113.207Z" fill="url(#paint0_linear_5192_25476)"/>
<rect x="-84" y="173" width="682.628" height="350.679" rx="20" transform="rotate(-13.5351 -84 173)" fill="white" fill-opacity="0.12"/>
<g clip-path="url(#clip0_5192_25476)">
<path d="M122.678 368.987L403.376 368.987C410.269 368.987 415.857 363.396 415.857 356.5V150.902C415.857 144.006 410.269 138.416 403.376 138.416L122.678 138.416C115.785 138.416 110.196 144.006 110.196 150.902V356.5C110.196 363.396 115.785 368.987 122.678 368.987Z" fill="white"/>
<path d="M109.78 356.5V150.903C109.784 147.482 111.144 144.203 113.562 141.784C115.979 139.365 119.257 138.004 122.677 138H403.376C406.796 138.004 410.074 139.365 412.492 141.783C414.91 144.202 416.269 147.482 416.273 150.903V356.5C416.269 359.921 414.909 363.201 412.491 365.619C410.074 368.038 406.796 369.399 403.376 369.403H122.677C119.258 369.399 115.98 368.038 113.562 365.619C111.144 363.2 109.784 359.921 109.78 356.5ZM122.677 138.832C119.478 138.836 116.411 140.109 114.15 142.372C111.888 144.635 110.615 147.703 110.612 150.903V356.5C110.615 359.7 111.888 362.768 114.149 365.031C116.411 367.294 119.478 368.567 122.677 368.571H403.376C406.575 368.567 409.642 367.294 411.904 365.031C414.165 362.768 415.438 359.7 415.441 356.5V150.903C415.438 147.703 414.165 144.635 411.904 142.372C409.642 140.109 406.575 138.836 403.376 138.832H122.677Z" fill="#292A2E"/>
<path d="M110.199 150.901V163.465H415.858V150.901C415.858 149.261 415.535 147.637 414.908 146.122C414.28 144.607 413.361 143.231 412.202 142.071C411.042 140.912 409.666 139.992 408.152 139.364C406.637 138.737 405.014 138.414 403.375 138.414H122.677C119.367 138.415 116.194 139.731 113.854 142.073C111.514 144.414 110.199 147.59 110.199 150.901Z" fill="url(#paint1_linear_5192_25476)"/>
<path d="M316.973 312.055H387.142L397.738 319.995V278.562C397.738 277.76 397.581 276.966 397.274 276.226C396.967 275.485 396.518 274.812 395.951 274.245C395.384 273.678 394.712 273.228 393.971 272.921C393.231 272.615 392.437 272.457 391.636 272.457H316.973C316.171 272.457 315.377 272.614 314.637 272.921C313.896 273.228 313.223 273.677 312.656 274.244C312.089 274.811 311.64 275.484 311.333 276.225C311.026 276.966 310.868 277.76 310.868 278.562V305.95C310.868 306.752 311.026 307.546 311.333 308.287C311.64 309.028 312.089 309.701 312.656 310.268C313.223 310.835 313.896 311.284 314.637 311.591C315.377 311.898 316.171 312.055 316.973 312.055Z" fill="#F7BC76"/>
<path opacity="0.11" d="M316.973 312.055H387.142L397.738 319.995V278.562C397.738 277.76 397.581 276.966 397.274 276.226C396.967 275.485 396.518 274.812 395.951 274.245C395.384 273.678 394.712 273.228 393.971 272.921C393.231 272.615 392.437 272.457 391.636 272.457H316.973C316.171 272.457 315.377 272.614 314.637 272.921C313.896 273.228 313.223 273.677 312.656 274.244C312.089 274.811 311.64 275.484 311.333 276.225C311.026 276.966 310.868 277.76 310.868 278.562V305.95C310.868 306.752 311.026 307.546 311.333 308.287C311.64 309.028 312.089 309.701 312.656 310.268C313.223 310.835 313.896 311.284 314.637 311.591C315.377 311.898 316.171 312.055 316.973 312.055Z" fill="white"/>
<path opacity="0.49" d="M316.973 312.055H387.142L397.738 319.995V278.562C397.738 277.76 397.581 276.966 397.274 276.226C396.967 275.485 396.518 274.812 395.951 274.245C395.384 273.678 394.712 273.228 393.971 272.921C393.231 272.615 392.437 272.457 391.636 272.457H316.973C316.171 272.457 315.377 272.614 314.637 272.921C313.896 273.228 313.223 273.677 312.656 274.244C312.089 274.811 311.64 275.484 311.333 276.225C311.026 276.966 310.868 277.76 310.868 278.562V305.95C310.868 306.752 311.026 307.546 311.333 308.287C311.64 309.028 312.089 309.701 312.656 310.268C313.223 310.835 313.896 311.284 314.637 311.591C315.377 311.898 316.171 312.055 316.973 312.055Z" fill="white"/>
<path d="M318.349 288.937H390.259C390.295 288.938 390.33 288.933 390.364 288.92C390.397 288.907 390.428 288.888 390.454 288.863C390.48 288.838 390.5 288.809 390.514 288.776C390.528 288.743 390.536 288.707 390.536 288.671C390.536 288.636 390.528 288.6 390.514 288.567C390.5 288.534 390.48 288.504 390.454 288.479C390.428 288.455 390.397 288.435 390.364 288.423C390.33 288.41 390.295 288.404 390.259 288.406H318.349C318.313 288.404 318.278 288.41 318.244 288.423C318.211 288.435 318.18 288.455 318.154 288.479C318.128 288.504 318.108 288.534 318.094 288.567C318.08 288.6 318.072 288.636 318.072 288.671C318.072 288.707 318.08 288.743 318.094 288.776C318.108 288.809 318.128 288.838 318.154 288.863C318.18 288.888 318.211 288.907 318.244 288.92C318.278 288.933 318.313 288.938 318.349 288.937Z" fill="white"/>
<path d="M318.349 281.379H390.259C390.295 281.381 390.33 281.375 390.364 281.362C390.397 281.35 390.428 281.33 390.454 281.306C390.48 281.281 390.5 281.251 390.514 281.218C390.528 281.185 390.536 281.15 390.536 281.114C390.536 281.078 390.528 281.042 390.514 281.009C390.5 280.976 390.48 280.947 390.454 280.922C390.428 280.897 390.397 280.878 390.364 280.865C390.33 280.852 390.295 280.847 390.259 280.848H318.349C318.313 280.847 318.278 280.852 318.244 280.865C318.211 280.878 318.18 280.897 318.154 280.922C318.128 280.947 318.108 280.976 318.094 281.009C318.08 281.042 318.072 281.078 318.072 281.114C318.072 281.15 318.08 281.185 318.094 281.218C318.108 281.251 318.128 281.281 318.154 281.306C318.18 281.33 318.211 281.35 318.244 281.362C318.278 281.375 318.313 281.381 318.349 281.379Z" fill="white"/>
<path d="M318.349 296.904H390.259C390.295 296.906 390.33 296.9 390.364 296.888C390.397 296.875 390.428 296.856 390.454 296.831C390.48 296.806 390.5 296.776 390.514 296.743C390.528 296.71 390.536 296.675 390.536 296.639C390.536 296.603 390.528 296.568 390.514 296.535C390.5 296.502 390.48 296.472 390.454 296.447C390.428 296.422 390.397 296.403 390.364 296.39C390.33 296.378 390.295 296.372 390.259 296.373H318.349C318.313 296.372 318.278 296.378 318.244 296.39C318.211 296.403 318.18 296.422 318.154 296.447C318.128 296.472 318.108 296.502 318.094 296.535C318.08 296.568 318.072 296.603 318.072 296.639C318.072 296.675 318.08 296.71 318.094 296.743C318.108 296.776 318.128 296.806 318.154 296.831C318.18 296.856 318.211 296.875 318.244 296.888C318.278 296.9 318.313 296.906 318.349 296.904Z" fill="white"/>
<path d="M318.349 304.872H361.057C361.125 304.869 361.19 304.84 361.237 304.79C361.284 304.741 361.311 304.675 361.311 304.607C361.311 304.538 361.284 304.472 361.237 304.423C361.19 304.373 361.125 304.344 361.057 304.341H318.349C318.313 304.34 318.278 304.345 318.244 304.358C318.211 304.371 318.18 304.39 318.154 304.415C318.128 304.439 318.108 304.469 318.094 304.502C318.08 304.535 318.072 304.571 318.072 304.607C318.072 304.642 318.08 304.678 318.094 304.711C318.108 304.744 318.128 304.774 318.154 304.798C318.18 304.823 318.211 304.843 318.244 304.855C318.278 304.868 318.313 304.874 318.349 304.872Z" fill="white"/>
<path d="M312.7 252.417H387.86L397.737 259.819V228.509C397.737 226.999 397.138 225.552 396.071 224.485C395.004 223.417 393.557 222.818 392.049 222.818H312.697C311.189 222.818 309.742 223.417 308.675 224.485C307.608 225.552 307.009 226.999 307.009 228.509V246.726C307.009 247.474 307.156 248.214 307.442 248.905C307.728 249.596 308.147 250.223 308.676 250.752C309.205 251.28 309.832 251.699 310.523 251.985C311.213 252.271 311.953 252.418 312.7 252.417Z" fill="#F7BC76"/>
<path opacity="0.11" d="M312.7 252.417H387.86L397.737 259.819V228.509C397.737 226.999 397.138 225.552 396.071 224.485C395.004 223.417 393.557 222.818 392.049 222.818H312.697C311.189 222.818 309.742 223.417 308.675 224.485C307.608 225.552 307.009 226.999 307.009 228.509V246.726C307.009 247.474 307.156 248.214 307.442 248.905C307.728 249.596 308.147 250.223 308.676 250.752C309.205 251.28 309.832 251.699 310.523 251.985C311.213 252.271 311.953 252.418 312.7 252.417Z" fill="white"/>
<path opacity="0.49" d="M312.7 252.417H387.86L397.737 259.819V228.509C397.737 226.999 397.138 225.552 396.071 224.485C395.004 223.417 393.557 222.818 392.049 222.818H312.697C311.189 222.818 309.742 223.417 308.675 224.485C307.608 225.552 307.009 226.999 307.009 228.509V246.726C307.009 247.474 307.156 248.214 307.442 248.905C307.728 249.596 308.147 250.223 308.676 250.752C309.205 251.28 309.832 251.699 310.523 251.985C311.213 252.271 311.953 252.418 312.7 252.417Z" fill="white"/>
<path d="M313.984 230.866H390.767C390.831 230.863 390.891 230.836 390.935 230.79C390.979 230.744 391.003 230.683 391.003 230.619C391.003 230.555 390.979 230.494 390.935 230.448C390.891 230.401 390.831 230.374 390.767 230.371H313.984C313.92 230.374 313.86 230.401 313.816 230.448C313.772 230.494 313.747 230.555 313.747 230.619C313.747 230.683 313.772 230.744 313.816 230.79C313.86 230.836 313.92 230.863 313.984 230.866Z" fill="white"/>
<path d="M313.984 238.294H390.767C390.831 238.291 390.891 238.263 390.935 238.217C390.979 238.171 391.003 238.11 391.003 238.046C391.003 237.982 390.979 237.921 390.935 237.875C390.891 237.829 390.831 237.802 390.767 237.799H313.984C313.92 237.802 313.86 237.829 313.816 237.875C313.772 237.921 313.747 237.982 313.747 238.046C313.747 238.11 313.772 238.171 313.816 238.217C313.86 238.263 313.92 238.291 313.984 238.294Z" fill="white"/>
<path d="M313.984 245.721H363.544C363.578 245.722 363.611 245.717 363.642 245.705C363.674 245.694 363.702 245.676 363.726 245.653C363.75 245.629 363.77 245.602 363.783 245.571C363.796 245.54 363.803 245.507 363.803 245.474C363.803 245.44 363.796 245.407 363.783 245.376C363.77 245.345 363.75 245.318 363.726 245.295C363.702 245.271 363.674 245.253 363.642 245.242C363.611 245.23 363.578 245.225 363.544 245.226H313.984C313.92 245.229 313.86 245.256 313.816 245.302C313.772 245.348 313.747 245.41 313.747 245.474C313.747 245.537 313.772 245.599 313.816 245.645C313.86 245.691 313.92 245.718 313.984 245.721Z" fill="white"/>
<path d="M484.441 507.461C484.441 507.461 482.24 518.871 471.559 519.51C460.879 520.148 463.194 528.658 463.194 528.658H504.01V508.257L484.441 507.461Z" fill="#F7BC76"/>
<path d="M506.779 299.284C506.779 299.284 506.651 295.853 506.678 303.635C506.779 332.662 505.812 514.745 505.812 514.745L478.992 514.519L462.747 298.104L506.779 299.284Z" fill="#262626"/>
<path d="M438.642 507.461C438.642 507.461 436.442 518.871 425.761 519.51C415.08 520.148 417.397 528.658 417.397 528.658H458.214V508.257L438.642 507.461Z" fill="#F7BC76"/>
<path d="M433.453 301.537C433.453 301.537 430.103 400.746 430.451 405.594L433.601 513.991L459.979 514.479L464.232 401.673C464.232 401.673 467.02 370.555 474.536 341.66C478.381 326.83 480.695 311.645 481.441 296.342L433.453 301.537Z" fill="#262626"/>
<path d="M468.255 371.876L466.055 338.226C466.055 338.226 463.796 352.216 463.796 364.273C463.796 370.167 465.01 393.502 465.01 393.502L468.255 371.876Z" fill="#0A0A0A"/>
<path d="M507.07 299.281L507.159 299.286C507.159 299.286 507.095 297.594 507.07 299.281Z" fill="#333333"/>
<path d="M506.96 299.281L507.048 299.286C507.048 299.286 506.984 297.594 506.96 299.281Z" fill="#333333"/>
<path d="M359.991 218.757C360.153 218.437 360.41 218.175 360.727 218.007C361.043 217.839 361.404 217.774 361.76 217.82C361.757 217.789 361.763 217.757 361.779 217.729C361.796 217.708 361.818 217.691 361.843 217.681C361.868 217.671 361.895 217.668 361.922 217.671L360.722 216.811C360.363 216.566 360.105 216.198 359.996 215.777C359.887 215.355 359.934 214.909 360.128 214.519C360.333 214.141 360.67 213.852 361.076 213.709C361.481 213.565 361.925 213.578 362.322 213.744C362.319 213.727 362.33 213.71 362.333 213.695L361.84 213.341C361.503 213.108 361.256 212.766 361.142 212.372C361.028 211.979 361.054 211.558 361.215 211.181C361.321 210.946 361.477 210.739 361.673 210.572C361.868 210.405 362.099 210.284 362.347 210.218C362.595 210.151 362.855 210.14 363.108 210.186C363.36 210.232 363.6 210.333 363.809 210.483L364.946 211.298C364.949 211.291 364.946 211.284 364.95 211.277C364.955 211.271 364.967 211.269 364.974 211.262C364.713 210.968 364.559 210.594 364.539 210.202C364.518 209.809 364.631 209.421 364.86 209.101C365.396 208.237 366.636 208.414 367.371 208.941L374.064 213.566L372.868 211.551C372.628 211.163 372.543 210.699 372.631 210.251C372.72 209.803 372.974 209.405 373.344 209.138C373.54 209.007 373.761 208.917 373.992 208.874C374.224 208.831 374.462 208.836 374.692 208.888C374.922 208.94 375.139 209.038 375.329 209.177C375.52 209.315 375.68 209.491 375.801 209.694L382.332 220.696C383.098 221.987 383.332 223.525 382.982 224.985C382.632 226.445 381.728 227.711 380.46 228.514C378.99 229.446 377.275 229.917 375.535 229.867C373.796 229.817 372.111 229.248 370.696 228.234L360.588 220.986C360.252 220.736 360.01 220.38 359.902 219.975C359.794 219.571 359.825 219.141 359.991 218.757Z" fill="#E98862"/>
<g opacity="0.25">
<path d="M371.57 215.869C371.545 215.903 371.508 215.926 371.467 215.933C371.426 215.94 371.384 215.93 371.349 215.907L364.989 211.5C364.971 211.488 364.955 211.473 364.943 211.455C364.931 211.437 364.922 211.417 364.918 211.396C364.914 211.375 364.914 211.353 364.918 211.332C364.923 211.31 364.931 211.29 364.944 211.273C364.956 211.255 364.972 211.24 364.99 211.228C365.008 211.217 365.029 211.209 365.05 211.206C365.072 211.202 365.093 211.203 365.114 211.209C365.135 211.214 365.155 211.223 365.172 211.236L371.532 215.643C371.566 215.668 371.59 215.705 371.598 215.746C371.605 215.788 371.596 215.831 371.572 215.866L371.57 215.869Z" fill="#0C0C0C"/>
</g>
<g opacity="0.25">
<path d="M369.705 218.729C369.68 218.762 369.643 218.785 369.602 218.792C369.561 218.799 369.518 218.79 369.484 218.766L362.388 213.848C362.353 213.824 362.33 213.787 362.322 213.745C362.314 213.703 362.324 213.66 362.348 213.625C362.373 213.592 362.41 213.569 362.451 213.561C362.492 213.554 362.535 213.562 362.57 213.585L369.666 218.505C369.701 218.529 369.725 218.567 369.733 218.608C369.74 218.65 369.731 218.693 369.707 218.728L369.705 218.729Z" fill="#0C0C0C"/>
</g>
<g opacity="0.25">
<path d="M367.701 221.838C367.677 221.871 367.64 221.894 367.599 221.901C367.557 221.908 367.515 221.899 367.481 221.875L361.819 217.952C361.802 217.94 361.787 217.925 361.776 217.907C361.764 217.89 361.756 217.87 361.753 217.849C361.749 217.828 361.749 217.807 361.754 217.787C361.758 217.766 361.766 217.747 361.778 217.729C361.79 217.712 361.806 217.697 361.823 217.686C361.841 217.675 361.861 217.667 361.881 217.663C361.902 217.659 361.923 217.66 361.944 217.664C361.964 217.668 361.984 217.677 362.001 217.689L367.663 221.612C367.698 221.636 367.722 221.673 367.729 221.715C367.737 221.757 367.728 221.8 367.703 221.835L367.701 221.838Z" fill="#0C0C0C"/>
</g>
<path d="M386.187 218.19L405.371 250.876L428.779 220.16L448.219 237.693L415.021 280.706L414.803 281.012C413.474 282.833 411.704 284.285 409.659 285.233C407.614 286.18 405.362 286.59 403.114 286.426C400.867 286.261 398.698 285.527 396.812 284.292C394.927 283.057 393.387 281.362 392.337 279.367L365.058 229.946L386.187 218.19Z" fill="#642F71"/>
<path d="M407.251 254.806C407.29 254.806 407.328 254.797 407.363 254.779C407.42 254.75 407.464 254.699 407.483 254.638C407.503 254.576 407.498 254.509 407.469 254.452L405.588 250.765C405.574 250.735 405.554 250.709 405.53 250.687C405.505 250.666 405.477 250.649 405.446 250.639C405.415 250.628 405.383 250.624 405.35 250.626C405.318 250.629 405.286 250.637 405.257 250.652C405.228 250.667 405.202 250.688 405.181 250.713C405.16 250.738 405.144 250.767 405.135 250.798C405.125 250.829 405.122 250.862 405.125 250.894C405.129 250.927 405.138 250.958 405.154 250.987L407.035 254.674C407.055 254.714 407.086 254.747 407.124 254.77C407.163 254.794 407.207 254.806 407.251 254.806Z" fill="#0C0C0C"/>
<path d="M491.943 175.975C491.943 175.975 492.842 187.466 495.476 191.609C503.061 203.534 505.374 217.022 498 224.167C490.626 231.313 443.068 231.962 439.28 215.766C436.089 202.131 442.58 200.586 444.034 189.289C444.691 184.178 446.539 173.455 446.539 173.455" fill="#0A0A0A"/>
<path d="M451.39 213.178C451.472 213.167 452.383 228.289 469.944 226.971C482.101 226.06 486.436 213.156 486.714 213.156C485.403 212.877 483.196 212.473 482.614 212.161C480.7 211.132 478.331 210.062 477.714 206.342C477.359 204.197 477.962 193.233 477.776 191.064L459.115 195.231C459.375 199.811 461.2 210.43 454.804 212.309C453.738 212.62 452.591 212.906 451.39 213.178Z" fill="#E98862"/>
<path opacity="0.52" d="M458.851 207.969C459.143 207.027 459.331 206.055 459.412 205.072C459.617 202.828 459.576 200.568 459.29 198.333C463.083 197.821 466.656 196.255 469.604 193.812C469.951 195.092 471.856 200.688 471.328 201.903C470.331 204.203 465.645 207.969 458.851 207.969Z" fill="#0C0C0C"/>
<path d="M461.325 203.21C468.69 203.837 478.175 200.783 480.033 190.958L481.71 182.094C483.568 172.27 479.917 163.33 470.671 161.579C461.426 159.829 453.008 166.484 451.149 176.308L450.407 180.233C449.694 184.002 448.184 202.091 461.325 203.21Z" fill="#E98862"/>
<path d="M453.042 180.661C453.682 180.661 454.201 180.141 454.201 179.501C454.201 178.861 453.682 178.341 453.042 178.341C452.402 178.341 451.883 178.861 451.883 179.501C451.883 180.141 452.402 180.661 453.042 180.661Z" fill="#0C0C0C"/>
<path d="M464.916 182.247C465.556 182.247 466.075 181.728 466.075 181.088C466.075 180.447 465.556 179.928 464.916 179.928C464.276 179.928 463.757 180.447 463.757 181.088C463.757 181.728 464.276 182.247 464.916 182.247Z" fill="#0C0C0C"/>
<path d="M489.107 185.184L480.821 183.663C474.544 181.122 472.646 170.254 472.646 170.254C472.646 170.254 465.02 177.688 446.543 173.46C446.543 173.46 450.247 147.681 477.546 155.174C486.348 157.591 492.665 166.465 491.876 178.325C491.324 186.635 489.107 185.184 489.107 185.184Z" fill="#0A0A0A"/>
<path d="M478.892 193.843C481.702 194.375 484.549 191.799 485.082 188.988C485.616 186.177 483.629 184.195 480.82 183.663L479.016 185.272L476.479 193.385L478.892 193.843Z" fill="#E98862"/>
<path opacity="0.1" d="M468.219 188.937C468.315 188.047 467.41 187.22 466.197 187.089C464.985 186.959 463.924 187.574 463.829 188.464C463.733 189.354 464.638 190.181 465.851 190.311C467.063 190.442 468.123 189.826 468.219 188.937Z" fill="#0C0C0C"/>
<path opacity="0.1" d="M453.018 186.908C452.92 187.796 451.86 188.411 450.647 188.282C450.438 188.259 450.231 188.215 450.031 188.15C449.962 187.093 449.947 186.075 449.967 185.133C450.302 185.045 450.651 185.02 450.995 185.061C452.208 185.19 453.113 186.016 453.018 186.908Z" fill="#0C0C0C"/>
<path d="M429.57 246.47C430.123 252.971 432.813 293.53 433.345 301.537H506.639C507.053 294.315 508.912 262.735 510.483 248.612C511.981 235.136 514.921 228.388 512.766 224.404C509.246 217.893 499.619 214.13 493.057 213.239C489.05 212.696 483.022 212.307 483.022 212.307C483.022 212.307 482.512 222.635 470.343 223.21C453.779 223.99 454.884 212.307 454.803 212.307C452.119 212.307 436.789 214.006 433.038 216.23C422.818 222.287 428.395 232.695 429.57 246.47Z" fill="#642F71"/>
<path d="M428.985 278.384C429.007 278.027 429.141 277.685 429.366 277.406C429.592 277.128 429.898 276.926 430.243 276.829C430.232 276.81 430.225 276.789 430.224 276.768C430.222 276.746 430.226 276.725 430.235 276.705C430.244 276.685 430.258 276.668 430.275 276.655C430.292 276.641 430.312 276.632 430.333 276.628L428.893 276.309C428.467 276.223 428.086 275.986 427.82 275.642C427.555 275.298 427.422 274.869 427.448 274.435C427.487 274.007 427.684 273.609 428 273.318C428.317 273.027 428.729 272.864 429.159 272.861C429.15 272.846 429.154 272.827 429.149 272.812L428.558 272.68C428.156 272.599 427.795 272.381 427.536 272.063C427.276 271.746 427.135 271.348 427.135 270.938C427.14 270.681 427.202 270.429 427.317 270.199C427.431 269.969 427.596 269.767 427.798 269.608C428 269.449 428.234 269.337 428.485 269.28C428.735 269.223 428.995 269.222 429.246 269.278L430.611 269.581C430.611 269.574 430.605 269.568 430.607 269.56C430.608 269.552 430.619 269.546 430.622 269.537C430.267 269.369 429.979 269.085 429.806 268.732C429.632 268.38 429.584 267.978 429.669 267.594C429.823 266.589 431.034 266.264 431.916 266.461L439.888 268.086L437.996 266.703C437.622 266.441 437.362 266.046 437.267 265.6C437.173 265.153 437.252 264.687 437.487 264.296C437.616 264.099 437.784 263.929 437.98 263.799C438.176 263.668 438.397 263.579 438.628 263.536C438.86 263.494 439.098 263.499 439.328 263.552C439.558 263.605 439.774 263.703 439.965 263.843L450.29 271.395C451.502 272.281 452.32 273.605 452.572 275.085C452.823 276.565 452.488 278.084 451.637 279.321C450.65 280.755 449.258 281.862 447.639 282.499C446.019 283.136 444.246 283.275 442.547 282.898L430.406 280.203C429.999 280.104 429.637 279.871 429.379 279.541C429.121 279.211 428.982 278.803 428.985 278.384Z" fill="#E98862"/>
<g opacity="0.25">
<path d="M438.5 271.183C438.491 271.224 438.466 271.26 438.431 271.282C438.395 271.305 438.353 271.313 438.312 271.305L430.733 269.75C430.692 269.741 430.655 269.716 430.632 269.681C430.609 269.646 430.6 269.602 430.609 269.561C430.617 269.519 430.642 269.483 430.677 269.459C430.713 269.436 430.756 269.428 430.798 269.436L438.376 270.991C438.397 270.995 438.417 271.003 438.434 271.015C438.451 271.027 438.466 271.042 438.478 271.059C438.489 271.077 438.497 271.097 438.501 271.117C438.505 271.138 438.505 271.159 438.501 271.18L438.5 271.183Z" fill="#0C0C0C"/>
</g>
<g opacity="0.25">
<path d="M437.906 274.546C437.897 274.587 437.872 274.623 437.836 274.645C437.801 274.668 437.759 274.676 437.718 274.667L429.261 272.932C429.241 272.928 429.221 272.919 429.204 272.908C429.187 272.896 429.172 272.881 429.16 272.863C429.149 272.845 429.141 272.826 429.137 272.805C429.133 272.785 429.133 272.763 429.137 272.743C429.147 272.702 429.172 272.666 429.207 272.643C429.242 272.62 429.284 272.611 429.326 272.618L437.784 274.353C437.804 274.358 437.824 274.366 437.841 274.378C437.859 274.389 437.874 274.405 437.885 274.422C437.897 274.44 437.905 274.459 437.909 274.48C437.913 274.501 437.912 274.522 437.908 274.542L437.906 274.546Z" fill="#0C0C0C"/>
</g>
<g opacity="0.25">
<path d="M437.285 278.192C437.276 278.232 437.251 278.268 437.216 278.291C437.18 278.313 437.138 278.321 437.097 278.313L430.35 276.929C430.33 276.925 430.31 276.916 430.293 276.904C430.276 276.893 430.261 276.878 430.249 276.86C430.238 276.843 430.23 276.823 430.226 276.802C430.222 276.782 430.222 276.76 430.226 276.74C430.23 276.719 430.238 276.7 430.25 276.682C430.262 276.665 430.277 276.65 430.295 276.638C430.312 276.627 430.332 276.619 430.352 276.615C430.373 276.611 430.394 276.611 430.415 276.615L437.161 277.999C437.203 278.008 437.239 278.032 437.263 278.068C437.286 278.103 437.294 278.147 437.286 278.188L437.285 278.192Z" fill="#0C0C0C"/>
</g>
<path d="M443.299 287.706L509.171 299.615C511.226 299.839 513.306 299.583 515.246 298.868C517.186 298.153 518.934 296.997 520.353 295.493C521.772 293.988 522.823 292.175 523.423 290.195C524.024 288.216 524.158 286.125 523.815 284.085L514.593 229.248C514.301 227.515 513.671 225.855 512.738 224.365C511.806 222.875 510.589 221.584 509.157 220.564C507.726 219.544 506.107 218.817 504.395 218.423C502.682 218.029 500.909 217.976 499.176 218.268C497.443 218.56 495.784 219.19 494.295 220.123C492.805 221.056 491.514 222.273 490.495 223.705C489.475 225.138 488.748 226.756 488.354 228.47C487.961 230.183 487.908 231.957 488.2 233.691L494.487 271.44L446.194 265.372L443.299 287.706Z" fill="#642F71"/>
<path d="M509.171 299.859C509.232 299.858 509.29 299.836 509.335 299.794C509.38 299.753 509.408 299.697 509.413 299.636C509.418 299.576 509.401 299.515 509.364 299.467C509.327 299.418 509.274 299.386 509.214 299.375L443.57 287.507L446.405 265.645L494.458 271.682C494.495 271.686 494.534 271.682 494.57 271.67C494.605 271.657 494.638 271.636 494.664 271.609C494.69 271.581 494.71 271.548 494.721 271.512C494.732 271.475 494.735 271.437 494.729 271.399L490.732 247.274C490.727 247.242 490.716 247.211 490.699 247.184C490.682 247.157 490.66 247.133 490.634 247.114C490.608 247.096 490.578 247.082 490.547 247.075C490.516 247.068 490.483 247.068 490.452 247.073C490.388 247.084 490.331 247.119 490.293 247.172C490.256 247.224 490.241 247.29 490.251 247.354L494.195 271.157L446.224 265.13C446.16 265.122 446.095 265.14 446.044 265.179C445.994 265.219 445.96 265.277 445.952 265.341L443.056 287.674C443.048 287.736 443.064 287.799 443.101 287.849C443.138 287.9 443.193 287.934 443.255 287.945L509.126 299.854C509.141 299.857 509.156 299.858 509.171 299.859Z" fill="#0C0C0C"/>
<path d="M494.44 271.381L494.363 271.863L498.599 272.541L498.676 272.059L494.44 271.381Z" fill="#0C0C0C"/>
<path d="M430.129 250.691L429.643 250.719L430.228 261.043L430.715 261.015L430.129 250.691Z" fill="#0C0C0C"/>
<path d="M369.763 203.939H269.55L254.418 215.278V156.106C254.418 153.793 255.336 151.575 256.971 149.94C258.605 148.305 260.822 147.387 263.133 147.387H369.763C372.074 147.387 374.291 148.305 375.925 149.941C377.56 151.576 378.478 153.793 378.478 156.106V195.22C378.478 197.532 377.56 199.75 375.925 201.385C374.291 203.02 372.074 203.939 369.763 203.939Z" fill="#F7BC76"/>
<path opacity="0.11" d="M369.763 203.939H269.55L254.418 215.278V156.106C254.418 153.793 255.336 151.575 256.971 149.94C258.605 148.305 260.822 147.387 263.133 147.387H369.763C372.074 147.387 374.291 148.305 375.925 149.941C377.56 151.576 378.478 153.793 378.478 156.106V195.22C378.478 197.532 377.56 199.75 375.925 201.385C374.291 203.02 372.074 203.939 369.763 203.939Z" fill="white"/>
<path d="M265.1 170.923H367.798C367.899 170.923 367.995 170.883 368.067 170.812C368.138 170.741 368.178 170.644 368.178 170.543C368.178 170.443 368.138 170.346 368.067 170.275C367.995 170.204 367.899 170.164 367.798 170.164H265.1C264.999 170.164 264.903 170.204 264.832 170.275C264.761 170.346 264.721 170.443 264.721 170.543C264.721 170.644 264.761 170.741 264.832 170.812C264.903 170.883 264.999 170.923 265.1 170.923Z" fill="white"/>
<path d="M265.1 160.129H367.798C367.899 160.129 367.995 160.089 368.067 160.018C368.138 159.947 368.178 159.851 368.178 159.75C368.178 159.649 368.138 159.553 368.067 159.482C367.995 159.411 367.899 159.371 367.798 159.371H265.1C264.999 159.371 264.903 159.411 264.832 159.482C264.761 159.553 264.721 159.649 264.721 159.75C264.721 159.851 264.761 159.947 264.832 160.018C264.903 160.089 264.999 160.129 265.1 160.129Z" fill="white"/>
<path d="M265.1 182.301H367.798C367.899 182.301 367.995 182.261 368.067 182.19C368.138 182.119 368.178 182.023 368.178 181.922C368.178 181.821 368.138 181.725 368.067 181.654C367.995 181.583 367.899 181.543 367.798 181.543H265.1C264.999 181.543 264.903 181.583 264.832 181.654C264.761 181.725 264.721 181.821 264.721 181.922C264.721 182.023 264.761 182.119 264.832 182.19C264.903 182.261 264.999 182.301 265.1 182.301Z" fill="white"/>
<path d="M265.1 193.68H326.091C326.192 193.68 326.288 193.64 326.359 193.569C326.43 193.498 326.47 193.401 326.47 193.301C326.47 193.2 326.43 193.104 326.359 193.033C326.288 192.961 326.192 192.922 326.091 192.922H265.1C264.999 192.922 264.903 192.961 264.832 193.033C264.761 193.104 264.721 193.2 264.721 193.301C264.721 193.401 264.761 193.498 264.832 193.569C264.903 193.64 264.999 193.68 265.1 193.68Z" fill="white"/>
<path opacity="0.2" d="M190.254 324.022C223.315 324.022 250.117 297.21 250.117 264.135C250.117 231.061 223.315 204.248 190.254 204.248C157.193 204.248 130.392 231.061 130.392 264.135C130.392 297.21 157.193 324.022 190.254 324.022Z" fill="#F7BC76"/>
<path d="M239.868 283C234.641 283.005 229.508 281.199 225 277.767L229.761 267.203C233.778 270.241 238.481 271.383 243.072 270.435C247.664 269.486 251.862 266.506 254.953 262L262 270.133C256.973 277.489 249.955 282.047 242.404 282.86C241.557 282.954 240.711 283 239.868 283Z" fill="#642F71"/>
<path d="M265.551 270C263.167 269.995 260.834 269.306 258.823 268.011C256.813 266.717 255.207 264.871 254.193 262.688C253.18 260.506 252.8 258.077 253.099 255.684C253.398 253.292 254.363 251.035 255.881 249.176C256.149 248.848 256.478 248.577 256.849 248.377C257.221 248.178 257.628 248.055 258.046 248.015C258.465 247.974 258.887 248.018 259.289 248.143C259.691 248.268 260.065 248.471 260.389 248.742C260.714 249.013 260.982 249.346 261.179 249.722C261.376 250.098 261.498 250.51 261.538 250.933C261.577 251.357 261.534 251.784 261.411 252.191C261.288 252.598 261.086 252.976 260.818 253.304C259.783 254.581 259.29 256.22 259.447 257.864C259.604 259.508 260.399 261.021 261.658 262.073C262.916 263.125 264.535 263.63 266.16 263.476C267.786 263.323 269.285 262.524 270.329 261.254C270.597 260.926 270.926 260.655 271.297 260.455C271.669 260.256 272.076 260.133 272.494 260.093C272.913 260.052 273.335 260.096 273.737 260.221C274.139 260.346 274.513 260.549 274.837 260.82C275.162 261.091 275.43 261.424 275.627 261.8C275.824 262.176 275.946 262.588 275.986 263.011C276.025 263.435 275.982 263.862 275.859 264.269C275.736 264.676 275.534 265.054 275.266 265.382C274.217 266.673 272.926 267.741 271.467 268.524C270.007 269.307 268.409 269.789 266.764 269.942C266.358 269.981 265.954 270 265.551 270Z" fill="#E0DFE8"/>
<path d="M152.802 262.394L162.694 318.357C163.972 325.591 167.757 332.144 173.384 336.865C179.01 341.586 186.119 344.173 193.463 344.173C200.622 344.173 207.564 341.714 213.128 337.206C218.692 332.698 222.539 326.416 224.027 319.41L236.135 262.394H152.802Z" fill="#642F71"/>
<path d="M194.467 274.718C217.479 274.718 236.133 269.2 236.133 262.394C236.133 255.588 217.479 250.07 194.467 250.07C171.455 250.07 152.801 255.588 152.801 262.394C152.801 269.2 171.455 274.718 194.467 274.718Z" fill="#E0DFE8"/>
<path d="M235.18 229.316C235.18 247.435 216.951 256.154 194.467 256.154C171.984 256.154 153.755 247.435 153.755 229.316C153.755 211.196 171.984 190.536 194.467 190.536C216.95 190.536 235.18 211.196 235.18 229.316Z" fill="#642F71"/>
<path d="M216.718 207.327H193.56C186.301 207.327 180.417 213.214 180.417 220.476V220.476C180.417 227.738 186.301 233.625 193.56 233.625H216.718C223.977 233.625 229.861 227.738 229.861 220.476V220.476C229.861 213.214 223.977 207.327 216.718 207.327Z" fill="white"/>
<path d="M204.449 225.256C204.053 225.256 203.674 225.099 203.394 224.819C203.114 224.539 202.957 224.159 202.957 223.763C202.963 223.092 202.837 222.426 202.585 221.803C202.332 221.181 201.959 220.615 201.487 220.138C201.014 219.66 200.452 219.282 199.833 219.023C199.213 218.765 198.549 218.632 197.877 218.632C197.206 218.632 196.541 218.765 195.922 219.023C195.302 219.282 194.74 219.66 194.268 220.138C193.795 220.615 193.422 221.181 193.17 221.803C192.918 222.426 192.791 223.092 192.798 223.763C192.798 224.159 192.64 224.539 192.361 224.819C192.081 225.099 191.701 225.256 191.306 225.256C190.91 225.256 190.531 225.099 190.251 224.819C189.971 224.539 189.814 224.159 189.814 223.763C189.805 222.699 190.008 221.643 190.409 220.657C190.811 219.671 191.404 218.774 192.153 218.018C192.903 217.263 193.794 216.663 194.777 216.254C195.759 215.844 196.813 215.633 197.877 215.633C198.942 215.633 199.995 215.844 200.978 216.254C201.96 216.663 202.852 217.263 203.601 218.018C204.351 218.774 204.944 219.671 205.345 220.657C205.747 221.643 205.949 222.699 205.941 223.763C205.941 223.959 205.902 224.153 205.827 224.335C205.752 224.516 205.643 224.68 205.504 224.819C205.365 224.957 205.201 225.067 205.02 225.142C204.839 225.217 204.645 225.256 204.449 225.256Z" fill="#292A2E"/>
<path d="M224.742 225.256C224.346 225.256 223.967 225.099 223.687 224.819C223.407 224.539 223.25 224.159 223.25 223.763C223.256 223.092 223.13 222.426 222.878 221.803C222.625 221.181 222.252 220.615 221.78 220.138C221.307 219.66 220.745 219.282 220.126 219.023C219.506 218.765 218.842 218.632 218.17 218.632C217.499 218.632 216.834 218.765 216.215 219.023C215.595 219.282 215.033 219.66 214.561 220.138C214.088 220.615 213.715 221.181 213.463 221.803C213.211 222.426 213.084 223.092 213.091 223.763C213.091 224.159 212.933 224.539 212.654 224.819C212.374 225.099 211.994 225.256 211.599 225.256C211.203 225.256 210.823 225.099 210.544 224.819C210.264 224.539 210.107 224.159 210.107 223.763C210.098 222.699 210.301 221.643 210.702 220.657C211.104 219.671 211.697 218.774 212.446 218.018C213.196 217.263 214.087 216.663 215.07 216.254C216.052 215.844 217.106 215.633 218.17 215.633C219.234 215.633 220.288 215.844 221.271 216.254C222.253 216.663 223.145 217.263 223.894 218.018C224.644 218.774 225.237 219.671 225.638 220.657C226.04 221.643 226.242 222.699 226.234 223.763C226.234 223.959 226.195 224.153 226.12 224.335C226.045 224.516 225.936 224.68 225.797 224.819C225.658 224.957 225.494 225.067 225.313 225.142C225.132 225.217 224.938 225.256 224.742 225.256Z" fill="#292A2E"/>
<path d="M194.458 176.512L192.649 176.601L193.541 194.828L195.349 194.74L194.458 176.512Z" fill="#367CFF"/>
<path d="M193.619 181.216C195.446 181.216 196.928 179.734 196.928 177.906C196.928 176.078 195.446 174.596 193.619 174.596C191.792 174.596 190.311 176.078 190.311 177.906C190.311 179.734 191.792 181.216 193.619 181.216Z" fill="#292A2E"/>
<path d="M392.264 333.357H277.091C271.741 333.357 267.403 337.696 267.403 343.048C267.403 348.401 271.741 352.74 277.091 352.74H392.264C397.615 352.74 401.952 348.401 401.952 343.048C401.952 337.696 397.615 333.357 392.264 333.357Z" fill="white"/>
<path d="M392.267 353.106H277.09C275.764 353.115 274.449 352.861 273.222 352.36C271.994 351.859 270.877 351.12 269.936 350.185C268.995 349.25 268.248 348.138 267.739 346.913C267.229 345.688 266.967 344.375 266.967 343.048C266.967 341.722 267.229 340.408 267.739 339.183C268.248 337.958 268.995 336.847 269.936 335.912C270.877 334.977 271.994 334.238 273.222 333.736C274.449 333.235 275.764 332.982 277.09 332.991H392.267C394.921 333.009 397.46 334.077 399.33 335.961C401.2 337.845 402.25 340.393 402.25 343.048C402.25 345.704 401.2 348.251 399.33 350.135C397.46 352.019 394.921 353.087 392.267 353.106ZM277.09 333.722C275.86 333.713 274.641 333.948 273.502 334.413C272.363 334.878 271.328 335.563 270.455 336.43C269.582 337.297 268.889 338.328 268.417 339.464C267.944 340.6 267.701 341.818 267.701 343.048C267.701 344.279 267.944 345.497 268.417 346.633C268.889 347.769 269.582 348.8 270.455 349.667C271.328 350.534 272.363 351.219 273.502 351.684C274.641 352.148 275.86 352.383 277.09 352.374H392.267C394.727 352.356 397.081 351.366 398.815 349.619C400.549 347.872 401.522 345.51 401.522 343.048C401.522 340.587 400.549 338.225 398.815 336.478C397.081 334.731 394.727 333.74 392.267 333.722H277.09Z" fill="#2651ED"/>
</g>
<defs>
<linearGradient id="paint0_linear_5192_25476" x1="249.039" y1="102.707" x2="249.039" y2="621.707" gradientUnits="userSpaceOnUse">
<stop stop-color="#1139CB"/>
<stop offset="1" stop-color="#6B22A5"/>
</linearGradient>
<linearGradient id="paint1_linear_5192_25476" x1="97" y1="151" x2="424.5" y2="151" gradientUnits="userSpaceOnUse">
<stop stop-color="#506BED"/>
<stop offset="1" stop-color="#6B22A5"/>
</linearGradient>
<clipPath id="clip0_5192_25476">
<rect width="470" height="391" fill="white" transform="translate(54 138)"/>
</clipPath>
</defs>
</svg>
