<svg width="632" height="371" viewBox="0 0 632 371" fill="none" xmlns="http://www.w3.org/2000/svg">
<g clip-path="url(#clip0_5482_3812)">
<path d="M0 9.20703H612C623.046 9.20703 632 18.1613 632 29.207V345.207C632 356.253 623.046 365.207 612 365.207H0V9.20703Z" fill="url(#paint0_linear_5482_3812)"/>
<rect x="-84" y="69" width="682.628" height="350.679" rx="20" transform="rotate(-13.5351 -84 69)" fill="white" fill-opacity="0.12"/>
<g clip-path="url(#clip1_5482_3812)">
<path d="M122.678 264.987L403.376 264.987C410.269 264.987 415.857 259.396 415.857 252.5V46.9024C415.857 40.0064 410.269 34.4161 403.376 34.4161L122.678 34.4161C115.785 34.4161 110.196 40.0064 110.196 46.9024V252.5C110.196 259.396 115.785 264.987 122.678 264.987Z" fill="white"/>
<path d="M109.78 252.5V46.9028C109.784 43.4821 111.144 40.2025 113.562 37.7836C115.979 35.3647 119.257 34.004 122.677 34H403.376C406.796 34.0039 410.074 35.3645 412.492 37.7834C414.91 40.2024 416.269 43.482 416.273 46.9028V252.5C416.269 255.921 414.909 259.201 412.491 261.619C410.074 264.038 406.796 265.399 403.376 265.403H122.677C119.258 265.399 115.98 264.038 113.562 261.619C111.144 259.2 109.784 255.921 109.78 252.5ZM122.677 34.8324C119.478 34.8361 116.411 36.109 114.15 38.3719C111.888 40.6347 110.615 43.7027 110.612 46.9028V252.5C110.615 255.7 111.888 258.768 114.149 261.031C116.411 263.294 119.478 264.567 122.677 264.571H403.376C406.575 264.567 409.642 263.294 411.904 261.031C414.165 258.768 415.438 255.7 415.441 252.5V46.9028C415.438 43.7027 414.165 40.6346 411.904 38.3717C409.642 36.1089 406.575 34.836 403.376 34.8324H122.677Z" fill="#292A2E"/>
<path d="M110.199 46.9009V59.4653H415.858V46.9009C415.858 45.2611 415.535 43.6373 414.908 42.1223C414.28 40.6072 413.361 39.2307 412.202 38.0712C411.042 36.9117 409.666 35.992 408.152 35.3646C406.637 34.7372 405.014 34.4144 403.375 34.4146H122.677C119.367 34.4155 116.194 35.7314 113.854 38.0729C111.514 40.4145 110.199 43.5899 110.199 46.9009Z" fill="url(#paint1_linear_5482_3812)"/>
<path d="M316.973 208.055H387.142L397.738 215.995V174.562C397.738 173.76 397.581 172.966 397.274 172.226C396.967 171.485 396.518 170.812 395.951 170.245C395.384 169.678 394.712 169.228 393.971 168.922C393.231 168.615 392.437 168.457 391.636 168.457H316.973C316.171 168.457 315.377 168.614 314.637 168.921C313.896 169.228 313.223 169.677 312.656 170.244C312.089 170.811 311.64 171.484 311.333 172.225C311.026 172.966 310.868 173.76 310.868 174.562V201.95C310.868 202.752 311.026 203.546 311.333 204.287C311.64 205.028 312.089 205.701 312.656 206.268C313.223 206.835 313.896 207.285 314.637 207.591C315.377 207.898 316.171 208.056 316.973 208.055Z" fill="#F7BC76"/>
<path opacity="0.11" d="M316.973 208.055H387.142L397.738 215.995V174.562C397.738 173.76 397.581 172.966 397.274 172.226C396.967 171.485 396.518 170.812 395.951 170.245C395.384 169.678 394.712 169.228 393.971 168.922C393.231 168.615 392.437 168.457 391.636 168.457H316.973C316.171 168.457 315.377 168.614 314.637 168.921C313.896 169.228 313.223 169.677 312.656 170.244C312.089 170.811 311.64 171.484 311.333 172.225C311.026 172.966 310.868 173.76 310.868 174.562V201.95C310.868 202.752 311.026 203.546 311.333 204.287C311.64 205.028 312.089 205.701 312.656 206.268C313.223 206.835 313.896 207.285 314.637 207.591C315.377 207.898 316.171 208.056 316.973 208.055Z" fill="white"/>
<path opacity="0.49" d="M316.973 208.055H387.142L397.738 215.995V174.562C397.738 173.76 397.581 172.966 397.274 172.226C396.967 171.485 396.518 170.812 395.951 170.245C395.384 169.678 394.712 169.228 393.971 168.922C393.231 168.615 392.437 168.457 391.636 168.457H316.973C316.171 168.457 315.377 168.614 314.637 168.921C313.896 169.228 313.223 169.677 312.656 170.244C312.089 170.811 311.64 171.484 311.333 172.225C311.026 172.966 310.868 173.76 310.868 174.562V201.95C310.868 202.752 311.026 203.546 311.333 204.287C311.64 205.028 312.089 205.701 312.656 206.268C313.223 206.835 313.896 207.285 314.637 207.591C315.377 207.898 316.171 208.056 316.973 208.055Z" fill="white"/>
<path d="M318.349 184.937H390.259C390.295 184.939 390.33 184.933 390.364 184.92C390.397 184.908 390.428 184.888 390.454 184.863C390.48 184.839 390.5 184.809 390.514 184.776C390.528 184.743 390.536 184.707 390.536 184.672C390.536 184.636 390.528 184.6 390.514 184.567C390.5 184.534 390.48 184.504 390.454 184.48C390.428 184.455 390.397 184.436 390.364 184.423C390.33 184.41 390.295 184.404 390.259 184.406H318.349C318.313 184.404 318.278 184.41 318.244 184.423C318.211 184.436 318.18 184.455 318.154 184.48C318.128 184.504 318.108 184.534 318.094 184.567C318.08 184.6 318.072 184.636 318.072 184.672C318.072 184.707 318.08 184.743 318.094 184.776C318.108 184.809 318.128 184.839 318.154 184.863C318.18 184.888 318.211 184.908 318.244 184.92C318.278 184.933 318.313 184.939 318.349 184.937Z" fill="white"/>
<path d="M318.349 177.379H390.259C390.295 177.381 390.33 177.375 390.364 177.363C390.397 177.35 390.428 177.331 390.454 177.306C390.48 177.281 390.5 177.251 390.514 177.218C390.528 177.185 390.536 177.15 390.536 177.114C390.536 177.078 390.528 177.043 390.514 177.01C390.5 176.977 390.48 176.947 390.454 176.922C390.428 176.897 390.397 176.878 390.364 176.865C390.33 176.853 390.295 176.847 390.259 176.848H318.349C318.313 176.847 318.278 176.853 318.244 176.865C318.211 176.878 318.18 176.897 318.154 176.922C318.128 176.947 318.108 176.977 318.094 177.01C318.08 177.043 318.072 177.078 318.072 177.114C318.072 177.15 318.08 177.185 318.094 177.218C318.108 177.251 318.128 177.281 318.154 177.306C318.18 177.331 318.211 177.35 318.244 177.363C318.278 177.375 318.313 177.381 318.349 177.379Z" fill="white"/>
<path d="M318.349 192.905H390.259C390.295 192.906 390.33 192.901 390.364 192.888C390.397 192.875 390.428 192.856 390.454 192.831C390.48 192.806 390.5 192.777 390.514 192.744C390.528 192.711 390.536 192.675 390.536 192.639C390.536 192.603 390.528 192.568 390.514 192.535C390.5 192.502 390.48 192.472 390.454 192.447C390.428 192.423 390.397 192.403 390.364 192.391C390.33 192.378 390.295 192.372 390.259 192.374H318.349C318.313 192.372 318.278 192.378 318.244 192.391C318.211 192.403 318.18 192.423 318.154 192.447C318.128 192.472 318.108 192.502 318.094 192.535C318.08 192.568 318.072 192.603 318.072 192.639C318.072 192.675 318.08 192.711 318.094 192.744C318.108 192.777 318.128 192.806 318.154 192.831C318.18 192.856 318.211 192.875 318.244 192.888C318.278 192.901 318.313 192.906 318.349 192.905Z" fill="white"/>
<path d="M318.349 200.872H361.057C361.125 200.869 361.19 200.84 361.237 200.79C361.284 200.741 361.311 200.675 361.311 200.607C361.311 200.538 361.284 200.472 361.237 200.423C361.19 200.373 361.125 200.344 361.057 200.341H318.349C318.313 200.34 318.278 200.345 318.244 200.358C318.211 200.371 318.18 200.39 318.154 200.415C318.128 200.439 318.108 200.469 318.094 200.502C318.08 200.535 318.072 200.571 318.072 200.607C318.072 200.642 318.08 200.678 318.094 200.711C318.108 200.744 318.128 200.774 318.154 200.798C318.18 200.823 318.211 200.843 318.244 200.855C318.278 200.868 318.313 200.874 318.349 200.872Z" fill="white"/>
<path d="M312.7 148.418H387.86L397.737 155.819V124.509C397.737 122.999 397.138 121.552 396.071 120.485C395.004 119.417 393.557 118.818 392.049 118.818H312.697C311.189 118.818 309.742 119.417 308.675 120.485C307.608 121.552 307.009 122.999 307.009 124.509V142.727C307.009 143.474 307.156 144.214 307.442 144.905C307.728 145.596 308.147 146.223 308.676 146.752C309.205 147.28 309.832 147.699 310.523 147.985C311.213 148.271 311.953 148.418 312.7 148.418Z" fill="#F7BC76"/>
<path opacity="0.11" d="M312.7 148.418H387.86L397.737 155.819V124.509C397.737 122.999 397.138 121.552 396.071 120.485C395.004 119.417 393.557 118.818 392.049 118.818H312.697C311.189 118.818 309.742 119.417 308.675 120.485C307.608 121.552 307.009 122.999 307.009 124.509V142.727C307.009 143.474 307.156 144.214 307.442 144.905C307.728 145.596 308.147 146.223 308.676 146.752C309.205 147.28 309.832 147.699 310.523 147.985C311.213 148.271 311.953 148.418 312.7 148.418Z" fill="white"/>
<path opacity="0.49" d="M312.7 148.418H387.86L397.737 155.819V124.509C397.737 122.999 397.138 121.552 396.071 120.485C395.004 119.417 393.557 118.818 392.049 118.818H312.697C311.189 118.818 309.742 119.417 308.675 120.485C307.608 121.552 307.009 122.999 307.009 124.509V142.727C307.009 143.474 307.156 144.214 307.442 144.905C307.728 145.596 308.147 146.223 308.676 146.752C309.205 147.28 309.832 147.699 310.523 147.985C311.213 148.271 311.953 148.418 312.7 148.418Z" fill="white"/>
<path d="M313.984 126.867H390.767C390.831 126.864 390.891 126.836 390.935 126.79C390.979 126.744 391.003 126.683 391.003 126.619C391.003 126.555 390.979 126.494 390.935 126.448C390.891 126.402 390.831 126.374 390.767 126.372H313.984C313.92 126.374 313.86 126.402 313.816 126.448C313.772 126.494 313.747 126.555 313.747 126.619C313.747 126.683 313.772 126.744 313.816 126.79C313.86 126.836 313.92 126.864 313.984 126.867Z" fill="white"/>
<path d="M313.984 134.294H390.767C390.831 134.291 390.891 134.264 390.935 134.218C390.979 134.171 391.003 134.11 391.003 134.046C391.003 133.982 390.979 133.921 390.935 133.875C390.891 133.829 390.831 133.802 390.767 133.799H313.984C313.92 133.802 313.86 133.829 313.816 133.875C313.772 133.921 313.747 133.982 313.747 134.046C313.747 134.11 313.772 134.171 313.816 134.218C313.86 134.264 313.92 134.291 313.984 134.294Z" fill="white"/>
<path d="M313.984 141.721H363.544C363.578 141.723 363.611 141.717 363.642 141.706C363.674 141.694 363.702 141.676 363.726 141.653C363.75 141.63 363.77 141.602 363.783 141.571C363.796 141.54 363.803 141.507 363.803 141.474C363.803 141.44 363.796 141.407 363.783 141.376C363.77 141.346 363.75 141.318 363.726 141.295C363.702 141.272 363.674 141.254 363.642 141.242C363.611 141.23 363.578 141.225 363.544 141.226H313.984C313.92 141.229 313.86 141.256 313.816 141.303C313.772 141.349 313.747 141.41 313.747 141.474C313.747 141.538 313.772 141.599 313.816 141.645C313.86 141.691 313.92 141.718 313.984 141.721Z" fill="white"/>
<path d="M506.779 195.284C506.779 195.284 506.651 191.853 506.678 199.635C506.779 228.662 505.812 410.745 505.812 410.745L478.992 410.519L462.747 194.104L506.779 195.284Z" fill="#262626"/>
<path d="M433.453 197.537C433.453 197.537 430.103 296.746 430.451 301.594L433.601 409.991L459.979 410.479L464.232 297.673C464.232 297.673 467.02 266.555 474.536 237.66C478.381 222.83 480.695 207.645 481.441 192.342L433.453 197.537Z" fill="#262626"/>
<path d="M468.255 267.876L466.055 234.226C466.055 234.226 463.796 248.216 463.796 260.273C463.796 266.167 465.01 289.502 465.01 289.502L468.255 267.876Z" fill="#0A0A0A"/>
<path d="M507.07 195.281L507.159 195.286C507.159 195.286 507.095 193.594 507.07 195.281Z" fill="#333333"/>
<path d="M506.96 195.28L507.048 195.285C507.048 195.285 506.984 193.593 506.96 195.28Z" fill="#333333"/>
<path d="M359.991 114.757C360.153 114.437 360.41 114.174 360.727 114.007C361.043 113.839 361.404 113.774 361.76 113.82C361.757 113.788 361.763 113.757 361.779 113.729C361.796 113.708 361.818 113.691 361.843 113.681C361.868 113.671 361.895 113.668 361.922 113.671L360.722 112.811C360.363 112.565 360.105 112.198 359.996 111.777C359.887 111.355 359.934 110.909 360.128 110.519C360.333 110.141 360.67 109.852 361.076 109.709C361.481 109.565 361.925 109.578 362.322 109.744C362.319 109.726 362.33 109.71 362.333 109.695L361.84 109.341C361.503 109.108 361.256 108.766 361.142 108.372C361.028 107.979 361.054 107.558 361.215 107.181C361.321 106.946 361.477 106.738 361.673 106.572C361.868 106.405 362.099 106.284 362.347 106.218C362.595 106.151 362.855 106.14 363.108 106.186C363.36 106.232 363.6 106.333 363.809 106.483L364.946 107.298C364.949 107.291 364.946 107.284 364.95 107.277C364.955 107.271 364.967 107.269 364.974 107.262C364.713 106.968 364.559 106.594 364.539 106.201C364.518 105.809 364.631 105.421 364.86 105.101C365.396 104.237 366.636 104.413 367.371 104.941L374.064 109.566L372.868 107.551C372.628 107.163 372.543 106.699 372.631 106.251C372.72 105.803 372.974 105.405 373.344 105.138C373.54 105.007 373.761 104.917 373.992 104.874C374.224 104.831 374.462 104.836 374.692 104.888C374.922 104.94 375.139 105.038 375.329 105.177C375.52 105.315 375.68 105.491 375.801 105.694L382.332 116.696C383.098 117.987 383.332 119.525 382.982 120.985C382.632 122.445 381.728 123.711 380.46 124.514C378.99 125.446 377.275 125.917 375.535 125.867C373.796 125.817 372.111 125.248 370.696 124.234L360.588 116.986C360.252 116.736 360.01 116.38 359.902 115.975C359.794 115.57 359.825 115.141 359.991 114.757Z" fill="#E98862"/>
<g opacity="0.25">
<path d="M371.57 111.869C371.545 111.903 371.508 111.926 371.467 111.933C371.426 111.94 371.384 111.93 371.349 111.907L364.989 107.499C364.971 107.488 364.955 107.473 364.943 107.455C364.931 107.437 364.922 107.417 364.918 107.396C364.914 107.375 364.914 107.353 364.918 107.332C364.923 107.31 364.931 107.29 364.944 107.273C364.956 107.255 364.972 107.24 364.99 107.228C365.008 107.217 365.029 107.209 365.05 107.206C365.072 107.202 365.093 107.203 365.114 107.208C365.135 107.214 365.155 107.223 365.172 107.236L371.532 111.643C371.566 111.667 371.59 111.705 371.598 111.746C371.605 111.788 371.596 111.831 371.572 111.866L371.57 111.869Z" fill="#0C0C0C"/>
</g>
<g opacity="0.25">
<path d="M369.705 114.728C369.68 114.762 369.643 114.785 369.602 114.792C369.561 114.799 369.518 114.79 369.484 114.766L362.388 109.848C362.353 109.823 362.33 109.786 362.322 109.745C362.314 109.703 362.324 109.66 362.348 109.625C362.373 109.591 362.41 109.568 362.451 109.561C362.492 109.553 362.535 109.562 362.57 109.584L369.666 114.505C369.701 114.529 369.725 114.566 369.733 114.608C369.74 114.65 369.731 114.693 369.707 114.728L369.705 114.728Z" fill="#0C0C0C"/>
</g>
<g opacity="0.25">
<path d="M367.701 117.837C367.677 117.871 367.64 117.894 367.599 117.901C367.557 117.908 367.515 117.899 367.481 117.875L361.819 113.952C361.802 113.94 361.787 113.925 361.776 113.907C361.764 113.889 361.756 113.87 361.753 113.849C361.749 113.828 361.749 113.807 361.754 113.786C361.758 113.766 361.766 113.746 361.778 113.729C361.79 113.712 361.806 113.697 361.823 113.686C361.841 113.674 361.861 113.666 361.881 113.663C361.902 113.659 361.923 113.659 361.944 113.664C361.964 113.668 361.984 113.677 362.001 113.689L367.663 117.612C367.698 117.636 367.722 117.673 367.729 117.715C367.737 117.756 367.728 117.799 367.703 117.834L367.701 117.837Z" fill="#0C0C0C"/>
</g>
<path d="M386.187 114.189L405.371 146.876L428.779 116.16L448.219 133.693L415.021 176.706L414.803 177.012C413.474 178.833 411.704 180.285 409.659 181.232C407.614 182.179 405.362 182.59 403.114 182.425C400.867 182.261 398.698 181.527 396.812 180.292C394.927 179.057 393.387 177.362 392.337 175.367L365.058 125.945L386.187 114.189Z" fill="#642F71"/>
<path d="M407.251 150.806C407.29 150.806 407.328 150.797 407.363 150.779C407.42 150.75 407.464 150.699 407.483 150.637C407.503 150.576 407.498 150.509 407.469 150.452L405.588 146.765C405.574 146.735 405.554 146.709 405.53 146.687C405.505 146.666 405.477 146.649 405.446 146.638C405.415 146.628 405.383 146.624 405.35 146.626C405.318 146.628 405.286 146.637 405.257 146.652C405.228 146.667 405.202 146.688 405.181 146.713C405.16 146.738 405.144 146.767 405.135 146.798C405.125 146.829 405.122 146.862 405.125 146.894C405.129 146.927 405.138 146.958 405.154 146.987L407.035 150.674C407.055 150.713 407.086 150.747 407.124 150.77C407.163 150.794 407.207 150.806 407.251 150.806Z" fill="#0C0C0C"/>
<path d="M491.943 71.9751C491.943 71.9751 492.842 83.4662 495.476 87.609C503.061 99.5341 505.374 113.022 498 120.168C490.626 127.313 443.068 127.962 439.28 111.766C436.089 98.1312 442.58 96.586 444.034 85.2889C444.691 80.1777 446.539 69.4556 446.539 69.4556" fill="#0A0A0A"/>
<path d="M451.39 109.177C451.472 109.167 452.383 124.289 469.944 122.97C482.101 122.06 486.436 109.156 486.714 109.156C485.403 108.877 483.196 108.473 482.614 108.161C480.7 107.132 478.331 106.061 477.714 102.342C477.359 100.196 477.962 89.2324 477.776 87.0635L459.115 91.2306C459.375 95.8108 461.2 106.43 454.804 108.309C453.738 108.62 452.591 108.906 451.39 109.177Z" fill="#E98862"/>
<path opacity="0.52" d="M458.851 103.969C459.143 103.027 459.331 102.055 459.412 101.072C459.617 98.8279 459.576 96.568 459.29 94.3327C463.083 93.8208 466.656 92.2548 469.604 89.8125C469.951 91.0925 471.856 96.6879 471.328 97.9035C470.331 100.204 465.645 103.969 458.851 103.969Z" fill="#0C0C0C"/>
<path d="M461.325 99.2096C468.69 99.8366 478.175 96.7827 480.033 86.9582L481.71 78.0939C483.568 68.2699 479.917 59.3295 470.671 57.5789C461.426 55.8284 453.008 62.4839 451.149 72.3078L450.407 76.2327C449.694 80.0019 448.184 98.091 461.325 99.2096Z" fill="#E98862"/>
<path d="M453.042 76.6604C453.682 76.6604 454.201 76.1413 454.201 75.5009C454.201 74.8605 453.682 74.3413 453.042 74.3413C452.402 74.3413 451.883 74.8605 451.883 75.5009C451.883 76.1413 452.402 76.6604 453.042 76.6604Z" fill="#0C0C0C"/>
<path d="M464.916 78.2468C465.556 78.2468 466.075 77.7277 466.075 77.0873C466.075 76.4469 465.556 75.9277 464.916 75.9277C464.276 75.9277 463.757 76.4469 463.757 77.0873C463.757 77.7277 464.276 78.2468 464.916 78.2468Z" fill="#0C0C0C"/>
<path d="M489.107 81.1835L480.821 79.6631C474.544 77.1221 472.646 66.2537 472.646 66.2537C472.646 66.2537 465.02 73.6879 446.543 69.4597C446.543 69.4597 450.247 43.6805 477.546 51.1742C486.348 53.5913 492.665 62.4649 491.876 74.3247C491.324 82.6351 489.107 81.1835 489.107 81.1835Z" fill="#0A0A0A"/>
<path d="M478.892 89.8425C481.702 90.3745 484.549 87.7985 485.082 84.9878C485.616 82.1772 483.629 80.1951 480.82 79.6631L479.016 81.2722L476.479 89.3847L478.892 89.8425Z" fill="#E98862"/>
<path opacity="0.1" d="M468.219 84.9363C468.315 84.0465 467.41 83.2194 466.197 83.0889C464.985 82.9584 463.924 83.5739 463.829 84.4637C463.733 85.3534 464.638 86.1805 465.851 86.311C467.063 86.4415 468.123 85.826 468.219 84.9363Z" fill="#0C0C0C"/>
<path opacity="0.1" d="M453.018 82.9076C452.92 83.796 451.86 84.4109 450.647 84.2817C450.438 84.2592 450.231 84.2149 450.031 84.1495C449.962 83.0924 449.947 82.0747 449.967 81.1327C450.302 81.0444 450.651 81.02 450.995 81.0605C452.208 81.1897 453.113 82.0162 453.018 82.9076Z" fill="#0C0C0C"/>
<path d="M429.57 142.47C430.123 148.971 432.813 189.53 433.345 197.537H506.639C507.053 190.315 508.912 158.735 510.483 144.613C511.981 131.136 514.921 124.388 512.766 120.404C509.246 113.893 499.619 110.13 493.057 109.239C489.05 108.696 483.022 108.307 483.022 108.307C483.022 108.307 482.512 118.635 470.343 119.21C453.779 119.99 454.884 108.307 454.803 108.307C452.119 108.307 436.789 110.006 433.038 112.23C422.818 118.287 428.395 128.695 429.57 142.47Z" fill="#642F71"/>
<path d="M428.985 174.384C429.007 174.026 429.141 173.685 429.366 173.406C429.592 173.127 429.898 172.926 430.243 172.829C430.232 172.81 430.225 172.789 430.224 172.768C430.222 172.746 430.226 172.724 430.235 172.705C430.244 172.685 430.258 172.668 430.275 172.654C430.292 172.641 430.312 172.632 430.333 172.628L428.893 172.308C428.467 172.223 428.086 171.986 427.82 171.642C427.555 171.298 427.422 170.869 427.448 170.435C427.487 170.007 427.684 169.609 428 169.318C428.317 169.027 428.729 168.864 429.159 168.86C429.15 168.846 429.154 168.827 429.149 168.812L428.558 168.68C428.156 168.598 427.795 168.38 427.536 168.063C427.276 167.745 427.135 167.348 427.135 166.938C427.14 166.681 427.202 166.429 427.317 166.199C427.431 165.969 427.596 165.767 427.798 165.608C428 165.449 428.234 165.337 428.485 165.28C428.735 165.223 428.995 165.222 429.246 165.277L430.611 165.581C430.611 165.573 430.605 165.568 430.607 165.56C430.608 165.552 430.619 165.546 430.622 165.536C430.267 165.369 429.979 165.085 429.806 164.732C429.632 164.379 429.584 163.978 429.669 163.594C429.823 162.589 431.034 162.264 431.916 162.46L439.888 164.086L437.996 162.702C437.622 162.44 437.362 162.046 437.267 161.6C437.173 161.153 437.252 160.687 437.487 160.296C437.616 160.098 437.784 159.929 437.98 159.798C438.176 159.668 438.397 159.579 438.628 159.536C438.86 159.494 439.098 159.499 439.328 159.552C439.558 159.604 439.774 159.703 439.965 159.842L450.29 167.395C451.502 168.281 452.32 169.604 452.572 171.084C452.823 172.564 452.488 174.084 451.637 175.321C450.65 176.755 449.258 177.862 447.639 178.499C446.019 179.136 444.246 179.275 442.547 178.898L430.406 176.202C429.999 176.104 429.637 175.871 429.379 175.541C429.121 175.211 428.982 174.803 428.985 174.384Z" fill="#E98862"/>
<g opacity="0.25">
<path d="M438.5 167.183C438.491 167.224 438.466 167.259 438.431 167.282C438.395 167.305 438.353 167.313 438.312 167.304L430.733 165.749C430.692 165.741 430.655 165.716 430.632 165.681C430.609 165.645 430.6 165.602 430.609 165.56C430.617 165.519 430.642 165.482 430.677 165.459C430.713 165.436 430.756 165.427 430.798 165.436L438.376 166.99C438.397 166.995 438.417 167.003 438.434 167.015C438.451 167.027 438.466 167.042 438.478 167.059C438.489 167.077 438.497 167.096 438.501 167.117C438.505 167.138 438.505 167.159 438.501 167.18L438.5 167.183Z" fill="#0C0C0C"/>
</g>
<g opacity="0.25">
<path d="M437.906 170.546C437.897 170.587 437.872 170.622 437.836 170.645C437.801 170.667 437.759 170.675 437.718 170.667L429.261 168.932C429.241 168.927 429.221 168.919 429.204 168.907C429.187 168.896 429.172 168.88 429.16 168.863C429.149 168.845 429.141 168.826 429.137 168.805C429.133 168.784 429.133 168.763 429.137 168.742C429.147 168.702 429.172 168.666 429.207 168.643C429.242 168.62 429.284 168.611 429.326 168.618L437.784 170.353C437.804 170.357 437.824 170.366 437.841 170.377C437.859 170.389 437.874 170.404 437.885 170.422C437.897 170.439 437.905 170.459 437.909 170.48C437.913 170.5 437.912 170.522 437.908 170.542L437.906 170.546Z" fill="#0C0C0C"/>
</g>
<g opacity="0.25">
<path d="M437.285 174.192C437.276 174.232 437.251 174.268 437.216 174.29C437.18 174.313 437.138 174.321 437.097 174.312L430.35 172.929C430.33 172.924 430.31 172.916 430.293 172.904C430.276 172.893 430.261 172.877 430.249 172.86C430.238 172.842 430.23 172.823 430.226 172.802C430.222 172.781 430.222 172.76 430.226 172.74C430.23 172.719 430.238 172.7 430.25 172.682C430.262 172.665 430.277 172.65 430.295 172.638C430.312 172.627 430.332 172.619 430.352 172.615C430.373 172.611 430.394 172.611 430.415 172.615L437.161 173.999C437.203 174.008 437.239 174.032 437.263 174.068C437.286 174.103 437.294 174.146 437.286 174.188L437.285 174.192Z" fill="#0C0C0C"/>
</g>
<path d="M443.299 183.705L509.171 195.614C511.226 195.838 513.306 195.583 515.246 194.868C517.186 194.152 518.934 192.997 520.353 191.492C521.772 189.988 522.823 188.175 523.423 186.195C524.024 184.216 524.158 182.124 523.815 180.084L514.593 125.248C514.301 123.515 513.671 121.855 512.738 120.365C511.806 118.875 510.589 117.583 509.157 116.564C507.726 115.544 506.107 114.816 504.395 114.422C502.682 114.029 500.909 113.976 499.176 114.268C497.443 114.559 495.784 115.19 494.295 116.123C492.805 117.056 491.514 118.273 490.495 119.705C489.475 121.137 488.748 122.756 488.354 124.47C487.961 126.183 487.908 127.957 488.2 129.691L494.487 167.44L446.194 161.372L443.299 183.705Z" fill="#642F71"/>
<path d="M509.171 195.858C509.232 195.858 509.29 195.835 509.335 195.794C509.38 195.753 509.408 195.697 509.413 195.636C509.418 195.576 509.401 195.515 509.364 195.467C509.327 195.418 509.274 195.386 509.214 195.375L443.57 183.507L446.405 161.644L494.458 167.682C494.495 167.686 494.534 167.682 494.57 167.67C494.605 167.657 494.638 167.636 494.664 167.609C494.69 167.581 494.71 167.548 494.721 167.512C494.732 167.475 494.735 167.437 494.729 167.399L490.732 143.273C490.727 143.242 490.716 143.211 490.699 143.184C490.682 143.157 490.66 143.133 490.634 143.114C490.608 143.096 490.578 143.082 490.547 143.075C490.516 143.068 490.483 143.067 490.452 143.073C490.388 143.084 490.331 143.119 490.293 143.172C490.256 143.224 490.241 143.29 490.251 143.353L494.195 167.156L446.224 161.13C446.16 161.122 446.095 161.14 446.044 161.179C445.994 161.219 445.96 161.277 445.952 161.341L443.056 183.673C443.048 183.736 443.064 183.798 443.101 183.849C443.138 183.9 443.193 183.934 443.255 183.945L509.126 195.854C509.141 195.857 509.156 195.858 509.171 195.858Z" fill="#0C0C0C"/>
<path d="M494.44 167.381L494.363 167.862L498.599 168.541L498.676 168.059L494.44 167.381Z" fill="#0C0C0C"/>
<path d="M430.129 146.691L429.643 146.719L430.228 157.043L430.715 157.015L430.129 146.691Z" fill="#0C0C0C"/>
<path d="M369.763 99.9389H269.55L254.418 111.278V52.1058C254.418 49.7933 255.336 47.5756 256.971 45.9405C258.605 44.3053 260.822 43.3867 263.133 43.3867H369.763C372.074 43.3868 374.291 44.3055 375.925 45.9406C377.56 47.5758 378.478 49.7934 378.478 52.1058V91.2203C378.478 93.5326 377.56 95.7502 375.925 97.3852C374.291 99.0203 372.074 99.9389 369.763 99.9389Z" fill="#F7BC76"/>
<path opacity="0.11" d="M369.763 99.9389H269.55L254.418 111.278V52.1058C254.418 49.7933 255.336 47.5756 256.971 45.9405C258.605 44.3053 260.822 43.3867 263.133 43.3867H369.763C372.074 43.3868 374.291 44.3055 375.925 45.9406C377.56 47.5758 378.478 49.7934 378.478 52.1058V91.2203C378.478 93.5326 377.56 95.7502 375.925 97.3852C374.291 99.0203 372.074 99.9389 369.763 99.9389Z" fill="white"/>
<path d="M265.1 66.9228H367.798C367.899 66.9228 367.995 66.8828 368.067 66.8117C368.138 66.7405 368.178 66.644 368.178 66.5434C368.178 66.4428 368.138 66.3463 368.067 66.2752C367.995 66.204 367.899 66.1641 367.798 66.1641H265.1C264.999 66.1641 264.903 66.204 264.832 66.2752C264.761 66.3463 264.721 66.4428 264.721 66.5434C264.721 66.644 264.761 66.7405 264.832 66.8117C264.903 66.8828 264.999 66.9228 265.1 66.9228Z" fill="white"/>
<path d="M265.1 56.1293H367.798C367.899 56.1293 367.995 56.0894 368.067 56.0182C368.138 55.9471 368.178 55.8506 368.178 55.75C368.178 55.6494 368.138 55.5529 368.067 55.4817C367.995 55.4106 367.899 55.3706 367.798 55.3706H265.1C264.999 55.3706 264.903 55.4106 264.832 55.4817C264.761 55.5529 264.721 55.6494 264.721 55.75C264.721 55.8506 264.761 55.9471 264.832 56.0182C264.903 56.0894 264.999 56.1293 265.1 56.1293Z" fill="white"/>
<path d="M265.1 78.3012H367.798C367.899 78.3012 367.995 78.2612 368.067 78.1901C368.138 78.119 368.178 78.0225 368.178 77.9218C368.178 77.8212 368.138 77.7247 368.067 77.6536C367.995 77.5825 367.899 77.5425 367.798 77.5425H265.1C264.999 77.5425 264.903 77.5825 264.832 77.6536C264.761 77.7247 264.721 77.8212 264.721 77.9218C264.721 78.0225 264.761 78.119 264.832 78.1901C264.903 78.2612 264.999 78.3012 265.1 78.3012Z" fill="white"/>
<path d="M265.1 89.6806H326.091C326.192 89.6806 326.288 89.6406 326.359 89.5695C326.43 89.4983 326.47 89.4019 326.47 89.3012C326.47 89.2006 326.43 89.1041 326.359 89.033C326.288 88.9618 326.192 88.9219 326.091 88.9219H265.1C264.999 88.9219 264.903 88.9618 264.832 89.033C264.761 89.1041 264.721 89.2006 264.721 89.3012C264.721 89.4019 264.761 89.4983 264.832 89.5695C264.903 89.6406 264.999 89.6806 265.1 89.6806Z" fill="white"/>
<path opacity="0.2" d="M190.254 220.022C223.315 220.022 250.117 193.21 250.117 160.135C250.117 127.061 223.315 100.249 190.254 100.249C157.193 100.249 130.392 127.061 130.392 160.135C130.392 193.21 157.193 220.022 190.254 220.022Z" fill="#F7BC76"/>
<path d="M239.868 179C234.641 179.005 229.508 177.199 225 173.767L229.761 163.203C233.778 166.241 238.481 167.383 243.072 166.435C247.664 165.486 251.862 162.506 254.953 158L262 166.133C256.973 173.489 249.955 178.047 242.404 178.86C241.557 178.954 240.711 179 239.868 179Z" fill="#642F71"/>
<path d="M265.551 166C263.167 165.995 260.834 165.306 258.823 164.011C256.813 162.717 255.207 160.871 254.193 158.688C253.18 156.506 252.8 154.077 253.099 151.684C253.398 149.292 254.363 147.035 255.881 145.176C256.149 144.848 256.478 144.577 256.849 144.377C257.221 144.178 257.628 144.055 258.046 144.015C258.465 143.974 258.887 144.018 259.289 144.143C259.691 144.268 260.065 144.471 260.389 144.742C260.714 145.013 260.982 145.346 261.179 145.722C261.376 146.098 261.498 146.51 261.538 146.933C261.577 147.357 261.534 147.784 261.411 148.191C261.288 148.598 261.086 148.976 260.818 149.304C259.783 150.581 259.29 152.22 259.447 153.864C259.604 155.508 260.399 157.021 261.658 158.073C262.916 159.125 264.535 159.63 266.16 159.476C267.786 159.323 269.285 158.524 270.329 157.254C270.597 156.926 270.926 156.655 271.297 156.455C271.669 156.256 272.076 156.133 272.494 156.093C272.913 156.052 273.335 156.096 273.737 156.221C274.139 156.346 274.513 156.549 274.837 156.82C275.162 157.091 275.43 157.424 275.627 157.8C275.824 158.176 275.946 158.588 275.986 159.011C276.025 159.435 275.982 159.862 275.859 160.269C275.736 160.676 275.534 161.054 275.266 161.382C274.217 162.673 272.926 163.741 271.467 164.524C270.007 165.307 268.409 165.789 266.764 165.942C266.358 165.981 265.954 166 265.551 166Z" fill="#E0DFE8"/>
<path d="M152.802 158.394L162.694 214.357C163.972 221.591 167.757 228.144 173.384 232.865C179.01 237.586 186.119 240.173 193.463 240.173C200.622 240.173 207.564 237.714 213.128 233.206C218.692 228.699 222.539 222.416 224.027 215.41L236.135 158.394H152.802Z" fill="#642F71"/>
<path d="M194.467 170.718C217.479 170.718 236.133 165.201 236.133 158.394C236.133 151.588 217.479 146.07 194.467 146.07C171.455 146.07 152.801 151.588 152.801 158.394C152.801 165.201 171.455 170.718 194.467 170.718Z" fill="#E0DFE8"/>
<path d="M235.18 125.316C235.18 143.435 216.951 152.154 194.467 152.154C171.984 152.154 153.755 143.435 153.755 125.316C153.755 107.196 171.984 86.5361 194.467 86.5361C216.95 86.5361 235.18 107.196 235.18 125.316Z" fill="#642F71"/>
<path d="M216.718 103.327H193.56C186.301 103.327 180.417 109.214 180.417 116.476V116.476C180.417 123.738 186.301 129.625 193.56 129.625H216.718C223.977 129.625 229.861 123.738 229.861 116.476V116.476C229.861 109.214 223.977 103.327 216.718 103.327Z" fill="white"/>
<path d="M204.449 121.256C204.053 121.256 203.674 121.098 203.394 120.819C203.114 120.539 202.957 120.159 202.957 119.763C202.963 119.092 202.837 118.425 202.585 117.803C202.332 117.181 201.959 116.615 201.487 116.138C201.014 115.66 200.452 115.282 199.833 115.023C199.213 114.765 198.549 114.631 197.877 114.631C197.206 114.631 196.541 114.765 195.922 115.023C195.302 115.282 194.74 115.66 194.268 116.138C193.795 116.615 193.422 117.181 193.17 117.803C192.918 118.425 192.791 119.092 192.798 119.763C192.798 120.159 192.64 120.539 192.361 120.819C192.081 121.098 191.701 121.256 191.306 121.256C190.91 121.256 190.531 121.098 190.251 120.819C189.971 120.539 189.814 120.159 189.814 119.763C189.805 118.698 190.008 117.643 190.409 116.657C190.811 115.671 191.404 114.774 192.153 114.018C192.903 113.263 193.794 112.663 194.777 112.253C195.759 111.844 196.813 111.633 197.877 111.633C198.942 111.633 199.995 111.844 200.978 112.253C201.96 112.663 202.852 113.263 203.601 114.018C204.351 114.774 204.944 115.671 205.345 116.657C205.747 117.643 205.949 118.698 205.941 119.763C205.941 119.959 205.902 120.153 205.827 120.334C205.752 120.516 205.643 120.68 205.504 120.819C205.365 120.957 205.201 121.067 205.02 121.142C204.839 121.217 204.645 121.256 204.449 121.256Z" fill="#292A2E"/>
<path d="M224.742 121.256C224.346 121.256 223.967 121.098 223.687 120.819C223.407 120.539 223.25 120.159 223.25 119.763C223.256 119.092 223.13 118.425 222.878 117.803C222.625 117.181 222.252 116.615 221.78 116.138C221.307 115.66 220.745 115.282 220.126 115.023C219.506 114.765 218.842 114.631 218.17 114.631C217.499 114.631 216.834 114.765 216.215 115.023C215.595 115.282 215.033 115.66 214.561 116.138C214.088 116.615 213.715 117.181 213.463 117.803C213.211 118.425 213.084 119.092 213.091 119.763C213.091 120.159 212.933 120.539 212.654 120.819C212.374 121.098 211.994 121.256 211.599 121.256C211.203 121.256 210.823 121.098 210.544 120.819C210.264 120.539 210.107 120.159 210.107 119.763C210.098 118.698 210.301 117.643 210.702 116.657C211.104 115.671 211.697 114.774 212.446 114.018C213.196 113.263 214.087 112.663 215.07 112.253C216.052 111.844 217.106 111.633 218.17 111.633C219.234 111.633 220.288 111.844 221.271 112.253C222.253 112.663 223.145 113.263 223.894 114.018C224.644 114.774 225.237 115.671 225.638 116.657C226.04 117.643 226.242 118.698 226.234 119.763C226.234 119.959 226.195 120.153 226.12 120.334C226.045 120.516 225.936 120.68 225.797 120.819C225.658 120.957 225.494 121.067 225.313 121.142C225.132 121.217 224.938 121.256 224.742 121.256Z" fill="#292A2E"/>
<path d="M194.458 72.5125L192.649 72.6011L193.541 90.8287L195.349 90.7402L194.458 72.5125Z" fill="#367CFF"/>
<path d="M193.619 77.2161C195.446 77.2161 196.928 75.7341 196.928 73.9061C196.928 72.0781 195.446 70.5962 193.619 70.5962C191.792 70.5962 190.311 72.0781 190.311 73.9061C190.311 75.7341 191.792 77.2161 193.619 77.2161Z" fill="#292A2E"/>
<path d="M392.264 229.356H277.091C271.741 229.356 267.403 233.696 267.403 239.048C267.403 244.401 271.741 248.74 277.091 248.74H392.264C397.615 248.74 401.952 244.401 401.952 239.048C401.952 233.696 397.615 229.356 392.264 229.356Z" fill="white"/>
<path d="M392.267 249.106H277.09C275.764 249.115 274.449 248.861 273.222 248.36C271.994 247.859 270.877 247.12 269.936 246.185C268.995 245.25 268.248 244.138 267.739 242.913C267.229 241.688 266.967 240.375 266.967 239.048C266.967 237.722 267.229 236.408 267.739 235.183C268.248 233.958 268.995 232.847 269.936 231.912C270.877 230.977 271.994 230.238 273.222 229.736C274.449 229.235 275.764 228.982 277.09 228.991H392.267C394.921 229.009 397.46 230.077 399.33 231.961C401.2 233.845 402.25 236.393 402.25 239.048C402.25 241.704 401.2 244.251 399.33 246.135C397.46 248.019 394.921 249.087 392.267 249.106ZM277.09 229.722C275.86 229.713 274.641 229.948 273.502 230.413C272.363 230.878 271.328 231.563 270.455 232.43C269.582 233.297 268.889 234.328 268.417 235.464C267.944 236.6 267.701 237.818 267.701 239.048C267.701 240.279 267.944 241.497 268.417 242.633C268.889 243.769 269.582 244.8 270.455 245.667C271.328 246.534 272.363 247.219 273.502 247.684C274.641 248.148 275.86 248.383 277.09 248.374H392.267C394.727 248.356 397.081 247.366 398.815 245.619C400.549 243.872 401.522 241.51 401.522 239.048C401.522 236.587 400.549 234.225 398.815 232.478C397.081 230.731 394.727 229.74 392.267 229.722H277.09Z" fill="#2651ED"/>
</g>
</g>
<defs>
<linearGradient id="paint0_linear_5482_3812" x1="249.039" y1="-1.29297" x2="249.039" y2="517.707" gradientUnits="userSpaceOnUse">
<stop stop-color="#1139CB"/>
<stop offset="1" stop-color="#6B22A5"/>
</linearGradient>
<linearGradient id="paint1_linear_5482_3812" x1="97" y1="47.0002" x2="424.5" y2="47.0002" gradientUnits="userSpaceOnUse">
<stop stop-color="#506BED"/>
<stop offset="1" stop-color="#6B22A5"/>
</linearGradient>
<clipPath id="clip0_5482_3812">
<rect width="632" height="353" fill="white" transform="translate(0 9)"/>
</clipPath>
<clipPath id="clip1_5482_3812">
<rect width="470" height="391" fill="white" transform="translate(54 34)"/>
</clipPath>
</defs>
</svg>
