<svg width="632" height="478" viewBox="0 0 632 478" fill="none" xmlns="http://www.w3.org/2000/svg">
<g clip-path="url(#clip0_5482_3983)">
<path d="M0 84.207H612C623.046 84.207 632 93.1613 632 104.207V420.207C632 431.253 623.046 440.207 612 440.207H0V84.207Z" fill="url(#paint0_linear_5482_3983)"/>
<rect x="112.423" y="-44" width="728.028" height="379.644" rx="20" transform="rotate(41.6742 112.423 -44)" fill="white" fill-opacity="0.12"/>
</g>
<path d="M458.06 219.378L298.731 313.177L139.402 219.378L298.731 83.5784L458.06 219.378Z" fill="#0B1142"/>
<path d="M423.006 53.5063H169.779V381.317H423.006V53.5063Z" fill="#C1D8ED"/>
<path d="M399.666 129.758H193.12V137.562H399.666V129.758Z" fill="white"/>
<path d="M399.666 245.512H193.12V253.317H399.666V245.512Z" fill="white"/>
<path d="M399.666 152.908H193.12V160.713H399.666V152.908Z" fill="white"/>
<path d="M399.666 176.06H193.12V183.865H399.666V176.06Z" fill="white"/>
<path d="M399.666 199.21H193.12V207.015H399.666V199.21Z" fill="white"/>
<path d="M399.666 222.361H193.12V230.166H399.666V222.361Z" fill="white"/>
<path d="M372.338 338.116H220.446V345.921H372.338V338.116Z" fill="white"/>
<path d="M399.666 268.663H193.12V276.468H399.666V268.663Z" fill="white"/>
<path d="M399.666 291.814H193.12V299.619H399.666V291.814Z" fill="white"/>
<path d="M399.666 314.965H193.12V322.77H399.666V314.965Z" fill="white"/>
<path d="M399.666 88.9033H193.12V110.186H399.666V88.9033Z" fill="white"/>
<path d="M458.06 219.378V418.919H139.402V219.378L298.731 313.177L458.06 219.378Z" fill="url(#paint1_linear_5482_3983)"/>
<path d="M507.631 94.0152C503.226 92.5887 498.482 92.5887 494.077 94.0152C491.545 94.8583 489.284 96.3611 487.528 98.3682C485.288 101.017 483.634 104.684 483.799 108.196C483.915 110.014 484.491 111.772 485.473 113.306C486.456 114.84 487.812 116.101 489.416 116.969C492.258 118.423 496.533 118.724 499.021 116.398C500.918 114.626 500.821 111.584 499.597 109.472C497.642 106.098 493.372 104.726 489.665 105.196C487.551 105.498 485.52 106.222 483.692 107.323C481.863 108.425 480.275 109.881 479.022 111.607C477.84 113.24 476.984 115.085 476.5 117.041C476.049 118.856 475.865 120.938 476.58 122.713C476.709 123.132 476.993 123.485 477.375 123.702C477.757 123.918 478.207 123.981 478.634 123.877C479.427 123.659 480.138 122.667 479.799 121.827C479.593 121.354 479.476 120.847 479.456 120.332C479.426 119.696 479.476 119.058 479.605 118.434C479.902 116.993 480.442 115.612 481.203 114.351C482.741 111.839 485.119 109.95 487.917 109.017C490.594 108.124 493.753 108.133 495.901 110.157C496.301 110.516 496.628 110.949 496.864 111.431C496.895 111.485 496.992 111.729 496.878 111.442C496.929 111.572 496.975 111.705 497.014 111.842C497.039 111.926 497.062 112.013 497.082 112.098C497.11 112.212 497.15 112.747 497.125 112.26C497.131 112.393 497.247 113.178 497.121 113.254C497.084 113.276 497.22 112.78 497.144 113.072C497.131 113.122 497.13 113.176 497.115 113.226C497.084 113.367 497.044 113.507 496.996 113.644C496.782 113.991 496.46 114.258 496.08 114.406C496.324 114.292 495.827 114.494 495.831 114.493C495.727 114.524 495.623 114.55 495.517 114.575C495.211 114.655 494.898 114.703 494.582 114.719C494.039 114.757 493.492 114.743 492.952 114.676C492.373 114.573 491.807 114.405 491.267 114.173C490.084 113.599 489.076 112.719 488.349 111.625C487.622 110.53 487.202 109.262 487.133 107.951C487.165 106.459 487.502 104.991 488.122 103.634C488.369 103.083 488.651 102.549 488.966 102.034C489.241 101.574 489.55 101.136 489.892 100.722C490.238 100.312 490.611 99.9243 491.007 99.5612C491.2 99.3845 491.398 99.214 491.602 99.0498C491.998 98.7287 491.346 99.2287 491.756 98.9321C491.881 98.8419 492.007 98.7533 492.134 98.667C492.575 98.3689 493.034 98.0976 493.508 97.8545C493.754 97.7282 494.003 97.6099 494.252 97.4973C494.306 97.4733 494.548 97.3762 494.267 97.4899C494.429 97.4248 494.591 97.3621 494.755 97.3019C495.845 96.9135 496.971 96.632 498.116 96.4614C498.595 96.3854 497.768 96.4928 498.249 96.4448C498.393 96.4305 498.535 96.4128 498.681 96.3991C498.968 96.3722 499.254 96.3511 499.54 96.3362C500.105 96.3065 500.669 96.2993 501.234 96.3145C501.778 96.3282 502.322 96.3618 502.864 96.4151C502.982 96.4271 503.79 96.5294 503.33 96.4631C503.582 96.4991 503.832 96.5368 504.082 96.5802C504.982 96.7337 505.871 96.949 506.742 97.2248C508.794 97.879 509.673 94.6626 507.63 94.0112L507.631 94.0152Z" fill="#F7BC76"/>
<path d="M616.53 151.755C612.125 150.328 607.381 150.328 602.976 151.755C600.443 152.598 598.182 154.101 596.426 156.108C594.186 158.756 592.533 162.423 592.697 165.936C592.813 167.753 593.389 169.511 594.372 171.046C595.354 172.58 596.711 173.84 598.315 174.709C601.156 176.162 605.432 176.464 607.919 174.137C609.817 172.366 609.719 169.323 608.496 167.212C606.54 163.838 602.27 162.466 598.564 162.935C596.45 163.238 594.418 163.961 592.59 165.063C590.762 166.164 589.174 167.621 587.921 169.347C586.739 170.98 585.882 172.824 585.398 174.78C584.947 176.595 584.763 178.678 585.478 180.452C585.607 180.871 585.892 181.225 586.274 181.441C586.655 181.658 587.106 181.72 587.532 181.616C588.326 181.399 589.036 180.407 588.698 179.567C588.491 179.094 588.375 178.587 588.354 178.071C588.324 177.435 588.374 176.797 588.504 176.174C588.801 174.732 589.341 173.352 590.101 172.091C591.64 169.579 594.018 167.69 596.816 166.757C599.492 165.864 602.652 165.872 604.799 167.896C605.199 168.255 605.526 168.688 605.763 169.171C605.793 169.225 605.89 169.469 605.776 169.181C605.828 169.312 605.873 169.445 605.913 169.581C605.938 169.666 605.961 169.753 605.981 169.837C606.008 169.952 606.048 170.486 606.023 169.999C606.03 170.132 606.146 170.918 606.02 170.993C605.982 171.016 606.119 170.52 606.042 170.811C606.029 170.862 606.028 170.916 606.013 170.965C605.983 171.107 605.943 171.246 605.894 171.383C605.68 171.73 605.359 171.998 604.978 172.146C605.222 172.032 604.725 172.233 604.729 172.232C604.625 172.264 604.521 172.289 604.416 172.314C604.11 172.395 603.796 172.443 603.481 172.458C602.937 172.496 602.391 172.482 601.85 172.416C601.271 172.313 600.706 172.144 600.165 171.913C598.982 171.339 597.975 170.459 597.248 169.364C596.521 168.27 596.101 167.001 596.031 165.69C596.064 164.199 596.4 162.73 597.021 161.373C597.268 160.823 597.549 160.288 597.864 159.773C598.139 159.313 598.449 158.875 598.79 158.462C599.137 158.052 599.509 157.664 599.905 157.301C600.098 157.124 600.296 156.954 600.5 156.789C600.896 156.468 600.244 156.968 600.655 156.672C600.78 156.581 600.905 156.493 601.032 156.407C601.474 156.108 601.933 155.837 602.406 155.594C602.652 155.468 602.901 155.349 603.151 155.237C603.205 155.213 603.447 155.116 603.166 155.229C603.327 155.164 603.49 155.102 603.653 155.041C604.743 154.653 605.869 154.372 607.014 154.201C607.493 154.125 606.666 154.232 607.148 154.184C607.292 154.17 607.434 154.152 607.58 154.139C607.866 154.112 608.153 154.091 608.439 154.076C609.003 154.046 609.567 154.039 610.132 154.054C610.677 154.068 611.22 154.101 611.762 154.155C611.881 154.167 612.688 154.269 612.229 154.203C612.48 154.239 612.73 154.276 612.98 154.32C613.881 154.473 614.77 154.689 615.64 154.964C617.693 155.619 618.571 152.402 616.529 151.751L616.53 151.755Z" fill="#F7BC76"/>
<path d="M188.736 32.8911C192.996 31.3631 197.439 34.4527 199.443 38.236C201.416 41.965 200.956 47.2916 197.096 49.6772C195.455 50.6909 193.158 51.0309 191.727 49.7298C190.235 48.3727 190.326 46.6819 191.801 45.3248C192.146 45.0159 192.522 44.7433 192.924 44.5112C193.157 44.3706 193.396 44.2375 193.64 44.1152C193.729 44.0706 193.82 44.0278 193.91 43.9855C194.158 43.8712 193.55 44.1152 193.999 43.9483C194.36 43.8124 194.729 43.6979 195.103 43.6055C195.281 43.5628 195.46 43.5247 195.64 43.4912C195.744 43.4718 195.849 43.4546 195.953 43.4381C195.609 43.4923 196.119 43.4226 196.145 43.4204C196.993 43.3424 197.847 43.3566 198.693 43.4626C198.976 43.4981 198.467 43.4261 198.75 43.4729C198.861 43.4918 198.973 43.5101 199.083 43.5301C199.278 43.5659 199.472 43.6064 199.665 43.6518C200.137 43.7621 200.602 43.8981 201.059 44.0592C201.189 44.1049 201.581 44.2552 201.579 44.254C201.44 44.1969 201.698 44.3077 201.694 44.306C201.798 44.3535 201.902 44.402 202.005 44.4523C202.444 44.6646 202.869 44.9026 203.28 45.1649C203.983 45.6083 204.619 46.1498 205.169 46.7728C205.71 47.3781 206.158 48.0597 206.499 48.7956C206.567 48.9311 206.624 49.0715 206.671 49.2155C206.773 49.4967 206.863 49.7829 206.945 50.0726C207.128 50.6934 207.264 51.3267 207.354 51.9674C207.646 54.3236 207.27 56.7143 206.268 58.8675C205.266 61.0207 203.678 62.8501 201.686 64.1475C200.891 64.6434 199.989 64.9432 199.055 65.0219C198.121 65.1006 197.182 64.956 196.315 64.6001C196.075 64.4845 195.844 64.3507 195.624 64.2001C195.361 64.0241 195.748 64.3235 195.596 64.1824C195.557 64.1458 195.516 64.1104 195.478 64.0715C195.428 64.0195 195.384 63.9652 195.336 63.9126C195.771 64.3926 195.387 64.0018 195.413 63.9898C195.376 63.9298 195.342 63.8676 195.312 63.8035C195.405 63.9481 195.384 64.0926 195.341 63.8515C195.33 63.7944 195.236 63.3092 195.266 63.5824C195.294 63.8389 195.273 63.4201 195.271 63.3372C195.269 63.2544 195.282 63.175 195.285 63.0933C195.285 63.1567 195.2 63.455 195.278 63.1595C195.329 62.9635 195.366 62.7676 195.429 62.5738C195.462 62.4761 195.632 62.087 195.5 62.3681C195.588 62.1815 195.683 61.999 195.786 61.8207C195.897 61.631 196.015 61.4476 196.145 61.2688C196.158 61.2499 196.331 61.0265 196.202 61.1916C196.277 61.0973 196.356 61.0059 196.436 60.9162C197.127 60.1417 197.935 59.4794 198.83 58.9529C199.106 58.7871 199.386 58.6277 199.672 58.4832C199.769 58.434 200.219 58.2432 199.852 58.3872C200.204 58.2486 200.563 58.1307 200.929 58.034C201.668 57.8134 202.436 57.7087 203.208 57.7238C203.643 57.7171 204.079 57.7333 204.513 57.7723C204.66 57.7755 204.806 57.7947 204.948 57.8295C205.212 57.878 205.475 57.9323 205.736 58.0009C206.604 58.1987 207.423 58.5729 208.141 59.1003C209.463 60.1681 210.395 61.6425 210.789 63.2938C211.238 65.0145 211.278 66.8156 210.909 68.5547C210.564 70.2748 209.809 71.8866 208.707 73.2534C208.149 73.9304 207.491 74.5196 206.757 75.0013C204.964 76.1687 206.636 79.0583 208.443 77.8795C212.581 75.1853 214.799 70.1324 214.472 65.2623C214.355 62.7918 213.522 60.4082 212.075 58.4003C210.513 56.348 208.214 54.9809 205.662 54.5873C200.846 53.7994 195.699 55.7141 193.032 59.9322C191.977 61.6007 191.453 63.8824 192.532 65.6726C193.9 67.9439 197.205 68.5867 199.639 68.2873C202.633 67.9211 205.098 66.116 206.974 63.8241C209.057 61.3785 210.364 58.3695 210.727 55.1804C211.054 52.2128 210.488 49.2153 209.101 46.5699C207.934 44.548 206.217 42.8974 204.149 41.8096C200.191 39.6868 195.071 39.2782 191.145 41.6861C188.576 43.2615 186.564 46.0397 187.528 49.1658C187.984 50.5727 188.884 51.7948 190.093 52.6503C191.301 53.5059 192.755 53.9491 194.236 53.9142C200.592 53.8068 204.596 47.1716 203.856 41.3433C203.086 35.2978 198.13 29.8821 191.959 29.1975C190.57 29.0438 189.164 29.2066 187.847 29.6735C187.426 29.8006 187.07 30.0844 186.853 30.466C186.636 30.8476 186.574 31.2979 186.681 31.7237C186.802 32.1478 187.085 32.5074 187.469 32.7251C187.854 32.9428 188.308 33.0012 188.735 32.8876L188.736 32.8911Z" fill="#F7BC76"/>
<path d="M82.533 195.496C78.4054 197.351 73.7339 194.617 71.44 191.001C69.1818 187.437 69.2235 182.091 72.8856 179.412C74.4419 178.273 76.7055 177.756 78.2338 178.941C79.8276 180.178 79.8691 181.871 78.5048 183.338C78.1846 183.673 77.8308 183.974 77.449 184.237C77.2271 184.395 76.9994 184.547 76.7658 184.688C76.6802 184.739 76.5934 184.789 76.5065 184.838C76.2688 184.971 76.8554 184.681 76.4209 184.882C76.0717 185.046 75.7132 185.188 75.3471 185.31C75.1735 185.366 74.998 185.418 74.8206 185.466C74.7182 185.493 74.6157 185.518 74.5131 185.543C74.8513 185.462 74.3487 185.571 74.3232 185.575C73.4835 185.719 72.6307 185.772 71.7796 185.732C71.4948 185.719 72.0074 185.751 71.7217 185.726C71.6095 185.716 71.4968 185.706 71.385 185.695C71.1881 185.674 70.9916 185.649 70.7955 185.619C70.3167 185.546 69.8422 185.446 69.3742 185.321C69.241 185.286 68.8377 185.167 68.84 185.168C68.9832 185.214 68.7171 185.123 68.7218 185.125C68.6142 185.086 68.5065 185.045 68.3998 185.003C67.946 184.826 67.5031 184.622 67.0733 184.392C66.3374 184.005 65.6608 183.515 65.0638 182.936C64.4775 182.375 63.9776 181.73 63.5801 181.023C63.5021 180.893 63.4338 180.758 63.3759 180.618C63.2523 180.346 63.1403 180.067 63.0355 179.785C62.8049 179.18 62.6189 178.559 62.4791 177.928C62.0037 175.601 62.1921 173.189 63.0228 170.964C63.8534 168.739 65.2931 166.792 67.1779 165.343C67.9315 164.787 68.807 164.418 69.7321 164.267C70.6572 164.115 71.605 164.186 72.4971 164.474C72.7454 164.57 72.9861 164.686 73.2168 164.819C73.4932 164.974 73.0838 164.705 73.2462 164.834C73.2884 164.867 73.3317 164.9 73.3724 164.935C73.4262 164.983 73.475 165.034 73.5264 165.083C73.0551 164.638 73.4692 164.998 73.4433 165.012C73.4856 165.069 73.5244 165.128 73.5595 165.19C73.4552 165.053 73.4644 164.907 73.5267 165.144C73.542 165.2 73.6735 165.676 73.6219 165.407C73.5739 165.153 73.6283 165.569 73.6365 165.651C73.6447 165.734 73.6378 165.814 73.6419 165.896C73.6369 165.832 73.6975 165.528 73.6436 165.829C73.6075 166.028 73.5857 166.227 73.5381 166.425C73.5138 166.525 73.3741 166.926 73.484 166.635C73.411 166.828 73.3302 167.018 73.2414 167.203C73.146 167.401 73.0422 167.593 72.9272 167.782C72.9155 167.801 72.7606 168.038 72.8761 167.863C72.8087 167.963 72.7371 168.06 72.6648 168.156C72.0361 168.982 71.2826 169.705 70.431 170.3C70.1694 170.486 69.9027 170.667 69.628 170.833C69.5354 170.89 69.1022 171.115 69.4563 170.943C69.1166 171.109 68.7674 171.254 68.4107 171.379C67.6913 171.657 66.933 171.821 66.163 171.866C65.7291 171.906 65.2934 171.924 64.8576 171.919C64.7111 171.927 64.5642 171.92 64.4193 171.896C64.1524 171.868 63.8861 171.835 63.621 171.786C62.7394 171.657 61.894 171.348 61.1374 170.878C59.7354 169.916 58.6915 168.519 58.1686 166.903C57.5873 165.223 57.4056 163.43 57.6378 161.668C57.8469 159.926 58.4738 158.26 59.4653 156.812C59.9692 156.094 60.5785 155.455 61.2729 154.917C62.9695 153.614 61.0766 150.863 59.3672 152.179C55.4529 155.188 53.6366 160.398 54.3429 165.228C54.6534 167.682 55.67 169.993 57.2698 171.882C58.9873 173.806 61.3865 174.99 63.9616 175.184C68.8241 175.594 73.8063 173.284 76.1349 168.872C77.0565 167.126 77.3998 164.81 76.1848 163.11C74.6428 160.952 71.2976 160.568 68.8943 161.057C65.938 161.655 63.6216 163.647 61.9308 166.078C60.0454 168.678 58.9783 171.779 58.8655 174.987C58.7717 177.971 59.5706 180.915 61.1602 183.445C62.4813 185.37 64.3222 186.881 66.4693 187.805C70.581 189.613 75.7176 189.621 79.4436 186.915C81.8812 185.144 83.6699 182.218 82.4646 179.176C81.8992 177.809 80.9067 176.661 79.6348 175.902C78.3628 175.144 76.8793 174.815 75.4051 174.965C69.077 175.567 65.604 182.494 66.798 188.247C68.0386 194.214 73.403 199.227 79.608 199.429C81.005 199.474 82.3941 199.202 83.6707 198.634C84.0803 198.475 84.4128 198.164 84.5994 197.767C84.786 197.369 84.8124 196.916 84.6731 196.499C84.5192 196.086 84.2087 195.75 83.8086 195.562C83.4085 195.375 82.9507 195.352 82.5339 195.499L82.533 195.496Z" fill="#F7BC76"/>
<path d="M374.293 77.4572C379.158 77.0008 383.732 74.9388 387.291 71.5974C389.336 69.6073 390.762 67.0698 391.396 64.2903C392.186 60.855 391.872 56.778 389.9 53.7879C388.98 52.4532 387.768 51.3437 386.357 50.5422C384.946 49.7407 383.372 49.268 381.752 49.1595C378.656 49.0286 374.702 50.3977 373.374 53.441C372.312 55.8752 373.626 58.7637 375.73 60.1796C379.066 62.4258 383.42 61.9075 386.723 59.8836C388.519 58.7282 390.062 57.223 391.261 55.4582C392.46 53.6935 393.289 51.7054 393.7 49.6132C394.421 45.9116 393.986 41.3192 391.181 38.5473C390.539 37.9131 389.348 38.1737 388.833 38.8228C388.568 39.1737 388.449 39.613 388.5 40.0493C388.552 40.4856 388.77 40.8854 389.109 41.1655C388.859 40.9181 389.227 41.3147 389.243 41.3369C389.314 41.4267 389.382 41.5192 389.447 41.6129C389.572 41.7821 389.679 41.9643 389.765 42.1563C390.037 42.7415 390.244 43.3547 390.383 43.9848C390.657 45.324 390.716 46.6979 390.558 48.0555C390.2 51.0183 388.795 53.7566 386.595 55.7781C384.519 57.6637 381.682 58.9402 378.898 58.0603C378.336 57.904 377.816 57.6268 377.373 57.2483C377.288 57.1774 377.205 57.1037 377.124 57.0272C377.382 57.2723 377.042 56.9289 377.013 56.8935C376.953 56.8173 376.894 56.7411 376.838 56.6649C376.781 56.5849 376.491 56.0706 376.706 56.4935C376.561 56.2078 376.498 55.8415 376.34 55.5718C376.35 55.5872 376.388 55.9621 376.356 55.6204C376.327 55.4481 376.32 55.2727 376.337 55.0987C376.418 54.5473 376.308 55.1529 376.403 54.8575C376.416 54.8175 376.586 54.4661 376.485 54.6438C376.568 54.515 376.659 54.3913 376.757 54.2736C376.795 54.2216 377.057 53.9433 376.859 54.1353C377.268 53.7621 377.73 53.4499 378.228 53.2085C379.231 52.6706 380.361 52.4139 381.498 52.4656C381.262 52.4571 381.627 52.4811 381.681 52.4873C381.825 52.5039 381.97 52.5165 382.115 52.5376C382.406 52.5781 382.694 52.6354 382.979 52.709C382.782 52.6571 383.064 52.7359 383.082 52.7411C383.253 52.7982 383.425 52.8553 383.59 52.9245C383.903 53.0504 384.208 53.1921 384.506 53.349C385.583 53.9325 386.507 54.7595 387.206 55.7638C388.708 58.0494 388.674 61.2556 388.091 63.7886C388.021 64.0954 387.977 64.2457 387.929 64.4029C387.842 64.6771 387.745 64.948 387.64 65.2154C387.433 65.7352 387.192 66.2412 386.92 66.7302C386.659 67.1999 387.092 66.4731 386.805 66.925C386.747 67.0172 386.688 67.1086 386.628 67.1993C386.478 67.4244 386.321 67.645 386.158 67.861C385.802 68.3301 385.417 68.7765 385.005 69.1975C384.931 69.2735 384.856 69.3489 384.779 69.4226C385.029 69.1792 384.631 69.5558 384.58 69.6009C384.363 69.7941 384.142 69.9813 383.915 70.1626C383.424 70.5548 382.912 70.92 382.382 71.2569C382.141 71.4106 381.896 71.554 381.651 71.6997C381.579 71.7426 381.279 71.9094 381.572 71.7488C381.437 71.8226 381.301 71.8934 381.164 71.9637C380.626 72.2387 380.077 72.4905 379.517 72.7191C378.527 73.1186 377.511 73.4527 376.477 73.719C376.387 73.743 376.083 73.8099 376.446 73.7282C376.319 73.7568 376.192 73.7853 376.064 73.8128C375.818 73.8653 375.57 73.9128 375.32 73.9562C374.861 74.0362 374.4 74.0988 373.937 74.1442C371.793 74.3562 372.146 77.6709 374.285 77.4583L374.293 77.4572Z" fill="#F7BC76"/>
<path d="M236.275 0.935369L230.977 4.33472L239.044 16.856L244.342 13.4567L236.275 0.935369Z" fill="#F7BC76"/>
<path d="M340.952 110.426L331.841 124.154L337.092 127.624L346.204 113.896L340.952 110.426Z" fill="#F7BC76"/>
<path d="M45.985 41.1655L38 53.3638L43.2732 56.8012L51.2582 44.603L45.985 41.1655Z" fill="#F7BC76"/>
<path d="M546.711 166.569L540.596 168.075L544.504 183.875L550.619 182.369L546.711 166.569Z" fill="#0CBC8B"/>
<path d="M559.318 41.1033L554.133 44.6702L563.742 58.5824L568.928 55.0155L559.318 41.1033Z" fill="#F7BC76"/>
<path d="M98.3917 103.702L86.6162 117.615L91.4281 121.67L103.204 107.758L98.3917 103.702Z" fill="#F7BC76"/>
<path d="M112.572 61.3562L98.583 49.6609L94.538 54.4789L108.527 66.1742L112.572 61.3562Z" fill="#F7BC76"/>
<path d="M195.066 204.332L183.687 215.99L188.198 220.376L199.578 208.718L195.066 204.332Z" fill="#F7BC76"/>
<path d="M357.38 7.98334L346 19.6414L350.512 24.0271L361.892 12.3691L357.38 7.98334Z" fill="#F7BC76"/>
<path d="M440.266 189.46L434.968 192.859L443.036 205.381L448.333 201.981L440.266 189.46Z" fill="#F7BC76"/>
<path d="M494.582 233.355C495.884 224.958 493.307 219.268 489.204 215.756C485.157 212.291 471.54 207.824 464.761 217.31C460.338 223.5 461.358 226.088 458.831 236.658C456.304 247.229 452.38 247.811 446.692 260.245C442.225 269.998 458.208 277.816 472.793 279.438C487.378 281.06 497.042 279.176 499.216 270.084C502.332 257.037 492.031 249.81 494.582 233.355Z" fill="#0F1011"/>
<path d="M482.575 255.36C482.575 255.36 478.554 252.374 481.362 240.632L472.577 237.573C472.577 237.573 471.952 248.391 466.857 251.075L482.575 255.36Z" fill="#E98862"/>
<g opacity="0.15">
<path d="M469.053 249.129L477.447 244.546L471.557 243.581C471.076 245.57 470.226 247.452 469.053 249.129Z" fill="black"/>
</g>
<path d="M487.201 236.806C486.02 240.319 483.521 243.435 480.152 244.109C476.464 244.954 472.625 244.885 468.97 243.908C459.195 241.582 464.609 219.421 469.98 215.779C475.351 212.136 488.719 217.012 489.273 224.566C489.56 228.473 488.325 233.464 487.201 236.806Z" fill="#E98862"/>
<path d="M473.594 231.867C474.053 231.867 474.424 231.496 474.424 231.039C474.424 230.581 474.053 230.211 473.594 230.211C473.136 230.211 472.765 230.581 472.765 231.039C472.765 231.496 473.136 231.867 473.594 231.867Z" fill="#0F1011"/>
<path d="M467.206 230.346C467.664 230.346 468.035 229.975 468.035 229.518C468.035 229.06 467.664 228.69 467.206 228.69C466.747 228.69 466.376 229.06 466.376 229.518C466.376 229.975 466.747 230.346 467.206 230.346Z" fill="#0F1011"/>
<path d="M481.979 226.437C480.077 234.802 479.695 243.439 480.852 251.939C480.852 251.939 489.589 241.129 492.189 231.408C494.624 222.295 488.623 215.775 484.158 214.037C467.191 207.424 464.125 220.028 464.125 220.028C464.63 224.552 483.407 230.014 483.407 230.014" fill="#0F1011"/>
<path d="M477.194 235.201C477.08 235.651 477.058 236.12 477.127 236.579C477.197 237.038 477.357 237.479 477.598 237.876C477.84 238.273 478.158 238.618 478.534 238.892C478.91 239.165 479.337 239.362 479.789 239.469C480.242 239.577 480.712 239.594 481.171 239.519C481.63 239.445 482.07 239.28 482.465 239.034C482.86 238.789 483.203 238.467 483.472 238.089C483.742 237.71 483.934 237.282 484.036 236.829C484.152 236.381 484.175 235.913 484.106 235.455C484.036 234.997 483.875 234.558 483.632 234.164C483.389 233.769 483.069 233.427 482.691 233.159C482.313 232.89 481.884 232.701 481.431 232.601C478.965 232.14 477.643 233.315 477.194 235.201Z" fill="#E98862"/>
<path d="M552 383.211L503.471 392.054C502.033 392.317 500.551 392.165 499.196 391.616C497.842 391.067 496.672 390.144 495.823 388.955L495.458 388.44L474 358.327L493.149 347.273L506.52 376.576L550.227 371.341L552 383.211Z" fill="#E98862"/>
<path d="M560.932 397.234C561.011 397.551 561.021 397.88 560.963 398.202C560.905 398.523 560.78 398.829 560.595 399.101C560.41 399.373 560.169 399.604 559.888 399.782C559.607 399.959 559.292 400.078 558.961 400.131C558.503 400.205 558.033 400.15 557.607 399.972C557.18 399.794 556.814 399.502 556.552 399.128L548.369 386.557C548.211 386.314 548.11 386.04 548.071 385.754C548.032 385.469 548.058 385.178 548.145 384.903C549.01 382.697 549.126 380.279 548.475 378.004C547.893 376.251 546.817 374.691 545.368 373.505C545.229 373.404 545.122 373.266 545.06 373.107C544.998 372.949 544.984 372.777 545.019 372.611C545.054 372.445 545.136 372.292 545.257 372.17C545.378 372.048 545.532 371.962 545.701 371.922L552.583 370.271C552.786 370.222 552.997 370.213 553.204 370.243C553.411 370.274 553.609 370.345 553.788 370.45C553.966 370.556 554.122 370.695 554.245 370.859C554.369 371.024 554.457 371.21 554.507 371.408L560.932 397.234Z" fill="#F7BC76"/>
<path d="M446.615 397.169L464 464.655L452.614 468.021L431 401.851L446.615 397.169Z" fill="#E98862"/>
<path d="M440.099 477.879C439.794 477.979 439.47 478.018 439.149 477.992C438.827 477.966 438.515 477.877 438.231 477.729C437.947 477.581 437.698 477.378 437.499 477.132C437.3 476.887 437.156 476.605 437.075 476.303C436.963 475.886 436.977 475.446 437.115 475.036C437.253 474.626 437.509 474.262 437.854 473.988L449.522 465.335C449.748 465.168 450.009 465.051 450.287 464.991C450.565 464.931 450.852 464.929 451.131 464.986C453.377 465.599 455.767 465.499 457.95 464.702C459.626 464.013 461.068 462.883 462.111 461.441C462.198 461.303 462.325 461.192 462.475 461.121C462.626 461.051 462.794 461.023 462.96 461.041C463.127 461.059 463.284 461.122 463.415 461.224C463.545 461.325 463.643 461.46 463.697 461.613L465.917 467.841C465.982 468.025 466.01 468.219 465.997 468.413C465.985 468.607 465.933 468.797 465.844 468.971C465.755 469.146 465.632 469.302 465.481 469.43C465.33 469.558 465.154 469.657 464.963 469.719L440.099 477.879Z" fill="#F7BC76"/>
<path d="M442.001 310.351C442.001 310.351 426.884 358.606 422.752 372.381C413.403 403.539 430.873 426.804 430.873 426.804C430.873 426.804 454.506 430.144 466.258 414.629C487.991 385.934 515.806 405.906 517 374.101C501.177 371.143 483.431 314.302 483.431 314.302L442.001 310.351Z" fill="#262626"/>
<path d="M447.147 192.597L441.025 190.273C441.025 190.273 440.253 181.645 447.315 177.083C449.655 175.571 451.362 178.258 450.934 179.137C449.517 182.037 447.836 184.707 447.87 187.496C448.775 186.629 450.08 185.52 450.465 185.924C451.475 186.988 447.147 192.597 447.147 192.597Z" fill="#E98862"/>
<path d="M524.847 210.146L530.881 210.559C530.881 210.559 534.046 201.901 529.729 194.773C528.3 192.411 525.872 194.168 525.914 195.153C526.057 198.407 527.14 202.614 526.096 205.161C525.645 203.988 524.944 202.426 524.47 202.637C523.225 203.192 524.847 210.146 524.847 210.146Z" fill="#E98862"/>
<path d="M535 209.131L528.018 245.889C527.852 246.769 527.497 247.602 526.98 248.332C526.462 249.062 525.794 249.672 525.02 250.119L498.522 265.438C498.863 274.561 489.834 284.969 488.183 294.476C486.135 306.294 490.545 312.518 489.105 318.512C486.835 327.939 441.071 317.633 439.66 311.804C438.203 305.804 443.717 303.217 446.664 284.919C448.07 276.206 447.302 265.318 449.583 257.799L428.326 230.679C427.701 229.881 427.28 228.941 427.1 227.942C426.919 226.943 426.985 225.915 427.29 224.947L439.119 187.607L450.943 191.376L440.11 225.575L458.511 249.052C460.143 248.821 461.801 248.825 463.432 249.064C463.785 249.109 464.354 249.195 465.088 249.309C464.701 252.432 483.791 255.755 484.747 252.666C487.172 253.063 489.516 253.86 491.683 255.024L516.366 240.756L522.812 206.802L535 209.131Z" fill="#642F71"/>
<path d="M322.775 223.532L296.511 209.89L270.226 223.532L275.256 194.65L254 174.189L283.368 169.984L296.511 143.699L309.622 169.984L339 174.189L317.745 194.65L322.775 223.532Z" fill="url(#paint2_linear_5482_3983)" fill-opacity="0.5"/>
<path d="M484 252.63C483.08 255.53 477.039 259.679 470.477 258.119C465.559 256.956 464.704 252.41 465.077 249.478C468.894 250.068 477.444 251.51 483.984 252.625C483.987 252.624 483.99 252.625 483.992 252.626C483.995 252.626 483.998 252.628 484 252.63Z" fill="#E98862"/>
<path d="M405.736 114.32L400.749 106.356L392.684 111.194L407.492 49.6277L420.544 52.7538L405.736 114.32Z" fill="#367CFF"/>
<path d="M405.736 114.892C405.639 114.892 405.543 114.867 405.458 114.82C405.373 114.773 405.302 114.706 405.25 114.623L400.562 107.138L392.978 111.687C392.881 111.745 392.77 111.773 392.657 111.768C392.544 111.763 392.436 111.725 392.345 111.658C392.254 111.592 392.184 111.5 392.145 111.394C392.107 111.288 392.1 111.174 392.126 111.064L406.935 49.4969C406.97 49.3502 407.062 49.2235 407.191 49.1444C407.32 49.0653 407.475 49.0402 407.622 49.0746L420.677 52.2013C420.75 52.2189 420.819 52.2506 420.88 52.2947C420.941 52.3388 420.992 52.3944 421.032 52.4584C421.071 52.5224 421.097 52.5935 421.109 52.6676C421.121 52.7418 421.118 52.8175 421.1 52.8905L406.292 114.454C406.266 114.564 406.208 114.663 406.125 114.739C406.043 114.816 405.939 114.866 405.828 114.884C405.797 114.889 405.767 114.892 405.736 114.892ZM400.748 105.785C400.846 105.785 400.941 105.809 401.026 105.856C401.111 105.903 401.183 105.971 401.235 106.053L405.498 112.862L419.852 53.1762L407.913 50.3191L393.558 110.002L400.454 105.867C400.543 105.814 400.645 105.786 400.748 105.787V105.785Z" fill="#292A2E"/>
<path d="M423.247 114.32L428.233 106.356L436.299 111.194L421.491 49.6274L408.438 52.7536L423.247 114.32Z" fill="#367CFF"/>
<path d="M423.246 114.892C423.215 114.892 423.185 114.889 423.154 114.884C423.043 114.866 422.939 114.816 422.857 114.739C422.774 114.663 422.716 114.563 422.69 114.454L407.884 52.8874C407.866 52.8145 407.863 52.7387 407.875 52.6646C407.887 52.5905 407.913 52.5194 407.953 52.4554C407.992 52.3914 408.043 52.3358 408.104 52.2917C408.165 52.2476 408.234 52.2158 408.307 52.1983L421.362 49.0716C421.51 49.0364 421.666 49.061 421.795 49.1402C421.924 49.2194 422.017 49.3466 422.052 49.4939L436.858 111.061C436.884 111.17 436.877 111.285 436.838 111.391C436.799 111.496 436.73 111.588 436.639 111.655C436.548 111.721 436.44 111.759 436.327 111.765C436.214 111.77 436.103 111.742 436.006 111.684L428.423 107.135L423.734 114.62C423.683 114.703 423.611 114.772 423.526 114.819C423.44 114.867 423.344 114.892 423.246 114.892ZM409.128 53.176L423.484 112.862L427.747 106.053C427.827 105.926 427.953 105.835 428.099 105.8C428.245 105.765 428.399 105.789 428.528 105.866L435.423 110.002L421.068 50.3161L409.128 53.176Z" fill="#292A2E"/>
<path d="M447.942 61.453C447.942 64.8477 443.671 67.5282 442.674 70.5915C441.643 73.7668 443.48 78.4329 441.553 81.0756C439.606 83.7447 434.578 83.4304 431.903 85.3726C429.255 87.296 428.009 92.1763 424.83 93.2071C421.76 94.202 417.893 91.0158 414.491 91.0158C411.089 91.0158 407.219 94.202 404.151 93.2071C400.97 92.1786 399.726 87.296 397.078 85.3726C394.403 83.4298 389.374 83.7441 387.428 81.0751C385.501 78.4323 387.341 73.7662 386.308 70.5915C385.311 67.5282 381.04 64.8477 381.04 61.453C381.04 58.0583 385.31 55.3778 386.308 52.3145C387.339 49.1392 385.501 44.4731 387.428 41.8304C389.375 39.1614 394.403 39.4756 397.078 37.5329C399.726 35.6095 400.972 30.7291 404.152 29.6983C407.222 28.7041 411.088 31.8902 414.491 31.8902C417.893 31.8902 421.76 28.7041 424.83 29.6983C428.012 30.7297 429.255 35.6101 431.904 37.5334C434.578 39.4762 439.607 39.1614 441.554 41.8304C443.481 44.4731 441.64 49.1392 442.674 52.3145C443.673 55.3778 447.942 58.0577 447.942 61.453Z" fill="#F7BC76"/>
<path d="M423.551 93.9706C422.041 93.9706 420.454 93.3569 418.906 92.7592C417.414 92.1832 415.872 91.5873 414.492 91.5873C413.112 91.5873 411.569 92.1832 410.076 92.7592C408.022 93.5529 405.896 94.3734 403.976 93.7506C401.962 93.0981 400.705 91.1393 399.489 89.2445C398.615 87.8823 397.789 86.5949 396.741 85.8349C395.675 85.0607 394.107 84.6493 392.595 84.2516C390.43 83.6802 388.192 83.0945 386.965 81.4117C385.752 79.7483 385.877 77.4547 386.001 75.2365C386.087 73.6657 386.177 72.0412 385.763 70.7681C385.373 69.5682 384.415 68.4054 383.401 67.1728C381.959 65.4215 380.468 63.6101 380.468 61.4531C380.468 59.296 381.957 57.4847 383.401 55.7327C384.415 54.5008 385.373 53.3368 385.763 52.138C386.178 50.8649 386.088 49.2399 386.001 47.6691C385.879 45.4509 385.752 43.155 386.965 41.4945C388.192 39.8111 390.43 39.2231 392.595 38.6546C394.109 38.2546 395.675 37.8455 396.741 37.0707C397.788 36.3107 398.614 35.0233 399.49 33.6611C400.706 31.7669 401.963 29.8075 403.976 29.155C405.9 28.5333 408.023 29.3532 410.078 30.1464C411.569 30.7229 413.112 31.3189 414.492 31.3189C415.872 31.3189 417.413 30.7229 418.907 30.1464C420.962 29.3532 423.087 28.5327 425.008 29.155C427.022 29.8081 428.279 31.7669 429.495 33.6616C430.369 35.0239 431.194 36.3107 432.243 37.0712C433.31 37.8455 434.877 38.2569 436.389 38.6546C438.553 39.226 440.792 39.8117 442.019 41.4945C443.232 43.1578 443.107 45.4509 442.983 47.6691C442.897 49.2404 442.807 50.8649 443.221 52.138C443.611 53.338 444.569 54.5008 445.584 55.7333C447.026 57.4847 448.516 59.296 448.516 61.4531C448.516 63.6101 447.027 65.4215 445.584 67.1728C444.569 68.4054 443.611 69.5693 443.221 70.7681C442.807 72.0412 442.897 73.6657 442.983 75.2371C443.106 77.4553 443.232 79.7483 442.019 81.4117C440.792 83.0945 438.553 83.6824 436.389 84.2516C434.875 84.6515 433.31 85.0607 432.243 85.8349C431.196 86.5955 430.37 87.8823 429.494 89.2445C428.279 91.1393 427.021 93.0986 425.007 93.7506C424.537 93.9001 424.045 93.9744 423.551 93.9706ZM414.492 90.4445C416.085 90.4445 417.73 91.0798 419.32 91.6935C421.274 92.4484 423.119 93.1615 424.654 92.6649C426.278 92.1387 427.372 90.4365 428.53 88.6291C429.423 87.2377 430.346 85.7989 431.565 84.915C432.805 84.0139 434.477 83.575 436.093 83.1505C438.154 82.6088 440.101 82.0968 441.089 80.7431C442.062 79.4089 441.952 77.4153 441.833 75.3039C441.741 73.628 441.646 71.8949 442.125 70.419C442.583 69.0145 443.655 67.7117 444.692 66.4517C446.006 64.8558 447.365 63.205 447.365 61.4571C447.365 59.7091 446.006 58.0584 444.692 56.4624C443.655 55.2053 442.582 53.8991 442.125 52.4946C441.646 51.0192 441.741 49.2861 441.834 47.6102C441.948 45.4994 442.063 43.5052 441.09 42.171C440.102 40.8174 438.155 40.3054 436.094 39.7637C434.477 39.3391 432.806 38.8997 431.565 37.9992C430.344 37.1124 429.421 35.6736 428.531 34.2816C427.372 32.4771 426.279 30.7726 424.654 30.2464C423.119 29.7487 421.276 30.4618 419.32 31.2177C417.73 31.8314 416.086 32.4668 414.492 32.4668C412.899 32.4668 411.254 31.8314 409.664 31.2172C407.71 30.4624 405.864 29.7492 404.33 30.2458C402.706 30.7721 401.612 32.4771 400.454 34.2816C399.561 35.673 398.638 37.1118 397.42 37.9992C396.179 38.8997 394.507 39.3391 392.891 39.7637C390.83 40.3054 388.883 40.8168 387.896 42.1704C386.922 43.5047 387.033 45.4989 387.151 47.6096C387.243 49.2861 387.339 51.0186 386.859 52.4946C386.4 53.8991 385.329 55.2025 384.292 56.4624C382.975 58.0584 381.619 59.7086 381.619 61.4571C381.619 63.2056 382.978 64.8558 384.292 66.4517C385.329 67.7088 386.402 69.0145 386.859 70.419C387.339 71.8949 387.243 73.628 387.151 75.3034C387.036 77.4147 386.922 79.4089 387.895 80.7431C388.883 82.0968 390.83 82.6082 392.891 83.1505C394.507 83.575 396.179 84.0139 397.419 84.915C398.64 85.8018 399.564 87.2406 400.454 88.6291C401.612 90.4342 402.706 92.1387 404.33 92.6649C405.863 93.1615 407.708 92.4495 409.664 91.6935C411.254 91.0798 412.898 90.4445 414.492 90.4445Z" fill="#292A2E"/>
<path d="M414.492 76.2577C422.685 76.2577 429.327 69.6295 429.327 61.4532C429.327 53.2769 422.685 46.6487 414.492 46.6487C406.298 46.6487 399.656 53.2769 399.656 61.4532C399.656 69.6295 406.298 76.2577 414.492 76.2577Z" fill="white"/>
<path d="M414.491 76.829C411.444 76.829 408.465 75.9272 405.931 74.2377C403.397 72.5482 401.422 70.1468 400.256 67.3372C399.09 64.5276 398.785 61.436 399.379 58.4534C399.974 55.4708 401.441 52.731 403.596 50.5807C405.751 48.4303 408.496 46.9659 411.485 46.3726C414.474 45.7793 417.572 46.0838 420.388 47.2476C423.203 48.4113 425.609 50.3821 427.302 52.9107C428.996 55.4392 429.899 58.412 429.899 61.4531C429.895 65.5297 428.27 69.438 425.381 72.3205C422.493 75.2031 418.576 76.8245 414.491 76.829ZM414.491 47.22C411.67 47.22 408.913 48.0547 406.567 49.6187C404.222 51.1826 402.393 53.4055 401.314 56.0063C400.234 58.6071 399.952 61.4689 400.502 64.2298C401.053 66.9908 402.411 69.5269 404.406 71.5174C406.4 73.508 408.942 74.8635 411.709 75.4127C414.475 75.9619 417.343 75.6801 419.949 74.6028C422.556 73.5255 424.783 71.7012 426.35 69.3606C427.918 67.02 428.754 64.2681 428.754 61.4531C428.75 57.6791 427.247 54.0608 424.573 51.392C421.899 48.7232 418.273 47.2219 414.491 47.2177V47.22Z" fill="#292A2E"/>
<path d="M158.618 419.584C144.432 418.995 134.555 397.687 134.288 395.395C134.189 394.547 133.743 394.495 133.221 394.765C132.461 394.971 131.389 396.189 131.044 396.599C130.512 396.539 128.892 396.396 128.2 396.77C127.635 396.935 127.349 397.279 127.864 397.96C129.257 399.803 136.858 422.02 127.001 432.21C124.93 434.351 126.342 435.352 126.342 435.352L161.27 421.403C161.27 421.403 161.598 419.707 158.618 419.584Z" fill="#F7BC76"/>
<g opacity="0.09">
<path d="M161.27 421.4L159.03 422.294C159.03 422.294 159.358 420.597 156.379 420.474C142.199 419.884 133.923 397.94 133.656 395.648C133.578 394.982 133.285 394.807 132.908 394.895C133.009 394.839 133.117 394.795 133.228 394.763C133.751 394.493 134.197 394.545 134.296 395.392C134.563 397.684 144.439 418.989 158.619 419.579C161.599 419.702 161.27 421.4 161.27 421.4Z" fill="black"/>
</g>
<path d="M168.363 350.643C167.046 357.478 163.421 360.688 159.232 363.915C155.115 367.088 151.559 369.827 150.733 375.112C150.519 376.373 150.502 377.661 150.683 378.928L150.685 378.932C150.73 379.234 150.791 379.533 150.867 379.829C150.973 380.214 150.984 380.619 150.899 381.008C150.826 381.338 150.67 381.643 150.445 381.896C150.221 382.148 149.936 382.339 149.616 382.451C148.672 382.828 147.967 382.667 147.456 382.32C146.994 381.998 146.667 381.517 146.536 380.971C146.506 380.854 146.478 380.737 146.452 380.619C146.009 378.579 145.959 376.475 146.303 374.417C147.403 367.373 152.231 363.652 156.49 360.369C160.396 357.36 162.964 354.966 163.96 349.793C164.454 347.218 163.969 341.952 160.788 338.884C158.312 336.497 155.488 335.646 152.393 336.351C143.943 338.279 143.315 347.504 143.292 347.895C143.25 348.48 142.98 349.024 142.54 349.411C142.1 349.799 141.525 349.998 140.939 349.967C140.353 349.936 139.803 349.677 139.405 349.245C139.008 348.813 138.796 348.243 138.815 347.657C139.011 345.325 139.609 343.043 140.584 340.915C142.749 336.192 146.487 333.106 151.389 331.988C155.925 330.952 160.368 332.259 163.902 335.667C167.93 339.552 169.211 346.246 168.363 350.643Z" fill="#F7BC76"/>
<path d="M72.2674 389.039C77.951 393.078 83.116 392.777 88.3804 392.229C93.5557 391.691 98.0247 391.225 102.279 394.48C103.308 395.246 104.211 396.166 104.957 397.208L104.958 397.211C105.135 397.461 105.298 397.72 105.447 397.987C105.637 398.338 105.909 398.638 106.24 398.862C106.521 399.05 106.846 399.163 107.183 399.192C107.52 399.22 107.859 399.161 108.167 399.022C109.111 398.645 109.51 398.043 109.64 397.441C109.751 396.889 109.655 396.317 109.372 395.831C109.313 395.726 109.252 395.622 109.189 395.518C108.097 393.738 106.677 392.181 105.004 390.929C99.3331 386.588 93.2647 387.22 87.9106 387.776C83.0014 388.288 79.1665 388.45 74.8652 385.393C72.725 383.87 69.7522 379.598 69.9297 375.188C70.069 371.757 71.524 369.196 74.2518 367.576C81.6995 363.155 88.5392 369.398 88.8267 369.665C89.2617 370.059 89.8338 370.267 90.4202 370.244C91.0066 370.222 91.5606 369.971 91.9631 369.545C92.3657 369.119 92.5847 368.552 92.5732 367.966C92.5616 367.38 92.3204 366.822 91.9014 366.411C90.1455 364.858 88.1337 363.619 85.9552 362.75C81.1196 360.823 76.2787 361.163 71.9583 363.729C67.9596 366.101 65.6487 370.105 65.4502 375.004C65.2249 380.588 68.6108 386.441 72.2674 389.039Z" fill="#F7BC76"/>
<path d="M137.133 334.78C136.763 334.094 136.153 333.569 135.42 333.304C134.687 333.038 133.882 333.051 133.159 333.34L86.035 352.16C85.3115 352.449 84.7199 352.994 84.3732 353.69C84.0265 354.387 83.9489 355.187 84.1552 355.937C86.0843 362.932 91.9355 381.418 101.672 389.018C113.8 398.485 126.462 398.546 128.808 397.609L133.665 395.669C136.011 394.733 145.13 385.973 147.354 370.775C149.139 358.573 140.579 341.169 137.133 334.78Z" fill="#F7BC76"/>
<g opacity="0.09">
<path d="M137.135 334.779C136.764 334.094 136.155 333.569 135.422 333.303C134.689 333.038 133.885 333.051 133.162 333.34L123.727 337.108C123.727 337.108 135.213 361.073 137.162 374.603C139.111 388.133 133.593 395.69 133.677 395.656C136.022 394.72 145.136 385.964 147.357 370.769C149.139 358.57 140.58 341.168 137.135 334.779Z" fill="black"/>
</g>
<path d="M161.265 421.388L126.343 435.338L129.69 443.675L164.613 429.725L161.265 421.388Z" fill="#0B1142"/>
<path d="M166.739 428.867L127.557 444.523L128.362 446.529L167.544 430.873L166.739 428.867Z" fill="#0B1142"/>
<path d="M169.556 430.066L126.347 447.331L127.152 449.337L170.361 432.072L169.556 430.066Z" fill="#0B1142"/>
<defs>
<linearGradient id="paint0_linear_5482_3983" x1="249.039" y1="73.707" x2="249.039" y2="592.707" gradientUnits="userSpaceOnUse">
<stop stop-color="#1139CB"/>
<stop offset="1" stop-color="#6B22A5"/>
</linearGradient>
<linearGradient id="paint1_linear_5482_3983" x1="298.731" y1="219.378" x2="298.731" y2="418.919" gradientUnits="userSpaceOnUse">
<stop stop-color="#642F71"/>
<stop offset="1" stop-color="#506BED"/>
</linearGradient>
<linearGradient id="paint2_linear_5482_3983" x1="245.96" y1="183.405" x2="354.5" y2="183.405" gradientUnits="userSpaceOnUse">
<stop stop-color="#506BED"/>
<stop offset="1" stop-color="#642F71"/>
</linearGradient>
<clipPath id="clip0_5482_3983">
<rect width="632" height="356" fill="white" transform="translate(0 84)"/>
</clipPath>
</defs>
</svg>
