<svg width="633" height="387" viewBox="0 0 633 387" fill="none" xmlns="http://www.w3.org/2000/svg">
<path d="M0.078125 13.207H612.078C623.124 13.207 632.078 22.1613 632.078 33.207V349.207C632.078 360.253 623.124 369.207 612.078 369.207H0.078125V13.207Z" fill="url(#paint0_linear_5482_3642)"/>
<g clip-path="url(#clip0_5482_3642)">
<rect x="171.078" y="-100" width="504.583" height="322.882" rx="20" transform="rotate(33.2595 171.078 -100)" fill="white" fill-opacity="0.12"/>
<g clip-path="url(#clip1_5482_3642)">
<path d="M299.221 88.6393L54.0684 96.4653L63.9829 407.189L309.135 399.363L299.221 88.6393Z" fill="#642F71"/>
<path opacity="0.58" d="M299.221 88.6393L54.0684 96.4653L63.9829 407.189L309.135 399.363L299.221 88.6393Z" fill="white"/>
<path d="M290.255 83.2266L46.2275 103.363L71.7465 412.772L315.773 392.636L290.255 83.2266Z" fill="white"/>
<path d="M290.062 83.4546L315.547 392.444L71.9384 412.545L46.4545 103.556L290.063 83.4546M290.447 83L46 103.171L71.553 413L316 392.829L290.447 83Z" fill="black"/>
<path d="M273.654 105.005L162.273 114.196L162.938 122.252L274.319 113.061L273.654 105.005Z" fill="#2651ED"/>
<path d="M275.546 126.935L164.122 136.101L164.157 136.521L275.581 127.355L275.546 126.935Z" fill="#2651ED"/>
<path d="M276.766 141.729L165.342 150.895L165.376 151.315L276.8 142.149L276.766 141.729Z" fill="#2651ED"/>
<path d="M277.986 156.522L166.562 165.689L166.597 166.109L278.021 156.943L277.986 156.522Z" fill="#2651ED"/>
<path d="M279.206 171.316L167.782 180.483L167.817 180.903L279.241 171.737L279.206 171.316Z" fill="#2651ED"/>
<path d="M219.046 191.168L169.004 195.285L169.038 195.705L219.081 191.588L219.046 191.168Z" fill="#2651ED"/>
<path d="M282.283 209.617L74.7988 226.738L75.4632 234.794L282.947 217.673L282.283 209.617Z" fill="#2651ED"/>
<path d="M181.636 327.511L96.9453 334.479L96.9799 334.899L181.671 327.931L181.636 327.511Z" fill="#2651ED"/>
<path d="M183.074 344.922L98.3828 351.889L98.4174 352.309L183.108 345.342L183.074 344.922Z" fill="#2651ED"/>
<path d="M184.509 362.332L99.8184 369.299L99.8529 369.719L184.544 362.752L184.509 362.332Z" fill="#2651ED"/>
<path d="M88.1276 338.621C90.5878 338.621 92.5823 336.626 92.5823 334.165C92.5823 331.704 90.5878 329.709 88.1276 329.709C85.6673 329.709 83.6729 331.704 83.6729 334.165C83.6729 336.626 85.6673 338.621 88.1276 338.621Z" fill="#2651ED"/>
<path d="M91.0944 374.591C93.5546 374.591 95.5491 372.596 95.5491 370.135C95.5491 367.675 93.5546 365.68 91.0944 365.68C88.6341 365.68 86.6396 367.675 86.6396 370.135C86.6396 372.596 88.6341 374.591 91.0944 374.591Z" fill="#2651ED"/>
<path d="M89.611 356.606C92.0712 356.606 94.0657 354.611 94.0657 352.15C94.0657 349.689 92.0712 347.694 89.611 347.694C87.1507 347.694 85.1562 349.689 85.1562 352.15C85.1562 354.611 87.1507 356.606 89.611 356.606Z" fill="#2651ED"/>
<path d="M291.343 318.458L206.652 325.425L206.687 325.845L291.378 318.878L291.343 318.458Z" fill="#2651ED"/>
<path d="M292.78 335.869L208.089 342.836L208.123 343.257L292.814 336.289L292.78 335.869Z" fill="#2651ED"/>
<path d="M294.215 353.279L209.524 360.247L209.559 360.667L294.25 353.699L294.215 353.279Z" fill="#2651ED"/>
<path d="M197.794 329.571C200.254 329.571 202.248 327.576 202.248 325.115C202.248 322.654 200.254 320.659 197.794 320.659C195.333 320.659 193.339 322.654 193.339 325.115C193.339 327.576 195.333 329.571 197.794 329.571Z" fill="#2651ED"/>
<path d="M200.76 365.542C203.221 365.542 205.215 363.547 205.215 361.086C205.215 358.625 203.221 356.63 200.76 356.63C198.3 356.63 196.306 358.625 196.306 361.086C196.306 363.547 198.3 365.542 200.76 365.542Z" fill="#2651ED"/>
<path d="M199.277 347.557C201.737 347.557 203.732 345.562 203.732 343.101C203.732 340.64 201.737 338.645 199.277 338.645C196.817 338.645 194.822 340.64 194.822 343.101C194.822 345.562 196.817 347.557 199.277 347.557Z" fill="#2651ED"/>
<path d="M111.474 162.677C119.572 162.677 126.137 156.111 126.137 148.011C126.137 139.91 119.572 133.344 111.474 133.344C103.376 133.344 96.8105 139.91 96.8105 148.011C96.8105 156.111 103.376 162.677 111.474 162.677Z" fill="#642F71"/>
<path d="M148.201 184.2C144.6 189.566 139.837 194.052 134.266 197.325C128.695 200.597 122.458 202.572 116.019 203.104C109.58 203.635 103.104 202.709 97.0714 200.394C91.0392 198.078 85.6059 194.434 81.1748 189.731C84.6626 184.223 89.38 179.6 94.9561 176.225C100.532 172.849 106.815 170.813 113.311 170.277C119.806 169.741 126.338 170.72 132.392 173.136C138.445 175.551 143.856 179.339 148.199 184.2H148.201Z" fill="#642F71"/>
<path d="M112.531 117.602C123.522 117.614 134.084 121.875 142.008 129.494C149.932 137.113 154.606 147.5 155.052 158.485C155.498 169.471 151.682 180.203 144.401 188.44C137.121 196.676 126.939 201.78 115.985 202.683C114.805 202.78 113.611 202.83 112.434 202.83C101.443 202.818 90.881 198.557 82.9568 190.938C75.0326 183.319 70.3591 172.931 69.9131 161.946C69.4671 150.961 73.2832 140.229 80.5636 131.992C87.8441 123.755 98.0256 118.652 108.98 117.749C110.159 117.651 111.352 117.602 112.531 117.602ZM112.531 117.181C111.346 117.181 110.149 117.23 108.946 117.329C103.315 117.793 97.831 119.362 92.8064 121.946C87.7817 124.531 83.3152 128.08 79.6619 132.391C76.0086 136.702 73.2399 141.69 71.5141 147.071C69.7883 152.453 69.1392 158.121 69.6036 163.753C70.4906 174.509 75.3855 184.539 83.318 191.855C91.2505 199.171 101.642 203.238 112.431 203.251C113.617 203.251 114.812 203.202 116.017 203.103C121.647 202.638 127.131 201.069 132.156 198.484C137.18 195.9 141.646 192.351 145.299 188.04C148.952 183.729 151.721 178.74 153.446 173.359C155.172 167.978 155.821 162.31 155.357 156.678C154.47 145.922 149.575 135.892 141.642 128.576C133.709 121.261 123.318 117.193 112.529 117.181H112.531Z" fill="#2651ED"/>
<path d="M284.35 233.664L76.7852 250.739L76.8197 251.159L284.384 234.084L284.35 233.664Z" fill="#2651ED"/>
<path d="M285.48 248.386L77.9941 265.478L78.0287 265.897L285.515 248.805L285.48 248.386Z" fill="#2651ED"/>
<path d="M286.7 263.175L79.2139 280.267L79.2484 280.686L286.735 263.594L286.7 263.175Z" fill="#2651ED"/>
<path d="M287.92 277.963L80.4336 295.055L80.4681 295.475L287.955 278.383L287.92 277.963Z" fill="#2651ED"/>
<path d="M131.709 305.819L81.667 309.936L81.7015 310.356L131.744 306.239L131.709 305.819Z" fill="#2651ED"/>
<path d="M73.9059 87.3105C75.4951 87.5444 76.9329 88.3824 77.9199 89.65C78.9068 90.9177 79.367 92.5172 79.2044 94.1157L77.0013 117.922C76.8905 119.171 76.2887 120.324 75.328 121.129C74.3674 121.934 73.1265 122.325 71.878 122.216C70.6726 122.081 69.5678 121.48 68.8008 120.54C68.0339 119.6 67.6659 118.397 67.7759 117.189L70.0418 92.7118C70.1039 91.9448 70.4481 91.228 71.008 90.7003C71.5679 90.1725 72.3035 89.8712 73.0727 89.8546C73.4975 89.8534 73.9178 89.9409 74.3069 90.1115C74.6959 90.2821 75.045 90.532 75.332 90.8454C75.6189 91.1587 75.8372 91.5285 75.9731 91.931C76.1089 92.3336 76.1592 92.7601 76.1208 93.1833L74.5306 110.365C74.5114 110.572 74.4108 110.763 74.251 110.896C74.0912 111.028 73.8853 111.092 73.6784 111.073C73.5759 111.063 73.4763 111.034 73.3852 110.986C73.2942 110.938 73.2135 110.872 73.1478 110.793C73.0821 110.714 73.0327 110.622 73.0024 110.524C72.9721 110.425 72.9615 110.322 72.9712 110.219L74.5551 93.1053C74.5962 92.7313 74.4979 92.3553 74.279 92.0493C74.0601 91.7434 73.736 91.529 73.3688 91.4473C73.1655 91.408 72.9563 91.4117 72.7545 91.4581C72.5527 91.5046 72.3629 91.5927 72.1972 91.7169C72.0315 91.8411 71.8936 91.9987 71.7925 92.1794C71.6913 92.36 71.629 92.5599 71.6097 92.7661L69.3438 117.244C69.2636 118.013 69.4713 118.783 69.9266 119.407C70.3819 120.032 71.0525 120.464 71.8085 120.623C72.2277 120.702 72.6589 120.694 73.0745 120.597C73.4901 120.5 73.881 120.318 74.2221 120.061C74.5631 119.805 74.8468 119.48 75.0551 119.107C75.2633 118.735 75.3914 118.323 75.4313 117.898L77.6487 93.9417C77.7678 92.7079 77.3923 91.4773 76.6048 90.5202C75.8173 89.5631 74.6822 88.9579 73.4489 88.8374C72.253 88.7486 71.07 89.1325 70.1541 89.9066C69.2382 90.6808 68.6624 91.7834 68.5506 92.9776L66.6478 113.53C66.6383 113.632 66.6088 113.732 66.5608 113.823C66.5129 113.914 66.4475 113.994 66.3684 114.06C66.2893 114.126 66.1981 114.175 66.0998 114.206C66.0016 114.236 65.8984 114.247 65.796 114.237C65.6936 114.228 65.594 114.198 65.503 114.151C65.412 114.103 65.3314 114.037 65.2656 113.958C65.1999 113.879 65.1504 113.788 65.12 113.689C65.0896 113.591 65.0788 113.488 65.0883 113.385L66.9907 92.8331C67.0678 92.0106 67.3099 91.212 67.7024 90.4851C68.0949 89.7582 68.6299 89.1179 69.2754 88.6024C69.9208 88.0869 70.6636 87.7068 71.4591 87.4849C72.2547 87.2629 73.0869 87.2036 73.9059 87.3105Z" fill="#F7BC76"/>
</g>
<path d="M445.481 46.3354H604.592C606.884 46.3354 609.082 47.2459 610.703 48.8666C612.323 50.4872 613.234 52.6853 613.234 54.9773V245.546C613.234 247.888 612.303 250.134 610.648 251.79C608.992 253.446 606.746 254.376 604.404 254.376H445.67C443.328 254.376 441.082 253.446 439.426 251.79C437.77 250.134 436.84 247.888 436.84 245.546V54.9763C436.84 52.6846 437.751 50.4868 439.371 48.8663C440.992 47.2459 443.19 46.3355 445.481 46.3354Z" fill="white"/>
<path d="M604.404 254.711H445.669C443.238 254.711 440.907 253.746 439.188 252.027C437.47 250.308 436.504 247.977 436.504 245.546V54.6408C436.504 52.3491 437.415 50.1513 439.035 48.5308C440.656 46.9103 442.854 46 445.145 46H604.927C607.219 46 609.417 46.9104 611.038 48.531C612.658 50.1516 613.569 52.3496 613.569 54.6415V245.546C613.569 247.977 612.603 250.308 610.884 252.027C609.166 253.746 606.834 254.711 604.404 254.711ZM437.175 54.962V245.546C437.175 246.661 437.395 247.766 437.822 248.796C438.248 249.827 438.874 250.763 439.663 251.552C440.452 252.341 441.388 252.967 442.419 253.394C443.449 253.82 444.554 254.04 445.669 254.04H604.404C606.656 254.04 608.817 253.145 610.41 251.552C612.003 249.959 612.898 247.799 612.898 245.546V54.8781C612.898 53.8002 612.685 52.7329 612.273 51.7371C611.86 50.7413 611.255 49.8366 610.493 49.0745C609.731 48.3124 608.826 47.7079 607.83 47.2956C606.834 46.8832 605.767 46.671 604.689 46.6712H445.467C443.268 46.6712 441.159 47.5446 439.604 49.0994C438.049 50.6543 437.175 52.7631 437.175 54.962Z" fill="#95A8EC" fill-opacity="0.3"/>
<path d="M471.057 87.7046H451.775C450.701 87.7033 449.67 87.2759 448.911 86.5162C448.151 85.7564 447.723 84.7263 447.722 83.6518V64.3694C447.723 63.2947 448.15 62.2644 448.91 61.5045C449.67 60.7446 450.7 60.3172 451.775 60.3159H471.057C472.132 60.3171 473.162 60.7445 473.922 61.5044C474.682 62.2643 475.11 63.2947 475.111 64.3694V83.6518C475.11 84.7264 474.682 85.7565 473.922 86.5163C473.162 87.2761 472.132 87.7034 471.057 87.7046ZM451.775 60.9864C450.878 60.9875 450.019 61.3442 449.385 61.9782C448.751 62.6123 448.394 63.472 448.393 64.3687V83.6518C448.394 84.5485 448.751 85.4082 449.385 86.0422C450.019 86.6763 450.878 87.033 451.775 87.0341H471.057C471.954 87.0331 472.814 86.6764 473.448 86.0424C474.082 85.4083 474.439 84.5485 474.44 83.6518V64.3694C474.439 63.4726 474.082 62.6129 473.448 61.9788C472.814 61.3447 471.954 60.9881 471.057 60.9871L451.775 60.9864Z" fill="#2651ED"/>
<path d="M471.057 125.906H451.775C450.7 125.905 449.67 125.478 448.91 124.718C448.15 123.958 447.723 122.928 447.722 121.853V102.571C447.723 101.496 448.15 100.466 448.91 99.7058C449.67 98.9458 450.7 98.5183 451.775 98.5171H471.057C472.132 98.5183 473.162 98.9458 473.922 99.7058C474.682 100.466 475.11 101.496 475.111 102.571V121.853C475.11 122.928 474.682 123.958 473.922 124.718C473.162 125.478 472.132 125.905 471.057 125.906ZM451.775 99.1893C450.878 99.1903 450.019 99.5471 449.385 100.181C448.75 100.815 448.394 101.675 448.393 102.572V121.854C448.394 122.751 448.75 123.61 449.385 124.245C450.019 124.879 450.878 125.235 451.775 125.236H471.057C471.954 125.235 472.814 124.879 473.448 124.245C474.082 123.61 474.439 122.751 474.44 121.854V102.571C474.439 101.674 474.082 100.814 473.448 100.18C472.814 99.546 471.954 99.1893 471.057 99.1882L451.775 99.1893Z" fill="#2651ED"/>
<path d="M471.057 164.108H451.775C450.7 164.107 449.67 163.68 448.91 162.92C448.15 162.16 447.723 161.129 447.722 160.055V140.773C447.723 139.698 448.15 138.668 448.91 137.908C449.67 137.148 450.7 136.72 451.775 136.719H471.057C472.132 136.72 473.162 137.148 473.922 137.908C474.682 138.668 475.11 139.698 475.111 140.773V160.055C475.11 161.129 474.682 162.16 473.922 162.92C473.162 163.68 472.132 164.107 471.057 164.108ZM451.775 137.39C450.878 137.391 450.019 137.748 449.385 138.382C448.75 139.016 448.394 139.876 448.393 140.773V160.055C448.394 160.951 448.75 161.811 449.385 162.445C450.019 163.079 450.878 163.436 451.775 163.437H471.057C471.954 163.436 472.814 163.079 473.448 162.445C474.082 161.811 474.439 160.952 474.44 160.055V140.773C474.439 139.876 474.082 139.016 473.448 138.382C472.814 137.748 471.954 137.391 471.057 137.39H451.775Z" fill="#2651ED"/>
<path d="M471.057 201.785H451.775C450.7 201.784 449.67 201.356 448.91 200.596C448.15 199.836 447.723 198.806 447.722 197.731V178.449C447.723 177.375 448.15 176.344 448.91 175.584C449.67 174.824 450.7 174.397 451.775 174.396H471.057C472.132 174.397 473.162 174.824 473.922 175.584C474.682 176.344 475.11 177.375 475.111 178.449V197.731C475.11 198.806 474.682 199.836 473.922 200.596C473.162 201.356 472.132 201.784 471.057 201.785ZM451.775 175.067C450.878 175.068 450.019 175.424 449.384 176.059C448.75 176.693 448.394 177.553 448.393 178.449V197.731C448.394 198.628 448.751 199.488 449.385 200.122C450.019 200.756 450.878 201.113 451.775 201.114H471.057C471.954 201.113 472.814 200.756 473.448 200.122C474.082 199.488 474.439 198.628 474.44 197.731V178.449C474.439 177.552 474.082 176.693 473.448 176.059C472.814 175.424 471.954 175.068 471.057 175.067H451.775Z" fill="#2651ED"/>
<path d="M471.057 239.462H451.775C450.7 239.46 449.67 239.033 448.91 238.273C448.15 237.513 447.723 236.482 447.722 235.408V216.126C447.723 215.051 448.15 214.021 448.91 213.261C449.67 212.501 450.7 212.074 451.775 212.072H471.057C472.132 212.074 473.162 212.501 473.922 213.261C474.682 214.021 475.11 215.051 475.111 216.126V235.408C475.11 236.483 474.682 237.513 473.922 238.273C473.162 239.033 472.132 239.46 471.057 239.462ZM451.775 212.743C450.878 212.744 450.019 213.101 449.385 213.735C448.75 214.369 448.394 215.229 448.393 216.126V235.408C448.394 236.305 448.75 237.164 449.385 237.798C450.019 238.433 450.878 238.789 451.775 238.79H471.057C471.954 238.789 472.814 238.433 473.448 237.798C474.082 237.164 474.439 236.305 474.44 235.408V216.126C474.439 215.229 474.082 214.369 473.448 213.735C472.814 213.101 471.954 212.744 471.057 212.743L451.775 212.743Z" fill="#2651ED"/>
<path d="M457.987 119.926C457.64 119.927 457.307 119.792 457.057 119.551L451.437 114.149C451.309 114.026 451.208 113.88 451.137 113.719C451.066 113.557 451.028 113.384 451.025 113.207C451.021 113.031 451.052 112.856 451.117 112.692C451.181 112.528 451.277 112.378 451.399 112.251C451.521 112.123 451.667 112.022 451.829 111.951C451.99 111.88 452.164 111.842 452.34 111.839C452.516 111.835 452.692 111.866 452.856 111.931C453.02 111.995 453.17 112.091 453.297 112.213L457.964 116.7L469.663 104.894C469.914 104.646 470.254 104.506 470.607 104.506C470.961 104.506 471.3 104.646 471.552 104.895C471.803 105.144 471.946 105.482 471.949 105.836C471.953 106.189 471.816 106.53 471.57 106.784L458.94 119.527C458.816 119.654 458.668 119.754 458.504 119.823C458.34 119.891 458.165 119.926 457.987 119.926Z" fill="#F7BC76"/>
<path d="M457.987 158.128C457.64 158.128 457.307 157.994 457.057 157.753L451.437 152.35C451.18 152.104 451.032 151.765 451.025 151.409C451.018 151.053 451.152 150.709 451.399 150.452C451.646 150.196 451.984 150.048 452.34 150.04C452.696 150.033 453.04 150.168 453.297 150.415L457.964 154.9L469.663 143.096C469.913 142.843 470.254 142.7 470.61 142.698C470.966 142.697 471.308 142.836 471.561 143.087C471.814 143.338 471.957 143.678 471.959 144.034C471.96 144.39 471.821 144.733 471.57 144.985L458.94 157.729C458.816 157.855 458.667 157.956 458.504 158.024C458.34 158.093 458.164 158.128 457.987 158.128Z" fill="#F7BC76"/>
<path opacity="0.5" d="M598.736 68.04H485.649C485.132 68.04 484.713 68.4594 484.713 68.9766C484.713 69.4939 485.132 69.9132 485.649 69.9132H598.736C599.253 69.9132 599.672 69.4939 599.672 68.9766C599.672 68.4594 599.253 68.04 598.736 68.04Z" fill="#2651ED"/>
<path opacity="0.5" d="M558.466 78.1074H485.649C485.132 78.1074 484.713 78.5268 484.713 79.044C484.713 79.5613 485.132 79.9806 485.649 79.9806H558.466C558.983 79.9806 559.403 79.5613 559.403 79.044C559.403 78.5268 558.983 78.1074 558.466 78.1074Z" fill="#2651ED"/>
<path opacity="0.5" d="M598.736 106.242H485.649C485.132 106.242 484.713 106.661 484.713 107.178C484.713 107.696 485.132 108.115 485.649 108.115H598.736C599.253 108.115 599.672 107.696 599.672 107.178C599.672 106.661 599.253 106.242 598.736 106.242Z" fill="#2651ED"/>
<path opacity="0.5" d="M558.466 116.309H485.649C485.132 116.309 484.713 116.728 484.713 117.246C484.713 117.763 485.132 118.182 485.649 118.182H558.466C558.983 118.182 559.403 117.763 559.403 117.246C559.403 116.728 558.983 116.309 558.466 116.309Z" fill="#2651ED"/>
<path opacity="0.5" d="M598.736 144.443H485.649C485.132 144.443 484.713 144.863 484.713 145.38C484.713 145.897 485.132 146.317 485.649 146.317H598.736C599.253 146.317 599.672 145.897 599.672 145.38C599.672 144.863 599.253 144.443 598.736 144.443Z" fill="#2651ED"/>
<path opacity="0.5" d="M558.466 154.511H485.649C485.132 154.511 484.713 154.93 484.713 155.447C484.713 155.965 485.132 156.384 485.649 156.384H558.466C558.983 156.384 559.403 155.965 559.403 155.447C559.403 154.93 558.983 154.511 558.466 154.511Z" fill="#2651ED"/>
<path opacity="0.5" d="M598.736 182.12H485.649C485.132 182.12 484.713 182.539 484.713 183.057C484.713 183.574 485.132 183.993 485.649 183.993H598.736C599.253 183.993 599.672 183.574 599.672 183.057C599.672 182.539 599.253 182.12 598.736 182.12Z" fill="#2651ED"/>
<path opacity="0.5" d="M558.466 192.188H485.649C485.132 192.188 484.713 192.607 484.713 193.124C484.713 193.641 485.132 194.061 485.649 194.061H558.466C558.983 194.061 559.403 193.641 559.403 193.124C559.403 192.607 558.983 192.188 558.466 192.188Z" fill="#2651ED"/>
<path opacity="0.5" d="M598.736 219.796H485.649C485.132 219.796 484.713 220.216 484.713 220.733C484.713 221.25 485.132 221.67 485.649 221.67H598.736C599.253 221.67 599.672 221.25 599.672 220.733C599.672 220.216 599.253 219.796 598.736 219.796Z" fill="#2651ED"/>
<path opacity="0.5" d="M558.466 229.864H485.649C485.132 229.864 484.713 230.283 484.713 230.8C484.713 231.318 485.132 231.737 485.649 231.737H558.466C558.983 231.737 559.403 231.318 559.403 230.8C559.403 230.283 558.983 229.864 558.466 229.864Z" fill="#2651ED"/>
<path d="M457.018 80.8755C457.116 80.6351 457.289 80.4332 457.512 80.3006C457.735 80.168 457.996 80.1119 458.254 80.1409C458.254 80.1201 458.236 80.0698 458.272 80.0701L457.433 79.5399C457.182 79.389 456.994 79.1524 456.904 78.8738C456.814 78.5952 456.828 78.2935 456.944 78.0244C457.066 77.7622 457.281 77.5549 457.548 77.4426C457.815 77.3303 458.113 77.321 458.387 77.4167C458.384 77.4053 458.391 77.3938 458.392 77.3831L458.047 77.1653C457.811 77.0222 457.632 76.8019 457.54 76.5419C457.448 76.2819 457.448 75.9981 457.542 75.7384C457.603 75.5769 457.7 75.4311 457.825 75.3116C457.95 75.1921 458.1 75.1018 458.264 75.0472C458.429 74.9926 458.603 74.9752 458.775 74.996C458.946 75.0169 459.111 75.0756 459.257 75.1679L460.054 75.6713C460.056 75.6666 460.054 75.6616 460.056 75.6572C460.058 75.6529 460.067 75.6508 460.071 75.6458C459.884 75.4586 459.766 75.2135 459.737 74.9505C459.707 74.6875 459.768 74.4224 459.909 74.1985C460.236 73.5968 461.076 73.6666 461.591 73.9917L463.134 75.1424C463.372 75.32 463.563 75.5537 463.689 75.8226C463.815 76.0916 463.872 76.3876 463.856 76.6841C463.719 79.2506 463.199 85.9461 461.555 84.9058L457.509 82.3507C457.274 82.1945 457.099 81.9646 457.01 81.6974C456.921 81.4302 456.924 81.1409 457.018 80.8755Z" fill="#E98862"/>
<path d="M457.986 81.3417C457.64 81.342 457.306 81.2076 457.056 80.9669L451.436 75.5641C451.307 75.4424 451.203 75.2963 451.131 75.1344C451.059 74.9724 451.019 74.7977 451.015 74.6204C451.011 74.4431 451.042 74.2667 451.106 74.1014C451.17 73.9361 451.266 73.7852 451.389 73.6573C451.512 73.5295 451.659 73.4272 451.822 73.3565C451.985 73.2858 452.16 73.2481 452.337 73.2454C452.514 73.2428 452.69 73.2753 452.855 73.3411C453.02 73.4069 453.17 73.5047 453.296 73.6288L457.964 78.1148L469.662 66.3101C469.786 66.1849 469.934 66.0854 470.096 66.0172C470.259 65.9489 470.433 65.9134 470.61 65.9126C470.786 65.9118 470.961 65.9457 471.124 66.0124C471.287 66.0791 471.435 66.1773 471.561 66.3014C471.686 66.4255 471.785 66.573 471.854 66.7356C471.922 66.8981 471.957 67.0725 471.958 67.2488C471.959 67.4251 471.925 67.5998 471.858 67.763C471.792 67.9261 471.693 68.0746 471.569 68.1998L458.94 80.9434C458.815 81.0697 458.667 81.17 458.503 81.2383C458.339 81.3067 458.164 81.3419 457.986 81.3417Z" fill="#F7BC76"/>
<path d="M454.119 78.0653C454.147 77.8698 454.215 77.6821 454.318 77.5136C454.421 77.3452 454.558 77.1995 454.719 77.0855C454.88 76.9714 455.063 76.8915 455.256 76.8504C455.449 76.8094 455.649 76.8081 455.842 76.8468C456.215 76.9347 456.539 77.1605 456.752 77.4787C456.964 77.7968 457.047 78.1836 456.985 78.5609L456.945 80.6217C456.937 81.0576 457.088 81.4816 457.37 81.8136C457.653 82.1455 458.047 82.3626 458.479 82.4238C458.902 82.4838 459.333 82.39 459.692 82.1595C460.052 81.929 460.317 81.5771 460.44 81.1677L461.491 77.6498L460.348 75.9427C460.748 75.2984 461.083 73.6323 461.776 74.1286C462.363 74.493 463.694 75.3743 464.058 76.2092C464.065 76.2125 464.747 83.3761 464.376 83.9735L461.095 92.7509C459.521 95.2852 451.924 93.3241 451.924 93.3241L454.119 78.0653Z" fill="#E98862"/>
<path d="M457.963 78.1148L469.662 66.3101C469.786 66.1849 469.933 66.0854 470.096 66.0172C470.258 65.9489 470.433 65.9134 470.609 65.9126C470.785 65.9118 470.96 65.9457 471.123 66.0124C471.286 66.0791 471.435 66.1773 471.56 66.3014C471.685 66.4255 471.785 66.573 471.853 66.7356C471.921 66.8981 471.957 67.0725 471.957 67.2488C471.958 67.4251 471.924 67.5998 471.858 67.763C471.791 67.9261 471.693 68.0746 471.569 68.1998L458.939 80.9434" fill="#F7BC76"/>
<path d="M398.258 139.126L445.604 135.142C449.09 135.233 452.125 132.335 453.404 129.082L465.808 90.2029L449.582 83.8242L438.632 117.128L396.993 120.042L398.258 139.126Z" fill="#642F71"/>
<path d="M370.767 322.182C370.767 322.182 372.283 330.034 379.636 330.473C386.99 330.912 385.395 336.769 385.395 336.769H357.294V322.729L370.767 322.182Z" fill="#F7BC76"/>
<path d="M362.1 178.913C362.1 178.913 362.188 176.552 362.169 181.907C362.1 201.884 361.753 224.702 360.906 238.055C359.545 259.52 356.054 327.194 356.054 327.194L374.519 327.039L392.416 178.101L362.1 178.913Z" fill="#262626"/>
<path d="M382.952 202.47C382.952 202.47 383.717 216.967 383.858 220.37C384.186 228.241 384.301 236.39 384.301 245.63L387.212 221.407C387.212 221.407 385.082 213.817 382.952 202.47Z" fill="#0A0A0A"/>
<path d="M403.64 322.182C403.64 322.182 405.156 330.034 412.509 330.473C419.863 330.912 418.268 336.769 418.268 336.769H390.167V322.729L403.64 322.182Z" fill="#F7BC76"/>
<path d="M412.581 180.463C412.581 180.463 414.217 248.739 413.977 252.076L407.11 326.675L388.95 327.011L390.719 249.377C390.719 249.377 389.471 227.962 384.297 208.076C381.649 197.87 380.056 187.419 379.542 176.888L412.581 180.463Z" fill="#262626"/>
<path d="M361.898 178.91L361.838 178.913C361.838 178.913 361.882 177.748 361.898 178.91Z" fill="#333333"/>
<path d="M415.181 144.58C414.801 149.054 412.948 174.953 412.582 180.464H362.12C361.835 175.493 360.555 153.76 359.474 144.04C358.442 134.765 356.418 130.122 357.901 127.38C360.326 122.899 366.953 120.309 371.471 119.698C374.23 119.324 397.752 119.056 397.809 119.056C399.656 119.056 410.415 119.924 412.793 121.756C417.096 125.07 415.846 136.778 415.181 144.58Z" fill="#642F71"/>
<path d="M415.878 137.775C415.921 137.775 415.962 137.759 415.994 137.729C416.025 137.7 416.044 137.66 416.046 137.617L416.453 131.184C416.456 131.139 416.441 131.096 416.411 131.062C416.381 131.029 416.34 131.009 416.295 131.007C416.251 131.004 416.208 131.02 416.175 131.049C416.142 131.079 416.121 131.12 416.118 131.164L415.711 137.598C415.709 137.642 415.724 137.686 415.753 137.719C415.783 137.752 415.825 137.772 415.869 137.775L415.878 137.775Z" fill="#0C0C0C"/>
<path d="M351.21 180.171C349.726 180.171 348.264 179.812 346.948 179.125C345.633 178.438 344.503 177.443 343.654 176.226C342.806 175.008 342.264 173.604 342.075 172.132C341.886 170.66 342.055 169.164 342.569 167.771C343.088 166.358 355.31 133.993 357.636 127.997L374.864 134.977C373.556 138.348 368.816 151.128 365.008 161.424L371.335 160.736L373.326 179.054L352.206 180.117C351.875 180.153 351.543 180.171 351.21 180.171Z" fill="#642F71"/>
<path d="M403.82 118.444C403.763 118.436 402.215 124.261 390.136 123.354C381.773 122.728 379.733 117.036 379.542 117.036C380.444 116.844 381.908 116.645 382.309 116.432C383.625 115.724 384.585 114.863 385.067 113.014C385.445 111.569 385.638 106.004 385.638 103.212L398.506 106.104C398.327 109.253 397.071 116.555 401.471 117.847C402.203 118.06 402.992 118.257 403.82 118.444Z" fill="#E98862"/>
<path d="M398.061 112.295C392.988 112.696 386.471 110.554 385.233 103.785L384.117 97.6777C382.879 90.9094 385.43 84.7723 391.803 83.6069C398.176 82.4414 403.943 87.0573 405.18 93.8256L405.675 96.5294C406.15 99.1267 407.113 111.581 398.061 112.295Z" fill="#E98862"/>
<path d="M402.764 106.081C401.854 101.506 401.436 98.4528 401.485 95.2326C402.767 92.9842 402.43 90.4003 402.138 89.2848C403.022 89.8457 404.06 90.112 405.105 90.0452C405.105 90.0452 402.983 81.5322 395.774 79.2416C394.448 78.7258 391.063 78.0741 386.569 78.6906C382.746 79.2147 373.323 82.0729 371.977 92.6815V92.6876C371.932 93.0396 371.028 102.814 369.225 107.504C366.8 113.808 363.396 115.767 363.482 123.041C363.593 132.397 380.794 133.643 391.167 132.943C401.541 132.243 407.334 128.832 407.409 122.089C407.492 114.533 404.587 115.235 402.764 106.081Z" fill="#0A0A0A"/>
<path d="M361.045 144.227L360.71 144.238L361.95 180.469L362.285 180.458L361.045 144.227Z" fill="#0C0C0C"/>
</g>
<defs>
<linearGradient id="paint0_linear_5482_3642" x1="249.117" y1="2.70703" x2="249.117" y2="521.707" gradientUnits="userSpaceOnUse">
<stop stop-color="#1139CB"/>
<stop offset="1" stop-color="#6B22A5"/>
</linearGradient>
<clipPath id="clip0_5482_3642">
<rect width="632" height="356" fill="white" transform="translate(0 13)"/>
</clipPath>
<clipPath id="clip1_5482_3642">
<rect width="270" height="330" fill="white" transform="translate(46 83)"/>
</clipPath>
</defs>
</svg>
