<svg width="632" height="559" viewBox="0 0 632 559" fill="none" xmlns="http://www.w3.org/2000/svg">
<path d="M0 113.207H612C623.046 113.207 632 122.161 632 133.207V449.207C632 460.253 623.046 469.207 612 469.207H0V113.207Z" fill="url(#paint0_linear_5192_25424)"/>
<rect x="171" width="504.583" height="322.882" rx="20" transform="rotate(33.2595 171 0)" fill="white" fill-opacity="0.12"/>
<path d="M444.481 146.336H603.592C605.884 146.336 608.082 147.246 609.703 148.867C611.323 150.487 612.234 152.685 612.234 154.977V345.546C612.234 347.888 611.303 350.134 609.648 351.79C607.992 353.446 605.746 354.376 603.404 354.376H444.67C442.328 354.376 440.082 353.446 438.426 351.79C436.77 350.134 435.84 347.888 435.84 345.546V154.976C435.84 152.685 436.751 150.487 438.371 148.866C439.992 147.246 442.19 146.336 444.481 146.336Z" fill="white"/>
<path d="M603.404 354.711H444.669C442.238 354.711 439.907 353.746 438.188 352.027C436.47 350.308 435.504 347.977 435.504 345.546V154.641C435.504 152.349 436.415 150.151 438.035 148.531C439.656 146.91 441.854 146 444.145 146H603.927C606.219 146 608.417 146.91 610.038 148.531C611.658 150.152 612.569 152.35 612.569 154.642V345.546C612.569 347.977 611.603 350.308 609.884 352.027C608.166 353.746 605.834 354.711 603.404 354.711ZM436.175 154.962V345.546C436.175 346.661 436.395 347.766 436.822 348.796C437.248 349.827 437.874 350.763 438.663 351.552C439.452 352.341 440.388 352.967 441.419 353.394C442.449 353.82 443.554 354.04 444.669 354.04H603.404C605.656 354.04 607.817 353.145 609.41 351.552C611.003 349.959 611.898 347.799 611.898 345.546V154.878C611.898 153.8 611.685 152.733 611.273 151.737C610.86 150.741 610.255 149.837 609.493 149.074C608.731 148.312 607.826 147.708 606.83 147.296C605.834 146.883 604.767 146.671 603.689 146.671H444.467C442.268 146.671 440.159 147.545 438.604 149.099C437.049 150.654 436.175 152.763 436.175 154.962Z" fill="#95A8EC" fill-opacity="0.3"/>
<path d="M470.057 187.705H450.775C449.701 187.704 448.67 187.276 447.911 186.516C447.151 185.757 446.723 184.727 446.722 183.652V164.37C446.723 163.295 447.15 162.265 447.91 161.505C448.67 160.745 449.7 160.317 450.775 160.316H470.057C471.132 160.317 472.162 160.745 472.922 161.505C473.682 162.265 474.11 163.295 474.111 164.37V183.652C474.11 184.727 473.682 185.757 472.922 186.517C472.162 187.276 471.132 187.704 470.057 187.705ZM450.775 160.987C449.878 160.988 449.019 161.344 448.385 161.978C447.751 162.613 447.394 163.472 447.393 164.369V183.652C447.394 184.549 447.751 185.408 448.385 186.042C449.019 186.677 449.878 187.033 450.775 187.034H470.057C470.954 187.033 471.814 186.677 472.448 186.043C473.082 185.409 473.439 184.549 473.44 183.652V164.37C473.439 163.473 473.082 162.613 472.448 161.979C471.814 161.345 470.954 160.988 470.057 160.987L450.775 160.987Z" fill="#2651ED"/>
<path d="M470.057 225.906H450.775C449.7 225.905 448.67 225.478 447.91 224.718C447.15 223.958 446.723 222.928 446.722 221.853V202.571C446.723 201.496 447.15 200.466 447.91 199.706C448.67 198.946 449.7 198.518 450.775 198.517H470.057C471.132 198.518 472.162 198.946 472.922 199.706C473.682 200.466 474.11 201.496 474.111 202.571V221.853C474.11 222.928 473.682 223.958 472.922 224.718C472.162 225.478 471.132 225.905 470.057 225.906ZM450.775 199.189C449.878 199.19 449.019 199.547 448.385 200.181C447.75 200.815 447.394 201.675 447.393 202.572V221.854C447.394 222.751 447.75 223.61 448.385 224.245C449.019 224.879 449.878 225.235 450.775 225.236H470.057C470.954 225.235 471.814 224.879 472.448 224.245C473.082 223.611 473.439 222.751 473.44 221.854V202.571C473.439 201.674 473.082 200.814 472.448 200.18C471.814 199.546 470.954 199.189 470.057 199.188L450.775 199.189Z" fill="#2651ED"/>
<path d="M470.057 264.108H450.775C449.7 264.107 448.67 263.679 447.91 262.919C447.15 262.16 446.723 261.129 446.722 260.055V240.773C446.723 239.698 447.15 238.668 447.91 237.908C448.67 237.148 449.7 236.72 450.775 236.719H470.057C471.132 236.72 472.162 237.148 472.922 237.908C473.682 238.668 474.11 239.698 474.111 240.773V260.055C474.11 261.129 473.682 262.16 472.922 262.92C472.162 263.68 471.132 264.107 470.057 264.108ZM450.775 237.39C449.878 237.391 449.019 237.748 448.385 238.382C447.75 239.016 447.394 239.876 447.393 240.773V260.055C447.394 260.951 447.75 261.811 448.385 262.445C449.019 263.079 449.878 263.436 450.775 263.437H470.057C470.954 263.436 471.814 263.079 472.448 262.445C473.082 261.811 473.439 260.951 473.44 260.055V240.773C473.439 239.876 473.082 239.016 472.448 238.382C471.814 237.748 470.954 237.391 470.057 237.39H450.775Z" fill="#2651ED"/>
<path d="M470.057 301.785H450.775C449.7 301.784 448.67 301.356 447.91 300.596C447.15 299.836 446.723 298.806 446.722 297.731V278.449C446.723 277.375 447.15 276.344 447.91 275.584C448.67 274.824 449.7 274.397 450.775 274.396H470.057C471.132 274.397 472.162 274.824 472.922 275.584C473.682 276.344 474.11 277.375 474.111 278.449V297.731C474.11 298.806 473.682 299.837 472.922 300.596C472.162 301.356 471.132 301.784 470.057 301.785ZM450.775 275.067C449.878 275.068 449.019 275.424 448.384 276.059C447.75 276.693 447.394 277.553 447.393 278.449V297.731C447.394 298.628 447.751 299.488 448.385 300.122C449.019 300.756 449.878 301.113 450.775 301.114H470.057C470.954 301.113 471.814 300.756 472.448 300.122C473.082 299.488 473.439 298.628 473.44 297.731V278.449C473.439 277.553 473.082 276.693 472.448 276.059C471.814 275.424 470.954 275.068 470.057 275.067H450.775Z" fill="#2651ED"/>
<path d="M470.057 339.461H450.775C449.7 339.46 448.67 339.033 447.91 338.273C447.15 337.513 446.723 336.482 446.722 335.408V316.126C446.723 315.051 447.15 314.021 447.91 313.261C448.67 312.501 449.7 312.073 450.775 312.072H470.057C471.132 312.073 472.162 312.501 472.922 313.261C473.682 314.021 474.11 315.051 474.111 316.126V335.408C474.11 336.483 473.682 337.513 472.922 338.273C472.162 339.033 471.132 339.46 470.057 339.461ZM450.775 312.743C449.878 312.744 449.019 313.101 448.385 313.735C447.75 314.369 447.394 315.229 447.393 316.126V335.408C447.394 336.304 447.75 337.164 448.385 337.798C449.019 338.432 449.878 338.789 450.775 338.79H470.057C470.954 338.789 471.814 338.432 472.448 337.798C473.082 337.164 473.439 336.304 473.44 335.408V316.126C473.439 315.229 473.082 314.369 472.448 313.735C471.814 313.101 470.954 312.744 470.057 312.743L450.775 312.743Z" fill="#2651ED"/>
<path d="M456.987 219.926C456.64 219.926 456.307 219.792 456.057 219.551L450.437 214.148C450.309 214.026 450.208 213.88 450.137 213.719C450.066 213.557 450.028 213.383 450.025 213.207C450.021 213.031 450.052 212.856 450.117 212.692C450.181 212.527 450.277 212.377 450.399 212.25C450.521 212.123 450.667 212.021 450.829 211.951C450.99 211.88 451.164 211.842 451.34 211.838C451.516 211.835 451.692 211.866 451.856 211.93C452.02 211.995 452.17 212.091 452.297 212.213L456.964 216.7L468.663 204.894C468.914 204.645 469.254 204.506 469.607 204.506C469.961 204.506 470.3 204.646 470.552 204.895C470.803 205.144 470.946 205.482 470.949 205.835C470.953 206.189 470.816 206.53 470.57 206.783L457.94 219.527C457.816 219.653 457.668 219.754 457.504 219.822C457.34 219.891 457.165 219.926 456.987 219.926Z" fill="#F7BC76"/>
<path d="M456.987 258.128C456.64 258.128 456.307 257.994 456.057 257.753L450.437 252.35C450.18 252.104 450.032 251.765 450.025 251.409C450.018 251.053 450.152 250.709 450.399 250.452C450.646 250.196 450.984 250.048 451.34 250.041C451.696 250.033 452.04 250.168 452.297 250.415L456.964 254.901L468.663 243.096C468.913 242.843 469.254 242.7 469.61 242.698C469.966 242.697 470.308 242.837 470.561 243.087C470.814 243.338 470.957 243.678 470.959 244.034C470.96 244.391 470.821 244.733 470.57 244.985L457.94 257.729C457.816 257.855 457.667 257.956 457.504 258.024C457.34 258.093 457.164 258.128 456.987 258.128Z" fill="#F7BC76"/>
<path opacity="0.5" d="M597.736 168.04H484.649C484.132 168.04 483.713 168.459 483.713 168.976C483.713 169.494 484.132 169.913 484.649 169.913H597.736C598.253 169.913 598.672 169.494 598.672 168.976C598.672 168.459 598.253 168.04 597.736 168.04Z" fill="#2651ED"/>
<path opacity="0.5" d="M557.466 178.107H484.649C484.132 178.107 483.713 178.527 483.713 179.044C483.713 179.561 484.132 179.98 484.649 179.98H557.466C557.983 179.98 558.403 179.561 558.403 179.044C558.403 178.527 557.983 178.107 557.466 178.107Z" fill="#2651ED"/>
<path opacity="0.5" d="M597.736 206.242H484.649C484.132 206.242 483.713 206.661 483.713 207.178C483.713 207.695 484.132 208.115 484.649 208.115H597.736C598.253 208.115 598.672 207.695 598.672 207.178C598.672 206.661 598.253 206.242 597.736 206.242Z" fill="#2651ED"/>
<path opacity="0.5" d="M557.466 216.309H484.649C484.132 216.309 483.713 216.728 483.713 217.245C483.713 217.763 484.132 218.182 484.649 218.182H557.466C557.983 218.182 558.403 217.763 558.403 217.245C558.403 216.728 557.983 216.309 557.466 216.309Z" fill="#2651ED"/>
<path opacity="0.5" d="M597.736 244.443H484.649C484.132 244.443 483.713 244.863 483.713 245.38C483.713 245.897 484.132 246.316 484.649 246.316H597.736C598.253 246.316 598.672 245.897 598.672 245.38C598.672 244.863 598.253 244.443 597.736 244.443Z" fill="#2651ED"/>
<path opacity="0.5" d="M557.466 254.51H484.649C484.132 254.51 483.713 254.93 483.713 255.447C483.713 255.964 484.132 256.384 484.649 256.384H557.466C557.983 256.384 558.403 255.964 558.403 255.447C558.403 254.93 557.983 254.51 557.466 254.51Z" fill="#2651ED"/>
<path opacity="0.5" d="M597.736 282.12H484.649C484.132 282.12 483.713 282.539 483.713 283.057C483.713 283.574 484.132 283.993 484.649 283.993H597.736C598.253 283.993 598.672 283.574 598.672 283.057C598.672 282.539 598.253 282.12 597.736 282.12Z" fill="#2651ED"/>
<path opacity="0.5" d="M557.466 292.187H484.649C484.132 292.187 483.713 292.607 483.713 293.124C483.713 293.641 484.132 294.061 484.649 294.061H557.466C557.983 294.061 558.403 293.641 558.403 293.124C558.403 292.607 557.983 292.187 557.466 292.187Z" fill="#2651ED"/>
<path opacity="0.5" d="M597.736 319.797H484.649C484.132 319.797 483.713 320.216 483.713 320.733C483.713 321.25 484.132 321.67 484.649 321.67H597.736C598.253 321.67 598.672 321.25 598.672 320.733C598.672 320.216 598.253 319.797 597.736 319.797Z" fill="#2651ED"/>
<path opacity="0.5" d="M557.466 329.864H484.649C484.132 329.864 483.713 330.283 483.713 330.8C483.713 331.318 484.132 331.737 484.649 331.737H557.466C557.983 331.737 558.403 331.318 558.403 330.8C558.403 330.283 557.983 329.864 557.466 329.864Z" fill="#2651ED"/>
<path d="M456.018 180.875C456.116 180.635 456.289 180.433 456.512 180.301C456.735 180.168 456.996 180.112 457.254 180.141C457.254 180.12 457.236 180.07 457.272 180.07L456.433 179.54C456.182 179.389 455.994 179.152 455.904 178.874C455.814 178.595 455.828 178.293 455.944 178.024C456.066 177.762 456.281 177.555 456.548 177.442C456.815 177.33 457.113 177.321 457.387 177.417C457.384 177.405 457.391 177.394 457.392 177.383L457.047 177.165C456.811 177.022 456.632 176.802 456.54 176.542C456.448 176.282 456.448 175.998 456.542 175.738C456.603 175.577 456.7 175.431 456.825 175.312C456.95 175.192 457.1 175.102 457.264 175.047C457.429 174.993 457.603 174.975 457.775 174.996C457.946 175.017 458.111 175.076 458.257 175.168L459.054 175.671C459.056 175.667 459.054 175.662 459.056 175.657C459.058 175.653 459.067 175.651 459.071 175.646C458.884 175.459 458.766 175.213 458.737 174.95C458.707 174.687 458.768 174.422 458.909 174.198C459.236 173.597 460.076 173.667 460.591 173.992L462.134 175.142C462.372 175.32 462.563 175.554 462.689 175.823C462.815 176.092 462.872 176.387 462.856 176.684C462.719 179.251 462.199 185.946 460.555 184.906L456.509 182.351C456.274 182.194 456.099 181.965 456.01 181.697C455.921 181.43 455.924 181.141 456.018 180.875Z" fill="#E98862"/>
<path d="M456.986 181.342C456.64 181.342 456.306 181.208 456.056 180.967L450.436 175.564C450.307 175.443 450.203 175.296 450.131 175.134C450.059 174.973 450.019 174.798 450.015 174.621C450.011 174.443 450.042 174.267 450.106 174.102C450.17 173.936 450.266 173.785 450.389 173.657C450.512 173.53 450.659 173.427 450.822 173.357C450.985 173.286 451.16 173.248 451.337 173.246C451.514 173.243 451.69 173.275 451.855 173.341C452.02 173.407 452.17 173.505 452.296 173.629L456.964 178.115L468.662 166.31C468.786 166.185 468.934 166.085 469.096 166.017C469.259 165.949 469.433 165.914 469.61 165.913C469.786 165.912 469.961 165.946 470.124 166.013C470.287 166.079 470.435 166.177 470.561 166.302C470.686 166.426 470.785 166.573 470.854 166.736C470.922 166.898 470.957 167.073 470.958 167.249C470.959 167.425 470.925 167.6 470.858 167.763C470.792 167.926 470.693 168.075 470.569 168.2L457.94 180.944C457.815 181.07 457.667 181.17 457.503 181.238C457.339 181.307 457.164 181.342 456.986 181.342Z" fill="#F7BC76"/>
<path d="M453.119 178.065C453.147 177.87 453.215 177.682 453.318 177.514C453.421 177.345 453.558 177.199 453.719 177.085C453.88 176.971 454.063 176.891 454.256 176.85C454.449 176.809 454.649 176.808 454.842 176.847C455.215 176.935 455.539 177.161 455.752 177.479C455.964 177.797 456.047 178.184 455.985 178.561L455.945 180.622C455.937 181.058 456.088 181.482 456.37 181.814C456.653 182.146 457.047 182.363 457.479 182.424C457.902 182.484 458.333 182.39 458.692 182.16C459.052 181.929 459.317 181.577 459.44 181.168L460.491 177.65L459.348 175.943C459.748 175.298 460.083 173.632 460.776 174.129C461.363 174.493 462.694 175.374 463.058 176.209C463.065 176.213 463.747 183.376 463.376 183.973L460.095 192.751C458.521 195.285 450.924 193.324 450.924 193.324L453.119 178.065Z" fill="#E98862"/>
<path d="M456.963 178.115L468.662 166.31C468.786 166.185 468.933 166.085 469.096 166.017C469.258 165.949 469.433 165.914 469.609 165.913C469.785 165.912 469.96 165.946 470.123 166.013C470.286 166.079 470.435 166.177 470.56 166.302C470.685 166.426 470.785 166.573 470.853 166.736C470.921 166.898 470.957 167.073 470.957 167.249C470.958 167.425 470.924 167.6 470.858 167.763C470.791 167.926 470.693 168.075 470.569 168.2L457.939 180.944" fill="#F7BC76"/>
<path d="M397.258 239.126L444.604 235.142C448.09 235.234 451.125 232.335 452.404 229.083L464.808 190.203L448.582 183.824L437.632 217.128L395.993 220.043L397.258 239.126Z" fill="#642F71"/>
<path d="M369.767 422.182C369.767 422.182 371.283 430.034 378.636 430.473C385.99 430.912 384.395 436.769 384.395 436.769H356.294V422.729L369.767 422.182Z" fill="#F7BC76"/>
<path d="M361.1 278.912C361.1 278.912 361.188 276.551 361.169 281.907C361.1 301.884 360.753 324.702 359.906 338.054C358.545 359.519 355.054 427.194 355.054 427.194L373.519 427.039L391.416 278.101L361.1 278.912Z" fill="#262626"/>
<path d="M381.952 302.469C381.952 302.469 382.717 316.967 382.858 320.37C383.186 328.241 383.301 336.39 383.301 345.63L386.212 321.407C386.212 321.407 384.082 313.816 381.952 302.469Z" fill="#0A0A0A"/>
<path d="M402.64 422.182C402.64 422.182 404.156 430.034 411.509 430.473C418.863 430.912 417.268 436.769 417.268 436.769H389.167V422.729L402.64 422.182Z" fill="#F7BC76"/>
<path d="M411.581 280.464C411.581 280.464 413.217 348.739 412.977 352.076L406.11 426.675L387.95 427.011L389.719 349.377C389.719 349.377 388.471 327.962 383.297 308.076C380.649 297.87 379.056 287.419 378.542 276.888L411.581 280.464Z" fill="#262626"/>
<path d="M360.898 278.91L360.838 278.913C360.838 278.913 360.882 277.748 360.898 278.91Z" fill="#333333"/>
<path d="M414.181 244.58C413.801 249.054 411.948 274.953 411.582 280.464H361.12C360.835 275.493 359.555 253.76 358.474 244.04C357.442 234.765 355.418 230.122 356.901 227.38C359.326 222.899 365.953 220.309 370.471 219.698C373.23 219.324 396.752 219.056 396.809 219.056C398.656 219.056 409.415 219.924 411.793 221.756C416.096 225.07 414.846 236.778 414.181 244.58Z" fill="#642F71"/>
<path d="M414.878 237.775C414.921 237.775 414.962 237.759 414.994 237.729C415.025 237.7 415.044 237.66 415.046 237.617L415.453 231.184C415.456 231.139 415.441 231.096 415.411 231.062C415.381 231.029 415.34 231.009 415.295 231.007C415.251 231.004 415.208 231.02 415.175 231.049C415.142 231.079 415.121 231.12 415.118 231.164L414.711 237.598C414.709 237.642 414.724 237.686 414.753 237.719C414.783 237.752 414.825 237.772 414.869 237.775L414.878 237.775Z" fill="#0C0C0C"/>
<path d="M350.21 280.171C348.726 280.17 347.264 279.811 345.948 279.125C344.633 278.438 343.503 277.443 342.654 276.225C341.806 275.008 341.264 273.603 341.075 272.132C340.886 270.66 341.055 269.164 341.569 267.771C342.088 266.358 354.31 233.993 356.636 227.996L373.864 234.977C372.556 238.348 367.816 251.128 364.008 261.424L370.335 260.736L372.326 279.054L351.206 280.117C350.875 280.153 350.543 280.171 350.21 280.171Z" fill="#642F71"/>
<path d="M402.82 218.444C402.763 218.436 401.215 224.261 389.136 223.354C380.773 222.728 378.733 217.036 378.542 217.036C379.444 216.844 380.908 216.645 381.309 216.432C382.625 215.724 383.585 214.863 384.067 213.014C384.445 211.569 384.638 206.004 384.638 203.212L397.506 206.104C397.327 209.253 396.071 216.555 400.471 217.847C401.203 218.06 401.992 218.257 402.82 218.444Z" fill="#E98862"/>
<path d="M397.061 212.295C391.988 212.695 385.471 210.553 384.233 203.785L383.117 197.678C381.879 190.909 384.43 184.772 390.803 183.607C397.176 182.441 402.943 187.057 404.18 193.825L404.675 196.529C405.15 199.127 406.113 211.581 397.061 212.295Z" fill="#E98862"/>
<path d="M401.764 206.081C400.854 201.505 400.436 198.453 400.485 195.232C401.767 192.984 401.43 190.4 401.138 189.285C402.022 189.846 403.06 190.112 404.105 190.045C404.105 190.045 401.983 181.532 394.774 179.241C393.448 178.726 390.063 178.074 385.569 178.69C381.746 179.215 372.323 182.073 370.977 192.681V192.687C370.932 193.039 370.028 202.814 368.225 207.504C365.8 213.808 362.396 215.767 362.482 223.041C362.593 232.397 379.794 233.643 390.167 232.943C400.541 232.243 406.334 228.832 406.409 222.089C406.492 214.533 403.587 215.235 401.764 206.081Z" fill="#0A0A0A"/>
<path d="M360.045 244.227L359.71 244.238L360.95 280.469L361.285 280.458L360.045 244.227Z" fill="#0C0C0C"/>
<g clip-path="url(#clip0_5192_25424)">
<path d="M286.221 208.639L41.0684 216.465L50.9829 527.189L296.135 519.363L286.221 208.639Z" fill="#642F71"/>
<path opacity="0.58" d="M286.221 208.639L41.0684 216.465L50.9829 527.189L296.135 519.363L286.221 208.639Z" fill="white"/>
<path d="M277.255 203.227L33.2275 223.363L58.7465 532.773L302.773 512.636L277.255 203.227Z" fill="white"/>
<path d="M277.062 203.455L302.547 512.444L58.9384 532.545L33.4545 223.556L277.063 203.455M277.447 203L33 223.171L58.553 533L303 512.829L277.447 203Z" fill="black"/>
<path d="M260.654 225.005L149.273 234.196L149.938 242.252L261.319 233.061L260.654 225.005Z" fill="#2651ED"/>
<path d="M262.546 246.935L151.122 256.101L151.157 256.521L262.581 247.355L262.546 246.935Z" fill="#2651ED"/>
<path d="M263.766 261.729L152.342 270.895L152.376 271.315L263.8 262.149L263.766 261.729Z" fill="#2651ED"/>
<path d="M264.986 276.523L153.562 285.689L153.597 286.109L265.021 276.943L264.986 276.523Z" fill="#2651ED"/>
<path d="M266.206 291.316L154.782 300.483L154.817 300.903L266.241 291.737L266.206 291.316Z" fill="#2651ED"/>
<path d="M206.046 311.169L156.004 315.285L156.038 315.705L206.081 311.589L206.046 311.169Z" fill="#2651ED"/>
<path d="M269.283 329.617L61.7988 346.738L62.4632 354.794L269.947 337.673L269.283 329.617Z" fill="#2651ED"/>
<path d="M168.636 447.511L83.9453 454.478L83.9799 454.898L168.671 447.931L168.636 447.511Z" fill="#2651ED"/>
<path d="M170.074 464.922L85.3828 471.889L85.4174 472.309L170.108 465.342L170.074 464.922Z" fill="#2651ED"/>
<path d="M171.509 482.332L86.8184 489.299L86.8529 489.719L171.544 482.752L171.509 482.332Z" fill="#2651ED"/>
<path d="M172.945 499.743L88.2539 506.71L88.2884 507.13L172.979 500.163L172.945 499.743Z" fill="#2651ED"/>
<path d="M75.1276 458.62C77.5878 458.62 79.5823 456.625 79.5823 454.164C79.5823 451.703 77.5878 449.708 75.1276 449.708C72.6673 449.708 70.6729 451.703 70.6729 454.164C70.6729 456.625 72.6673 458.62 75.1276 458.62Z" fill="#2651ED"/>
<path d="M79.5299 511.995C81.9902 511.995 83.9846 510 83.9846 507.539C83.9846 505.079 81.9902 503.084 79.5299 503.084C77.0696 503.084 75.0752 505.079 75.0752 507.539C75.0752 510 77.0696 511.995 79.5299 511.995Z" fill="#2651ED"/>
<path d="M78.0944 494.591C80.5546 494.591 82.5491 492.596 82.5491 490.135C82.5491 487.674 80.5546 485.679 78.0944 485.679C75.6341 485.679 73.6396 487.674 73.6396 490.135C73.6396 492.596 75.6341 494.591 78.0944 494.591Z" fill="#2651ED"/>
<path d="M76.611 476.605C79.0712 476.605 81.0657 474.61 81.0657 472.15C81.0657 469.689 79.0712 467.694 76.611 467.694C74.1507 467.694 72.1562 469.689 72.1562 472.15C72.1562 474.61 74.1507 476.605 76.611 476.605Z" fill="#2651ED"/>
<path d="M278.343 438.458L193.652 445.425L193.687 445.845L278.378 438.878L278.343 438.458Z" fill="#2651ED"/>
<path d="M279.78 455.869L195.089 462.836L195.123 463.256L279.814 456.289L279.78 455.869Z" fill="#2651ED"/>
<path d="M281.215 473.279L196.524 480.247L196.559 480.667L281.25 473.7L281.215 473.279Z" fill="#2651ED"/>
<path d="M282.651 490.69L197.96 497.658L197.995 498.078L282.686 491.11L282.651 490.69Z" fill="#2651ED"/>
<path d="M184.794 449.571C187.254 449.571 189.248 447.576 189.248 445.115C189.248 442.654 187.254 440.659 184.794 440.659C182.333 440.659 180.339 442.654 180.339 445.115C180.339 447.576 182.333 449.571 184.794 449.571Z" fill="#2651ED"/>
<path d="M189.196 502.946C191.656 502.946 193.651 500.951 193.651 498.49C193.651 496.029 191.656 494.034 189.196 494.034C186.736 494.034 184.741 496.029 184.741 498.49C184.741 500.951 186.736 502.946 189.196 502.946Z" fill="#2651ED"/>
<path d="M187.76 485.542C190.221 485.542 192.215 483.547 192.215 481.086C192.215 478.625 190.221 476.63 187.76 476.63C185.3 476.63 183.306 478.625 183.306 481.086C183.306 483.547 185.3 485.542 187.76 485.542Z" fill="#2651ED"/>
<path d="M186.277 467.556C188.737 467.556 190.732 465.562 190.732 463.101C190.732 460.64 188.737 458.645 186.277 458.645C183.817 458.645 181.822 460.64 181.822 463.101C181.822 465.562 183.817 467.556 186.277 467.556Z" fill="#2651ED"/>
<path d="M98.4738 282.677C106.572 282.677 113.137 276.111 113.137 268.01C113.137 259.91 106.572 253.344 98.4738 253.344C90.3755 253.344 83.8105 259.91 83.8105 268.01C83.8105 276.111 90.3755 282.677 98.4738 282.677Z" fill="#642F71"/>
<path d="M135.201 304.2C131.6 309.566 126.837 314.052 121.266 317.324C115.695 320.597 109.458 322.572 103.019 323.104C96.5796 323.635 90.1036 322.709 84.0714 320.394C78.0392 318.078 72.6059 314.434 68.1748 309.731C71.6626 304.223 76.38 299.6 81.9561 296.225C87.5322 292.849 93.8151 290.813 100.311 290.277C106.806 289.741 113.338 290.72 119.392 293.135C125.445 295.551 130.856 299.339 135.199 304.2H135.201Z" fill="#642F71"/>
<path d="M99.5307 237.602C110.522 237.614 121.084 241.874 129.008 249.493C136.932 257.112 141.606 267.5 142.052 278.485C142.498 289.47 138.682 300.203 131.401 308.44C124.121 316.676 113.939 321.78 102.985 322.683C101.805 322.78 100.611 322.829 99.4342 322.829C88.4426 322.818 77.881 318.557 69.9568 310.938C62.0326 303.319 57.3591 292.931 56.9131 281.946C56.4671 270.961 60.2832 260.228 67.5636 251.992C74.8441 243.755 85.0256 238.652 95.98 237.748C97.1595 237.651 98.3524 237.602 99.5307 237.602ZM99.5311 237.18C98.3457 237.18 97.1485 237.229 95.9463 237.328C90.3153 237.793 84.831 239.362 79.8064 241.946C74.7817 244.53 70.3152 248.079 66.6619 252.39C63.0086 256.701 60.2399 261.69 58.5141 267.071C56.7883 272.452 56.1392 278.121 56.6036 283.753C57.4906 294.509 62.3855 304.539 70.318 311.855C78.2505 319.17 88.6415 323.238 99.4313 323.251C100.617 323.251 101.812 323.201 103.017 323.102C108.647 322.638 114.131 321.069 119.156 318.484C124.18 315.9 128.646 312.351 132.299 308.04C135.952 303.729 138.721 298.74 140.446 293.359C142.172 287.978 142.821 282.31 142.357 276.678C141.47 265.922 136.575 255.892 128.642 248.576C120.709 241.261 110.318 237.193 99.5286 237.18H99.5311Z" fill="#2651ED"/>
<path d="M271.35 353.664L63.7852 370.74L63.8197 371.16L271.384 354.084L271.35 353.664Z" fill="#2651ED"/>
<path d="M272.48 368.386L64.9941 385.478L65.0287 385.898L272.515 368.806L272.48 368.386Z" fill="#2651ED"/>
<path d="M273.7 383.175L66.2139 400.267L66.2484 400.686L273.735 383.595L273.7 383.175Z" fill="#2651ED"/>
<path d="M274.92 397.964L67.4336 415.055L67.4681 415.475L274.955 398.383L274.92 397.964Z" fill="#2651ED"/>
<path d="M118.709 425.819L68.667 429.936L68.7015 430.356L118.744 426.239L118.709 425.819Z" fill="#2651ED"/>
<path d="M60.9059 207.31C62.4951 207.544 63.9329 208.382 64.9199 209.65C65.9068 210.918 66.367 212.517 66.2044 214.116L64.0013 237.922C63.8905 239.171 63.2887 240.324 62.328 241.129C61.3674 241.934 60.1265 242.325 58.878 242.216C57.6726 242.081 56.5678 241.48 55.8008 240.54C55.0339 239.6 54.6659 238.397 54.7759 237.189L57.0418 212.712C57.1039 211.945 57.4481 211.228 58.008 210.7C58.5679 210.172 59.3035 209.871 60.0727 209.855C60.4975 209.853 60.9178 209.941 61.3069 210.111C61.6959 210.282 62.045 210.532 62.332 210.845C62.6189 211.159 62.8372 211.528 62.9731 211.931C63.1089 212.334 63.1592 212.76 63.1208 213.183L61.5306 230.365C61.5114 230.572 61.4108 230.763 61.251 230.896C61.0912 231.028 60.8853 231.092 60.6784 231.073C60.5759 231.063 60.4763 231.034 60.3852 230.986C60.2942 230.938 60.2135 230.872 60.1478 230.793C60.0821 230.714 60.0327 230.622 60.0024 230.524C59.9721 230.425 59.9615 230.322 59.9712 230.219L61.5551 213.105C61.5962 212.731 61.4979 212.355 61.279 212.049C61.0601 211.743 60.736 211.529 60.3688 211.447C60.1655 211.408 59.9563 211.412 59.7545 211.458C59.5527 211.505 59.3629 211.593 59.1972 211.717C59.0315 211.841 58.8936 211.999 58.7925 212.179C58.6913 212.36 58.629 212.56 58.6097 212.766L56.3438 237.244C56.2636 238.013 56.4713 238.783 56.9266 239.407C57.3819 240.032 58.0525 240.464 58.8085 240.623C59.2277 240.702 59.6589 240.694 60.0745 240.597C60.4901 240.5 60.881 240.318 61.222 240.061C61.5631 239.805 61.8468 239.48 62.0551 239.107C62.2633 238.735 62.3914 238.323 62.4313 237.898L64.6487 213.942C64.7678 212.708 64.3923 211.477 63.6048 210.52C62.8173 209.563 61.6822 208.958 60.4489 208.837C59.253 208.749 58.07 209.132 57.1541 209.907C56.2382 210.681 55.6624 211.783 55.5506 212.978L53.6478 233.53C53.6383 233.632 53.6088 233.732 53.5608 233.823C53.5129 233.914 53.4475 233.994 53.3684 234.06C53.2893 234.126 53.1981 234.175 53.0998 234.206C53.0016 234.236 52.8984 234.247 52.796 234.237C52.6936 234.228 52.594 234.198 52.503 234.151C52.412 234.103 52.3314 234.037 52.2656 233.958C52.1999 233.879 52.1504 233.788 52.12 233.689C52.0896 233.591 52.0788 233.488 52.0883 233.385L53.9907 212.833C54.0678 212.011 54.3099 211.212 54.7024 210.485C55.0949 209.758 55.6299 209.118 56.2754 208.602C56.9208 208.087 57.6636 207.707 58.4591 207.485C59.2547 207.263 60.0869 207.204 60.9059 207.31Z" fill="#F7BC76"/>
</g>
<defs>
<linearGradient id="paint0_linear_5192_25424" x1="249.039" y1="102.707" x2="249.039" y2="621.707" gradientUnits="userSpaceOnUse">
<stop stop-color="#1139CB"/>
<stop offset="1" stop-color="#6B22A5"/>
</linearGradient>
<clipPath id="clip0_5192_25424">
<rect width="270" height="330" fill="white" transform="translate(33 203)"/>
</clipPath>
</defs>
</svg>
