<svg width="632" height="379" viewBox="0 0 632 379" fill="none" xmlns="http://www.w3.org/2000/svg">
<g clip-path="url(#clip0_5482_3770)">
<path d="M0 12.207H612C623.046 12.207 632 21.1613 632 32.207V348.207C632 359.253 623.046 368.207 612 368.207H0V12.207Z" fill="url(#paint0_linear_5482_3770)"/>
<rect x="550.151" y="70.0044" width="435.531" height="346.296" rx="20" transform="rotate(116.036 550.151 70.0044)" fill="white" fill-opacity="0.12"/>
<g clip-path="url(#clip1_5482_3770)">
<path d="M566.196 37.582H192.455C183.277 37.582 175.837 45.0062 175.837 54.1643V327.205C175.837 336.363 183.277 343.787 192.455 343.787H566.196C575.374 343.787 582.814 336.363 582.814 327.205V54.1643C582.814 45.0062 575.374 37.582 566.196 37.582Z" fill="white"/>
<path d="M566.195 344.339H192.456C187.903 344.334 183.538 342.527 180.319 339.315C177.099 336.103 175.288 331.747 175.283 327.204V54.1638C175.288 49.6209 177.099 45.2656 180.319 42.0533C183.538 38.8411 187.903 37.0341 192.456 37.0288H566.195C570.748 37.0339 575.112 38.8409 578.332 42.0532C581.551 45.2655 583.362 49.6209 583.367 54.1638V327.204C583.362 331.747 581.551 336.103 578.332 339.315C575.113 342.528 570.748 344.334 566.195 344.339ZM192.456 38.1343C188.196 38.139 184.113 39.8293 181.101 42.8344C178.09 45.8395 176.396 49.9139 176.391 54.1638V327.204C176.396 331.454 178.09 335.529 181.101 338.534C184.113 341.539 188.196 343.229 192.456 343.234H566.195C570.454 343.229 574.537 341.539 577.549 338.534C580.56 335.529 582.254 331.454 582.259 327.204V54.1638C582.254 49.9139 580.56 45.8395 577.549 42.8344C574.537 39.8293 570.454 38.139 566.195 38.1343H192.456Z" fill="white"/>
<path d="M582.813 54.1638V70.85H175.839V54.1638C175.839 49.7659 177.59 45.5481 180.706 42.4384C183.823 39.3286 188.05 37.5815 192.457 37.5815H566.195C570.602 37.5815 574.829 39.3286 577.946 42.4384C581.062 45.5481 582.813 49.7659 582.813 54.1638Z" fill="url(#paint1_linear_5482_3770)"/>
<path opacity="0.2" d="M351.216 205.66H291.027C283.433 205.66 277.276 211.803 277.276 219.381C277.276 226.959 283.433 233.102 291.027 233.102H351.216C358.81 233.102 364.966 226.959 364.966 219.381C364.966 211.803 358.81 205.66 351.216 205.66Z" fill="#F7BC76"/>
<path opacity="0.2" d="M466.822 205.66H406.633C399.039 205.66 392.883 211.803 392.883 219.381C392.883 226.959 399.039 233.102 406.633 233.102H466.822C474.417 233.102 480.573 226.959 480.573 219.381C480.573 211.803 474.417 205.66 466.822 205.66Z" fill="#F7BC76"/>
<path opacity="0.1" d="M542.616 144.352C542.616 147.812 541.934 151.239 540.607 154.435C539.281 157.632 537.336 160.537 534.885 162.983C532.433 165.43 529.522 167.371 526.319 168.696C523.116 170.02 519.682 170.702 516.215 170.702H252.891C249.424 170.702 245.99 170.02 242.787 168.696C239.583 167.372 236.673 165.431 234.221 162.985C231.769 160.538 229.824 157.634 228.497 154.438C227.17 151.241 226.487 147.815 226.487 144.355C226.487 140.895 227.17 137.469 228.497 134.273C229.824 131.076 231.769 128.172 234.221 125.725C236.673 123.279 239.583 121.338 242.787 120.014C245.99 118.69 249.424 118.009 252.891 118.009H516.215C523.216 118.009 529.931 120.785 534.883 125.725C539.834 130.665 542.615 137.366 542.616 144.352Z" fill="#F7BC76"/>
<path opacity="0.1" d="M542.616 144.352C542.616 147.812 541.934 151.239 540.607 154.435C539.281 157.632 537.336 160.537 534.885 162.983C532.433 165.43 529.522 167.371 526.319 168.696C523.116 170.02 519.682 170.702 516.215 170.702H252.891C249.424 170.702 245.99 170.02 242.787 168.696C239.583 167.372 236.673 165.431 234.221 162.985C231.769 160.538 229.824 157.634 228.497 154.438C227.17 151.241 226.487 147.815 226.487 144.355C226.487 140.895 227.17 137.469 228.497 134.273C229.824 131.076 231.769 128.172 234.221 125.725C236.673 123.279 239.583 121.338 242.787 120.014C245.99 118.69 249.424 118.009 252.891 118.009H516.215C523.216 118.009 529.931 120.785 534.883 125.725C539.834 130.665 542.615 137.366 542.616 144.352Z" fill="#F7BC76"/>
<path d="M542.616 144.352C542.616 147.812 541.934 151.239 540.608 154.435C539.281 157.632 537.336 160.537 534.885 162.983C532.433 165.43 529.523 167.371 526.319 168.696C523.116 170.02 519.682 170.702 516.215 170.702H475.312V118.009H516.215C523.217 118.009 529.932 120.785 534.883 125.725C539.834 130.665 542.616 137.366 542.616 144.352Z" fill="#2651ED"/>
<path d="M502.598 151.682C499.495 151.684 496.493 150.576 494.14 148.558C491.786 146.54 490.236 143.746 489.771 140.684C489.307 137.622 489.958 134.496 491.608 131.873C493.257 129.25 495.795 127.304 498.761 126.39C501.726 125.476 504.921 125.653 507.766 126.891C510.611 128.128 512.917 130.342 514.264 133.132C515.612 135.922 515.911 139.101 515.109 142.092C514.306 145.084 512.455 147.688 509.891 149.433C507.741 150.896 505.2 151.679 502.598 151.682ZM502.558 128.563C499.929 128.564 497.401 129.576 495.5 131.388C493.598 133.2 492.469 135.673 492.347 138.294C492.225 140.915 493.119 143.481 494.843 145.462C496.568 147.442 498.991 148.684 501.608 148.929C504.226 149.174 506.838 148.403 508.901 146.778C510.965 145.152 512.322 142.796 512.69 140.198C513.058 137.6 512.41 134.961 510.88 132.828C509.349 130.694 507.054 129.231 504.471 128.742C503.84 128.623 503.2 128.563 502.558 128.563Z" fill="white"/>
<path d="M521.71 162.907C521.508 162.908 521.307 162.864 521.124 162.778C520.94 162.693 520.778 162.568 520.648 162.413L509.099 148.663C508.863 148.382 508.749 148.019 508.781 147.654C508.813 147.289 508.989 146.951 509.271 146.716C509.552 146.48 509.916 146.366 510.282 146.398C510.648 146.431 510.986 146.606 511.222 146.887L522.771 160.638C522.94 160.839 523.048 161.085 523.083 161.346C523.117 161.606 523.076 161.871 522.965 162.11C522.853 162.348 522.676 162.55 522.454 162.691C522.232 162.832 521.974 162.907 521.71 162.907Z" fill="white"/>
<path d="M99.7699 349.106C96.423 349.106 93.1258 348.299 90.1588 346.753C87.1919 345.208 84.6431 342.97 82.7295 340.23C80.8158 337.49 79.594 334.329 79.168 331.017C78.742 327.704 79.1244 324.338 80.2827 321.205C81.4576 318.024 109.128 243.146 114.375 229.653L153.108 244.647C150.158 252.233 139.47 280.987 130.884 304.15L145.149 302.603L149.638 343.815L102.018 348.981C101.271 349.063 100.521 349.105 99.7699 349.106Z" fill="#642F71"/>
<path d="M124.526 346.923L118.166 404.635H241.693L234.578 345.825L124.526 346.923Z" fill="#262626"/>
<path d="M151.266 206.389C140.987 207.149 130.505 210.482 122.787 217.299C111.146 227.58 112.182 234.008 117.994 262.482C122.993 286.983 121.01 297.689 124.355 342.899C124.454 344.231 124.665 346.986 124.665 346.986L234.623 346.803C234.623 346.803 244.926 286.821 250.615 259.156C254.94 238.124 266.303 212.591 218.395 207.445C218.269 207.433 179.845 204.274 151.266 206.389Z" fill="#642F71"/>
<path d="M376.473 183.709C371.293 183.707 366.245 182.081 362.043 179.059C357.84 176.038 354.697 171.774 353.056 166.872C351.415 161.97 351.361 156.677 352.9 151.742C354.44 146.807 357.495 142.48 361.634 139.373C365.774 136.266 370.787 134.537 375.966 134.429C381.144 134.321 386.226 135.84 390.491 138.773C394.757 141.705 397.99 145.901 399.735 150.767C401.479 155.634 401.646 160.924 400.211 165.89C398.721 171.024 395.601 175.537 391.32 178.75C387.04 181.963 381.829 183.704 376.473 183.709ZM376.456 139.944C371.594 139.941 366.912 141.777 363.353 145.082C359.794 148.388 357.624 152.917 357.28 157.756C356.935 162.595 358.442 167.384 361.496 171.158C364.551 174.933 368.926 177.411 373.739 178.094C378.552 178.777 383.446 177.614 387.434 174.839C391.422 172.064 394.207 167.883 395.228 163.14C396.249 158.397 395.43 153.444 392.936 149.28C390.442 145.116 386.458 142.05 381.788 140.7C380.055 140.2 378.26 139.945 376.456 139.944Z" fill="#B2B0C4"/>
<path d="M355.618 214.079C355.165 214.079 354.72 213.969 354.32 213.757C353.921 213.546 353.579 213.24 353.325 212.866C353.072 212.492 352.914 212.062 352.865 211.614C352.816 211.165 352.878 210.711 353.046 210.292L365.643 178.754C365.923 178.084 366.455 177.551 367.125 177.27C367.796 176.988 368.55 176.981 369.225 177.249C369.901 177.518 370.443 178.041 370.736 178.705C371.028 179.369 371.048 180.121 370.789 180.799L358.191 212.338C357.986 212.852 357.631 213.292 357.173 213.603C356.714 213.913 356.172 214.079 355.618 214.079Z" fill="#B2B0C4"/>
<path d="M345.973 210.62L353.698 193.329C353.868 192.949 354.115 192.608 354.424 192.329C354.733 192.049 355.097 191.837 355.493 191.706C355.888 191.575 356.307 191.527 356.722 191.566C357.137 191.605 357.539 191.73 357.903 191.932C358.564 192.327 359.055 192.953 359.279 193.689C359.504 194.424 359.447 195.216 359.119 195.912L357.462 199.62L368.035 190.346C369.192 189.296 371.287 188.743 372.384 190.116C372.84 190.617 373.113 191.257 373.158 191.933C373.203 192.609 373.017 193.279 372.63 193.836C372.643 193.844 372.654 193.854 372.665 193.865C372.672 193.874 372.678 193.885 372.683 193.895L374.467 192.273C374.798 191.973 375.192 191.751 375.62 191.621C376.048 191.492 376.499 191.46 376.941 191.527C377.383 191.594 377.804 191.759 378.175 192.009C378.545 192.259 378.854 192.589 379.081 192.973C379.425 193.586 379.548 194.299 379.429 194.991C379.31 195.684 378.956 196.315 378.427 196.778L377.668 197.469C377.677 197.5 377.681 197.532 377.68 197.564C378.301 197.217 379.027 197.102 379.726 197.239C380.425 197.376 381.052 197.757 381.495 198.313C381.963 198.936 382.177 199.712 382.096 200.486C382.016 201.26 381.645 201.975 381.059 202.489L379.173 204.202C379.217 204.197 379.261 204.202 379.303 204.217C379.344 204.232 379.382 204.257 379.411 204.289C379.445 204.329 379.466 204.378 379.473 204.43C380.112 204.274 380.786 204.332 381.389 204.595C381.992 204.858 382.492 205.312 382.812 205.886C383.136 206.496 383.244 207.197 383.118 207.876C382.993 208.555 382.641 209.172 382.12 209.627L366.203 224.087C363.976 226.11 361.194 227.423 358.214 227.858C355.235 228.294 352.192 227.831 349.478 226.53C347.137 225.408 345.327 223.42 344.432 220.987C343.538 218.555 343.628 215.87 344.686 213.504L345.973 210.62Z" fill="#E98862"/>
<g opacity="0.2">
<path d="M362.21 203.065C362.259 203.119 362.328 203.151 362.4 203.154C362.473 203.158 362.544 203.133 362.598 203.085L372.642 194.253C372.669 194.229 372.691 194.2 372.707 194.167C372.723 194.134 372.733 194.099 372.735 194.063C372.737 194.026 372.732 193.99 372.72 193.956C372.709 193.921 372.69 193.89 372.666 193.863C372.642 193.835 372.613 193.813 372.58 193.797C372.547 193.781 372.512 193.772 372.476 193.77C372.439 193.767 372.403 193.772 372.368 193.784C372.334 193.796 372.302 193.814 372.275 193.838L362.232 202.67C362.205 202.695 362.183 202.724 362.167 202.756C362.151 202.789 362.141 202.824 362.139 202.861C362.137 202.897 362.142 202.933 362.154 202.967C362.165 203.002 362.184 203.034 362.208 203.061L362.21 203.065Z" fill="#0C0C0C"/>
</g>
<g opacity="0.2">
<path d="M365.992 207.592C366.041 207.646 366.109 207.678 366.181 207.682C366.254 207.685 366.325 207.66 366.379 207.612L377.588 197.755C377.615 197.731 377.637 197.702 377.653 197.67C377.669 197.637 377.679 197.601 377.681 197.565C377.683 197.529 377.679 197.493 377.667 197.458C377.655 197.424 377.636 197.392 377.612 197.365C377.562 197.312 377.494 197.28 377.422 197.276C377.349 197.271 377.277 197.295 377.221 197.341L366.013 207.197C365.985 207.221 365.963 207.25 365.947 207.283C365.931 207.316 365.922 207.351 365.919 207.387C365.917 207.424 365.922 207.46 365.934 207.494C365.946 207.529 365.964 207.56 365.988 207.587L365.992 207.592Z" fill="#0C0C0C"/>
</g>
<g opacity="0.2">
<path d="M370.06 212.519C370.109 212.573 370.177 212.605 370.25 212.608C370.322 212.612 370.393 212.587 370.448 212.539L379.388 204.677C379.416 204.653 379.438 204.624 379.454 204.591C379.47 204.559 379.479 204.523 379.482 204.487C379.484 204.451 379.479 204.414 379.467 204.38C379.455 204.346 379.437 204.314 379.413 204.287C379.389 204.26 379.36 204.237 379.327 204.221C379.294 204.206 379.259 204.196 379.222 204.194C379.186 204.192 379.15 204.197 379.115 204.208C379.081 204.22 379.049 204.239 379.022 204.263L370.081 212.125C370.054 212.149 370.031 212.178 370.015 212.211C370 212.243 369.99 212.279 369.988 212.315C369.986 212.351 369.99 212.387 370.002 212.422C370.014 212.456 370.033 212.488 370.057 212.515L370.06 212.519Z" fill="#0C0C0C"/>
</g>
<path d="M341.144 205.007L294.304 257.639L246.974 216.78L219.791 248.131L282.625 302.375L283.049 302.74C283.197 302.866 283.345 302.989 283.495 303.111C287.683 306.492 293.045 308.075 298.402 307.511C303.76 306.947 308.673 304.283 312.062 300.104L369.632 229.106L341.144 205.007Z" fill="#642F71"/>
<path d="M218.394 207.448C218.267 207.432 214.777 220.537 187.539 218.498C168.683 217.088 164.085 204.281 163.653 204.281C165.686 203.85 168.988 203.402 169.891 202.921C172.86 201.329 175.022 199.391 176.112 195.233C176.963 191.98 177.397 179.46 177.397 173.178L206.412 179.684C206.008 186.77 203.177 203.198 213.098 206.105C214.749 206.586 216.527 207.028 218.394 207.448Z" fill="#E98862"/>
<path d="M205.41 193.616C193.971 194.516 179.277 189.697 176.486 174.469L173.968 160.729C171.176 145.501 176.93 131.693 191.299 129.071C205.668 126.449 218.671 136.834 221.462 152.062L222.577 158.142C223.646 163.988 225.817 192.009 205.41 193.616Z" fill="#E98862"/>
<path d="M216.015 179.636C213.962 169.342 213.02 162.474 213.129 155.228C216.022 150.166 215.261 144.357 214.603 141.846C217.438 143.389 218.623 143.56 221.291 143.56C221.291 143.56 216.508 124.407 200.252 119.253C197.261 118.092 189.631 116.626 179.497 118.012C170.878 119.192 149.631 125.623 146.593 149.491V149.505C146.492 150.296 144.452 172.288 140.385 182.839C134.917 197.023 127.242 201.43 127.436 217.795C127.687 238.846 166.471 241.648 189.866 240.073C213.261 238.499 226.316 230.823 226.486 215.653C226.674 198.65 220.123 200.23 216.015 179.636Z" fill="#0A0A0A"/>
<path d="M216.022 171.006C211.655 171.802 207.261 167.787 206.463 163.43C205.664 159.073 208.763 156.023 213.13 155.227L216.022 171.006Z" fill="#E98862"/>
<path d="M247.987 272.747C247.97 272.747 247.952 272.745 247.935 272.742C247.9 272.735 247.865 272.721 247.835 272.702C247.804 272.682 247.778 272.656 247.757 272.626C247.737 272.596 247.722 272.562 247.715 272.527C247.707 272.491 247.707 272.455 247.714 272.419L250.501 257.683C250.507 257.646 250.52 257.611 250.539 257.579C250.559 257.547 250.584 257.52 250.615 257.498C250.645 257.477 250.679 257.462 250.716 257.454C250.752 257.446 250.79 257.445 250.826 257.452C250.863 257.459 250.898 257.473 250.929 257.494C250.96 257.514 250.986 257.541 251.007 257.572C251.027 257.603 251.041 257.638 251.048 257.675C251.054 257.711 251.053 257.749 251.045 257.785L248.258 272.522C248.246 272.585 248.212 272.642 248.163 272.683C248.113 272.724 248.051 272.747 247.987 272.747Z" fill="#0C0C0C"/>
<path d="M124.664 347.263C124.593 347.263 124.524 347.236 124.472 347.186C124.42 347.137 124.39 347.069 124.387 346.998L120.942 257.744C120.94 257.708 120.946 257.671 120.958 257.637C120.971 257.603 120.99 257.572 121.015 257.545C121.04 257.519 121.069 257.497 121.102 257.482C121.135 257.467 121.171 257.458 121.208 257.457C121.28 257.457 121.35 257.485 121.403 257.534C121.456 257.583 121.489 257.65 121.495 257.722L124.941 346.976C124.943 347.013 124.937 347.049 124.924 347.083C124.911 347.117 124.892 347.148 124.868 347.175C124.843 347.202 124.813 347.223 124.78 347.238C124.747 347.253 124.711 347.262 124.675 347.263H124.664Z" fill="#0C0C0C"/>
<path d="M291.161 262.173C291.109 262.173 291.059 262.159 291.015 262.132C290.971 262.105 290.936 262.066 290.913 262.02C290.89 261.974 290.88 261.923 290.885 261.872C290.89 261.821 290.908 261.772 290.939 261.731L294.084 257.475C294.128 257.417 294.193 257.379 294.265 257.369C294.337 257.359 294.41 257.377 294.468 257.42C294.527 257.463 294.566 257.527 294.577 257.599C294.589 257.67 294.572 257.743 294.53 257.802L291.382 262.061C291.357 262.095 291.323 262.124 291.285 262.143C291.246 262.163 291.204 262.173 291.161 262.173Z" fill="#0C0C0C"/>
</g>
</g>
<defs>
<linearGradient id="paint0_linear_5482_3770" x1="249.039" y1="1.70703" x2="249.039" y2="520.707" gradientUnits="userSpaceOnUse">
<stop stop-color="#1139CB"/>
<stop offset="1" stop-color="#6B22A5"/>
</linearGradient>
<linearGradient id="paint1_linear_5482_3770" x1="589.5" y1="129.5" x2="166" y2="53.9999" gradientUnits="userSpaceOnUse">
<stop stop-color="#642F71"/>
<stop offset="1" stop-color="#2651ED"/>
</linearGradient>
<clipPath id="clip0_5482_3770">
<rect width="632" height="356" fill="white" transform="translate(0 12)"/>
</clipPath>
<clipPath id="clip1_5482_3770">
<rect width="586" height="380" fill="white" transform="translate(79 -1)"/>
</clipPath>
</defs>
</svg>
