<svg width="100" height="100" viewBox="0 0 100 100" fill="none" xmlns="http://www.w3.org/2000/svg">
<rect width="100" height="100" fill="#2651ED"/>
<path d="M50.2 65.528C47.736 65.528 45.668 65.1467 43.996 64.384C42.324 63.6213 41.0627 62.5653 40.212 61.216C39.3613 59.8667 38.936 58.312 38.936 56.552V55.804H44.876V56.64C44.876 57.9307 45.3013 58.9427 46.152 59.676C47.032 60.4093 48.2933 60.776 49.936 60.776C51.52 60.776 52.752 60.4093 53.632 59.676C54.512 58.9427 54.952 57.8133 54.952 56.288C54.952 55.144 54.7173 54.264 54.248 53.648C53.7787 53.032 53.1627 52.592 52.4 52.328C51.6667 52.064 50.86 51.932 49.98 51.932H47.296V47.312H49.936C50.7573 47.312 51.4907 47.1653 52.136 46.872C52.8107 46.5493 53.3387 46.08 53.72 45.464C54.1307 44.848 54.336 44.056 54.336 43.088C54.336 42.1787 54.1453 41.4307 53.764 40.844C53.412 40.228 52.8987 39.7733 52.224 39.48C51.5787 39.1867 50.8307 39.04 49.98 39.04C49.1293 39.04 48.352 39.1867 47.648 39.48C46.9733 39.7733 46.4453 40.2133 46.064 40.8C45.6827 41.3867 45.492 42.12 45.492 43V43.66H39.64V42.56C39.64 40.9173 40.0653 39.48 40.916 38.248C41.796 36.9867 43.028 36.0187 44.612 35.344C46.196 34.64 48.0293 34.288 50.112 34.288C52.1947 34.288 54.0133 34.6107 55.568 35.256C57.152 35.9013 58.3693 36.8547 59.22 38.116C60.1 39.348 60.54 40.8147 60.54 42.516C60.54 43.66 60.32 44.672 59.88 45.552C59.4693 46.432 58.912 47.18 58.208 47.796C57.504 48.3827 56.6973 48.8813 55.788 49.292V49.468C57.372 49.9373 58.6627 50.8027 59.66 52.064C60.6867 53.296 61.2 54.8947 61.2 56.86C61.1707 58.62 60.7013 60.1453 59.792 61.436C58.912 62.7267 57.6507 63.7387 56.008 64.472C54.3653 65.176 52.4293 65.528 50.2 65.528Z" fill="white"/>
</svg>
