<svg width="100" height="100" viewBox="0 0 100 100" fill="none" xmlns="http://www.w3.org/2000/svg">
<rect width="100" height="100" fill="#2651ED"/>
<path d="M39.244 65V63.416C39.244 62.096 39.4787 60.8933 39.948 59.808C40.4173 58.7227 41.0627 57.7253 41.884 56.816C42.7053 55.9067 43.6147 55.0413 44.612 54.22C45.6093 53.3987 46.636 52.6067 47.692 51.844C48.8947 50.9347 50.024 50.04 51.08 49.16C52.1653 48.28 53.0453 47.3413 53.72 46.344C54.3947 45.3173 54.732 44.188 54.732 42.956C54.732 42.3693 54.5853 41.7827 54.292 41.196C53.9987 40.6093 53.5293 40.1253 52.884 39.744C52.268 39.3333 51.432 39.128 50.376 39.128C49.2907 39.128 48.396 39.3187 47.692 39.7C46.988 40.052 46.4453 40.5653 46.064 41.24C45.712 41.8853 45.536 42.692 45.536 43.66V45.244H39.64C39.6107 45.0973 39.5813 44.892 39.552 44.628C39.5227 44.364 39.508 44.0413 39.508 43.66C39.508 41.5187 39.992 39.7587 40.96 38.38C41.9573 37.0013 43.292 35.9747 44.964 35.3C46.6653 34.6253 48.5867 34.288 50.728 34.288C52.664 34.288 54.2773 34.5667 55.568 35.124C56.888 35.652 57.944 36.3707 58.736 37.28C59.528 38.16 60.0853 39.128 60.408 40.184C60.76 41.2107 60.936 42.208 60.936 43.176C60.936 44.5547 60.6867 45.816 60.188 46.96C59.6893 48.104 59.0147 49.1747 58.164 50.172C57.3133 51.1693 56.3013 52.1373 55.128 53.076C53.9547 53.9853 52.708 54.8947 51.388 55.804C50.7133 56.2733 50.068 56.728 49.452 57.168C48.8653 57.608 48.352 58.0333 47.912 58.444C47.5013 58.8253 47.1787 59.2067 46.944 59.588H61.156V65H39.244Z" fill="white"/>
</svg>