<svg width="100" height="100" viewBox="0 0 100 100" fill="none" xmlns="http://www.w3.org/2000/svg">
<rect width="100" height="100" rx="8" fill="#2651ED"/>
<path d="M51.872 65V58.4H38.276V53.516C39.42 51.6973 40.4907 49.776 41.488 47.752C42.4853 45.728 43.4093 43.5867 44.26 41.328C45.14 39.0693 45.8733 36.7227 46.46 34.288H52.752C52.4293 35.696 51.9747 37.1773 51.388 38.732C50.8307 40.2867 50.1853 41.8267 49.452 43.352C48.7187 44.8773 47.9707 46.3147 47.208 47.664C46.4747 48.984 45.7707 50.1573 45.096 51.184C44.4213 52.2107 43.8493 52.988 43.38 53.516H51.872V46.212C52.1653 45.6547 52.4587 45.0533 52.752 44.408C53.0747 43.7333 53.3827 43.0587 53.676 42.384C53.9693 41.68 54.2333 40.9907 54.468 40.316C54.732 39.6413 54.9373 39.0107 55.084 38.424H57.9V53.516H61.772V58.4H57.9V65H51.872Z" fill="white"/>
</svg>
