<svg width="641" height="416" viewBox="0 0 641 416" fill="none" xmlns="http://www.w3.org/2000/svg">
<path d="M18 80C18 68.9543 26.9543 60 38 60H650V416H38C26.9543 416 18 407.046 18 396V80Z" fill="url(#paint0_linear_103_561)"/>
<g filter="url(#filter0_d_103_561)">
<circle cx="237" cy="190" r="88" fill="white"/>
</g>
<path d="M177.241 163.968V161.427H188.182V163.968H184.257V174.371H181.173V163.968H177.241ZM192.8 168.834V174.371H189.71V161.427H192.699V166.445H192.806C193.026 165.847 193.384 165.379 193.881 165.042C194.382 164.705 194.995 164.537 195.72 164.537C196.403 164.537 196.997 164.688 197.502 164.992C198.008 165.291 198.4 165.714 198.678 166.262C198.96 166.81 199.099 167.45 199.095 168.183V174.371H196.005V168.79C196.009 168.251 195.874 167.829 195.6 167.526C195.326 167.223 194.941 167.071 194.443 167.071C194.119 167.071 193.832 167.143 193.584 167.286C193.34 167.425 193.148 167.625 193.009 167.886C192.874 168.147 192.804 168.463 192.8 168.834ZM205.562 174.554C204.547 174.554 203.67 174.354 202.933 173.954C202.2 173.549 201.635 172.974 201.239 172.228C200.847 171.478 200.651 170.587 200.651 169.555C200.651 168.552 200.85 167.676 201.246 166.926C201.642 166.171 202.2 165.586 202.92 165.169C203.641 164.747 204.49 164.537 205.467 164.537C206.158 164.537 206.791 164.644 207.364 164.859C207.937 165.074 208.432 165.392 208.849 165.813C209.266 166.235 209.59 166.755 209.822 167.374C210.054 167.989 210.17 168.695 210.17 169.492V170.263H201.732V168.468H207.294C207.29 168.139 207.212 167.846 207.06 167.589C206.908 167.332 206.7 167.132 206.434 166.989C206.173 166.841 205.872 166.768 205.531 166.768C205.185 166.768 204.875 166.846 204.602 167.001C204.328 167.153 204.111 167.362 203.951 167.627C203.791 167.888 203.706 168.185 203.698 168.518V170.345C203.698 170.741 203.776 171.088 203.932 171.388C204.088 171.683 204.309 171.912 204.595 172.077C204.882 172.241 205.223 172.323 205.619 172.323C205.893 172.323 206.142 172.285 206.365 172.209C206.588 172.133 206.78 172.022 206.94 171.874C207.1 171.727 207.22 171.546 207.3 171.331L210.138 171.413C210.02 172.049 209.761 172.603 209.361 173.075C208.965 173.543 208.444 173.907 207.8 174.169C207.155 174.426 206.409 174.554 205.562 174.554ZM223.403 161.427H226.525V169.776C226.525 170.741 226.295 171.581 225.836 172.298C225.377 173.01 224.736 173.562 223.915 173.954C223.093 174.341 222.139 174.535 221.052 174.535C219.952 174.535 218.991 174.341 218.17 173.954C217.348 173.562 216.71 173.01 216.255 172.298C215.799 171.581 215.572 170.741 215.572 169.776V161.427H218.7V169.504C218.7 169.951 218.797 170.349 218.991 170.699C219.189 171.048 219.465 171.322 219.819 171.52C220.173 171.718 220.584 171.817 221.052 171.817C221.519 171.817 221.928 171.718 222.278 171.52C222.632 171.322 222.908 171.048 223.106 170.699C223.304 170.349 223.403 169.951 223.403 169.504V161.427ZM231.589 174.371L227.822 161.427H231.279L233.232 169.909H233.34L235.571 161.427H238.39L240.621 169.928H240.728L242.687 161.427H246.138L242.378 174.371H239.363L237.031 166.521H236.93L234.597 174.371H231.589ZM263.004 166.117H259.844C259.801 165.792 259.715 165.499 259.584 165.238C259.454 164.977 259.281 164.754 259.066 164.568C258.851 164.383 258.596 164.242 258.301 164.145C258.011 164.044 257.688 163.993 257.334 163.993C256.707 163.993 256.165 164.147 255.71 164.454C255.259 164.762 254.912 165.206 254.667 165.788C254.427 166.369 254.307 167.073 254.307 167.899C254.307 168.758 254.429 169.479 254.674 170.06C254.922 170.638 255.27 171.074 255.716 171.369C256.167 171.659 256.7 171.805 257.315 171.805C257.661 171.805 257.975 171.761 258.257 171.672C258.544 171.584 258.794 171.455 259.009 171.287C259.228 171.114 259.407 170.905 259.546 170.661C259.69 170.412 259.789 170.132 259.844 169.82L263.004 169.839C262.949 170.412 262.782 170.977 262.504 171.533C262.23 172.089 261.853 172.597 261.373 173.056C260.893 173.511 260.307 173.874 259.616 174.143C258.929 174.413 258.141 174.548 257.252 174.548C256.081 174.548 255.032 174.291 254.105 173.777C253.182 173.258 252.453 172.504 251.918 171.514C251.383 170.524 251.115 169.319 251.115 167.899C251.115 166.475 251.387 165.268 251.931 164.277C252.474 163.287 253.209 162.535 254.136 162.021C255.063 161.507 256.102 161.25 257.252 161.25C258.036 161.25 258.761 161.36 259.426 161.579C260.092 161.794 260.678 162.11 261.183 162.527C261.689 162.94 262.1 163.447 262.416 164.05C262.732 164.652 262.928 165.341 263.004 166.117ZM271.79 165.308C271.748 164.844 271.561 164.484 271.228 164.227C270.899 163.966 270.429 163.835 269.818 163.835C269.414 163.835 269.077 163.888 268.807 163.993C268.538 164.098 268.335 164.244 268.2 164.429C268.066 164.61 267.996 164.819 267.992 165.055C267.983 165.249 268.021 165.419 268.106 165.567C268.194 165.714 268.321 165.845 268.485 165.959C268.653 166.068 268.856 166.165 269.092 166.249C269.328 166.334 269.593 166.407 269.888 166.471L271 166.723C271.641 166.862 272.205 167.048 272.694 167.279C273.187 167.511 273.6 167.787 273.933 168.107C274.27 168.428 274.525 168.796 274.698 169.213C274.87 169.631 274.959 170.098 274.963 170.617C274.959 171.434 274.752 172.136 274.344 172.721C273.935 173.307 273.347 173.756 272.58 174.067C271.818 174.379 270.897 174.535 269.818 174.535C268.736 174.535 267.792 174.373 266.987 174.048C266.182 173.724 265.556 173.231 265.11 172.57C264.663 171.908 264.434 171.072 264.421 170.06H267.417C267.442 170.478 267.554 170.825 267.752 171.103C267.95 171.381 268.222 171.592 268.567 171.735C268.917 171.879 269.321 171.95 269.781 171.95C270.202 171.95 270.56 171.893 270.855 171.779C271.154 171.666 271.384 171.508 271.544 171.305C271.704 171.103 271.786 170.871 271.79 170.61C271.786 170.366 271.71 170.157 271.563 169.985C271.415 169.808 271.188 169.656 270.88 169.529C270.577 169.399 270.189 169.279 269.717 169.169L268.365 168.853C267.244 168.596 266.361 168.181 265.717 167.608C265.072 167.031 264.752 166.251 264.756 165.27C264.752 164.469 264.967 163.768 265.401 163.165C265.835 162.563 266.435 162.093 267.202 161.756C267.969 161.419 268.843 161.25 269.825 161.25C270.828 161.25 271.698 161.421 272.435 161.762C273.177 162.099 273.752 162.573 274.16 163.184C274.569 163.795 274.778 164.503 274.786 165.308H271.79ZM184.661 187.308C184.619 186.844 184.432 186.484 184.099 186.227C183.77 185.966 183.3 185.835 182.689 185.835C182.285 185.835 181.948 185.888 181.678 185.993C181.408 186.098 181.206 186.244 181.071 186.429C180.937 186.61 180.867 186.819 180.863 187.055C180.854 187.249 180.892 187.419 180.977 187.567C181.065 187.714 181.192 187.845 181.356 187.959C181.524 188.068 181.727 188.165 181.963 188.249C182.199 188.334 182.464 188.407 182.759 188.471L183.871 188.723C184.512 188.862 185.076 189.048 185.565 189.279C186.058 189.511 186.471 189.787 186.804 190.107C187.141 190.428 187.396 190.796 187.569 191.213C187.741 191.631 187.83 192.098 187.834 192.617C187.83 193.434 187.623 194.136 187.215 194.721C186.806 195.307 186.218 195.756 185.451 196.067C184.689 196.379 183.768 196.535 182.689 196.535C181.607 196.535 180.663 196.373 179.858 196.048C179.053 195.724 178.427 195.231 177.981 194.57C177.534 193.908 177.305 193.072 177.292 192.06H180.288C180.313 192.478 180.425 192.825 180.623 193.103C180.821 193.381 181.092 193.592 181.438 193.735C181.788 193.879 182.192 193.95 182.651 193.95C183.073 193.95 183.431 193.893 183.726 193.779C184.025 193.666 184.255 193.508 184.415 193.305C184.575 193.103 184.657 192.871 184.661 192.61C184.657 192.366 184.581 192.157 184.434 191.985C184.286 191.808 184.059 191.656 183.751 191.529C183.448 191.399 183.06 191.279 182.588 191.169L181.236 190.853C180.115 190.596 179.232 190.181 178.588 189.608C177.943 189.031 177.623 188.251 177.627 187.27C177.623 186.469 177.838 185.768 178.272 185.165C178.706 184.563 179.306 184.093 180.073 183.756C180.84 183.419 181.714 183.25 182.696 183.25C183.699 183.25 184.569 183.421 185.306 183.762C186.048 184.099 186.623 184.573 187.031 185.184C187.44 185.795 187.649 186.503 187.657 187.308H184.661ZM195.677 192.18V186.663H198.762V196.371H195.817V194.563H195.715C195.5 195.157 195.134 195.629 194.616 195.979C194.102 196.324 193.48 196.497 192.751 196.497C192.09 196.497 191.508 196.346 191.007 196.042C190.505 195.739 190.116 195.315 189.838 194.772C189.559 194.224 189.418 193.584 189.414 192.85V186.663H192.505V192.244C192.509 192.77 192.648 193.185 192.922 193.489C193.196 193.792 193.569 193.944 194.041 193.944C194.348 193.944 194.624 193.876 194.868 193.742C195.117 193.603 195.313 193.402 195.456 193.141C195.604 192.876 195.677 192.555 195.677 192.18ZM200.729 200.011V186.663H203.788V188.325H203.883C204.009 188.03 204.188 187.746 204.42 187.472C204.656 187.198 204.955 186.975 205.317 186.802C205.684 186.625 206.122 186.537 206.632 186.537C207.306 186.537 207.936 186.713 208.522 187.067C209.112 187.421 209.588 187.967 209.95 188.704C210.312 189.442 210.494 190.381 210.494 191.523C210.494 192.623 210.319 193.544 209.969 194.285C209.624 195.027 209.156 195.583 208.566 195.954C207.98 196.324 207.329 196.51 206.613 196.51C206.124 196.51 205.701 196.43 205.343 196.27C204.985 196.11 204.683 195.899 204.439 195.638C204.199 195.376 204.013 195.096 203.883 194.797H203.819V200.011H200.729ZM203.756 191.517C203.756 192.039 203.826 192.494 203.965 192.882C204.108 193.27 204.312 193.571 204.578 193.786C204.848 193.996 205.17 194.102 205.545 194.102C205.924 194.102 206.246 193.996 206.512 193.786C206.777 193.571 206.977 193.27 207.112 192.882C207.251 192.494 207.321 192.039 207.321 191.517C207.321 190.994 207.251 190.541 207.112 190.158C206.977 189.775 206.777 189.478 206.512 189.267C206.251 189.056 205.928 188.951 205.545 188.951C205.166 188.951 204.843 189.054 204.578 189.261C204.312 189.467 204.108 189.762 203.965 190.145C203.826 190.529 203.756 190.986 203.756 191.517ZM212.113 200.011V186.663H215.172V188.325H215.267C215.393 188.03 215.572 187.746 215.804 187.472C216.04 187.198 216.339 186.975 216.702 186.802C217.068 186.625 217.506 186.537 218.016 186.537C218.69 186.537 219.32 186.713 219.906 187.067C220.496 187.421 220.972 187.967 221.334 188.704C221.697 189.442 221.878 190.381 221.878 191.523C221.878 192.623 221.703 193.544 221.353 194.285C221.008 195.027 220.54 195.583 219.95 195.954C219.365 196.324 218.714 196.51 217.997 196.51C217.509 196.51 217.085 196.43 216.727 196.27C216.369 196.11 216.068 195.899 215.823 195.638C215.583 195.376 215.398 195.096 215.267 194.797H215.204V200.011H212.113ZM215.141 191.517C215.141 192.039 215.21 192.494 215.349 192.882C215.492 193.27 215.697 193.571 215.962 193.786C216.232 193.996 216.554 194.102 216.929 194.102C217.308 194.102 217.631 193.996 217.896 193.786C218.162 193.571 218.362 193.27 218.497 192.882C218.636 192.494 218.705 192.039 218.705 191.517C218.705 190.994 218.636 190.541 218.497 190.158C218.362 189.775 218.162 189.478 217.896 189.267C217.635 189.056 217.313 188.951 216.929 188.951C216.55 188.951 216.228 189.054 215.962 189.261C215.697 189.467 215.492 189.762 215.349 190.145C215.21 190.529 215.141 190.986 215.141 191.517ZM226.588 183.427V196.371H223.498V183.427H226.588ZM233.093 196.554C232.078 196.554 231.201 196.354 230.464 195.954C229.731 195.549 229.166 194.974 228.77 194.228C228.378 193.478 228.182 192.587 228.182 191.555C228.182 190.552 228.38 189.676 228.776 188.926C229.173 188.171 229.731 187.586 230.451 187.169C231.172 186.747 232.021 186.537 232.998 186.537C233.689 186.537 234.321 186.644 234.894 186.859C235.467 187.074 235.963 187.392 236.38 187.813C236.797 188.235 237.121 188.755 237.353 189.374C237.585 189.989 237.701 190.695 237.701 191.492V192.263H229.263V190.468H234.825C234.821 190.139 234.743 189.846 234.591 189.589C234.439 189.332 234.231 189.132 233.965 188.989C233.704 188.841 233.403 188.768 233.062 188.768C232.716 188.768 232.406 188.846 232.133 189.001C231.859 189.153 231.642 189.362 231.482 189.627C231.321 189.888 231.237 190.185 231.229 190.518V192.345C231.229 192.741 231.307 193.088 231.463 193.388C231.618 193.683 231.84 193.912 232.126 194.077C232.413 194.241 232.754 194.323 233.15 194.323C233.424 194.323 233.673 194.285 233.896 194.209C234.119 194.133 234.311 194.022 234.471 193.874C234.631 193.727 234.751 193.546 234.831 193.331L237.669 193.413C237.551 194.049 237.292 194.603 236.892 195.075C236.496 195.543 235.975 195.907 235.331 196.169C234.686 196.426 233.94 196.554 233.093 196.554ZM239.279 196.371V186.663H242.218V188.445H242.325C242.528 187.855 242.869 187.39 243.349 187.048C243.83 186.707 244.403 186.537 245.068 186.537C245.743 186.537 246.32 186.709 246.8 187.055C247.281 187.4 247.586 187.864 247.717 188.445H247.818C247.999 187.868 248.353 187.407 248.88 187.061C249.406 186.711 250.028 186.537 250.744 186.537C251.663 186.537 252.408 186.831 252.981 187.421C253.554 188.007 253.841 188.812 253.841 189.836V196.371H250.75V190.544C250.75 190.059 250.626 189.69 250.377 189.438C250.129 189.18 249.807 189.052 249.41 189.052C248.985 189.052 248.65 189.191 248.406 189.469C248.165 189.743 248.045 190.112 248.045 190.575V196.371H245.075V190.512C245.075 190.061 244.953 189.705 244.708 189.444C244.464 189.183 244.141 189.052 243.741 189.052C243.472 189.052 243.233 189.117 243.027 189.248C242.821 189.374 242.658 189.555 242.54 189.791C242.427 190.027 242.37 190.305 242.37 190.626V196.371H239.279ZM260.294 196.554C259.278 196.554 258.402 196.354 257.665 195.954C256.932 195.549 256.367 194.974 255.971 194.228C255.579 193.478 255.383 192.587 255.383 191.555C255.383 190.552 255.581 189.676 255.977 188.926C256.373 188.171 256.932 187.586 257.652 187.169C258.373 186.747 259.222 186.537 260.199 186.537C260.89 186.537 261.522 186.644 262.095 186.859C262.668 187.074 263.163 187.392 263.58 187.813C263.998 188.235 264.322 188.755 264.554 189.374C264.785 189.989 264.901 190.695 264.901 191.492V192.263H256.464V190.468H262.026C262.021 190.139 261.943 189.846 261.792 189.589C261.64 189.332 261.432 189.132 261.166 188.989C260.905 188.841 260.604 188.768 260.262 188.768C259.917 188.768 259.607 188.846 259.333 189.001C259.059 189.153 258.842 189.362 258.682 189.627C258.522 189.888 258.438 190.185 258.429 190.518V192.345C258.429 192.741 258.507 193.088 258.663 193.388C258.819 193.683 259.04 193.912 259.327 194.077C259.613 194.241 259.955 194.323 260.351 194.323C260.625 194.323 260.873 194.285 261.097 194.209C261.32 194.133 261.512 194.022 261.672 193.874C261.832 193.727 261.952 193.546 262.032 193.331L264.87 193.413C264.752 194.049 264.493 194.603 264.092 195.075C263.696 195.543 263.176 195.907 262.531 196.169C261.887 196.426 261.141 196.554 260.294 196.554ZM269.57 190.834V196.371H266.48V186.663H269.419V188.445H269.526C269.741 187.851 270.108 187.386 270.626 187.048C271.144 186.707 271.761 186.537 272.478 186.537C273.16 186.537 273.752 186.69 274.254 186.998C274.759 187.301 275.151 187.727 275.429 188.275C275.712 188.818 275.851 189.454 275.846 190.183V196.371H272.756V190.79C272.76 190.251 272.623 189.829 272.345 189.526C272.071 189.223 271.69 189.071 271.201 189.071C270.877 189.071 270.59 189.143 270.341 189.286C270.097 189.425 269.907 189.625 269.773 189.886C269.642 190.147 269.575 190.463 269.57 190.834ZM283.239 186.663V188.938H277.115V186.663H283.239ZM278.398 184.337H281.489V193.318C281.489 193.508 281.518 193.662 281.577 193.779C281.64 193.893 281.731 193.975 281.849 194.026C281.967 194.072 282.108 194.096 282.272 194.096C282.39 194.096 282.515 194.085 282.645 194.064C282.78 194.039 282.881 194.018 282.949 194.001L283.416 196.232C283.269 196.274 283.06 196.327 282.791 196.39C282.525 196.453 282.207 196.493 281.836 196.51C281.112 196.544 280.49 196.459 279.972 196.257C279.458 196.051 279.064 195.73 278.79 195.296C278.52 194.862 278.39 194.317 278.398 193.659V184.337ZM287.553 196.535C286.934 196.535 286.384 196.432 285.903 196.225C285.427 196.015 285.05 195.699 284.772 195.277C284.498 194.852 284.361 194.319 284.361 193.678C284.361 193.139 284.456 192.684 284.646 192.313C284.835 191.942 285.097 191.641 285.429 191.409C285.762 191.178 286.146 191.003 286.58 190.885C287.014 190.763 287.477 190.68 287.97 190.638C288.522 190.588 288.967 190.535 289.304 190.48C289.641 190.421 289.885 190.339 290.037 190.234C290.193 190.124 290.271 189.971 290.271 189.772V189.741C290.271 189.416 290.159 189.166 289.936 188.989C289.712 188.812 289.411 188.723 289.032 188.723C288.623 188.723 288.295 188.812 288.046 188.989C287.797 189.166 287.639 189.41 287.572 189.722L284.722 189.621C284.806 189.031 285.023 188.504 285.373 188.041C285.726 187.573 286.211 187.206 286.826 186.941C287.446 186.671 288.189 186.537 289.057 186.537C289.677 186.537 290.248 186.61 290.77 186.758C291.292 186.901 291.748 187.112 292.135 187.39C292.523 187.664 292.822 188.001 293.033 188.401C293.248 188.801 293.355 189.258 293.355 189.772V196.371H290.448V195.018H290.372C290.199 195.347 289.978 195.625 289.708 195.853C289.443 196.08 289.129 196.251 288.766 196.364C288.408 196.478 288.004 196.535 287.553 196.535ZM288.507 194.513C288.84 194.513 289.139 194.445 289.405 194.31C289.674 194.176 289.889 193.99 290.049 193.754C290.21 193.514 290.29 193.236 290.29 192.92V191.997C290.201 192.044 290.094 192.086 289.967 192.124C289.845 192.162 289.71 192.197 289.563 192.231C289.415 192.265 289.264 192.294 289.108 192.32C288.952 192.345 288.802 192.368 288.659 192.389C288.368 192.435 288.12 192.507 287.913 192.604C287.711 192.701 287.555 192.827 287.446 192.983C287.34 193.135 287.288 193.316 287.288 193.527C287.288 193.847 287.401 194.091 287.629 194.26C287.861 194.428 288.153 194.513 288.507 194.513ZM298.335 183.427V196.371H295.245V183.427H298.335ZM177.665 218.371V205.427H186.69V207.968H180.793V210.622H186.229V213.169H180.793V215.83H186.69V218.371H177.665ZM197.125 211.627L194.287 211.703C194.258 211.501 194.177 211.322 194.047 211.166C193.916 211.006 193.746 210.881 193.535 210.793C193.328 210.7 193.088 210.654 192.814 210.654C192.456 210.654 192.151 210.725 191.898 210.869C191.649 211.012 191.527 211.206 191.531 211.45C191.527 211.64 191.603 211.804 191.759 211.943C191.919 212.082 192.203 212.194 192.612 212.278L194.483 212.632C195.452 212.817 196.173 213.125 196.644 213.555C197.121 213.985 197.361 214.553 197.365 215.261C197.361 215.927 197.163 216.506 196.771 216.999C196.383 217.492 195.852 217.876 195.178 218.15C194.504 218.419 193.733 218.554 192.865 218.554C191.479 218.554 190.385 218.27 189.585 217.701C188.788 217.128 188.333 216.361 188.22 215.4L191.272 215.324C191.34 215.678 191.515 215.948 191.797 216.133C192.079 216.319 192.439 216.412 192.878 216.412C193.274 216.412 193.596 216.338 193.845 216.19C194.093 216.043 194.22 215.847 194.224 215.603C194.22 215.383 194.123 215.209 193.933 215.078C193.743 214.943 193.446 214.838 193.042 214.762L191.348 214.44C190.375 214.263 189.65 213.936 189.174 213.46C188.698 212.98 188.462 212.369 188.466 211.627C188.462 210.978 188.635 210.424 188.984 209.965C189.334 209.501 189.831 209.147 190.476 208.903C191.121 208.659 191.881 208.537 192.758 208.537C194.072 208.537 195.109 208.813 195.867 209.364C196.625 209.912 197.045 210.666 197.125 211.627ZM207.362 211.627L204.524 211.703C204.495 211.501 204.415 211.322 204.284 211.166C204.153 211.006 203.983 210.881 203.772 210.793C203.566 210.7 203.325 210.654 203.052 210.654C202.693 210.654 202.388 210.725 202.135 210.869C201.887 211.012 201.764 211.206 201.769 211.45C201.764 211.64 201.84 211.804 201.996 211.943C202.156 212.082 202.441 212.194 202.849 212.278L204.72 212.632C205.689 212.817 206.41 213.125 206.882 213.555C207.358 213.985 207.598 214.553 207.602 215.261C207.598 215.927 207.4 216.506 207.008 216.999C206.62 217.492 206.09 217.876 205.415 218.15C204.741 218.419 203.97 218.554 203.102 218.554C201.716 218.554 200.623 218.27 199.822 217.701C199.026 217.128 198.571 216.361 198.457 215.4L201.509 215.324C201.577 215.678 201.752 215.948 202.034 216.133C202.316 216.319 202.677 216.412 203.115 216.412C203.511 216.412 203.833 216.338 204.082 216.19C204.33 216.043 204.457 215.847 204.461 215.603C204.457 215.383 204.36 215.209 204.17 215.078C203.981 214.943 203.684 214.838 203.279 214.762L201.585 214.44C200.612 214.263 199.887 213.936 199.411 213.46C198.935 212.98 198.699 212.369 198.703 211.627C198.699 210.978 198.872 210.424 199.222 209.965C199.571 209.501 200.068 209.147 200.713 208.903C201.358 208.659 202.118 208.537 202.995 208.537C204.309 208.537 205.346 208.813 206.104 209.364C206.863 209.912 207.282 210.666 207.362 211.627ZM211.86 218.535C211.241 218.535 210.691 218.432 210.211 218.225C209.735 218.015 209.358 217.699 209.079 217.277C208.806 216.852 208.669 216.319 208.669 215.678C208.669 215.139 208.763 214.684 208.953 214.313C209.143 213.942 209.404 213.641 209.737 213.409C210.07 213.178 210.453 213.003 210.887 212.885C211.321 212.763 211.785 212.68 212.278 212.638C212.829 212.588 213.274 212.535 213.611 212.48C213.948 212.421 214.193 212.339 214.344 212.234C214.5 212.124 214.578 211.971 214.578 211.772V211.741C214.578 211.416 214.466 211.166 214.243 210.989C214.02 210.812 213.719 210.723 213.339 210.723C212.931 210.723 212.602 210.812 212.353 210.989C212.105 211.166 211.947 211.41 211.879 211.722L209.029 211.621C209.113 211.031 209.33 210.504 209.68 210.041C210.034 209.573 210.518 209.206 211.134 208.941C211.753 208.671 212.497 208.537 213.365 208.537C213.984 208.537 214.555 208.61 215.077 208.758C215.6 208.901 216.055 209.112 216.443 209.39C216.83 209.664 217.129 210.001 217.34 210.401C217.555 210.801 217.662 211.258 217.662 211.772V218.371H214.755V217.018H214.679C214.506 217.347 214.285 217.625 214.016 217.853C213.75 218.08 213.436 218.251 213.074 218.364C212.716 218.478 212.311 218.535 211.86 218.535ZM212.815 216.513C213.148 216.513 213.447 216.445 213.712 216.31C213.982 216.176 214.197 215.99 214.357 215.754C214.517 215.514 214.597 215.236 214.597 214.92V213.997C214.509 214.044 214.401 214.086 214.275 214.124C214.153 214.162 214.018 214.197 213.87 214.231C213.723 214.265 213.571 214.294 213.415 214.32C213.259 214.345 213.11 214.368 212.966 214.389C212.676 214.435 212.427 214.507 212.221 214.604C212.018 214.701 211.862 214.827 211.753 214.983C211.648 215.135 211.595 215.316 211.595 215.527C211.595 215.847 211.709 216.091 211.936 216.26C212.168 216.428 212.461 216.513 212.815 216.513ZM221.094 222.011C220.723 222.011 220.374 221.982 220.045 221.923C219.716 221.868 219.434 221.794 219.198 221.702L219.881 219.458C220.184 219.559 220.458 219.618 220.702 219.635C220.951 219.652 221.164 219.612 221.341 219.515C221.522 219.422 221.661 219.256 221.758 219.015L221.878 218.725L218.427 208.663H221.663L223.452 215.59H223.553L225.367 208.663H228.622L224.962 219.3C224.785 219.831 224.535 220.298 224.21 220.703C223.89 221.112 223.475 221.432 222.965 221.664C222.459 221.895 221.836 222.011 221.094 222.011Z" fill="url(#paint1_linear_103_561)"/>
<g filter="url(#filter1_d_103_561)">
<circle cx="426.5" cy="234.5" r="68.5" fill="white"/>
</g>
<path d="M386.122 199.886H389.358L391.893 204.902H391.998L394.532 199.886H397.769L393.385 207.869V211.872H390.506V207.869L386.122 199.886ZM401.103 212.042C400.159 212.042 399.348 211.849 398.669 211.463C397.994 211.072 397.473 210.53 397.106 209.836C396.743 209.137 396.562 208.327 396.562 207.407C396.562 206.482 396.743 205.672 397.106 204.978C397.473 204.279 397.994 203.737 398.669 203.351C399.348 202.961 400.159 202.765 401.103 202.765C402.048 202.765 402.857 202.961 403.532 203.351C404.211 203.737 404.732 204.279 405.095 204.978C405.462 205.672 405.645 206.482 405.645 207.407C405.645 208.327 405.462 209.137 405.095 209.836C404.732 210.53 404.211 211.072 403.532 211.463C402.857 211.849 402.048 212.042 401.103 212.042ZM401.121 209.882C401.464 209.882 401.755 209.777 401.993 209.566C402.231 209.356 402.412 209.063 402.537 208.688C402.666 208.314 402.73 207.881 402.73 207.389C402.73 206.89 402.666 206.453 402.537 206.078C402.412 205.704 402.231 205.411 401.993 205.2C401.755 204.989 401.464 204.884 401.121 204.884C400.766 204.884 400.465 204.989 400.22 205.2C399.978 205.411 399.792 205.704 399.664 206.078C399.539 206.453 399.476 206.89 399.476 207.389C399.476 207.881 399.539 208.314 399.664 208.688C399.792 209.063 399.978 209.356 400.22 209.566C400.465 209.777 400.766 209.882 401.121 209.882ZM412.911 207.992V202.883H415.767V211.872H413.04V210.198H412.946C412.747 210.749 412.408 211.186 411.928 211.509C411.452 211.829 410.876 211.989 410.201 211.989C409.589 211.989 409.05 211.849 408.586 211.568C408.122 211.287 407.761 210.895 407.503 210.392C407.246 209.884 407.115 209.291 407.111 208.612V202.883H409.973V208.05C409.977 208.538 410.106 208.922 410.359 209.203C410.613 209.484 410.958 209.625 411.395 209.625C411.68 209.625 411.936 209.562 412.162 209.438C412.392 209.309 412.574 209.123 412.706 208.882C412.843 208.636 412.911 208.339 412.911 207.992ZM417.589 211.872V202.883H420.369V204.521H420.463C420.626 203.928 420.894 203.487 421.264 203.199C421.635 202.906 422.066 202.76 422.558 202.76C422.691 202.76 422.827 202.769 422.968 202.789C423.108 202.804 423.239 202.83 423.36 202.865V205.352C423.223 205.306 423.044 205.268 422.821 205.241C422.603 205.214 422.408 205.2 422.236 205.2C421.896 205.2 421.59 205.276 421.317 205.428C421.048 205.577 420.835 205.785 420.679 206.055C420.527 206.32 420.451 206.632 420.451 206.991V211.872H417.589ZM389.312 231.872H386.198L390.242 219.886H394.099L398.143 231.872H395.03L392.215 222.906H392.121L389.312 231.872ZM388.896 227.155H395.404V229.356H388.896V227.155ZM403.067 232.042C402.119 232.042 401.305 231.847 400.626 231.457C399.951 231.067 399.432 230.524 399.07 229.83C398.707 229.131 398.525 228.324 398.525 227.407C398.525 226.486 398.707 225.678 399.07 224.984C399.436 224.285 399.957 223.741 400.632 223.351C401.311 222.961 402.121 222.765 403.061 222.765C403.892 222.765 404.616 222.916 405.232 223.216C405.853 223.517 406.337 223.942 406.684 224.492C407.035 225.038 407.22 225.68 407.24 226.418H404.565C404.511 225.957 404.354 225.596 404.097 225.335C403.843 225.073 403.512 224.943 403.102 224.943C402.77 224.943 402.48 225.036 402.23 225.224C401.98 225.407 401.785 225.68 401.645 226.043C401.508 226.402 401.44 226.847 401.44 227.377C401.44 227.908 401.508 228.357 401.645 228.724C401.785 229.086 401.98 229.361 402.23 229.549C402.48 229.732 402.77 229.824 403.102 229.824C403.367 229.824 403.601 229.767 403.804 229.654C404.011 229.541 404.181 229.375 404.314 229.157C404.446 228.934 404.53 228.665 404.565 228.349H407.24C407.213 229.09 407.027 229.738 406.684 230.292C406.344 230.846 405.866 231.277 405.25 231.585C404.637 231.89 403.91 232.042 403.067 232.042ZM413.779 222.883V224.989H408.108V222.883H413.779ZM409.296 220.729H412.158V229.045C412.158 229.221 412.185 229.363 412.24 229.473C412.298 229.578 412.382 229.654 412.491 229.701C412.6 229.744 412.731 229.765 412.883 229.765C412.993 229.765 413.108 229.756 413.229 229.736C413.354 229.713 413.447 229.693 413.51 229.677L413.943 231.743C413.806 231.783 413.613 231.831 413.363 231.89C413.117 231.948 412.823 231.985 412.479 232.001C411.808 232.032 411.233 231.954 410.753 231.767C410.277 231.576 409.912 231.279 409.658 230.877C409.409 230.475 409.288 229.97 409.296 229.361V220.729ZM415.239 231.872V222.883H418.101V231.872H415.239ZM416.673 221.835C416.271 221.835 415.926 221.702 415.637 221.437C415.348 221.168 415.204 220.844 415.204 220.465C415.204 220.091 415.348 219.771 415.637 219.505C415.926 219.236 416.271 219.102 416.673 219.102C417.079 219.102 417.424 219.236 417.709 219.505C417.998 219.771 418.142 220.091 418.142 220.465C418.142 220.844 417.998 221.168 417.709 221.437C417.424 221.702 417.079 221.835 416.673 221.835ZM428.643 222.883L425.559 231.872H422.281L419.203 222.883H422.217L423.873 229.075H423.967L425.629 222.883H428.643ZM429.741 231.872V222.883H432.603V231.872H429.741ZM431.174 221.835C430.773 221.835 430.427 221.702 430.139 221.437C429.85 221.168 429.705 220.844 429.705 220.465C429.705 220.091 429.85 219.771 430.139 219.505C430.427 219.236 430.773 219.102 431.174 219.102C431.58 219.102 431.926 219.236 432.21 219.505C432.499 219.771 432.644 220.091 432.644 220.465C432.644 220.844 432.499 221.168 432.21 221.437C431.926 221.702 431.58 221.835 431.174 221.835ZM439.498 222.883V224.989H433.827V222.883H439.498ZM435.015 220.729H437.877V229.045C437.877 229.221 437.905 229.363 437.959 229.473C438.018 229.578 438.102 229.654 438.211 229.701C438.32 229.744 438.451 229.765 438.603 229.765C438.712 229.765 438.827 229.756 438.948 229.736C439.073 229.713 439.167 229.693 439.229 229.677L439.662 231.743C439.526 231.783 439.333 231.831 439.083 231.89C438.837 231.948 438.543 231.985 438.199 232.001C437.528 232.032 436.953 231.954 436.473 231.767C435.997 231.576 435.632 231.279 435.378 230.877C435.128 230.475 435.008 229.97 435.015 229.361V220.729ZM440.959 231.872V222.883H443.821V231.872H440.959ZM442.393 221.835C441.991 221.835 441.645 221.702 441.357 221.437C441.068 221.168 440.924 220.844 440.924 220.465C440.924 220.091 441.068 219.771 441.357 219.505C441.645 219.236 441.991 219.102 442.393 219.102C442.798 219.102 443.144 219.236 443.429 219.505C443.717 219.771 443.862 220.091 443.862 220.465C443.862 220.844 443.717 221.168 443.429 221.437C443.144 221.702 442.798 221.835 442.393 221.835ZM449.845 232.042C448.904 232.042 448.093 231.857 447.41 231.486C446.731 231.111 446.208 230.579 445.841 229.888C445.478 229.194 445.297 228.368 445.297 227.412C445.297 226.484 445.48 225.672 445.847 224.978C446.214 224.279 446.731 223.737 447.398 223.351C448.065 222.961 448.852 222.765 449.757 222.765C450.397 222.765 450.982 222.865 451.513 223.064C452.043 223.263 452.502 223.558 452.888 223.948C453.274 224.338 453.575 224.82 453.789 225.393C454.004 225.963 454.111 226.617 454.111 227.354V228.068H446.298V226.406H451.448C451.444 226.101 451.372 225.83 451.232 225.592C451.091 225.354 450.898 225.169 450.652 225.036C450.41 224.9 450.131 224.831 449.815 224.831C449.495 224.831 449.209 224.904 448.955 225.048C448.701 225.188 448.5 225.382 448.352 225.627C448.204 225.869 448.126 226.144 448.118 226.453V228.144C448.118 228.511 448.19 228.833 448.335 229.11C448.479 229.383 448.684 229.596 448.949 229.748C449.214 229.9 449.53 229.976 449.897 229.976C450.151 229.976 450.381 229.941 450.588 229.871C450.795 229.8 450.972 229.697 451.12 229.56C451.269 229.424 451.38 229.256 451.454 229.057L454.082 229.133C453.973 229.722 453.733 230.235 453.362 230.672C452.995 231.106 452.513 231.443 451.916 231.685C451.319 231.923 450.629 232.042 449.845 232.042ZM463.421 225.627L460.794 225.698C460.766 225.51 460.692 225.345 460.571 225.2C460.45 225.052 460.292 224.937 460.097 224.855C459.906 224.769 459.683 224.726 459.43 224.726C459.098 224.726 458.815 224.792 458.581 224.925C458.351 225.058 458.238 225.237 458.242 225.464C458.238 225.639 458.308 225.791 458.452 225.92C458.601 226.049 458.864 226.152 459.243 226.23L460.975 226.558C461.872 226.73 462.54 227.015 462.977 227.412C463.417 227.81 463.64 228.337 463.644 228.993C463.64 229.609 463.457 230.146 463.094 230.602C462.735 231.059 462.243 231.414 461.619 231.667C460.994 231.917 460.28 232.042 459.477 232.042C458.193 232.042 457.18 231.779 456.439 231.252C455.702 230.721 455.28 230.011 455.175 229.121L458.002 229.051C458.064 229.379 458.226 229.629 458.488 229.8C458.749 229.972 459.083 230.058 459.488 230.058C459.855 230.058 460.154 229.99 460.384 229.853C460.614 229.717 460.731 229.535 460.735 229.309C460.731 229.106 460.641 228.944 460.466 228.823C460.29 228.698 460.015 228.601 459.641 228.53L458.072 228.232C457.171 228.068 456.5 227.766 456.059 227.325C455.618 226.88 455.399 226.314 455.403 225.627C455.399 225.027 455.559 224.513 455.883 224.088C456.207 223.659 456.667 223.331 457.264 223.105C457.861 222.879 458.566 222.765 459.377 222.765C460.595 222.765 461.554 223.021 462.257 223.532C462.959 224.039 463.347 224.738 463.421 225.627ZM390.915 252.042C389.971 252.042 389.159 251.849 388.481 251.463C387.805 251.072 387.285 250.53 386.918 249.836C386.555 249.137 386.374 248.327 386.374 247.407C386.374 246.482 386.555 245.672 386.918 244.978C387.285 244.279 387.805 243.737 388.481 243.351C389.159 242.961 389.971 242.765 390.915 242.765C391.859 242.765 392.669 242.961 393.344 243.351C394.023 243.737 394.544 244.279 394.907 244.978C395.274 245.672 395.457 246.482 395.457 247.407C395.457 248.327 395.274 249.137 394.907 249.836C394.544 250.53 394.023 251.072 393.344 251.463C392.669 251.849 391.859 252.042 390.915 252.042ZM390.933 249.882C391.276 249.882 391.567 249.777 391.805 249.566C392.043 249.356 392.224 249.063 392.349 248.688C392.478 248.314 392.542 247.881 392.542 247.389C392.542 246.89 392.478 246.453 392.349 246.078C392.224 245.704 392.043 245.411 391.805 245.2C391.567 244.989 391.276 244.884 390.933 244.884C390.578 244.884 390.277 244.989 390.031 245.2C389.79 245.411 389.604 245.704 389.475 246.078C389.351 246.453 389.288 246.89 389.288 247.389C389.288 247.881 389.351 248.314 389.475 248.688C389.604 249.063 389.79 249.356 390.031 249.566C390.277 249.777 390.578 249.882 390.933 249.882ZM402.723 247.992V242.883H405.579V251.872H402.852V250.198H402.758C402.559 250.749 402.22 251.186 401.74 251.509C401.264 251.829 400.688 251.989 400.013 251.989C399.401 251.989 398.862 251.849 398.398 251.568C397.934 251.287 397.573 250.895 397.315 250.392C397.058 249.884 396.927 249.291 396.923 248.612V242.883H399.785V248.05C399.789 248.538 399.918 248.922 400.171 249.203C400.425 249.484 400.77 249.625 401.207 249.625C401.492 249.625 401.748 249.562 401.974 249.438C402.204 249.309 402.386 249.123 402.518 248.882C402.655 248.636 402.723 248.339 402.723 247.992ZM412.475 242.883V244.989H406.804V242.883H412.475ZM407.992 240.729H410.854V249.045C410.854 249.221 410.881 249.363 410.936 249.473C410.994 249.578 411.078 249.654 411.188 249.701C411.297 249.744 411.427 249.765 411.58 249.765C411.689 249.765 411.804 249.756 411.925 249.736C412.05 249.713 412.143 249.693 412.206 249.677L412.639 251.743C412.502 251.783 412.309 251.831 412.06 251.89C411.814 251.948 411.519 251.985 411.176 252.001C410.505 252.032 409.929 251.954 409.449 251.767C408.973 251.576 408.608 251.279 408.355 250.877C408.105 250.475 407.984 249.97 407.992 249.361V240.729ZM421.671 245.627L419.043 245.698C419.016 245.51 418.942 245.345 418.821 245.2C418.7 245.052 418.542 244.937 418.347 244.855C418.156 244.769 417.933 244.726 417.68 244.726C417.348 244.726 417.065 244.792 416.831 244.925C416.601 245.058 416.488 245.237 416.492 245.464C416.488 245.639 416.558 245.791 416.702 245.92C416.85 246.049 417.114 246.152 417.492 246.23L419.225 246.558C420.122 246.73 420.789 247.015 421.226 247.412C421.667 247.81 421.89 248.337 421.894 248.993C421.89 249.609 421.706 250.146 421.343 250.602C420.984 251.059 420.493 251.414 419.869 251.667C419.244 251.917 418.53 252.042 417.726 252.042C416.443 252.042 415.43 251.779 414.689 251.252C413.951 250.721 413.53 250.011 413.425 249.121L416.252 249.051C416.314 249.379 416.476 249.629 416.737 249.8C416.999 249.972 417.332 250.058 417.738 250.058C418.105 250.058 418.403 249.99 418.634 249.853C418.864 249.717 418.981 249.535 418.985 249.309C418.981 249.106 418.891 248.944 418.716 248.823C418.54 248.698 418.265 248.601 417.89 248.53L416.322 248.232C415.42 248.068 414.749 247.766 414.308 247.325C413.868 246.88 413.649 246.314 413.653 245.627C413.649 245.027 413.809 244.513 414.133 244.088C414.457 243.659 414.917 243.331 415.514 243.105C416.111 242.879 416.815 242.765 417.627 242.765C418.844 242.765 419.804 243.021 420.506 243.532C421.209 244.039 421.597 244.738 421.671 245.627ZM423.303 251.872V242.883H426.165V251.872H423.303ZM424.737 241.835C424.335 241.835 423.989 241.702 423.701 241.437C423.412 241.168 423.267 240.844 423.267 240.465C423.267 240.091 423.412 239.771 423.701 239.505C423.989 239.236 424.335 239.102 424.737 239.102C425.142 239.102 425.488 239.236 425.772 239.505C426.061 239.771 426.206 240.091 426.206 240.465C426.206 240.844 426.061 241.168 425.772 241.437C425.488 241.702 425.142 241.835 424.737 241.835ZM431.27 252.001C430.606 252.001 430.003 251.829 429.461 251.486C428.919 251.143 428.486 250.628 428.162 249.941C427.838 249.254 427.676 248.402 427.676 247.383C427.676 246.326 427.844 245.456 428.179 244.773C428.515 244.09 428.954 243.585 429.496 243.257C430.042 242.929 430.63 242.765 431.258 242.765C431.73 242.765 432.134 242.847 432.469 243.011C432.805 243.171 433.082 243.378 433.3 243.632C433.519 243.885 433.685 244.149 433.798 244.422H433.856V239.886H436.718V251.872H433.886V250.415H433.798C433.677 250.692 433.505 250.951 433.283 251.193C433.061 251.435 432.782 251.63 432.446 251.779C432.114 251.927 431.722 252.001 431.27 252.001ZM432.265 249.771C432.612 249.771 432.908 249.674 433.154 249.478C433.4 249.28 433.589 249.001 433.722 248.642C433.855 248.283 433.921 247.861 433.921 247.377C433.921 246.886 433.855 246.462 433.722 246.107C433.593 245.752 433.404 245.479 433.154 245.288C432.908 245.097 432.612 245.001 432.265 245.001C431.909 245.001 431.609 245.099 431.363 245.294C431.117 245.489 430.93 245.764 430.801 246.119C430.677 246.474 430.614 246.894 430.614 247.377C430.614 247.861 430.678 248.283 430.807 248.642C430.936 249.001 431.121 249.28 431.363 249.478C431.609 249.674 431.909 249.771 432.265 249.771ZM442.731 252.042C441.79 252.042 440.979 251.857 440.296 251.486C439.617 251.111 439.094 250.579 438.727 249.888C438.365 249.194 438.183 248.368 438.183 247.412C438.183 246.484 438.366 245.672 438.733 244.978C439.1 244.279 439.617 243.737 440.284 243.351C440.951 242.961 441.738 242.765 442.643 242.765C443.283 242.765 443.868 242.865 444.399 243.064C444.929 243.263 445.388 243.558 445.774 243.948C446.16 244.338 446.461 244.82 446.675 245.393C446.89 245.963 446.997 246.617 446.997 247.354V248.068H439.184V246.406H444.334C444.33 246.101 444.258 245.83 444.118 245.592C443.977 245.354 443.784 245.169 443.538 245.036C443.296 244.9 443.017 244.831 442.701 244.831C442.381 244.831 442.095 244.904 441.841 245.048C441.587 245.188 441.386 245.382 441.238 245.627C441.09 245.869 441.012 246.144 441.004 246.453V248.144C441.004 248.511 441.076 248.833 441.221 249.11C441.365 249.383 441.57 249.596 441.835 249.748C442.1 249.9 442.417 249.976 442.783 249.976C443.037 249.976 443.267 249.941 443.474 249.871C443.681 249.8 443.858 249.697 444.007 249.56C444.155 249.424 444.266 249.256 444.34 249.057L446.968 249.133C446.859 249.722 446.619 250.235 446.248 250.672C445.881 251.106 445.399 251.443 444.802 251.685C444.206 251.923 443.515 252.042 442.731 252.042ZM456.196 252.042C455.252 252.042 454.44 251.849 453.762 251.463C453.087 251.072 452.566 250.53 452.199 249.836C451.836 249.137 451.655 248.327 451.655 247.407C451.655 246.482 451.836 245.672 452.199 244.978C452.566 244.279 453.087 243.737 453.762 243.351C454.44 242.961 455.252 242.765 456.196 242.765C457.14 242.765 457.95 242.961 458.625 243.351C459.304 243.737 459.825 244.279 460.188 244.978C460.555 245.672 460.738 246.482 460.738 247.407C460.738 248.327 460.555 249.137 460.188 249.836C459.825 250.53 459.304 251.072 458.625 251.463C457.95 251.849 457.14 252.042 456.196 252.042ZM456.214 249.882C456.557 249.882 456.848 249.777 457.086 249.566C457.324 249.356 457.505 249.063 457.63 248.688C457.759 248.314 457.823 247.881 457.823 247.389C457.823 246.89 457.759 246.453 457.63 246.078C457.505 245.704 457.324 245.411 457.086 245.2C456.848 244.989 456.557 244.884 456.214 244.884C455.859 244.884 455.558 244.989 455.312 245.2C455.071 245.411 454.885 245.704 454.756 246.078C454.632 246.453 454.569 246.89 454.569 247.389C454.569 247.881 454.632 248.314 454.756 248.688C454.885 249.063 455.071 249.356 455.312 249.566C455.558 249.777 455.859 249.882 456.214 249.882ZM467.313 242.883V244.989H461.531V242.883H467.313ZM462.737 251.872V242.426C462.737 241.731 462.867 241.156 463.129 240.699C463.39 240.239 463.753 239.896 464.217 239.669C464.682 239.439 465.218 239.324 465.827 239.324C466.225 239.324 466.599 239.355 466.951 239.418C467.306 239.476 467.569 239.529 467.741 239.576L467.284 241.671C467.179 241.636 467.05 241.607 466.898 241.583C466.75 241.56 466.609 241.548 466.477 241.548C466.141 241.548 465.911 241.622 465.786 241.77C465.661 241.919 465.599 242.122 465.599 242.379V251.872H462.737ZM394.567 265.627L391.939 265.698C391.912 265.51 391.838 265.345 391.717 265.2C391.596 265.052 391.438 264.937 391.243 264.855C391.052 264.769 390.829 264.726 390.576 264.726C390.244 264.726 389.961 264.792 389.727 264.925C389.497 265.058 389.384 265.237 389.388 265.464C389.384 265.639 389.454 265.791 389.598 265.92C389.747 266.049 390.01 266.152 390.388 266.23L392.121 266.558C393.018 266.73 393.686 267.015 394.123 267.412C394.563 267.81 394.786 268.337 394.79 268.993C394.786 269.609 394.602 270.146 394.24 270.602C393.881 271.059 393.389 271.414 392.765 271.667C392.14 271.917 391.426 272.042 390.623 272.042C389.339 272.042 388.326 271.779 387.585 271.252C386.848 270.721 386.426 270.011 386.321 269.121L389.148 269.051C389.21 269.379 389.372 269.629 389.633 269.8C389.895 269.972 390.229 270.058 390.634 270.058C391.001 270.058 391.3 269.99 391.53 269.853C391.76 269.717 391.877 269.535 391.881 269.309C391.877 269.106 391.787 268.944 391.612 268.823C391.436 268.698 391.161 268.601 390.786 268.53L389.218 268.232C388.317 268.068 387.646 267.766 387.205 267.325C386.764 266.88 386.545 266.314 386.549 265.627C386.545 265.027 386.705 264.513 387.029 264.088C387.353 263.659 387.813 263.331 388.41 263.105C389.007 262.879 389.712 262.765 390.523 262.765C391.74 262.765 392.7 263.021 393.403 263.532C394.105 264.039 394.493 264.738 394.567 265.627ZM400.395 272.042C399.447 272.042 398.633 271.847 397.955 271.457C397.28 271.067 396.761 270.524 396.398 269.83C396.035 269.131 395.853 268.324 395.853 267.407C395.853 266.486 396.035 265.678 396.398 264.984C396.765 264.285 397.285 263.741 397.96 263.351C398.639 262.961 399.449 262.765 400.389 262.765C401.22 262.765 401.944 262.916 402.561 263.216C403.181 263.517 403.665 263.942 404.012 264.492C404.363 265.038 404.549 265.68 404.568 266.418H401.893C401.839 265.957 401.683 265.596 401.425 265.335C401.172 265.073 400.84 264.943 400.43 264.943C400.099 264.943 399.808 265.036 399.558 265.224C399.308 265.407 399.113 265.68 398.973 266.043C398.836 266.402 398.768 266.847 398.768 267.377C398.768 267.908 398.836 268.357 398.973 268.724C399.113 269.086 399.308 269.361 399.558 269.549C399.808 269.732 400.099 269.824 400.43 269.824C400.696 269.824 400.93 269.767 401.133 269.654C401.339 269.541 401.509 269.375 401.642 269.157C401.774 268.934 401.858 268.665 401.893 268.349H404.568C404.541 269.09 404.355 269.738 404.012 270.292C403.673 270.846 403.195 271.277 402.578 271.585C401.966 271.89 401.238 272.042 400.395 272.042ZM408.895 266.745V271.872H406.033V259.886H408.801V264.533H408.901C409.103 263.979 409.435 263.546 409.896 263.234C410.36 262.922 410.928 262.765 411.599 262.765C412.231 262.765 412.781 262.906 413.249 263.187C413.717 263.464 414.08 263.856 414.338 264.363C414.599 264.87 414.728 265.464 414.724 266.142V271.872H411.862V266.704C411.866 266.205 411.741 265.815 411.487 265.534C411.234 265.253 410.877 265.112 410.416 265.112C410.116 265.112 409.851 265.179 409.62 265.311C409.394 265.44 409.217 265.625 409.088 265.867C408.963 266.109 408.899 266.402 408.895 266.745ZM420.707 272.042C419.763 272.042 418.951 271.849 418.272 271.463C417.597 271.072 417.076 270.53 416.71 269.836C416.347 269.137 416.165 268.327 416.165 267.407C416.165 266.482 416.347 265.672 416.71 264.978C417.076 264.279 417.597 263.737 418.272 263.351C418.951 262.961 419.763 262.765 420.707 262.765C421.651 262.765 422.461 262.961 423.136 263.351C423.815 263.737 424.336 264.279 424.698 264.978C425.065 265.672 425.249 266.482 425.249 267.407C425.249 268.327 425.065 269.137 424.698 269.836C424.336 270.53 423.815 271.072 423.136 271.463C422.461 271.849 421.651 272.042 420.707 272.042ZM420.724 269.882C421.068 269.882 421.359 269.777 421.597 269.566C421.835 269.356 422.016 269.063 422.141 268.688C422.27 268.314 422.334 267.881 422.334 267.389C422.334 266.89 422.27 266.453 422.141 266.078C422.016 265.704 421.835 265.411 421.597 265.2C421.359 264.989 421.068 264.884 420.724 264.884C420.369 264.884 420.069 264.989 419.823 265.2C419.581 265.411 419.396 265.704 419.267 266.078C419.142 266.453 419.08 266.89 419.08 267.389C419.08 267.881 419.142 268.314 419.267 268.688C419.396 269.063 419.581 269.356 419.823 269.566C420.069 269.777 420.369 269.882 420.724 269.882ZM430.911 272.042C429.967 272.042 429.155 271.849 428.476 271.463C427.801 271.072 427.28 270.53 426.914 269.836C426.551 269.137 426.369 268.327 426.369 267.407C426.369 266.482 426.551 265.672 426.914 264.978C427.28 264.279 427.801 263.737 428.476 263.351C429.155 262.961 429.967 262.765 430.911 262.765C431.855 262.765 432.665 262.961 433.34 263.351C434.019 263.737 434.54 264.279 434.903 264.978C435.269 265.672 435.453 266.482 435.453 267.407C435.453 268.327 435.269 269.137 434.903 269.836C434.54 270.53 434.019 271.072 433.34 271.463C432.665 271.849 431.855 272.042 430.911 272.042ZM430.929 269.882C431.272 269.882 431.563 269.777 431.801 269.566C432.039 269.356 432.22 269.063 432.345 268.688C432.474 268.314 432.538 267.881 432.538 267.389C432.538 266.89 432.474 266.453 432.345 266.078C432.22 265.704 432.039 265.411 431.801 265.2C431.563 264.989 431.272 264.884 430.929 264.884C430.574 264.884 430.273 264.989 430.027 265.2C429.785 265.411 429.6 265.704 429.471 266.078C429.346 266.453 429.284 266.89 429.284 267.389C429.284 267.881 429.346 268.314 429.471 268.688C429.6 269.063 429.785 269.356 430.027 269.566C430.273 269.777 430.574 269.882 430.929 269.882ZM439.781 259.886V271.872H436.919V259.886H439.781Z" fill="url(#paint2_linear_103_561)"/>
<g filter="url(#filter2_d_103_561)">
<circle cx="319.5" cy="329.5" r="51.5" fill="white"/>
</g>
<path d="M299.055 310.503C298.998 310.291 298.913 310.103 298.802 309.941C298.69 309.775 298.553 309.635 298.391 309.52C298.229 309.405 298.043 309.319 297.834 309.261C297.624 309.2 297.394 309.17 297.144 309.17C296.64 309.17 296.204 309.292 295.836 309.535C295.471 309.778 295.189 310.133 294.989 310.6C294.79 311.063 294.69 311.626 294.69 312.288C294.69 312.954 294.786 313.522 294.979 313.992C295.172 314.461 295.451 314.82 295.816 315.067C296.181 315.313 296.624 315.437 297.144 315.437C297.604 315.437 297.992 315.362 298.31 315.214C298.631 315.061 298.875 314.847 299.04 314.57C299.206 314.292 299.289 313.966 299.289 313.591L299.755 313.647H297.23V311.817H301.707V313.191C301.707 314.12 301.509 314.916 301.114 315.579C300.722 316.241 300.181 316.75 299.491 317.105C298.805 317.46 298.016 317.637 297.124 317.637C296.133 317.637 295.263 317.422 294.513 316.993C293.762 316.564 293.178 315.952 292.758 315.158C292.339 314.36 292.13 313.414 292.13 312.319C292.13 311.467 292.257 310.711 292.51 310.052C292.764 309.39 293.117 308.829 293.57 308.369C294.026 307.909 294.553 307.561 295.152 307.325C295.753 307.088 296.4 306.97 297.093 306.97C297.695 306.97 298.254 307.056 298.772 307.228C299.292 307.401 299.752 307.644 300.151 307.958C300.553 308.273 300.879 308.646 301.129 309.079C301.379 309.511 301.535 309.986 301.596 310.503H299.055ZM303.186 317.495V307.112H307.475C308.253 307.112 308.924 307.264 309.488 307.568C310.056 307.869 310.494 308.29 310.801 308.83C311.109 309.368 311.263 309.993 311.263 310.706C311.263 311.423 311.106 312.05 310.791 312.587C310.48 313.121 310.036 313.535 309.458 313.829C308.88 314.123 308.194 314.271 307.399 314.271H304.753V312.293H306.933C307.312 312.293 307.628 312.227 307.881 312.095C308.138 311.964 308.332 311.779 308.464 311.543C308.596 311.303 308.662 311.024 308.662 310.706C308.662 310.385 308.596 310.108 308.464 309.875C308.332 309.638 308.138 309.456 307.881 309.327C307.624 309.199 307.308 309.135 306.933 309.135H305.696V317.495H303.186ZM313.491 317.495H310.794L314.297 307.112H317.638L321.142 317.495H318.445L316.006 309.728H315.925L313.491 317.495ZM313.131 313.409H318.769V315.315H313.131V313.409ZM324.79 316.075L324.744 316.638C324.703 317.105 324.621 317.559 324.496 318.002C324.374 318.448 324.244 318.849 324.105 319.204C323.967 319.559 323.857 319.834 323.776 320.03H322.214C322.268 319.834 322.341 319.559 322.432 319.204C322.527 318.849 322.615 318.448 322.696 318.002C322.777 317.556 322.823 317.103 322.833 316.643L322.843 316.075H324.79ZM297.854 327.225C297.82 326.853 297.67 326.564 297.403 326.358C297.139 326.148 296.762 326.043 296.272 326.043C295.947 326.043 295.677 326.086 295.461 326.17C295.244 326.255 295.082 326.371 294.974 326.52C294.866 326.665 294.81 326.833 294.807 327.022C294.8 327.177 294.83 327.314 294.898 327.432C294.969 327.551 295.07 327.656 295.202 327.747C295.337 327.835 295.5 327.912 295.689 327.98C295.878 328.048 296.091 328.107 296.328 328.158L297.22 328.36C297.734 328.472 298.187 328.621 298.579 328.806C298.974 328.992 299.306 329.214 299.573 329.471C299.843 329.728 300.047 330.023 300.186 330.358C300.325 330.693 300.396 331.068 300.399 331.483C300.396 332.139 300.23 332.702 299.902 333.172C299.574 333.642 299.103 334.002 298.488 334.252C297.876 334.502 297.137 334.627 296.272 334.627C295.403 334.627 294.646 334.497 294.001 334.236C293.355 333.976 292.853 333.581 292.495 333.05C292.137 332.519 291.952 331.848 291.942 331.037H294.345C294.366 331.372 294.455 331.651 294.614 331.874C294.773 332.097 294.991 332.266 295.268 332.381C295.549 332.496 295.873 332.553 296.242 332.553C296.58 332.553 296.867 332.508 297.103 332.416C297.343 332.325 297.528 332.198 297.656 332.036C297.785 331.874 297.85 331.688 297.854 331.478C297.85 331.282 297.79 331.115 297.671 330.976C297.553 330.834 297.37 330.713 297.124 330.611C296.88 330.507 296.569 330.41 296.191 330.322L295.106 330.069C294.207 329.863 293.499 329.53 292.982 329.07C292.464 328.607 292.208 327.982 292.211 327.194C292.208 326.552 292.38 325.989 292.728 325.506C293.076 325.023 293.558 324.646 294.173 324.375C294.788 324.105 295.49 323.97 296.277 323.97C297.081 323.97 297.779 324.107 298.371 324.38C298.966 324.651 299.427 325.031 299.755 325.521C300.083 326.011 300.25 326.579 300.257 327.225H297.854ZM303.592 334.495H300.895L304.398 324.112H307.739L311.243 334.495H308.545L306.107 326.728H306.025L303.592 334.495ZM303.232 330.409H308.87V332.315H303.232V330.409ZM310.724 326.15V324.112H319.5V326.15H316.352V334.495H313.878V326.15H310.724ZM324.403 323.625L321.057 336.057H318.943L322.289 323.625H324.403ZM327.573 334.495H324.876L328.379 324.112H331.72L335.224 334.495H332.527L330.088 326.728H330.007L327.573 334.495ZM327.213 330.409H332.851V332.315H327.213V330.409ZM345.279 327.874H342.744C342.71 327.613 342.641 327.378 342.536 327.169C342.431 326.959 342.293 326.78 342.12 326.631C341.948 326.483 341.743 326.369 341.507 326.292C341.274 326.211 341.015 326.17 340.731 326.17C340.228 326.17 339.793 326.293 339.428 326.54C339.066 326.787 338.788 327.144 338.592 327.61C338.399 328.076 338.303 328.641 338.303 329.303C338.303 329.993 338.401 330.571 338.597 331.037C338.796 331.5 339.075 331.85 339.433 332.087C339.795 332.32 340.222 332.437 340.716 332.437C340.993 332.437 341.245 332.401 341.471 332.33C341.701 332.259 341.902 332.156 342.075 332.021C342.25 331.882 342.394 331.715 342.506 331.519C342.621 331.32 342.7 331.095 342.744 330.845L345.279 330.86C345.235 331.32 345.102 331.772 344.878 332.219C344.659 332.665 344.356 333.072 343.971 333.44C343.586 333.806 343.116 334.096 342.561 334.313C342.01 334.529 341.378 334.637 340.665 334.637C339.726 334.637 338.884 334.431 338.14 334.018C337.4 333.603 336.815 332.998 336.386 332.203C335.957 331.409 335.742 330.442 335.742 329.303C335.742 328.161 335.96 327.193 336.396 326.398C336.832 325.604 337.422 325.001 338.166 324.588C338.909 324.176 339.742 323.97 340.665 323.97C341.294 323.97 341.875 324.058 342.409 324.233C342.943 324.406 343.413 324.659 343.819 324.994C344.224 325.325 344.554 325.732 344.807 326.216C345.061 326.699 345.218 327.252 345.279 327.874ZM346.375 326.15V324.112H355.152V326.15H352.003V334.495H349.529V326.15H346.375ZM297.854 344.225C297.82 343.853 297.67 343.564 297.403 343.358C297.139 343.148 296.762 343.043 296.272 343.043C295.947 343.043 295.677 343.086 295.461 343.17C295.244 343.255 295.082 343.371 294.974 343.52C294.866 343.665 294.81 343.833 294.807 344.022C294.8 344.177 294.83 344.314 294.898 344.432C294.969 344.551 295.07 344.656 295.202 344.747C295.337 344.835 295.5 344.912 295.689 344.98C295.878 345.048 296.091 345.107 296.328 345.158L297.22 345.36C297.734 345.472 298.187 345.621 298.579 345.806C298.974 345.992 299.306 346.214 299.573 346.471C299.843 346.728 300.047 347.023 300.186 347.358C300.325 347.693 300.396 348.068 300.399 348.483C300.396 349.139 300.23 349.702 299.902 350.172C299.574 350.642 299.103 351.002 298.488 351.252C297.876 351.502 297.137 351.627 296.272 351.627C295.403 351.627 294.646 351.497 294.001 351.236C293.355 350.976 292.853 350.581 292.495 350.05C292.137 349.519 291.952 348.848 291.942 348.037H294.345C294.366 348.372 294.455 348.651 294.614 348.874C294.773 349.097 294.991 349.266 295.268 349.381C295.549 349.496 295.873 349.553 296.242 349.553C296.58 349.553 296.867 349.508 297.103 349.416C297.343 349.325 297.528 349.198 297.656 349.036C297.785 348.874 297.85 348.688 297.854 348.478C297.85 348.282 297.79 348.115 297.671 347.976C297.553 347.834 297.37 347.713 297.124 347.611C296.88 347.507 296.569 347.41 296.191 347.322L295.106 347.069C294.207 346.863 293.499 346.53 292.982 346.07C292.464 345.607 292.208 344.982 292.211 344.194C292.208 343.552 292.38 342.989 292.728 342.506C293.076 342.023 293.558 341.646 294.173 341.375C294.788 341.105 295.49 340.97 296.277 340.97C297.081 340.97 297.779 341.107 298.371 341.38C298.966 341.651 299.427 342.031 299.755 342.521C300.083 343.011 300.25 343.579 300.257 344.225H297.854ZM305.302 351.642C304.48 351.642 303.776 351.473 303.188 351.135C302.603 350.797 302.153 350.327 301.839 349.726C301.525 349.121 301.367 348.421 301.367 347.627C301.367 346.829 301.525 346.129 301.839 345.528C302.157 344.923 302.608 344.451 303.193 344.113C303.781 343.775 304.482 343.606 305.297 343.606C306.017 343.606 306.644 343.736 307.178 343.996C307.715 344.257 308.134 344.625 308.435 345.102C308.739 345.575 308.9 346.131 308.917 346.77H306.6C306.552 346.371 306.417 346.058 306.194 345.832C305.974 345.605 305.687 345.492 305.332 345.492C305.045 345.492 304.793 345.573 304.577 345.735C304.36 345.894 304.191 346.131 304.07 346.445C303.951 346.756 303.892 347.142 303.892 347.601C303.892 348.061 303.951 348.45 304.07 348.767C304.191 349.082 304.36 349.32 304.577 349.482C304.793 349.641 305.045 349.721 305.332 349.721C305.562 349.721 305.765 349.672 305.941 349.574C306.12 349.475 306.267 349.332 306.382 349.143C306.497 348.95 306.569 348.717 306.6 348.443H308.917C308.893 349.085 308.732 349.646 308.435 350.126C308.141 350.606 307.727 350.98 307.193 351.247C306.662 351.51 306.032 351.642 305.302 351.642ZM313.821 351.642C313.003 351.642 312.3 351.475 311.712 351.14C311.127 350.802 310.676 350.332 310.358 349.731C310.043 349.126 309.886 348.424 309.886 347.627C309.886 346.826 310.043 346.124 310.358 345.523C310.676 344.918 311.127 344.448 311.712 344.113C312.3 343.775 313.003 343.606 313.821 343.606C314.639 343.606 315.34 343.775 315.925 344.113C316.513 344.448 316.964 344.918 317.278 345.523C317.596 346.124 317.755 346.826 317.755 347.627C317.755 348.424 317.596 349.126 317.278 349.731C316.964 350.332 316.513 350.802 315.925 351.14C315.34 351.475 314.639 351.642 313.821 351.642ZM313.836 349.771C314.133 349.771 314.385 349.68 314.591 349.497C314.797 349.315 314.955 349.061 315.063 348.737C315.174 348.412 315.23 348.037 315.23 347.611C315.23 347.179 315.174 346.8 315.063 346.476C314.955 346.151 314.797 345.898 314.591 345.715C314.385 345.533 314.133 345.441 313.836 345.441C313.528 345.441 313.268 345.533 313.055 345.715C312.846 345.898 312.685 346.151 312.573 346.476C312.465 346.8 312.411 347.179 312.411 347.611C312.411 348.037 312.465 348.412 312.573 348.737C312.685 349.061 312.846 349.315 313.055 349.497C313.268 349.68 313.528 349.771 313.836 349.771ZM319.025 351.495V343.707H321.433V345.127H321.514C321.656 344.613 321.888 344.231 322.209 343.981C322.53 343.728 322.904 343.601 323.33 343.601C323.444 343.601 323.563 343.609 323.684 343.626C323.806 343.64 323.919 343.662 324.024 343.692V345.847C323.906 345.806 323.75 345.774 323.558 345.751C323.368 345.727 323.199 345.715 323.051 345.715C322.757 345.715 322.491 345.781 322.255 345.913C322.021 346.041 321.837 346.222 321.702 346.455C321.57 346.685 321.504 346.956 321.504 347.267V351.495H319.025ZM328.27 351.642C327.456 351.642 326.753 351.482 326.161 351.16C325.573 350.836 325.12 350.375 324.802 349.776C324.488 349.175 324.331 348.46 324.331 347.632C324.331 346.827 324.49 346.124 324.807 345.523C325.125 344.918 325.573 344.448 326.151 344.113C326.729 343.775 327.41 343.606 328.194 343.606C328.749 343.606 329.256 343.692 329.715 343.865C330.175 344.037 330.572 344.292 330.907 344.63C331.241 344.968 331.502 345.386 331.687 345.883C331.873 346.376 331.966 346.942 331.966 347.581V348.2H325.198V346.76H329.659C329.656 346.496 329.594 346.261 329.472 346.055C329.35 345.849 329.183 345.688 328.97 345.573C328.76 345.455 328.519 345.396 328.245 345.396C327.968 345.396 327.719 345.458 327.5 345.583C327.28 345.705 327.106 345.872 326.977 346.085C326.849 346.295 326.781 346.533 326.775 346.8V348.265C326.775 348.583 326.837 348.862 326.962 349.102C327.087 349.339 327.265 349.523 327.495 349.655C327.724 349.786 327.998 349.852 328.316 349.852C328.536 349.852 328.735 349.822 328.914 349.761C329.093 349.7 329.247 349.611 329.376 349.492C329.504 349.374 329.6 349.229 329.665 349.056L331.941 349.122C331.846 349.633 331.638 350.077 331.317 350.456C331 350.831 330.582 351.123 330.065 351.333C329.548 351.539 328.95 351.642 328.27 351.642Z" fill="url(#paint3_linear_103_561)"/>
<g filter="url(#filter3_dddd_103_561)">
<rect x="71" y="46" width="278.055" height="43.42" rx="6.68" fill="#FAFAFC"/>
<path d="M112.844 71.1227L110.486 62.6209H111.835L113.491 69.2048H113.57L115.293 62.6209H116.63L118.352 69.2089H118.431L120.084 62.6209H121.437L119.075 71.1227H117.784L115.995 64.7546H115.928L114.139 71.1227H112.844ZM122.507 71.1227V64.7463H123.748V71.1227H122.507ZM123.134 63.7625C122.918 63.7625 122.732 63.6905 122.577 63.5466C122.425 63.3999 122.349 63.2256 122.349 63.0235C122.349 62.8187 122.425 62.6444 122.577 62.5005C122.732 62.3538 122.918 62.2805 123.134 62.2805C123.35 62.2805 123.534 62.3538 123.686 62.5005C123.841 62.6444 123.918 62.8187 123.918 63.0235C123.918 63.2256 123.841 63.3999 123.686 63.5466C123.534 63.6905 123.35 63.7625 123.134 63.7625ZM126.659 62.6209V71.1227H125.418V62.6209H126.659ZM129.57 62.6209V71.1227H128.329V62.6209H129.57ZM135.716 62.6209V71.1227H134.433V62.6209H135.716ZM143.252 73.6467C142.745 73.6467 142.309 73.5802 141.944 73.4474C141.582 73.3146 141.285 73.1388 141.056 72.9202C140.826 72.7016 140.654 72.4622 140.541 72.202L141.608 71.762C141.683 71.8837 141.782 72.0124 141.907 72.148C142.034 72.2864 142.206 72.404 142.422 72.5009C142.64 72.5978 142.921 72.6462 143.264 72.6462C143.735 72.6462 144.124 72.5313 144.431 72.3016C144.738 72.0747 144.892 71.7122 144.892 71.214V69.9603H144.813C144.738 70.0959 144.63 70.2468 144.489 70.4128C144.351 70.5789 144.16 70.7228 143.916 70.8445C143.672 70.9663 143.356 71.0272 142.965 71.0272C142.462 71.0272 142.008 70.9096 141.604 70.6743C141.202 70.4363 140.884 70.0862 140.649 69.6241C140.416 69.1591 140.3 68.5876 140.3 67.9096C140.3 67.2315 140.415 66.6504 140.645 66.1661C140.877 65.6817 141.196 65.3109 141.6 65.0535C142.004 64.7934 142.462 64.6633 142.974 64.6633C143.369 64.6633 143.689 64.7297 143.933 64.8626C144.176 64.9926 144.366 65.1448 144.501 65.3192C144.64 65.4935 144.746 65.6471 144.821 65.78H144.912V64.7463H146.129V71.2638C146.129 71.8118 146.001 72.2615 145.747 72.613C145.492 72.9645 145.148 73.2246 144.713 73.3934C144.281 73.5622 143.794 73.6467 143.252 73.6467ZM143.239 69.9977C143.596 69.9977 143.898 69.9147 144.144 69.7486C144.393 69.5798 144.582 69.339 144.709 69.0263C144.839 68.7108 144.904 68.333 144.904 67.893C144.904 67.464 144.84 67.0863 144.713 66.7597C144.586 66.4331 144.399 66.1785 144.153 65.9959C143.906 65.8104 143.602 65.7177 143.239 65.7177C142.866 65.7177 142.554 65.8146 142.305 66.0083C142.056 66.1993 141.868 66.4594 141.741 66.7887C141.616 67.1181 141.554 67.4862 141.554 67.893C141.554 68.3109 141.618 68.6776 141.745 68.9931C141.872 69.3086 142.06 69.5549 142.309 69.732C142.561 69.9091 142.871 69.9977 143.239 69.9977ZM150.541 71.2514C149.913 71.2514 149.372 71.1171 148.918 70.8487C148.467 70.5775 148.118 70.1969 147.872 69.7071C147.629 69.2145 147.507 68.6374 147.507 67.976C147.507 67.3229 147.629 66.7472 147.872 66.2491C148.118 65.7509 148.462 65.3621 148.902 65.0826C149.345 64.8031 149.862 64.6633 150.454 64.6633C150.814 64.6633 151.163 64.7228 151.5 64.8418C151.838 64.9608 152.141 65.1476 152.41 65.4022C152.678 65.6568 152.89 65.9875 153.045 66.3944C153.2 66.7984 153.277 67.2897 153.277 67.8681V68.3081H148.208V67.3782H152.061C152.061 67.0517 151.994 66.7625 151.862 66.5106C151.729 66.256 151.542 66.0554 151.301 65.9087C151.063 65.762 150.784 65.6887 150.463 65.6887C150.114 65.6887 149.809 65.7745 149.549 65.946C149.292 66.1149 149.093 66.3363 148.952 66.6102C148.813 66.8815 148.744 67.1762 148.744 67.4945V68.2209C148.744 68.6471 148.819 69.0097 148.968 69.3086C149.12 69.6075 149.332 69.8358 149.603 69.9935C149.874 70.1485 150.191 70.226 150.554 70.226C150.789 70.226 151.004 70.1928 151.197 70.1264C151.391 70.0572 151.559 69.9548 151.7 69.8192C151.841 69.6836 151.949 69.5161 152.023 69.3169L153.198 69.5286C153.104 69.8745 152.935 70.1776 152.692 70.4377C152.451 70.6951 152.148 70.8957 151.783 71.0397C151.42 71.1808 151.006 71.2514 150.541 71.2514ZM157.631 64.7463V65.7426H154.148V64.7463H157.631ZM155.082 63.2186H156.323V69.2505C156.323 69.4912 156.359 69.6725 156.431 69.7943C156.503 69.9133 156.596 69.9949 156.709 70.0392C156.825 70.0807 156.951 70.1015 157.087 70.1015C157.187 70.1015 157.274 70.0945 157.349 70.0807C157.423 70.0669 157.481 70.0558 157.523 70.0475L157.747 71.0729C157.675 71.1005 157.573 71.1282 157.44 71.1559C157.307 71.1863 157.141 71.2029 156.942 71.2057C156.615 71.2112 156.311 71.1531 156.028 71.0314C155.746 70.9096 155.518 70.7214 155.343 70.4668C155.169 70.2122 155.082 69.8925 155.082 69.5078V63.2186ZM162.098 71.1227V64.7463H163.339V71.1227H162.098ZM162.724 63.7625C162.509 63.7625 162.323 63.6905 162.168 63.5466C162.016 63.3999 161.94 63.2256 161.94 63.0235C161.94 62.8187 162.016 62.6444 162.168 62.5005C162.323 62.3538 162.509 62.2805 162.724 62.2805C162.94 62.2805 163.124 62.3538 163.277 62.5005C163.432 62.6444 163.509 62.8187 163.509 63.0235C163.509 63.2256 163.432 63.3999 163.277 63.5466C163.124 63.6905 162.94 63.7625 162.724 63.7625ZM166.25 67.3367V71.1227H165.009V64.7463H166.2V65.7841H166.279C166.426 65.4465 166.655 65.1753 166.968 64.9705C167.284 64.7657 167.681 64.6633 168.159 64.6633C168.594 64.6633 168.975 64.7546 169.301 64.9373C169.628 65.1172 169.881 65.3856 170.061 65.7426C170.241 66.0996 170.331 66.5411 170.331 67.0669V71.1227H169.089V67.2163C169.089 66.7542 168.969 66.393 168.728 66.1328C168.487 65.8699 168.157 65.7385 167.736 65.7385C167.448 65.7385 167.192 65.8007 166.968 65.9253C166.747 66.0498 166.571 66.2325 166.441 66.4732C166.314 66.7113 166.25 66.9991 166.25 67.3367ZM174.972 64.7463V65.7426H171.489V64.7463H174.972ZM172.423 63.2186H173.664V69.2505C173.664 69.4912 173.7 69.6725 173.772 69.7943C173.844 69.9133 173.937 69.9949 174.05 70.0392C174.166 70.0807 174.292 70.1015 174.428 70.1015C174.528 70.1015 174.615 70.0945 174.689 70.0807C174.764 70.0669 174.822 70.0558 174.864 70.0475L175.088 71.0729C175.016 71.1005 174.914 71.1282 174.781 71.1559C174.648 71.1863 174.482 71.2029 174.283 71.2057C173.956 71.2112 173.652 71.1531 173.369 71.0314C173.087 70.9096 172.859 70.7214 172.684 70.4668C172.51 70.2122 172.423 69.8925 172.423 69.5078V63.2186ZM178.962 71.2514C178.364 71.2514 177.843 71.1144 177.397 70.8404C176.952 70.5664 176.606 70.1831 176.359 69.6905C176.113 69.1979 175.99 68.6222 175.99 67.9636C175.99 67.3021 176.113 66.7237 176.359 66.2283C176.606 65.7329 176.952 65.3483 177.397 65.0743C177.843 64.8003 178.364 64.6633 178.962 64.6633C179.56 64.6633 180.082 64.8003 180.527 65.0743C180.973 65.3483 181.319 65.7329 181.565 66.2283C181.811 66.7237 181.934 67.3021 181.934 67.9636C181.934 68.6222 181.811 69.1979 181.565 69.6905C181.319 70.1831 180.973 70.5664 180.527 70.8404C180.082 71.1144 179.56 71.2514 178.962 71.2514ZM178.966 70.2094C179.354 70.2094 179.675 70.107 179.929 69.9022C180.184 69.6974 180.372 69.4248 180.494 69.0844C180.619 68.744 180.681 68.369 180.681 67.9594C180.681 67.5526 180.619 67.179 180.494 66.8386C180.372 66.4954 180.184 66.22 179.929 66.0125C179.675 65.8049 179.354 65.7011 178.966 65.7011C178.576 65.7011 178.252 65.8049 177.995 66.0125C177.74 66.22 177.551 66.4954 177.426 66.8386C177.304 67.179 177.244 67.5526 177.244 67.9594C177.244 68.369 177.304 68.744 177.426 69.0844C177.551 69.4248 177.74 69.6974 177.995 69.9022C178.252 70.107 178.576 70.2094 178.966 70.2094ZM191.981 62.6209H193.267V68.2126C193.267 68.8077 193.128 69.3349 192.848 69.7943C192.569 70.2509 192.176 70.6107 191.669 70.8736C191.163 71.1338 190.569 71.2638 189.888 71.2638C189.21 71.2638 188.618 71.1338 188.112 70.8736C187.605 70.6107 187.212 70.2509 186.933 69.7943C186.653 69.3349 186.513 68.8077 186.513 68.2126V62.6209H187.796V68.1089C187.796 68.4935 187.88 68.8353 188.049 69.1342C188.221 69.4331 188.463 69.6683 188.776 69.8399C189.088 70.0088 189.459 70.0932 189.888 70.0932C190.32 70.0932 190.692 70.0088 191.005 69.8399C191.32 69.6683 191.561 69.4331 191.727 69.1342C191.896 68.8353 191.981 68.4935 191.981 68.1089V62.6209ZM196.797 71.1227L194.439 62.6209H195.788L197.445 69.2048H197.524L199.246 62.6209H200.583L202.306 69.2089H202.385L204.037 62.6209H205.39L203.028 71.1227H201.737L199.948 64.7546H199.881L198.092 71.1227H196.797ZM216.715 65.3856H215.42C215.37 65.1089 215.277 64.8653 215.142 64.655C215.006 64.4447 214.84 64.2662 214.643 64.1195C214.447 63.9728 214.227 63.8621 213.983 63.7874C213.743 63.7126 213.487 63.6753 213.215 63.6753C212.726 63.6753 212.287 63.7984 211.899 64.0448C211.515 64.2911 211.21 64.6522 210.986 65.1282C210.765 65.6042 210.654 66.1854 210.654 66.8718C210.654 67.5637 210.765 68.1476 210.986 68.6236C211.21 69.0996 211.516 69.4594 211.904 69.7029C212.291 69.9465 212.727 70.0683 213.211 70.0683C213.48 70.0683 213.734 70.0323 213.975 69.9603C214.219 69.8856 214.439 69.7763 214.635 69.6324C214.832 69.4885 214.998 69.3127 215.133 69.1052C215.272 68.8948 215.367 68.6541 215.42 68.3828L216.715 68.387C216.646 68.8049 216.511 69.1896 216.312 69.541C216.116 69.8898 215.863 70.1914 215.553 70.446C215.245 70.6979 214.894 70.893 214.498 71.0314C214.102 71.1697 213.671 71.2389 213.203 71.2389C212.467 71.2389 211.811 71.0646 211.235 70.7159C210.66 70.3644 210.206 69.8621 209.874 69.2089C209.544 68.5558 209.38 67.7768 209.38 66.8718C209.38 65.964 209.546 65.185 209.878 64.5346C210.21 63.8815 210.664 63.3805 211.239 63.0318C211.815 62.6804 212.47 62.5046 213.203 62.5046C213.654 62.5046 214.075 62.5697 214.465 62.6997C214.858 62.827 215.211 63.0152 215.523 63.2643C215.836 63.5106 216.095 63.8123 216.3 64.1693C216.505 64.5235 216.643 64.929 216.715 65.3856ZM222.887 64.8543C222.843 64.4613 222.66 64.1568 222.339 63.941C222.018 63.7223 221.614 63.613 221.127 63.613C220.778 63.613 220.476 63.6684 220.222 63.7791C219.967 63.887 219.769 64.0364 219.628 64.2274C219.49 64.4156 219.421 64.6301 219.421 64.8709C219.421 65.0729 219.468 65.2472 219.562 65.3939C219.659 65.5406 219.784 65.6637 219.939 65.7634C220.097 65.8602 220.266 65.9419 220.446 66.0083C220.626 66.072 220.799 66.1245 220.965 66.1661L221.795 66.3819C222.066 66.4483 222.344 66.5383 222.629 66.6518C222.914 66.7652 223.179 66.9147 223.422 67.1001C223.666 67.2855 223.862 67.5152 224.012 67.7892C224.164 68.0632 224.24 68.3911 224.24 68.7731C224.24 69.2546 224.116 69.6822 223.867 70.0558C223.62 70.4294 223.262 70.7242 222.791 70.94C222.324 71.1559 221.758 71.2638 221.093 71.2638C220.457 71.2638 219.906 71.1628 219.441 70.9608C218.976 70.7588 218.612 70.4723 218.349 70.1015C218.087 69.7279 217.941 69.285 217.914 68.7731H219.2C219.225 69.0803 219.325 69.3362 219.499 69.541C219.676 69.7431 219.902 69.8939 220.176 69.9935C220.453 70.0904 220.756 70.1388 221.085 70.1388C221.448 70.1388 221.77 70.0821 222.052 69.9686C222.337 69.8524 222.562 69.6919 222.725 69.4871C222.888 69.2795 222.97 69.0374 222.97 68.7606C222.97 68.5088 222.898 68.3026 222.754 68.1421C222.613 67.9815 222.42 67.8487 222.177 67.7435C221.936 67.6384 221.664 67.5457 221.359 67.4654L220.355 67.1914C219.674 67.006 219.134 66.7334 218.736 66.3736C218.34 66.0138 218.142 65.5378 218.142 64.9456C218.142 64.4557 218.275 64.0281 218.54 63.6628C218.806 63.2975 219.166 63.0139 219.62 62.8118C220.074 62.607 220.586 62.5046 221.156 62.5046C221.731 62.5046 222.239 62.6056 222.679 62.8077C223.122 63.0097 223.471 63.2878 223.725 63.6421C223.98 63.9936 224.113 64.3976 224.124 64.8543H222.887ZM227.031 68.6776V68.5987C227.036 68.0839 227.088 67.6744 227.184 67.3699C227.284 67.0655 227.425 66.8192 227.608 66.631C227.791 66.4428 228.011 66.2712 228.268 66.1162C228.434 66.0111 228.583 65.8935 228.716 65.7634C228.849 65.6333 228.954 65.4839 229.032 65.315C229.109 65.1462 229.148 64.9594 229.148 64.7546C229.148 64.5083 229.09 64.2952 228.974 64.1153C228.857 63.9354 228.702 63.7971 228.509 63.7002C228.318 63.6006 228.105 63.5507 227.869 63.5507C227.656 63.5507 227.453 63.595 227.259 63.6836C227.065 63.7722 226.905 63.9105 226.778 64.0987C226.65 64.2841 226.577 64.5235 226.558 64.8169H225.296C225.315 64.3187 225.441 63.8981 225.673 63.5549C225.906 63.209 226.213 62.9474 226.595 62.7703C226.98 62.5932 227.404 62.5046 227.869 62.5046C228.379 62.5046 228.824 62.6001 229.206 62.7911C229.588 62.9793 229.884 63.2436 230.094 63.584C230.308 63.9216 230.414 64.316 230.414 64.7671C230.414 65.077 230.366 65.3566 230.269 65.6056C230.172 65.8519 230.034 66.072 229.854 66.2657C229.677 66.4594 229.463 66.631 229.214 66.7804C228.979 66.9271 228.788 67.0793 228.642 67.2371C228.498 67.3948 228.392 67.5816 228.326 67.7975C228.26 68.0134 228.224 68.2804 228.218 68.5987V68.6776H227.031ZM227.658 71.2016C227.431 71.2016 227.236 71.1213 227.072 70.9608C226.909 70.7975 226.827 70.601 226.827 70.3713C226.827 70.1444 226.909 69.9506 227.072 69.7901C227.236 69.6268 227.431 69.5452 227.658 69.5452C227.882 69.5452 228.076 69.6268 228.239 69.7901C228.405 69.9506 228.488 70.1444 228.488 70.3713C228.488 70.5235 228.449 70.6633 228.372 70.7906C228.297 70.9151 228.197 71.0147 228.073 71.0895C227.948 71.1642 227.81 71.2016 227.658 71.2016Z" fill="#808099"/>
<path d="M98.4158 74.1732L95.2943 71.0473L98.4158 74.1732ZM97.0242 66.8697C97.0242 68.4377 96.401 69.9416 95.2918 71.0504C94.1826 72.1592 92.6782 72.7821 91.1096 72.7821C89.5409 72.7821 88.0365 72.1592 86.9273 71.0504C85.8181 69.9416 85.195 68.4377 85.195 66.8697C85.195 65.3016 85.8181 63.7978 86.9273 62.689C88.0365 61.5802 89.5409 60.9573 91.1096 60.9573C92.6782 60.9573 94.1826 61.5802 95.2918 62.689C96.401 63.7978 97.0242 65.3016 97.0242 66.8697V66.8697Z" stroke="#636366" stroke-width="0.835" stroke-linecap="round"/>
</g>
<defs>
<filter id="filter0_d_103_561" x="144.056" y="99.0337" width="185.888" height="185.888" filterUnits="userSpaceOnUse" color-interpolation-filters="sRGB">
<feFlood flood-opacity="0" result="BackgroundImageFix"/>
<feColorMatrix in="SourceAlpha" type="matrix" values="0 0 0 0 0 0 0 0 0 0 0 0 0 0 0 0 0 0 127 0" result="hardAlpha"/>
<feMorphology radius="2.96629" operator="dilate" in="SourceAlpha" result="effect1_dropShadow_103_561"/>
<feOffset dy="1.97753"/>
<feGaussianBlur stdDeviation="0.988764"/>
<feComposite in2="hardAlpha" operator="out"/>
<feColorMatrix type="matrix" values="0 0 0 0 0 0 0 0 0 0 0 0 0 0 0 0 0 0 0.1 0"/>
<feBlend mode="normal" in2="BackgroundImageFix" result="effect1_dropShadow_103_561"/>
<feBlend mode="normal" in="SourceGraphic" in2="effect1_dropShadow_103_561" result="shape"/>
</filter>
<filter id="filter1_d_103_561" x="352.85" y="162.91" width="147.301" height="147.301" filterUnits="userSpaceOnUse" color-interpolation-filters="sRGB">
<feFlood flood-opacity="0" result="BackgroundImageFix"/>
<feColorMatrix in="SourceAlpha" type="matrix" values="0 0 0 0 0 0 0 0 0 0 0 0 0 0 0 0 0 0 127 0" result="hardAlpha"/>
<feMorphology radius="3.09023" operator="dilate" in="SourceAlpha" result="effect1_dropShadow_103_561"/>
<feOffset dy="2.06015"/>
<feGaussianBlur stdDeviation="1.03008"/>
<feComposite in2="hardAlpha" operator="out"/>
<feColorMatrix type="matrix" values="0 0 0 0 0 0 0 0 0 0 0 0 0 0 0 0 0 0 0.1 0"/>
<feBlend mode="normal" in2="BackgroundImageFix" result="effect1_dropShadow_103_561"/>
<feBlend mode="normal" in="SourceGraphic" in2="effect1_dropShadow_103_561" result="shape"/>
</filter>
<filter id="filter2_d_103_561" x="262.901" y="274.941" width="113.198" height="113.198" filterUnits="userSpaceOnUse" color-interpolation-filters="sRGB">
<feFlood flood-opacity="0" result="BackgroundImageFix"/>
<feColorMatrix in="SourceAlpha" type="matrix" values="0 0 0 0 0 0 0 0 0 0 0 0 0 0 0 0 0 0 127 0" result="hardAlpha"/>
<feMorphology radius="3.05941" operator="dilate" in="SourceAlpha" result="effect1_dropShadow_103_561"/>
<feOffset dy="2.0396"/>
<feGaussianBlur stdDeviation="1.0198"/>
<feComposite in2="hardAlpha" operator="out"/>
<feColorMatrix type="matrix" values="0 0 0 0 0 0 0 0 0 0 0 0 0 0 0 0 0 0 0.1 0"/>
<feBlend mode="normal" in2="BackgroundImageFix" result="effect1_dropShadow_103_561"/>
<feBlend mode="normal" in="SourceGraphic" in2="effect1_dropShadow_103_561" result="shape"/>
</filter>
<filter id="filter3_dddd_103_561" x="0.860001" y="0.91" width="418.335" height="183.7" filterUnits="userSpaceOnUse" color-interpolation-filters="sRGB">
<feFlood flood-opacity="0" result="BackgroundImageFix"/>
<feColorMatrix in="SourceAlpha" type="matrix" values="0 0 0 0 0 0 0 0 0 0 0 0 0 0 0 0 0 0 127 0" result="hardAlpha"/>
<feOffset dy="0.835"/>
<feGaussianBlur stdDeviation="1.2525"/>
<feColorMatrix type="matrix" values="0 0 0 0 0.0745098 0 0 0 0 0.0392157 0 0 0 0 0.180392 0 0 0 0.13 0"/>
<feBlend mode="normal" in2="BackgroundImageFix" result="effect1_dropShadow_103_561"/>
<feColorMatrix in="SourceAlpha" type="matrix" values="0 0 0 0 0 0 0 0 0 0 0 0 0 0 0 0 0 0 127 0" result="hardAlpha"/>
<feOffset dy="2.505"/>
<feGaussianBlur stdDeviation="5.845"/>
<feColorMatrix type="matrix" values="0 0 0 0 0.0745098 0 0 0 0 0.0392157 0 0 0 0 0.180392 0 0 0 0.03 0"/>
<feBlend mode="normal" in2="effect1_dropShadow_103_561" result="effect2_dropShadow_103_561"/>
<feColorMatrix in="SourceAlpha" type="matrix" values="0 0 0 0 0 0 0 0 0 0 0 0 0 0 0 0 0 0 127 0" result="hardAlpha"/>
<feOffset dy="6.68"/>
<feGaussianBlur stdDeviation="13.36"/>
<feColorMatrix type="matrix" values="0 0 0 0 0.0745098 0 0 0 0 0.0392157 0 0 0 0 0.180392 0 0 0 0.07 0"/>
<feBlend mode="normal" in2="effect2_dropShadow_103_561" result="effect3_dropShadow_103_561"/>
<feColorMatrix in="SourceAlpha" type="matrix" values="0 0 0 0 0 0 0 0 0 0 0 0 0 0 0 0 0 0 127 0" result="hardAlpha"/>
<feOffset dy="25.05"/>
<feGaussianBlur stdDeviation="35.07"/>
<feColorMatrix type="matrix" values="0 0 0 0 0.0745098 0 0 0 0 0.0392157 0 0 0 0 0.180392 0 0 0 0.12 0"/>
<feBlend mode="normal" in2="effect3_dropShadow_103_561" result="effect4_dropShadow_103_561"/>
<feBlend mode="normal" in="SourceGraphic" in2="effect4_dropShadow_103_561" result="shape"/>
</filter>
<linearGradient id="paint0_linear_103_561" x1="468" y1="145" x2="265" y2="526.5" gradientUnits="userSpaceOnUse">
<stop stop-color="#3B68DF"/>
<stop offset="1" stop-color="#8D32D4"/>
</linearGradient>
<linearGradient id="paint1_linear_103_561" x1="163.824" y1="161.406" x2="314.113" y2="177.601" gradientUnits="userSpaceOnUse">
<stop stop-color="#3B68DF"/>
<stop offset="1" stop-color="#8D32D5"/>
</linearGradient>
<linearGradient id="paint2_linear_103_561" x1="376.404" y1="200.763" x2="487.143" y2="207.964" gradientUnits="userSpaceOnUse">
<stop stop-color="#3B68DF"/>
<stop offset="1" stop-color="#8D32D5"/>
</linearGradient>
<linearGradient id="paint3_linear_103_561" x1="285.34" y1="306.613" x2="357.311" y2="311.385" gradientUnits="userSpaceOnUse">
<stop stop-color="#3B68DF"/>
<stop offset="1" stop-color="#8D32D5"/>
</linearGradient>
</defs>
</svg>
