<svg width="315" height="208" viewBox="0 0 315 208" fill="none" xmlns="http://www.w3.org/2000/svg">
<rect y="10.9562" width="314.847" height="35.7518" rx="4.61314" fill="url(#paint0_linear_106_575)" fill-opacity="0.3"/>
<rect x="160.307" y="10.9562" width="24.219" height="35.7518" fill="#F9FAFF"/>
<rect y="10.9562" width="8.64964" height="35.7518" fill="#F1F2F3"/>
<rect x="306.197" y="10.9562" width="8.64964" height="35.7518" fill="#D9D9D9"/>
<g filter="url(#filter0_dddd_106_575)">
<path d="M172.416 46.7081L177.41 55.3577H167.422L172.416 46.7081Z" fill="#F9FAFF"/>
</g>
<rect x="119.365" y="54.7811" width="106.212" height="28.2993" rx="2.30657" fill="#F9FAFF"/>
<path d="M139.174 65.7207H140.546L142.188 68.6891H142.253L143.895 65.7207H145.268L142.827 69.9275V72.4307H141.615V69.9275L139.174 65.7207ZM147.334 72.529C146.843 72.529 146.417 72.4209 146.057 72.2046C145.696 71.9884 145.417 71.6859 145.218 71.2971C145.021 70.9083 144.923 70.4539 144.923 69.9341C144.923 69.4142 145.021 68.9588 145.218 68.5678C145.417 68.1769 145.696 67.8733 146.057 67.657C146.417 67.4408 146.843 67.3327 147.334 67.3327C147.826 67.3327 148.252 67.4408 148.612 67.657C148.972 67.8733 149.251 68.1769 149.448 68.5678C149.646 68.9588 149.746 69.4142 149.746 69.9341C149.746 70.4539 149.646 70.9083 149.448 71.2971C149.251 71.6859 148.972 71.9884 148.612 72.2046C148.252 72.4209 147.826 72.529 147.334 72.529ZM147.341 71.5788C147.607 71.5788 147.83 71.5057 148.009 71.3593C148.188 71.2108 148.322 71.012 148.409 70.763C148.498 70.514 148.543 70.2366 148.543 69.9308C148.543 69.6228 148.498 69.3443 148.409 69.0953C148.322 68.8442 148.188 68.6443 148.009 68.4958C147.83 68.3472 147.607 68.273 147.341 68.273C147.068 68.273 146.841 68.3472 146.659 68.4958C146.48 68.6443 146.346 68.8442 146.256 69.0953C146.169 69.3443 146.125 69.6228 146.125 69.9308C146.125 70.2366 146.169 70.514 146.256 70.763C146.346 71.012 146.48 71.2108 146.659 71.3593C146.841 71.5057 147.068 71.5788 147.341 71.5788ZM153.96 70.3142V67.3982H155.146V72.4307H153.996V71.5362H153.944C153.83 71.818 153.643 72.0485 153.383 72.2276C153.126 72.4067 152.808 72.4962 152.43 72.4962C152.1 72.4962 151.808 72.423 151.555 72.2767C151.304 72.1282 151.107 71.913 150.965 71.6313C150.823 71.3473 150.752 71.0044 150.752 70.6025V67.3982H151.938V70.419C151.938 70.7379 152.026 70.9913 152.201 71.1791C152.375 71.367 152.605 71.4609 152.889 71.4609C153.063 71.4609 153.233 71.4183 153.396 71.3331C153.56 71.2479 153.695 71.1212 153.799 70.953C153.906 70.7827 153.96 70.5697 153.96 70.3142ZM160.102 72.5323C159.783 72.5323 159.496 72.4755 159.241 72.3619C158.987 72.2461 158.786 72.0758 158.638 71.8508C158.491 71.6258 158.418 71.3484 158.418 71.0186C158.418 70.7346 158.471 70.4998 158.576 70.3142C158.68 70.1285 158.823 69.98 159.005 69.8686C159.186 69.7572 159.39 69.6731 159.617 69.6163C159.847 69.5573 160.084 69.5147 160.328 69.4885C160.623 69.4579 160.862 69.4306 161.046 69.4066C161.229 69.3804 161.363 69.3411 161.446 69.2886C161.531 69.234 161.573 69.1499 161.573 69.0364V69.0167C161.573 68.7699 161.5 68.5788 161.354 68.4433C161.208 68.3079 160.997 68.2402 160.722 68.2402C160.431 68.2402 160.201 68.3036 160.03 68.4302C159.862 68.5569 159.748 68.7065 159.69 68.8791L158.582 68.7218C158.669 68.416 158.814 68.1605 159.015 67.9552C159.216 67.7477 159.461 67.5926 159.752 67.4899C160.042 67.3851 160.363 67.3327 160.715 67.3327C160.957 67.3327 161.199 67.361 161.439 67.4178C161.679 67.4746 161.899 67.5686 162.098 67.6996C162.296 67.8285 162.456 68.0043 162.576 68.2271C162.698 68.4499 162.759 68.7284 162.759 69.0626V72.4307H161.619V71.7394H161.58C161.508 71.8792 161.406 72.0102 161.275 72.1325C161.146 72.2527 160.984 72.3499 160.787 72.4241C160.593 72.4962 160.364 72.5323 160.102 72.5323ZM160.41 71.6607C160.648 71.6607 160.855 71.6138 161.03 71.5199C161.204 71.4238 161.339 71.2971 161.433 71.1398C161.529 70.9825 161.577 70.8111 161.577 70.6254V70.0324C161.54 70.063 161.476 70.0914 161.387 70.1176C161.299 70.1438 161.201 70.1667 161.092 70.1864C160.983 70.206 160.874 70.2235 160.767 70.2388C160.66 70.2541 160.568 70.2672 160.489 70.2781C160.312 70.3021 160.154 70.3415 160.014 70.3961C159.874 70.4507 159.764 70.5271 159.683 70.6254C159.602 70.7215 159.562 70.846 159.562 70.9989C159.562 71.2173 159.641 71.3823 159.801 71.4937C159.96 71.605 160.163 71.6607 160.41 71.6607ZM163.952 72.4307V67.3982H165.102V68.2369H165.155C165.246 67.9464 165.404 67.7225 165.626 67.5653C165.851 67.4058 166.108 67.3261 166.396 67.3261C166.462 67.3261 166.535 67.3294 166.616 67.3359C166.699 67.3403 166.768 67.3479 166.822 67.3589V68.4499C166.772 68.4324 166.692 68.4171 166.583 68.404C166.476 68.3887 166.372 68.3811 166.272 68.3811C166.056 68.3811 165.861 68.4281 165.689 68.522C165.518 68.6137 165.384 68.7415 165.286 68.9053C165.187 69.0691 165.138 69.2581 165.138 69.4721V72.4307H163.952ZM169.631 72.529C169.126 72.529 168.691 72.4241 168.324 72.2145C167.959 72.0026 167.678 71.7033 167.482 71.3167C167.285 70.9279 167.187 70.4703 167.187 69.9439C167.187 69.4263 167.285 68.9719 167.482 68.581C167.68 68.1878 167.958 67.882 168.314 67.6636C168.67 67.443 169.088 67.3327 169.569 67.3327C169.879 67.3327 170.171 67.3829 170.447 67.4834C170.724 67.5817 170.969 67.7346 171.181 67.9421C171.395 68.1496 171.563 68.4139 171.685 68.7349C171.807 69.0538 171.869 69.4339 171.869 69.8751V70.2388H167.744V69.4394H170.732C170.73 69.2122 170.68 69.0102 170.584 68.8332C170.488 68.6541 170.354 68.5132 170.181 68.4106C170.011 68.3079 169.812 68.2566 169.585 68.2566C169.343 68.2566 169.13 68.3156 168.946 68.4335C168.763 68.5493 168.62 68.7022 168.517 68.8922C168.416 69.0801 168.365 69.2865 168.363 69.5114V70.2093C168.363 70.502 168.416 70.7532 168.523 70.9629C168.63 71.1704 168.78 71.3298 168.972 71.4412C169.165 71.5504 169.389 71.605 169.647 71.605C169.82 71.605 169.976 71.581 170.116 71.533C170.256 71.4827 170.377 71.4096 170.479 71.3135C170.582 71.2173 170.66 71.0983 170.712 70.9563L171.819 71.0808C171.75 71.3735 171.616 71.6291 171.42 71.8475C171.225 72.0637 170.976 72.2319 170.673 72.3521C170.369 72.47 170.022 72.529 169.631 72.529ZM176.609 72.5323C176.29 72.5323 176.003 72.4755 175.747 72.3619C175.494 72.2461 175.293 72.0758 175.144 71.8508C174.998 71.6258 174.925 71.3484 174.925 71.0186C174.925 70.7346 174.977 70.4998 175.082 70.3142C175.187 70.1285 175.33 69.98 175.511 69.8686C175.692 69.7572 175.897 69.6731 176.124 69.6163C176.353 69.5573 176.59 69.5147 176.835 69.4885C177.13 69.4579 177.369 69.4306 177.552 69.4066C177.736 69.3804 177.869 69.3411 177.952 69.2886C178.037 69.234 178.08 69.1499 178.08 69.0364V69.0167C178.08 68.7699 178.007 68.5788 177.86 68.4433C177.714 68.3079 177.503 68.2402 177.228 68.2402C176.937 68.2402 176.707 68.3036 176.537 68.4302C176.368 68.5569 176.255 68.7065 176.196 68.8791L175.088 68.7218C175.176 68.416 175.32 68.1605 175.521 67.9552C175.722 67.7477 175.968 67.5926 176.258 67.4899C176.549 67.3851 176.87 67.3327 177.221 67.3327C177.464 67.3327 177.705 67.361 177.945 67.4178C178.186 67.4746 178.405 67.5686 178.604 67.6996C178.803 67.8285 178.962 68.0043 179.082 68.2271C179.205 68.4499 179.266 68.7284 179.266 69.0626V72.4307H178.126V71.7394H178.086C178.014 71.8792 177.913 72.0102 177.782 72.1325C177.653 72.2527 177.49 72.3499 177.293 72.4241C177.099 72.4962 176.871 72.5323 176.609 72.5323ZM176.917 71.6607C177.155 71.6607 177.361 71.6138 177.536 71.5199C177.711 71.4238 177.845 71.2971 177.939 71.1398C178.035 70.9825 178.083 70.8111 178.083 70.6254V70.0324C178.046 70.063 177.983 70.0914 177.893 70.1176C177.806 70.1438 177.707 70.1667 177.598 70.1864C177.489 70.206 177.381 70.2235 177.274 70.2388C177.167 70.2541 177.074 70.2672 176.995 70.2781C176.818 70.3021 176.66 70.3415 176.52 70.3961C176.38 70.4507 176.27 70.5271 176.189 70.6254C176.109 70.7215 176.068 70.846 176.068 70.9989C176.068 71.2173 176.148 71.3823 176.307 71.4937C176.467 71.605 176.67 71.6607 176.917 71.6607ZM182.971 67.3982V68.3156H180.078V67.3982H182.971ZM180.793 66.1925H181.979V70.917C181.979 71.0765 182.003 71.1988 182.051 71.284C182.101 71.367 182.167 71.4238 182.247 71.4543C182.328 71.4849 182.418 71.5002 182.516 71.5002C182.59 71.5002 182.658 71.4947 182.719 71.4838C182.783 71.4729 182.831 71.4631 182.863 71.4543L183.063 72.3815C183 72.4034 182.909 72.4274 182.791 72.4536C182.675 72.4798 182.534 72.4951 182.365 72.4995C182.068 72.5082 181.801 72.4635 181.563 72.3652C181.325 72.2647 181.136 72.1096 180.996 71.8999C180.858 71.6902 180.79 71.4281 180.793 71.1136V66.1925ZM187.438 69.482V72.4307H186.252V65.7207H187.412V68.2533H187.471C187.589 67.9694 187.771 67.7455 188.018 67.5817C188.267 67.4157 188.584 67.3327 188.968 67.3327C189.318 67.3327 189.622 67.4058 189.882 67.5522C190.142 67.6985 190.343 67.9126 190.485 68.1943C190.629 68.4761 190.701 68.8201 190.701 69.2264V72.4307H189.515V69.4099C189.515 69.0713 189.428 68.8081 189.253 68.6203C189.081 68.4302 188.838 68.3352 188.526 68.3352C188.316 68.3352 188.128 68.3811 187.962 68.4728C187.798 68.5624 187.669 68.6923 187.576 68.8627C187.484 69.0331 187.438 69.2395 187.438 69.482ZM194.138 72.529C193.634 72.529 193.198 72.4241 192.831 72.2145C192.466 72.0026 192.185 71.7033 191.989 71.3167C191.792 70.9279 191.694 70.4703 191.694 69.9439C191.694 69.4263 191.792 68.9719 191.989 68.581C192.188 68.1878 192.465 67.882 192.821 67.6636C193.177 67.443 193.595 67.3327 194.076 67.3327C194.386 67.3327 194.679 67.3829 194.954 67.4834C195.231 67.5817 195.476 67.7346 195.688 67.9421C195.902 68.1496 196.07 68.4139 196.192 68.7349C196.315 69.0538 196.376 69.4339 196.376 69.8751V70.2388H192.251V69.4394H195.239C195.237 69.2122 195.188 69.0102 195.092 68.8332C194.995 68.6541 194.861 68.5132 194.689 68.4106C194.518 68.3079 194.319 68.2566 194.092 68.2566C193.85 68.2566 193.637 68.3156 193.453 68.4335C193.27 68.5493 193.127 68.7022 193.024 68.8922C192.924 69.0801 192.872 69.2865 192.87 69.5114V70.2093C192.87 70.502 192.924 70.7532 193.031 70.9629C193.138 71.1704 193.287 71.3298 193.48 71.4412C193.672 71.5504 193.897 71.605 194.155 71.605C194.327 71.605 194.483 71.581 194.623 71.533C194.763 71.4827 194.884 71.4096 194.987 71.3135C195.089 71.2173 195.167 71.0983 195.219 70.9563L196.327 71.0808C196.257 71.3735 196.124 71.6291 195.927 71.8475C195.733 72.0637 195.484 72.2319 195.18 72.3521C194.876 72.47 194.529 72.529 194.138 72.529ZM197.379 72.4307V67.3982H198.529V68.2369H198.582C198.673 67.9464 198.831 67.7225 199.054 67.5653C199.279 67.4058 199.535 67.3261 199.823 67.3261C199.889 67.3261 199.962 67.3294 200.043 67.3359C200.126 67.3403 200.195 67.3479 200.249 67.3589V68.4499C200.199 68.4324 200.119 68.4171 200.01 68.404C199.903 68.3887 199.799 68.3811 199.699 68.3811C199.483 68.3811 199.288 68.4281 199.116 68.522C198.945 68.6137 198.811 68.7415 198.713 68.9053C198.615 69.0691 198.565 69.2581 198.565 69.4721V72.4307H197.379ZM203.058 72.529C202.554 72.529 202.118 72.4241 201.751 72.2145C201.386 72.0026 201.105 71.7033 200.909 71.3167C200.712 70.9279 200.614 70.4703 200.614 69.9439C200.614 69.4263 200.712 68.9719 200.909 68.581C201.108 68.1878 201.385 67.882 201.741 67.6636C202.097 67.443 202.515 67.3327 202.996 67.3327C203.306 67.3327 203.599 67.3829 203.874 67.4834C204.151 67.5817 204.396 67.7346 204.608 67.9421C204.822 68.1496 204.99 68.4139 205.112 68.7349C205.235 69.0538 205.296 69.4339 205.296 69.8751V70.2388H201.171V69.4394H204.159C204.157 69.2122 204.108 69.0102 204.012 68.8332C203.915 68.6541 203.781 68.5132 203.609 68.4106C203.438 68.3079 203.239 68.2566 203.012 68.2566C202.77 68.2566 202.557 68.3156 202.373 68.4335C202.19 68.5493 202.047 68.7022 201.944 68.8922C201.844 69.0801 201.792 69.2865 201.79 69.5114V70.2093C201.79 70.502 201.844 70.7532 201.951 70.9629C202.058 71.1704 202.207 71.3298 202.4 71.4412C202.592 71.5504 202.817 71.605 203.074 71.605C203.247 71.605 203.403 71.581 203.543 71.533C203.683 71.4827 203.804 71.4096 203.907 71.3135C204.009 71.2173 204.087 71.0983 204.139 70.9563L205.247 71.0808C205.177 71.3735 205.044 71.6291 204.847 71.8475C204.653 72.0637 204.404 72.2319 204.1 72.3521C203.796 72.47 203.449 72.529 203.058 72.529Z" fill="#2651ED"/>
<rect y="138" width="189" height="30" rx="4" fill="#F9FAFF"/>
<path d="M12.9588 157V148.273H18.4304V149.406H14.2756V152.065H18.1449V153.195H14.2756V155.866H18.4815V157H12.9588ZM21.0927 150.455L22.5373 153.003L23.9947 150.455H25.3881L23.3469 153.727L25.4052 157H24.0117L22.5373 154.554L21.0671 157H19.6694L21.7063 153.727L19.695 150.455H21.0927ZM29.7518 150.455V151.477H26.1765V150.455H29.7518ZM27.1353 148.886H28.4094V155.078C28.4094 155.325 28.4464 155.511 28.5202 155.636C28.5941 155.759 28.6893 155.842 28.8058 155.888C28.9251 155.93 29.0543 155.952 29.1935 155.952C29.2958 155.952 29.3853 155.945 29.462 155.93C29.5387 155.916 29.5984 155.905 29.641 155.896L29.8711 156.949C29.7972 156.977 29.6921 157.006 29.5558 157.034C29.4194 157.065 29.2489 157.082 29.0444 157.085C28.7092 157.091 28.3967 157.031 28.1069 156.906C27.8171 156.781 27.5827 156.588 27.4038 156.327C27.2248 156.065 27.1353 155.737 27.1353 155.342V148.886ZM31.1612 157V150.455H32.3928V151.494H32.4609C32.5803 151.142 32.7905 150.865 33.0916 150.663C33.3956 150.459 33.7393 150.357 34.1229 150.357C34.2024 150.357 34.2962 150.359 34.4041 150.365C34.5149 150.371 34.6016 150.378 34.6641 150.386V151.605C34.6129 151.591 34.522 151.575 34.3913 151.558C34.2607 151.538 34.13 151.528 33.9993 151.528C33.6982 151.528 33.4297 151.592 33.1939 151.72C32.9609 151.845 32.7763 152.02 32.6399 152.244C32.5036 152.466 32.4354 152.719 32.4354 153.003V157H31.1612ZM37.6129 157.145C37.1982 157.145 36.8232 157.068 36.4879 156.915C36.1527 156.759 35.8871 156.533 35.6911 156.237C35.4979 155.942 35.4013 155.58 35.4013 155.151C35.4013 154.781 35.4723 154.477 35.6143 154.239C35.7564 154 35.9482 153.811 36.1896 153.672C36.4311 153.533 36.701 153.428 36.9993 153.357C37.2976 153.286 37.6016 153.232 37.9112 153.195C38.3033 153.149 38.6214 153.112 38.8658 153.084C39.1101 153.053 39.2876 153.003 39.3984 152.935C39.5092 152.866 39.5646 152.756 39.5646 152.602V152.572C39.5646 152.2 39.4595 151.912 39.2493 151.707C39.0419 151.503 38.7322 151.401 38.3203 151.401C37.8913 151.401 37.5533 151.496 37.3061 151.686C37.0618 151.874 36.8928 152.082 36.799 152.312L35.6016 152.04C35.7436 151.642 35.951 151.321 36.2237 151.077C36.4993 150.83 36.8161 150.651 37.174 150.54C37.532 150.426 37.9084 150.369 38.3033 150.369C38.5646 150.369 38.8416 150.401 39.1342 150.463C39.4297 150.523 39.7053 150.634 39.9609 150.795C40.2195 150.957 40.4311 151.189 40.5959 151.49C40.7607 151.788 40.843 152.176 40.843 152.653V157H39.5987V156.105H39.5476C39.4652 156.27 39.3416 156.432 39.1768 156.591C39.0121 156.75 38.8004 156.882 38.5419 156.987C38.2834 157.092 37.9737 157.145 37.6129 157.145ZM37.8899 156.122C38.2422 156.122 38.5433 156.053 38.7933 155.913C39.0462 155.774 39.2379 155.592 39.3686 155.368C39.5021 155.141 39.5689 154.898 39.5689 154.639V153.795C39.5234 153.841 39.4354 153.884 39.3047 153.923C39.1768 153.96 39.0305 153.993 38.8658 154.021C38.701 154.047 38.5405 154.071 38.3842 154.094C38.228 154.114 38.0973 154.131 37.9922 154.145C37.745 154.176 37.5192 154.229 37.3146 154.303C37.1129 154.376 36.951 154.483 36.8288 154.622C36.7095 154.759 36.6499 154.94 36.6499 155.168C36.6499 155.483 36.7663 155.722 36.9993 155.884C37.2322 156.043 37.5291 156.122 37.8899 156.122ZM45.2972 157.132C44.6637 157.132 44.1183 156.989 43.6609 156.702C43.2063 156.412 42.8569 156.013 42.6126 155.504C42.3683 154.996 42.2461 154.413 42.2461 153.757C42.2461 153.092 42.3711 152.506 42.6211 151.997C42.8711 151.486 43.2234 151.087 43.6779 150.8C44.1325 150.513 44.668 150.369 45.2844 150.369C45.7816 150.369 46.2248 150.462 46.614 150.646C47.0032 150.828 47.3171 151.084 47.5558 151.413C47.7972 151.743 47.9407 152.128 47.9862 152.568H46.7461C46.6779 152.261 46.5217 151.997 46.2773 151.776C46.0359 151.554 45.712 151.443 45.3058 151.443C44.9506 151.443 44.6396 151.537 44.3725 151.724C44.1083 151.909 43.9023 152.173 43.7546 152.517C43.6069 152.858 43.533 153.261 43.533 153.727C43.533 154.205 43.6055 154.616 43.7504 154.963C43.8952 155.31 44.0998 155.578 44.364 155.768C44.631 155.959 44.945 156.054 45.3058 156.054C45.5472 156.054 45.766 156.01 45.962 155.922C46.1609 155.831 46.3271 155.702 46.4606 155.534C46.5969 155.366 46.6921 155.165 46.7461 154.929H47.9862C47.9407 155.352 47.8029 155.73 47.5728 156.062C47.3427 156.395 47.0344 156.656 46.6481 156.847C46.2646 157.037 45.8143 157.132 45.2972 157.132ZM53.495 154.286V150.455H54.7734V157H53.5206V155.866H53.4524C53.3018 156.216 53.0604 156.507 52.728 156.74C52.3984 156.97 51.9879 157.085 51.4964 157.085C51.076 157.085 50.7038 156.993 50.38 156.808C50.0589 156.621 49.8061 156.344 49.6214 155.977C49.4396 155.611 49.3487 155.158 49.3487 154.618V150.455H50.6229V154.464C50.6229 154.911 50.7464 155.266 50.9936 155.53C51.2408 155.794 51.5618 155.926 51.9567 155.926C52.1953 155.926 52.4325 155.866 52.6683 155.747C52.907 155.628 53.1044 155.447 53.2607 155.206C53.4197 154.964 53.4979 154.658 53.495 154.286ZM56.4854 157V150.455H57.717V151.494H57.7852C57.9045 151.142 58.1147 150.865 58.4158 150.663C58.7198 150.459 59.0636 150.357 59.4471 150.357C59.5266 150.357 59.6204 150.359 59.7283 150.365C59.8391 150.371 59.9258 150.378 59.9883 150.386V151.605C59.9371 151.591 59.8462 151.575 59.7156 151.558C59.5849 151.538 59.4542 151.528 59.3235 151.528C59.0224 151.528 58.7539 151.592 58.5181 151.72C58.2852 151.845 58.1005 152.02 57.9641 152.244C57.8278 152.466 57.7596 152.719 57.7596 153.003V157H56.4854ZM61.0909 157V150.455H62.3224V151.494H62.3906C62.5099 151.142 62.7202 150.865 63.0213 150.663C63.3253 150.459 63.669 150.357 64.0526 150.357C64.1321 150.357 64.2259 150.359 64.3338 150.365C64.4446 150.371 64.5312 150.378 64.5938 150.386V151.605C64.5426 151.591 64.4517 151.575 64.321 151.558C64.1903 151.538 64.0597 151.528 63.929 151.528C63.6278 151.528 63.3594 151.592 63.1236 151.72C62.8906 151.845 62.706 152.02 62.5696 152.244C62.4332 152.466 62.3651 152.719 62.3651 153.003V157H61.0909ZM65.6964 157V150.455H66.9705V157H65.6964ZM66.3398 149.445C66.1183 149.445 65.9279 149.371 65.7688 149.223C65.6126 149.072 65.5344 148.893 65.5344 148.686C65.5344 148.476 65.6126 148.297 65.7688 148.149C65.9279 147.999 66.1183 147.923 66.3398 147.923C66.5614 147.923 66.7504 147.999 66.9066 148.149C67.0657 148.297 67.1452 148.476 67.1452 148.686C67.1452 148.893 67.0657 149.072 66.9066 149.223C66.7504 149.371 66.5614 149.445 66.3398 149.445ZM71.4418 157.132C70.8082 157.132 70.2628 156.989 69.8054 156.702C69.3509 156.412 69.0014 156.013 68.7571 155.504C68.5128 154.996 68.3906 154.413 68.3906 153.757C68.3906 153.092 68.5156 152.506 68.7656 151.997C69.0156 151.486 69.3679 151.087 69.8224 150.8C70.277 150.513 70.8125 150.369 71.429 150.369C71.9261 150.369 72.3693 150.462 72.7585 150.646C73.1477 150.828 73.4616 151.084 73.7003 151.413C73.9418 151.743 74.0852 152.128 74.1307 152.568H72.8906C72.8224 152.261 72.6662 151.997 72.4219 151.776C72.1804 151.554 71.8565 151.443 71.4503 151.443C71.0952 151.443 70.7841 151.537 70.517 151.724C70.2528 151.909 70.0469 152.173 69.8991 152.517C69.7514 152.858 69.6776 153.261 69.6776 153.727C69.6776 154.205 69.75 154.616 69.8949 154.963C70.0398 155.31 70.2443 155.578 70.5085 155.768C70.7756 155.959 71.0895 156.054 71.4503 156.054C71.6918 156.054 71.9105 156.01 72.1065 155.922C72.3054 155.831 72.4716 155.702 72.6051 155.534C72.7415 155.366 72.8366 155.165 72.8906 154.929H74.1307C74.0852 155.352 73.9474 155.73 73.7173 156.062C73.4872 156.395 73.179 156.656 72.7926 156.847C72.4091 157.037 71.9588 157.132 71.4418 157.132ZM79.6396 154.286V150.455H80.918V157H79.6651V155.866H79.5969C79.4464 156.216 79.2049 156.507 78.8725 156.74C78.543 156.97 78.1325 157.085 77.641 157.085C77.2205 157.085 76.8484 156.993 76.5245 156.808C76.2035 156.621 75.9506 156.344 75.766 155.977C75.5842 155.611 75.4933 155.158 75.4933 154.618V150.455H76.7674V154.464C76.7674 154.911 76.891 155.266 77.1381 155.53C77.3853 155.794 77.7063 155.926 78.1012 155.926C78.3398 155.926 78.5771 155.866 78.8129 155.747C79.0515 155.628 79.2489 155.447 79.4052 155.206C79.5643 154.964 79.6424 154.658 79.6396 154.286ZM83.9041 148.273V157H82.63V148.273H83.9041ZM87.5231 157.145C87.1083 157.145 86.7333 157.068 86.3981 156.915C86.0629 156.759 85.7972 156.533 85.6012 156.237C85.408 155.942 85.3114 155.58 85.3114 155.151C85.3114 154.781 85.3825 154.477 85.5245 154.239C85.6665 154 85.8583 153.811 86.0998 153.672C86.3413 153.533 86.6112 153.428 86.9094 153.357C87.2077 153.286 87.5117 153.232 87.8214 153.195C88.2134 153.149 88.5316 153.112 88.7759 153.084C89.0202 153.053 89.1978 153.003 89.3086 152.935C89.4194 152.866 89.4748 152.756 89.4748 152.602V152.572C89.4748 152.2 89.3697 151.912 89.1594 151.707C88.9521 151.503 88.6424 151.401 88.2305 151.401C87.8015 151.401 87.4634 151.496 87.2163 151.686C86.9719 151.874 86.8029 152.082 86.7092 152.312L85.5117 152.04C85.6538 151.642 85.8612 151.321 86.1339 151.077C86.4094 150.83 86.7262 150.651 87.0842 150.54C87.4421 150.426 87.8185 150.369 88.2134 150.369C88.4748 150.369 88.7518 150.401 89.0444 150.463C89.3398 150.523 89.6154 150.634 89.8711 150.795C90.1296 150.957 90.3413 151.189 90.506 151.49C90.6708 151.788 90.7532 152.176 90.7532 152.653V157H89.5089V156.105H89.4577C89.3754 156.27 89.2518 156.432 89.087 156.591C88.9222 156.75 88.7106 156.882 88.4521 156.987C88.1935 157.092 87.8839 157.145 87.5231 157.145ZM87.8001 156.122C88.1523 156.122 88.4535 156.053 88.7035 155.913C88.9563 155.774 89.1481 155.592 89.2788 155.368C89.4123 155.141 89.479 154.898 89.479 154.639V153.795C89.4336 153.841 89.3455 153.884 89.2148 153.923C89.087 153.96 88.9407 153.993 88.7759 154.021C88.6112 154.047 88.4506 154.071 88.2944 154.094C88.1381 154.114 88.0075 154.131 87.9023 154.145C87.6552 154.176 87.4293 154.229 87.2248 154.303C87.0231 154.376 86.8612 154.483 86.739 154.622C86.6197 154.759 86.56 154.94 86.56 155.168C86.56 155.483 86.6765 155.722 86.9094 155.884C87.1424 156.043 87.4393 156.122 87.8001 156.122ZM92.4503 157V150.455H93.6818V151.494H93.75C93.8693 151.142 94.0795 150.865 94.3807 150.663C94.6847 150.459 95.0284 150.357 95.4119 150.357C95.4915 150.357 95.5852 150.359 95.6932 150.365C95.804 150.371 95.8906 150.378 95.9531 150.386V151.605C95.902 151.591 95.8111 151.575 95.6804 151.558C95.5497 151.538 95.419 151.528 95.2884 151.528C94.9872 151.528 94.7188 151.592 94.483 151.72C94.25 151.845 94.0653 152.02 93.929 152.244C93.7926 152.466 93.7244 152.719 93.7244 153.003V157H92.4503ZM100.334 148.273H101.932L104.71 155.057H104.812L107.591 148.273H109.189V157H107.936V150.685H107.855L105.281 156.987H104.241L101.668 150.68H101.587V157H100.334V148.273ZM113.822 157.132C113.177 157.132 112.622 156.994 112.156 156.719C111.693 156.44 111.335 156.05 111.082 155.547C110.832 155.041 110.707 154.449 110.707 153.77C110.707 153.099 110.832 152.509 111.082 151.997C111.335 151.486 111.687 151.087 112.139 150.8C112.593 150.513 113.125 150.369 113.733 150.369C114.102 150.369 114.46 150.43 114.806 150.553C115.153 150.675 115.464 150.866 115.74 151.128C116.015 151.389 116.233 151.729 116.392 152.146C116.551 152.561 116.63 153.065 116.63 153.659V154.111H111.427V153.156H115.382C115.382 152.821 115.314 152.524 115.177 152.266C115.041 152.004 114.849 151.798 114.602 151.648C114.358 151.497 114.071 151.422 113.741 151.422C113.383 151.422 113.071 151.51 112.804 151.686C112.539 151.859 112.335 152.087 112.19 152.368C112.048 152.646 111.977 152.949 111.977 153.276V154.021C111.977 154.459 112.054 154.831 112.207 155.138C112.363 155.445 112.581 155.679 112.859 155.841C113.137 156 113.463 156.08 113.835 156.08C114.076 156.08 114.297 156.045 114.495 155.977C114.694 155.906 114.866 155.801 115.011 155.662C115.156 155.523 115.267 155.351 115.343 155.146L116.549 155.364C116.453 155.719 116.279 156.03 116.029 156.297C115.782 156.561 115.471 156.767 115.096 156.915C114.724 157.06 114.299 157.132 113.822 157.132ZM121.099 150.455V151.477H117.524V150.455H121.099ZM118.483 148.886H119.757V155.078C119.757 155.325 119.794 155.511 119.868 155.636C119.942 155.759 120.037 155.842 120.153 155.888C120.273 155.93 120.402 155.952 120.541 155.952C120.643 155.952 120.733 155.945 120.81 155.93C120.886 155.916 120.946 155.905 120.989 155.896L121.219 156.949C121.145 156.977 121.04 157.006 120.903 157.034C120.767 157.065 120.597 157.082 120.392 157.085C120.057 157.091 119.744 157.031 119.455 156.906C119.165 156.781 118.93 156.588 118.751 156.327C118.572 156.065 118.483 155.737 118.483 155.342V148.886ZM122.509 157V150.455H123.74V151.494H123.809C123.928 151.142 124.138 150.865 124.439 150.663C124.743 150.459 125.087 150.357 125.471 150.357C125.55 150.357 125.644 150.359 125.752 150.365C125.863 150.371 125.949 150.378 126.012 150.386V151.605C125.961 151.591 125.87 151.575 125.739 151.558C125.608 151.538 125.478 151.528 125.347 151.528C125.046 151.528 124.777 151.592 124.542 151.72C124.309 151.845 124.124 152.02 123.988 152.244C123.851 152.466 123.783 152.719 123.783 153.003V157H122.509ZM127.114 157V150.455H128.388V157H127.114ZM127.758 149.445C127.536 149.445 127.346 149.371 127.187 149.223C127.031 149.072 126.952 148.893 126.952 148.686C126.952 148.476 127.031 148.297 127.187 148.149C127.346 147.999 127.536 147.923 127.758 147.923C127.979 147.923 128.168 147.999 128.325 148.149C128.484 148.297 128.563 148.476 128.563 148.686C128.563 148.893 128.484 149.072 128.325 149.223C128.168 149.371 127.979 149.445 127.758 149.445ZM132.86 157.132C132.226 157.132 131.681 156.989 131.223 156.702C130.769 156.412 130.419 156.013 130.175 155.504C129.931 154.996 129.809 154.413 129.809 153.757C129.809 153.092 129.934 152.506 130.184 151.997C130.434 151.486 130.786 151.087 131.24 150.8C131.695 150.513 132.23 150.369 132.847 150.369C133.344 150.369 133.787 150.462 134.176 150.646C134.566 150.828 134.88 151.084 135.118 151.413C135.36 151.743 135.503 152.128 135.549 152.568H134.309C134.24 152.261 134.084 151.997 133.84 151.776C133.598 151.554 133.275 151.443 132.868 151.443C132.513 151.443 132.202 151.537 131.935 151.724C131.671 151.909 131.465 152.173 131.317 152.517C131.169 152.858 131.096 153.261 131.096 153.727C131.096 154.205 131.168 154.616 131.313 154.963C131.458 155.31 131.662 155.578 131.926 155.768C132.194 155.959 132.507 156.054 132.868 156.054C133.11 156.054 133.328 156.01 133.525 155.922C133.723 155.831 133.89 155.702 134.023 155.534C134.159 155.366 134.255 155.165 134.309 154.929H135.549C135.503 155.352 135.365 155.73 135.135 156.062C134.905 156.395 134.597 156.656 134.211 156.847C133.827 157.037 133.377 157.132 132.86 157.132ZM141.816 152.053L140.661 152.257C140.613 152.109 140.536 151.969 140.431 151.835C140.329 151.702 140.19 151.592 140.013 151.507C139.837 151.422 139.617 151.379 139.353 151.379C138.992 151.379 138.691 151.46 138.45 151.622C138.208 151.781 138.087 151.987 138.087 152.24C138.087 152.459 138.168 152.635 138.33 152.768C138.492 152.902 138.754 153.011 139.114 153.097L140.154 153.335C140.756 153.474 141.205 153.689 141.501 153.979C141.796 154.268 141.944 154.645 141.944 155.108C141.944 155.5 141.83 155.849 141.603 156.156C141.379 156.46 141.065 156.699 140.661 156.872C140.261 157.045 139.796 157.132 139.268 157.132C138.535 157.132 137.937 156.976 137.474 156.663C137.011 156.348 136.727 155.901 136.621 155.321L137.853 155.134C137.93 155.455 138.087 155.697 138.326 155.862C138.565 156.024 138.876 156.105 139.259 156.105C139.677 156.105 140.011 156.018 140.261 155.845C140.511 155.669 140.636 155.455 140.636 155.202C140.636 154.997 140.559 154.825 140.406 154.686C140.255 154.547 140.023 154.442 139.711 154.371L138.603 154.128C137.992 153.989 137.54 153.767 137.248 153.463C136.958 153.159 136.813 152.774 136.813 152.308C136.813 151.922 136.921 151.584 137.137 151.294C137.353 151.004 137.651 150.778 138.032 150.616C138.413 150.452 138.849 150.369 139.34 150.369C140.048 150.369 140.604 150.523 141.011 150.83C141.417 151.134 141.685 151.541 141.816 152.053Z" fill="#070452"/>
<path d="M171 147.05C171 146.785 170.895 146.53 170.707 146.343C170.52 146.155 170.265 146.05 170 146.05L162 146C161.735 146 161.48 146.105 161.293 146.293C161.105 146.48 161 146.735 161 147C161 147.265 161.105 147.52 161.293 147.707C161.48 147.895 161.735 148 162 148H167.56L159.29 156.29C159.196 156.383 159.122 156.494 159.071 156.615C159.02 156.737 158.994 156.868 158.994 157C158.994 157.132 159.02 157.263 159.071 157.385C159.122 157.506 159.196 157.617 159.29 157.71C159.383 157.804 159.494 157.878 159.615 157.929C159.737 157.98 159.868 158.006 160 158.006C160.132 158.006 160.263 157.98 160.385 157.929C160.506 157.878 160.617 157.804 160.71 157.71L169 149.42V155C169 155.265 169.105 155.52 169.293 155.707C169.48 155.895 169.735 156 170 156C170.265 156 170.52 155.895 170.707 155.707C170.895 155.52 171 155.265 171 155V147.05Z" fill="black"/>
<rect y="178" width="162" height="30" rx="4" fill="#F9FAFF"/>
<path d="M13.696 197H12.2983L15.4389 188.273H16.9602L20.1009 197H18.7031L16.2358 189.858H16.1676L13.696 197ZM13.9304 193.582H18.4645V194.69H13.9304V193.582ZM23.9105 197.132C23.277 197.132 22.7315 196.989 22.2741 196.702C21.8196 196.412 21.4702 196.013 21.2259 195.504C20.9815 194.996 20.8594 194.413 20.8594 193.757C20.8594 193.092 20.9844 192.506 21.2344 191.997C21.4844 191.486 21.8366 191.087 22.2912 190.8C22.7457 190.513 23.2813 190.369 23.8977 190.369C24.3949 190.369 24.8381 190.462 25.2273 190.646C25.6165 190.828 25.9304 191.084 26.169 191.413C26.4105 191.743 26.554 192.128 26.5994 192.568H25.3594C25.2912 192.261 25.1349 191.997 24.8906 191.776C24.6491 191.554 24.3253 191.443 23.919 191.443C23.5639 191.443 23.2528 191.537 22.9858 191.724C22.7216 191.909 22.5156 192.173 22.3679 192.517C22.2202 192.858 22.1463 193.261 22.1463 193.727C22.1463 194.205 22.2188 194.616 22.3636 194.963C22.5085 195.31 22.7131 195.578 22.9773 195.768C23.2443 195.959 23.5582 196.054 23.919 196.054C24.1605 196.054 24.3793 196.01 24.5753 195.922C24.7741 195.831 24.9403 195.702 25.0739 195.534C25.2102 195.366 25.3054 195.165 25.3594 194.929H26.5994C26.554 195.352 26.4162 195.73 26.1861 196.062C25.956 196.395 25.6477 196.656 25.2614 196.847C24.8778 197.037 24.4276 197.132 23.9105 197.132ZM29.8668 197.145C29.4521 197.145 29.0771 197.068 28.7418 196.915C28.4066 196.759 28.141 196.533 27.945 196.237C27.7518 195.942 27.6552 195.58 27.6552 195.151C27.6552 194.781 27.7262 194.477 27.8683 194.239C28.0103 194 28.2021 193.811 28.4435 193.672C28.685 193.533 28.9549 193.428 29.2532 193.357C29.5515 193.286 29.8555 193.232 30.1651 193.195C30.5572 193.149 30.8754 193.112 31.1197 193.084C31.364 193.053 31.5415 193.003 31.6523 192.935C31.7631 192.866 31.8185 192.756 31.8185 192.602V192.572C31.8185 192.2 31.7134 191.912 31.5032 191.707C31.2958 191.503 30.9862 191.401 30.5742 191.401C30.1452 191.401 29.8072 191.496 29.56 191.686C29.3157 191.874 29.1467 192.082 29.0529 192.312L27.8555 192.04C27.9975 191.642 28.2049 191.321 28.4776 191.077C28.7532 190.83 29.07 190.651 29.4279 190.54C29.7859 190.426 30.1623 190.369 30.5572 190.369C30.8185 190.369 31.0955 190.401 31.3881 190.463C31.6836 190.523 31.9592 190.634 32.2148 190.795C32.4734 190.957 32.685 191.189 32.8498 191.49C33.0146 191.788 33.0969 192.176 33.0969 192.653V197H31.8526V196.105H31.8015C31.7191 196.27 31.5955 196.432 31.4308 196.591C31.266 196.75 31.0543 196.882 30.7958 196.987C30.5373 197.092 30.2276 197.145 29.8668 197.145ZM30.1438 196.122C30.4961 196.122 30.7972 196.053 31.0472 195.913C31.3001 195.774 31.4918 195.592 31.6225 195.368C31.756 195.141 31.8228 194.898 31.8228 194.639V193.795C31.7773 193.841 31.6893 193.884 31.5586 193.923C31.4308 193.96 31.2844 193.993 31.1197 194.021C30.9549 194.047 30.7944 194.071 30.6381 194.094C30.4819 194.114 30.3512 194.131 30.2461 194.145C29.9989 194.176 29.7731 194.229 29.5685 194.303C29.3668 194.376 29.2049 194.483 29.0827 194.622C28.9634 194.759 28.9038 194.94 28.9038 195.168C28.9038 195.483 29.0202 195.722 29.2532 195.884C29.4862 196.043 29.783 196.122 30.1438 196.122ZM37.2443 197.128C36.7159 197.128 36.2443 196.993 35.8295 196.723C35.4176 196.45 35.0938 196.062 34.858 195.56C34.625 195.054 34.5085 194.447 34.5085 193.74C34.5085 193.033 34.6264 192.428 34.8622 191.925C35.1009 191.422 35.4276 191.037 35.8423 190.77C36.2571 190.503 36.7273 190.369 37.2528 190.369C37.6591 190.369 37.9858 190.438 38.233 190.574C38.483 190.707 38.6761 190.864 38.8125 191.043C38.9517 191.222 39.0597 191.379 39.1364 191.516H39.2131V188.273H40.4872V197H39.2429V195.982H39.1364C39.0597 196.121 38.9489 196.28 38.804 196.459C38.6619 196.638 38.4659 196.794 38.2159 196.928C37.9659 197.061 37.642 197.128 37.2443 197.128ZM37.5256 196.041C37.892 196.041 38.2017 195.945 38.4545 195.751C38.7102 195.555 38.9034 195.284 39.0341 194.938C39.1676 194.591 39.2344 194.187 39.2344 193.727C39.2344 193.273 39.169 192.875 39.0384 192.534C38.9077 192.193 38.7159 191.928 38.4631 191.737C38.2102 191.547 37.8977 191.452 37.5256 191.452C37.142 191.452 36.8224 191.551 36.5668 191.75C36.3111 191.949 36.1179 192.22 35.9872 192.564C35.8594 192.908 35.7955 193.295 35.7955 193.727C35.7955 194.165 35.8608 194.558 35.9915 194.908C36.1222 195.257 36.3153 195.534 36.571 195.739C36.8295 195.94 37.1477 196.041 37.5256 196.041ZM45.1268 197.132C44.4819 197.132 43.9265 196.994 43.4606 196.719C42.9975 196.44 42.6396 196.05 42.3867 195.547C42.1367 195.041 42.0117 194.449 42.0117 193.77C42.0117 193.099 42.1367 192.509 42.3867 191.997C42.6396 191.486 42.9918 191.087 43.4435 190.8C43.8981 190.513 44.4293 190.369 45.0373 190.369C45.4066 190.369 45.7646 190.43 46.1112 190.553C46.4577 190.675 46.7688 190.866 47.0444 191.128C47.32 191.389 47.5373 191.729 47.6964 192.146C47.8555 192.561 47.935 193.065 47.935 193.659V194.111H42.7319V193.156H46.6864C46.6864 192.821 46.6183 192.524 46.4819 192.266C46.3455 192.004 46.1538 191.798 45.9066 191.648C45.6623 191.497 45.3754 191.422 45.0458 191.422C44.6879 191.422 44.3754 191.51 44.1083 191.686C43.8441 191.859 43.6396 192.087 43.4947 192.368C43.3526 192.646 43.2816 192.949 43.2816 193.276V194.021C43.2816 194.459 43.3583 194.831 43.5117 195.138C43.668 195.445 43.8853 195.679 44.1637 195.841C44.4421 196 44.7674 196.08 45.1396 196.08C45.381 196.08 45.6012 196.045 45.8001 195.977C45.9989 195.906 46.1708 195.801 46.3157 195.662C46.4606 195.523 46.5714 195.351 46.6481 195.146L47.854 195.364C47.7575 195.719 47.5842 196.03 47.3342 196.297C47.087 196.561 46.7759 196.767 46.4009 196.915C46.0288 197.06 45.604 197.132 45.1268 197.132ZM49.3487 197V190.455H50.5717V191.52H50.6527C50.7891 191.159 51.0121 190.878 51.3217 190.676C51.6314 190.472 52.0021 190.369 52.4339 190.369C52.8714 190.369 53.2379 190.472 53.5334 190.676C53.8317 190.881 54.0518 191.162 54.1939 191.52H54.2621C54.4183 191.17 54.6669 190.892 55.0078 190.685C55.3487 190.474 55.755 190.369 56.2266 190.369C56.8203 190.369 57.3047 190.555 57.6797 190.928C58.0575 191.3 58.2464 191.861 58.2464 192.611V197H56.9723V192.73C56.9723 192.287 56.8516 191.966 56.6101 191.767C56.3686 191.568 56.0803 191.469 55.745 191.469C55.3303 191.469 55.0078 191.597 54.7777 191.852C54.5476 192.105 54.4325 192.43 54.4325 192.828V197H53.1626V192.649C53.1626 192.294 53.0518 192.009 52.8303 191.793C52.6087 191.577 52.3203 191.469 51.9652 191.469C51.7237 191.469 51.5007 191.533 51.2962 191.661C51.0945 191.786 50.9311 191.96 50.8061 192.185C50.6839 192.409 50.6229 192.669 50.6229 192.964V197H49.3487ZM59.9542 197V190.455H61.2283V197H59.9542ZM60.5977 189.445C60.3761 189.445 60.1857 189.371 60.0266 189.223C59.8704 189.072 59.7923 188.893 59.7923 188.686C59.7923 188.476 59.8704 188.297 60.0266 188.149C60.1857 187.999 60.3761 187.923 60.5977 187.923C60.8192 187.923 61.0082 187.999 61.1644 188.149C61.3235 188.297 61.4031 188.476 61.4031 188.686C61.4031 188.893 61.3235 189.072 61.1644 189.223C61.0082 189.371 60.8192 189.445 60.5977 189.445ZM65.6996 197.132C65.0661 197.132 64.5206 196.989 64.0632 196.702C63.6087 196.412 63.2592 196.013 63.0149 195.504C62.7706 194.996 62.6484 194.413 62.6484 193.757C62.6484 193.092 62.7734 192.506 63.0234 191.997C63.2734 191.486 63.6257 191.087 64.0803 190.8C64.5348 190.513 65.0703 190.369 65.6868 190.369C66.1839 190.369 66.6271 190.462 67.0163 190.646C67.4055 190.828 67.7195 191.084 67.9581 191.413C68.1996 191.743 68.343 192.128 68.3885 192.568H67.1484C67.0803 192.261 66.924 191.997 66.6797 191.776C66.4382 191.554 66.1143 191.443 65.7081 191.443C65.353 191.443 65.0419 191.537 64.7749 191.724C64.5107 191.909 64.3047 192.173 64.157 192.517C64.0092 192.858 63.9354 193.261 63.9354 193.727C63.9354 194.205 64.0078 194.616 64.1527 194.963C64.2976 195.31 64.5021 195.578 64.7663 195.768C65.0334 195.959 65.3473 196.054 65.7081 196.054C65.9496 196.054 66.1683 196.01 66.3643 195.922C66.5632 195.831 66.7294 195.702 66.8629 195.534C66.9993 195.366 67.0945 195.165 67.1484 194.929H68.3885C68.343 195.352 68.2053 195.73 67.9751 196.062C67.745 196.395 67.4368 196.656 67.0504 196.847C66.6669 197.037 66.2166 197.132 65.6996 197.132ZM73.0291 188.273H74.6271L77.4055 195.057H77.5078L80.2862 188.273H81.8842V197H80.6314V190.685H80.5504L77.9766 196.987H76.9368L74.3629 190.68H74.282V197H73.0291V188.273ZM86.5174 197.132C85.8725 197.132 85.3171 196.994 84.8512 196.719C84.3881 196.44 84.0302 196.05 83.7773 195.547C83.5273 195.041 83.4023 194.449 83.4023 193.77C83.4023 193.099 83.5273 192.509 83.7773 191.997C84.0302 191.486 84.3825 191.087 84.8342 190.8C85.2887 190.513 85.82 190.369 86.4279 190.369C86.7972 190.369 87.1552 190.43 87.5018 190.553C87.8484 190.675 88.1594 190.866 88.435 191.128C88.7106 191.389 88.9279 191.729 89.087 192.146C89.2461 192.561 89.3256 193.065 89.3256 193.659V194.111H84.1225V193.156H88.0771C88.0771 192.821 88.0089 192.524 87.8725 192.266C87.7362 192.004 87.5444 191.798 87.2972 191.648C87.0529 191.497 86.766 191.422 86.4364 191.422C86.0785 191.422 85.766 191.51 85.4989 191.686C85.2347 191.859 85.0302 192.087 84.8853 192.368C84.7433 192.646 84.6722 192.949 84.6722 193.276V194.021C84.6722 194.459 84.7489 194.831 84.9023 195.138C85.0586 195.445 85.2759 195.679 85.5543 195.841C85.8327 196 86.158 196.08 86.5302 196.08C86.7717 196.08 86.9918 196.045 87.1907 195.977C87.3896 195.906 87.5614 195.801 87.7063 195.662C87.8512 195.523 87.962 195.351 88.0387 195.146L89.2447 195.364C89.1481 195.719 88.9748 196.03 88.7248 196.297C88.4776 196.561 88.1665 196.767 87.7915 196.915C87.4194 197.06 86.9947 197.132 86.5174 197.132ZM93.7947 190.455V191.477H90.2195V190.455H93.7947ZM91.1783 188.886H92.4524V195.078C92.4524 195.325 92.4893 195.511 92.5632 195.636C92.6371 195.759 92.7322 195.842 92.8487 195.888C92.968 195.93 93.0973 195.952 93.2365 195.952C93.3388 195.952 93.4283 195.945 93.505 195.93C93.5817 195.916 93.6413 195.905 93.6839 195.896L93.9141 196.949C93.8402 196.977 93.7351 197.006 93.5987 197.034C93.4624 197.065 93.2919 197.082 93.0874 197.085C92.7521 197.091 92.4396 197.031 92.1499 196.906C91.8601 196.781 91.6257 196.588 91.4467 196.327C91.2678 196.065 91.1783 195.737 91.1783 195.342V188.886ZM95.2042 197V190.455H96.4357V191.494H96.5039C96.6232 191.142 96.8335 190.865 97.1346 190.663C97.4386 190.459 97.7823 190.357 98.1658 190.357C98.2454 190.357 98.3391 190.359 98.4471 190.365C98.5579 190.371 98.6445 190.378 98.707 190.386V191.605C98.6559 191.591 98.565 191.575 98.4343 191.558C98.3036 191.538 98.1729 191.528 98.0423 191.528C97.7411 191.528 97.4727 191.592 97.2369 191.72C97.0039 191.845 96.8192 192.02 96.6829 192.244C96.5465 192.466 96.4783 192.719 96.4783 193.003V197H95.2042ZM99.8097 197V190.455H101.084V197H99.8097ZM100.453 189.445C100.232 189.445 100.041 189.371 99.8821 189.223C99.7259 189.072 99.6477 188.893 99.6477 188.686C99.6477 188.476 99.7259 188.297 99.8821 188.149C100.041 187.999 100.232 187.923 100.453 187.923C100.675 187.923 100.864 187.999 101.02 188.149C101.179 188.297 101.259 188.476 101.259 188.686C101.259 188.893 101.179 189.072 101.02 189.223C100.864 189.371 100.675 189.445 100.453 189.445ZM105.555 197.132C104.922 197.132 104.376 196.989 103.919 196.702C103.464 196.412 103.115 196.013 102.87 195.504C102.626 194.996 102.504 194.413 102.504 193.757C102.504 193.092 102.629 192.506 102.879 191.997C103.129 191.486 103.481 191.087 103.936 190.8C104.39 190.513 104.926 190.369 105.542 190.369C106.039 190.369 106.483 190.462 106.872 190.646C107.261 190.828 107.575 191.084 107.814 191.413C108.055 191.743 108.199 192.128 108.244 192.568H107.004C106.936 192.261 106.779 191.997 106.535 191.776C106.294 191.554 105.97 191.443 105.564 191.443C105.208 191.443 104.897 191.537 104.63 191.724C104.366 191.909 104.16 192.173 104.012 192.517C103.865 192.858 103.791 193.261 103.791 193.727C103.791 194.205 103.863 194.616 104.008 194.963C104.153 195.31 104.358 195.578 104.622 195.768C104.889 195.959 105.203 196.054 105.564 196.054C105.805 196.054 106.024 196.01 106.22 195.922C106.419 195.831 106.585 195.702 106.718 195.534C106.855 195.366 106.95 195.165 107.004 194.929H108.244C108.199 195.352 108.061 195.73 107.831 196.062C107.6 196.395 107.292 196.656 106.906 196.847C106.522 197.037 106.072 197.132 105.555 197.132ZM114.511 192.053L113.357 192.257C113.308 192.109 113.232 191.969 113.126 191.835C113.024 191.702 112.885 191.592 112.709 191.507C112.533 191.422 112.313 191.379 112.048 191.379C111.688 191.379 111.386 191.46 111.145 191.622C110.903 191.781 110.783 191.987 110.783 192.24C110.783 192.459 110.864 192.635 111.026 192.768C111.188 192.902 111.449 193.011 111.81 193.097L112.849 193.335C113.452 193.474 113.901 193.689 114.196 193.979C114.491 194.268 114.639 194.645 114.639 195.108C114.639 195.5 114.526 195.849 114.298 196.156C114.074 196.46 113.76 196.699 113.357 196.872C112.956 197.045 112.491 197.132 111.963 197.132C111.23 197.132 110.632 196.976 110.169 196.663C109.706 196.348 109.422 195.901 109.317 195.321L110.548 195.134C110.625 195.455 110.783 195.697 111.021 195.862C111.26 196.024 111.571 196.105 111.955 196.105C112.372 196.105 112.706 196.018 112.956 195.845C113.206 195.669 113.331 195.455 113.331 195.202C113.331 194.997 113.254 194.825 113.101 194.686C112.95 194.547 112.719 194.442 112.406 194.371L111.298 194.128C110.688 193.989 110.236 193.767 109.943 193.463C109.653 193.159 109.509 192.774 109.509 192.308C109.509 191.922 109.616 191.584 109.832 191.294C110.048 191.004 110.347 190.778 110.727 190.616C111.108 190.452 111.544 190.369 112.036 190.369C112.743 190.369 113.3 190.523 113.706 190.83C114.112 191.134 114.381 191.541 114.511 192.053Z" fill="#070452"/>
<path d="M144 187.05C144 186.785 143.895 186.53 143.707 186.343C143.52 186.155 143.265 186.05 143 186.05L135 186C134.735 186 134.48 186.105 134.293 186.293C134.105 186.48 134 186.735 134 187C134 187.265 134.105 187.52 134.293 187.707C134.48 187.895 134.735 188 135 188H140.56L132.29 196.29C132.196 196.383 132.122 196.494 132.071 196.615C132.02 196.737 131.994 196.868 131.994 197C131.994 197.132 132.02 197.263 132.071 197.385C132.122 197.506 132.196 197.617 132.29 197.71C132.383 197.804 132.494 197.878 132.615 197.929C132.737 197.98 132.868 198.006 133 198.006C133.132 198.006 133.263 197.98 133.385 197.929C133.506 197.878 133.617 197.804 133.71 197.71L142 189.42V195C142 195.265 142.105 195.52 142.293 195.707C142.48 195.895 142.735 196 143 196C143.265 196 143.52 195.895 143.707 195.707C143.895 195.52 144 195.265 144 195V187.05Z" fill="black"/>
<defs>
<filter id="filter0_dddd_106_575" x="118.984" y="15.5694" width="106.864" height="105.526" filterUnits="userSpaceOnUse" color-interpolation-filters="sRGB">
<feFlood flood-opacity="0" result="BackgroundImageFix"/>
<feColorMatrix in="SourceAlpha" type="matrix" values="0 0 0 0 0 0 0 0 0 0 0 0 0 0 0 0 0 0 127 0" result="hardAlpha"/>
<feOffset dy="0.576642"/>
<feGaussianBlur stdDeviation="0.864964"/>
<feColorMatrix type="matrix" values="0 0 0 0 0.0745098 0 0 0 0 0.0392157 0 0 0 0 0.180392 0 0 0 0.13 0"/>
<feBlend mode="normal" in2="BackgroundImageFix" result="effect1_dropShadow_106_575"/>
<feColorMatrix in="SourceAlpha" type="matrix" values="0 0 0 0 0 0 0 0 0 0 0 0 0 0 0 0 0 0 127 0" result="hardAlpha"/>
<feOffset dy="1.72993"/>
<feGaussianBlur stdDeviation="4.0365"/>
<feColorMatrix type="matrix" values="0 0 0 0 0.0745098 0 0 0 0 0.0392157 0 0 0 0 0.180392 0 0 0 0.03 0"/>
<feBlend mode="normal" in2="effect1_dropShadow_106_575" result="effect2_dropShadow_106_575"/>
<feColorMatrix in="SourceAlpha" type="matrix" values="0 0 0 0 0 0 0 0 0 0 0 0 0 0 0 0 0 0 127 0" result="hardAlpha"/>
<feOffset dy="4.61314"/>
<feGaussianBlur stdDeviation="9.22628"/>
<feColorMatrix type="matrix" values="0 0 0 0 0.0745098 0 0 0 0 0.0392157 0 0 0 0 0.180392 0 0 0 0.07 0"/>
<feBlend mode="normal" in2="effect2_dropShadow_106_575" result="effect3_dropShadow_106_575"/>
<feColorMatrix in="SourceAlpha" type="matrix" values="0 0 0 0 0 0 0 0 0 0 0 0 0 0 0 0 0 0 127 0" result="hardAlpha"/>
<feOffset dy="17.2993"/>
<feGaussianBlur stdDeviation="24.219"/>
<feColorMatrix type="matrix" values="0 0 0 0 0.0745098 0 0 0 0 0.0392157 0 0 0 0 0.180392 0 0 0 0.12 0"/>
<feBlend mode="normal" in2="effect3_dropShadow_106_575" result="effect4_dropShadow_106_575"/>
<feBlend mode="normal" in="SourceGraphic" in2="effect4_dropShadow_106_575" result="shape"/>
</filter>
<linearGradient id="paint0_linear_106_575" x1="0" y1="10.9562" x2="314.847" y2="10.9562" gradientUnits="userSpaceOnUse">
<stop stop-color="white"/>
<stop offset="1" stop-color="#CBCBCB"/>
</linearGradient>
</defs>
</svg>
