<svg width="336" height="244" viewBox="0 0 336 244" fill="none" xmlns="http://www.w3.org/2000/svg">
<rect width="90" height="20" rx="10" fill="#506BED"/>
<path d="M18.1094 12.3867V13H15.2656V12.3867H18.1094ZM15.4141 7.3125V13H14.6602V7.3125H15.4141ZM20.6172 13.0781C20.3229 13.0781 20.056 13.0286 19.8164 12.9297C19.5794 12.8281 19.375 12.6862 19.2031 12.5039C19.0339 12.3216 18.9036 12.1055 18.8125 11.8555C18.7214 11.6055 18.6758 11.332 18.6758 11.0352V10.8711C18.6758 10.5273 18.7266 10.2214 18.8281 9.95312C18.9297 9.68229 19.0677 9.45312 19.2422 9.26562C19.4167 9.07812 19.6146 8.9362 19.8359 8.83984C20.0573 8.74349 20.2865 8.69531 20.5234 8.69531C20.8255 8.69531 21.0859 8.7474 21.3047 8.85156C21.526 8.95573 21.707 9.10156 21.8477 9.28906C21.9883 9.47396 22.0924 9.69271 22.1602 9.94531C22.2279 10.1953 22.2617 10.4688 22.2617 10.7656V11.0898H19.1055V10.5H21.5391V10.4453C21.5286 10.2578 21.4896 10.0755 21.4219 9.89844C21.3568 9.72135 21.2526 9.57552 21.1094 9.46094C20.9661 9.34635 20.7708 9.28906 20.5234 9.28906C20.3594 9.28906 20.2083 9.32422 20.0703 9.39453C19.9323 9.46224 19.8138 9.5638 19.7148 9.69922C19.6159 9.83464 19.5391 10 19.4844 10.1953C19.4297 10.3906 19.4023 10.6159 19.4023 10.8711V11.0352C19.4023 11.2357 19.4297 11.4245 19.4844 11.6016C19.5417 11.776 19.6237 11.9297 19.7305 12.0625C19.8398 12.1953 19.9714 12.2995 20.125 12.375C20.2812 12.4505 20.4583 12.4883 20.6562 12.4883C20.9115 12.4883 21.1276 12.4362 21.3047 12.332C21.4818 12.2279 21.6367 12.0885 21.7695 11.9141L22.207 12.2617C22.1159 12.3997 22 12.5312 21.8594 12.6562C21.7188 12.7812 21.5456 12.8828 21.3398 12.9609C21.1367 13.0391 20.8958 13.0781 20.6172 13.0781ZM25.5664 11.8789C25.5664 11.7747 25.543 11.6784 25.4961 11.5898C25.4518 11.4987 25.3594 11.4167 25.2188 11.3438C25.0807 11.2682 24.8724 11.2031 24.5938 11.1484C24.3594 11.099 24.1471 11.0404 23.957 10.9727C23.7695 10.9049 23.6094 10.8229 23.4766 10.7266C23.3464 10.6302 23.2461 10.5169 23.1758 10.3867C23.1055 10.2565 23.0703 10.1042 23.0703 9.92969C23.0703 9.76302 23.1068 9.60547 23.1797 9.45703C23.2552 9.30859 23.3607 9.17708 23.4961 9.0625C23.6341 8.94792 23.7995 8.85807 23.9922 8.79297C24.1849 8.72786 24.3997 8.69531 24.6367 8.69531C24.9753 8.69531 25.2643 8.75521 25.5039 8.875C25.7435 8.99479 25.9271 9.15495 26.0547 9.35547C26.1823 9.55339 26.2461 9.77344 26.2461 10.0156H25.5234C25.5234 9.89844 25.4883 9.78516 25.418 9.67578C25.3503 9.5638 25.25 9.47135 25.1172 9.39844C24.987 9.32552 24.8268 9.28906 24.6367 9.28906C24.4362 9.28906 24.2734 9.32031 24.1484 9.38281C24.026 9.44271 23.9362 9.51953 23.8789 9.61328C23.8242 9.70703 23.7969 9.80599 23.7969 9.91016C23.7969 9.98828 23.8099 10.0586 23.8359 10.1211C23.8646 10.181 23.9141 10.237 23.9844 10.2891C24.0547 10.3385 24.1536 10.3854 24.2812 10.4297C24.4089 10.474 24.5716 10.5182 24.7695 10.5625C25.1159 10.6406 25.401 10.7344 25.625 10.8438C25.849 10.9531 26.0156 11.0872 26.125 11.2461C26.2344 11.4049 26.2891 11.5977 26.2891 11.8242C26.2891 12.0091 26.25 12.1784 26.1719 12.332C26.0964 12.4857 25.9857 12.6185 25.8398 12.7305C25.6966 12.8398 25.5247 12.9258 25.3242 12.9883C25.1263 13.0482 24.9036 13.0781 24.6562 13.0781C24.2839 13.0781 23.9688 13.0117 23.7109 12.8789C23.4531 12.7461 23.2578 12.5742 23.125 12.3633C22.9922 12.1523 22.9258 11.9297 22.9258 11.6953H23.6523C23.6628 11.8932 23.7201 12.0508 23.8242 12.168C23.9284 12.2826 24.056 12.3646 24.207 12.4141C24.3581 12.4609 24.5078 12.4844 24.6562 12.4844C24.8542 12.4844 25.0195 12.4583 25.1523 12.4062C25.2878 12.3542 25.3906 12.2826 25.4609 12.1914C25.5312 12.1003 25.5664 11.9961 25.5664 11.8789ZM29.6992 11.8789C29.6992 11.7747 29.6758 11.6784 29.6289 11.5898C29.5846 11.4987 29.4922 11.4167 29.3516 11.3438C29.2135 11.2682 29.0052 11.2031 28.7266 11.1484C28.4922 11.099 28.2799 11.0404 28.0898 10.9727C27.9023 10.9049 27.7422 10.8229 27.6094 10.7266C27.4792 10.6302 27.3789 10.5169 27.3086 10.3867C27.2383 10.2565 27.2031 10.1042 27.2031 9.92969C27.2031 9.76302 27.2396 9.60547 27.3125 9.45703C27.388 9.30859 27.4935 9.17708 27.6289 9.0625C27.7669 8.94792 27.9323 8.85807 28.125 8.79297C28.3177 8.72786 28.5326 8.69531 28.7695 8.69531C29.1081 8.69531 29.3971 8.75521 29.6367 8.875C29.8763 8.99479 30.0599 9.15495 30.1875 9.35547C30.3151 9.55339 30.3789 9.77344 30.3789 10.0156H29.6562C29.6562 9.89844 29.6211 9.78516 29.5508 9.67578C29.4831 9.5638 29.3828 9.47135 29.25 9.39844C29.1198 9.32552 28.9596 9.28906 28.7695 9.28906C28.569 9.28906 28.4062 9.32031 28.2812 9.38281C28.1589 9.44271 28.069 9.51953 28.0117 9.61328C27.957 9.70703 27.9297 9.80599 27.9297 9.91016C27.9297 9.98828 27.9427 10.0586 27.9688 10.1211C27.9974 10.181 28.0469 10.237 28.1172 10.2891C28.1875 10.3385 28.2865 10.3854 28.4141 10.4297C28.5417 10.474 28.7044 10.5182 28.9023 10.5625C29.2487 10.6406 29.5339 10.7344 29.7578 10.8438C29.9818 10.9531 30.1484 11.0872 30.2578 11.2461C30.3672 11.4049 30.4219 11.5977 30.4219 11.8242C30.4219 12.0091 30.3828 12.1784 30.3047 12.332C30.2292 12.4857 30.1185 12.6185 29.9727 12.7305C29.8294 12.8398 29.6576 12.9258 29.457 12.9883C29.2591 13.0482 29.0365 13.0781 28.7891 13.0781C28.4167 13.0781 28.1016 13.0117 27.8438 12.8789C27.5859 12.7461 27.3906 12.5742 27.2578 12.3633C27.125 12.1523 27.0586 11.9297 27.0586 11.6953H27.7852C27.7956 11.8932 27.8529 12.0508 27.957 12.168C28.0612 12.2826 28.1888 12.3646 28.3398 12.4141C28.4909 12.4609 28.6406 12.4844 28.7891 12.4844C28.987 12.4844 29.1523 12.4583 29.2852 12.4062C29.4206 12.3542 29.5234 12.2826 29.5938 12.1914C29.6641 12.1003 29.6992 11.9961 29.6992 11.8789ZM36.8984 11.1914H37.6484C37.6094 11.5508 37.5065 11.8724 37.3398 12.1562C37.1732 12.4401 36.9375 12.6654 36.6328 12.832C36.3281 12.9961 35.9479 13.0781 35.4922 13.0781C35.1589 13.0781 34.8555 13.0156 34.582 12.8906C34.3112 12.7656 34.0781 12.5885 33.8828 12.3594C33.6875 12.1276 33.5365 11.8503 33.4297 11.5273C33.3255 11.2018 33.2734 10.8398 33.2734 10.4414V9.875C33.2734 9.47656 33.3255 9.11589 33.4297 8.79297C33.5365 8.46745 33.6888 8.1888 33.8867 7.95703C34.0872 7.72526 34.3281 7.54688 34.6094 7.42188C34.8906 7.29688 35.207 7.23438 35.5586 7.23438C35.9883 7.23438 36.3516 7.3151 36.6484 7.47656C36.9453 7.63802 37.1758 7.86198 37.3398 8.14844C37.5065 8.43229 37.6094 8.76172 37.6484 9.13672H36.8984C36.862 8.87109 36.7943 8.64323 36.6953 8.45312C36.5964 8.26042 36.4557 8.11198 36.2734 8.00781C36.0911 7.90365 35.8529 7.85156 35.5586 7.85156C35.306 7.85156 35.0833 7.89974 34.8906 7.99609C34.7005 8.09245 34.5404 8.22917 34.4102 8.40625C34.2826 8.58333 34.1862 8.79557 34.1211 9.04297C34.056 9.29036 34.0234 9.5651 34.0234 9.86719V10.4414C34.0234 10.7201 34.0521 10.9818 34.1094 11.2266C34.1693 11.4714 34.2591 11.6862 34.3789 11.8711C34.4987 12.056 34.651 12.2018 34.8359 12.3086C35.0208 12.4128 35.2396 12.4648 35.4922 12.4648C35.8125 12.4648 36.0677 12.4141 36.2578 12.3125C36.4479 12.2109 36.5911 12.0651 36.6875 11.875C36.7865 11.6849 36.8568 11.457 36.8984 11.1914ZM38.375 10.9336V10.8438C38.375 10.5391 38.4193 10.2565 38.5078 9.99609C38.5964 9.73307 38.724 9.50521 38.8906 9.3125C39.0573 9.11719 39.2591 8.96615 39.4961 8.85938C39.7331 8.75 39.9987 8.69531 40.293 8.69531C40.5898 8.69531 40.8568 8.75 41.0938 8.85938C41.3333 8.96615 41.5365 9.11719 41.7031 9.3125C41.8724 9.50521 42.0013 9.73307 42.0898 9.99609C42.1784 10.2565 42.2227 10.5391 42.2227 10.8438V10.9336C42.2227 11.2383 42.1784 11.5208 42.0898 11.7812C42.0013 12.0417 41.8724 12.2695 41.7031 12.4648C41.5365 12.6576 41.3346 12.8086 41.0977 12.918C40.8633 13.0247 40.5977 13.0781 40.3008 13.0781C40.0039 13.0781 39.737 13.0247 39.5 12.918C39.263 12.8086 39.0599 12.6576 38.8906 12.4648C38.724 12.2695 38.5964 12.0417 38.5078 11.7812C38.4193 11.5208 38.375 11.2383 38.375 10.9336ZM39.0977 10.8438V10.9336C39.0977 11.1445 39.1224 11.3438 39.1719 11.5312C39.2214 11.7161 39.2956 11.8802 39.3945 12.0234C39.4961 12.1667 39.6224 12.2799 39.7734 12.3633C39.9245 12.444 40.1003 12.4844 40.3008 12.4844C40.4987 12.4844 40.6719 12.444 40.8203 12.3633C40.9714 12.2799 41.0964 12.1667 41.1953 12.0234C41.2943 11.8802 41.3685 11.7161 41.418 11.5312C41.4701 11.3438 41.4961 11.1445 41.4961 10.9336V10.8438C41.4961 10.6354 41.4701 10.4388 41.418 10.2539C41.3685 10.0664 41.293 9.90104 41.1914 9.75781C41.0924 9.61198 40.9674 9.4974 40.8164 9.41406C40.668 9.33073 40.4935 9.28906 40.293 9.28906C40.0951 9.28906 39.9206 9.33073 39.7695 9.41406C39.6211 9.4974 39.4961 9.61198 39.3945 9.75781C39.2956 9.90104 39.2214 10.0664 39.1719 10.2539C39.1224 10.4388 39.0977 10.6354 39.0977 10.8438ZM43.8477 9.61328V13H43.1211V8.77344H43.8086L43.8477 9.61328ZM43.6992 10.7266L43.3633 10.7148C43.3659 10.4258 43.4036 10.1589 43.4766 9.91406C43.5495 9.66667 43.6576 9.45182 43.8008 9.26953C43.944 9.08724 44.1224 8.94661 44.3359 8.84766C44.5495 8.74609 44.7969 8.69531 45.0781 8.69531C45.276 8.69531 45.4583 8.72396 45.625 8.78125C45.7917 8.83594 45.9362 8.92318 46.0586 9.04297C46.181 9.16276 46.276 9.31641 46.3438 9.50391C46.4115 9.69141 46.4453 9.91797 46.4453 10.1836V13H45.7227V10.2188C45.7227 9.9974 45.6849 9.82031 45.6094 9.6875C45.5365 9.55469 45.4323 9.45833 45.2969 9.39844C45.1615 9.33594 45.0026 9.30469 44.8203 9.30469C44.6068 9.30469 44.4284 9.34245 44.2852 9.41797C44.1419 9.49349 44.0273 9.59766 43.9414 9.73047C43.8555 9.86328 43.793 10.0156 43.7539 10.1875C43.7174 10.3568 43.6992 10.5365 43.6992 10.7266ZM46.4375 10.3281L45.9531 10.4766C45.9557 10.2448 45.9935 10.0221 46.0664 9.80859C46.1419 9.59505 46.25 9.40495 46.3906 9.23828C46.5339 9.07161 46.7096 8.9401 46.918 8.84375C47.1263 8.74479 47.3646 8.69531 47.6328 8.69531C47.8594 8.69531 48.0599 8.72526 48.2344 8.78516C48.4115 8.84505 48.5599 8.9375 48.6797 9.0625C48.8021 9.1849 48.8945 9.34245 48.957 9.53516C49.0195 9.72786 49.0508 9.95703 49.0508 10.2227V13H48.3242V10.2148C48.3242 9.97786 48.2865 9.79427 48.2109 9.66406C48.138 9.53125 48.0339 9.4388 47.8984 9.38672C47.7656 9.33203 47.6068 9.30469 47.4219 9.30469C47.263 9.30469 47.1224 9.33203 47 9.38672C46.8776 9.44141 46.7747 9.51693 46.6914 9.61328C46.6081 9.70703 46.5443 9.8151 46.5 9.9375C46.4583 10.0599 46.4375 10.1901 46.4375 10.3281ZM50.8672 9.58594V14.625H50.1406V8.77344H50.8047L50.8672 9.58594ZM53.7148 10.8516V10.9336C53.7148 11.2409 53.6784 11.526 53.6055 11.7891C53.5326 12.0495 53.4258 12.276 53.2852 12.4688C53.1471 12.6615 52.9766 12.8112 52.7734 12.918C52.5703 13.0247 52.3372 13.0781 52.0742 13.0781C51.806 13.0781 51.569 13.0339 51.3633 12.9453C51.1576 12.8568 50.9831 12.7279 50.8398 12.5586C50.6966 12.3893 50.582 12.1862 50.4961 11.9492C50.4128 11.7122 50.3555 11.4453 50.3242 11.1484V10.7109C50.3555 10.3984 50.4141 10.1185 50.5 9.87109C50.5859 9.6237 50.6992 9.41276 50.8398 9.23828C50.9831 9.0612 51.1562 8.92708 51.3594 8.83594C51.5625 8.74219 51.7969 8.69531 52.0625 8.69531C52.3281 8.69531 52.5638 8.7474 52.7695 8.85156C52.9753 8.95312 53.1484 9.09896 53.2891 9.28906C53.4297 9.47917 53.5352 9.70703 53.6055 9.97266C53.6784 10.2357 53.7148 10.5286 53.7148 10.8516ZM52.9883 10.9336V10.8516C52.9883 10.6406 52.9661 10.4427 52.9219 10.2578C52.8776 10.0703 52.8086 9.90625 52.7148 9.76562C52.6237 9.6224 52.5065 9.51042 52.3633 9.42969C52.2201 9.34635 52.0495 9.30469 51.8516 9.30469C51.6693 9.30469 51.5104 9.33594 51.375 9.39844C51.2422 9.46094 51.1289 9.54557 51.0352 9.65234C50.9414 9.75651 50.8646 9.8763 50.8047 10.0117C50.7474 10.1445 50.7044 10.2826 50.6758 10.4258V11.4375C50.7279 11.6198 50.8008 11.7917 50.8945 11.9531C50.9883 12.112 51.1133 12.2409 51.2695 12.3398C51.4258 12.4362 51.6224 12.4844 51.8594 12.4844C52.0547 12.4844 52.2227 12.444 52.3633 12.3633C52.5065 12.2799 52.6237 12.1667 52.7148 12.0234C52.8086 11.8802 52.8776 11.7161 52.9219 11.5312C52.9661 11.3438 52.9883 11.1445 52.9883 10.9336ZM56.3906 13.0781C56.0964 13.0781 55.8294 13.0286 55.5898 12.9297C55.3529 12.8281 55.1484 12.6862 54.9766 12.5039C54.8073 12.3216 54.6771 12.1055 54.5859 11.8555C54.4948 11.6055 54.4492 11.332 54.4492 11.0352V10.8711C54.4492 10.5273 54.5 10.2214 54.6016 9.95312C54.7031 9.68229 54.8411 9.45312 55.0156 9.26562C55.1901 9.07812 55.388 8.9362 55.6094 8.83984C55.8307 8.74349 56.0599 8.69531 56.2969 8.69531C56.599 8.69531 56.8594 8.7474 57.0781 8.85156C57.2995 8.95573 57.4805 9.10156 57.6211 9.28906C57.7617 9.47396 57.8659 9.69271 57.9336 9.94531C58.0013 10.1953 58.0352 10.4688 58.0352 10.7656V11.0898H54.8789V10.5H57.3125V10.4453C57.3021 10.2578 57.263 10.0755 57.1953 9.89844C57.1302 9.72135 57.026 9.57552 56.8828 9.46094C56.7396 9.34635 56.5443 9.28906 56.2969 9.28906C56.1328 9.28906 55.9818 9.32422 55.8438 9.39453C55.7057 9.46224 55.5872 9.5638 55.4883 9.69922C55.3893 9.83464 55.3125 10 55.2578 10.1953C55.2031 10.3906 55.1758 10.6159 55.1758 10.8711V11.0352C55.1758 11.2357 55.2031 11.4245 55.2578 11.6016C55.3151 11.776 55.3971 11.9297 55.5039 12.0625C55.6133 12.1953 55.7448 12.2995 55.8984 12.375C56.0547 12.4505 56.2318 12.4883 56.4297 12.4883C56.6849 12.4883 56.901 12.4362 57.0781 12.332C57.2552 12.2279 57.4102 12.0885 57.543 11.9141L57.9805 12.2617C57.8893 12.3997 57.7734 12.5312 57.6328 12.6562C57.4922 12.7812 57.319 12.8828 57.1133 12.9609C56.9102 13.0391 56.6693 13.0781 56.3906 13.0781ZM60.6484 8.77344V9.32812H58.3633V8.77344H60.6484ZM59.1367 7.74609H59.8594V11.9531C59.8594 12.0964 59.8815 12.2044 59.9258 12.2773C59.9701 12.3503 60.0273 12.3984 60.0977 12.4219C60.168 12.4453 60.2435 12.457 60.3242 12.457C60.3841 12.457 60.4466 12.4518 60.5117 12.4414C60.5794 12.4284 60.6302 12.418 60.6641 12.4102L60.668 13C60.6107 13.0182 60.5352 13.0352 60.4414 13.0508C60.3503 13.069 60.2396 13.0781 60.1094 13.0781C59.9323 13.0781 59.7695 13.043 59.6211 12.9727C59.4727 12.9023 59.3542 12.7852 59.2656 12.6211C59.1797 12.4544 59.1367 12.2305 59.1367 11.9492V7.74609ZM62.2812 8.77344V13H61.5547V8.77344H62.2812ZM61.5 7.65234C61.5 7.53516 61.5352 7.4362 61.6055 7.35547C61.6784 7.27474 61.7852 7.23438 61.9258 7.23438C62.0638 7.23438 62.1693 7.27474 62.2422 7.35547C62.3177 7.4362 62.3555 7.53516 62.3555 7.65234C62.3555 7.76432 62.3177 7.86068 62.2422 7.94141C62.1693 8.01953 62.0638 8.05859 61.9258 8.05859C61.7852 8.05859 61.6784 8.01953 61.6055 7.94141C61.5352 7.86068 61.5 7.76432 61.5 7.65234ZM65.2109 8.77344V9.32812H62.9258V8.77344H65.2109ZM63.6992 7.74609H64.4219V11.9531C64.4219 12.0964 64.444 12.2044 64.4883 12.2773C64.5326 12.3503 64.5898 12.3984 64.6602 12.4219C64.7305 12.4453 64.806 12.457 64.8867 12.457C64.9466 12.457 65.0091 12.4518 65.0742 12.4414C65.1419 12.4284 65.1927 12.418 65.2266 12.4102L65.2305 13C65.1732 13.0182 65.0977 13.0352 65.0039 13.0508C64.9128 13.069 64.8021 13.0781 64.6719 13.0781C64.4948 13.0781 64.332 13.043 64.1836 12.9727C64.0352 12.9023 63.9167 12.7852 63.8281 12.6211C63.7422 12.4544 63.6992 12.2305 63.6992 11.9492V7.74609ZM66.8438 8.77344V13H66.1172V8.77344H66.8438ZM66.0625 7.65234C66.0625 7.53516 66.0977 7.4362 66.168 7.35547C66.2409 7.27474 66.3477 7.23438 66.4883 7.23438C66.6263 7.23438 66.7318 7.27474 66.8047 7.35547C66.8802 7.4362 66.918 7.53516 66.918 7.65234C66.918 7.76432 66.8802 7.86068 66.8047 7.94141C66.7318 8.01953 66.6263 8.05859 66.4883 8.05859C66.3477 8.05859 66.2409 8.01953 66.168 7.94141C66.0977 7.86068 66.0625 7.76432 66.0625 7.65234ZM69.2891 12.3477L70.4453 8.77344H71.1836L69.6641 13H69.1797L69.2891 12.3477ZM68.3242 8.77344L69.5156 12.3672L69.5977 13H69.1133L67.582 8.77344H68.3242ZM73.5781 13.0781C73.2839 13.0781 73.0169 13.0286 72.7773 12.9297C72.5404 12.8281 72.3359 12.6862 72.1641 12.5039C71.9948 12.3216 71.8646 12.1055 71.7734 11.8555C71.6823 11.6055 71.6367 11.332 71.6367 11.0352V10.8711C71.6367 10.5273 71.6875 10.2214 71.7891 9.95312C71.8906 9.68229 72.0286 9.45312 72.2031 9.26562C72.3776 9.07812 72.5755 8.9362 72.7969 8.83984C73.0182 8.74349 73.2474 8.69531 73.4844 8.69531C73.7865 8.69531 74.0469 8.7474 74.2656 8.85156C74.487 8.95573 74.668 9.10156 74.8086 9.28906C74.9492 9.47396 75.0534 9.69271 75.1211 9.94531C75.1888 10.1953 75.2227 10.4688 75.2227 10.7656V11.0898H72.0664V10.5H74.5V10.4453C74.4896 10.2578 74.4505 10.0755 74.3828 9.89844C74.3177 9.72135 74.2135 9.57552 74.0703 9.46094C73.9271 9.34635 73.7318 9.28906 73.4844 9.28906C73.3203 9.28906 73.1693 9.32422 73.0312 9.39453C72.8932 9.46224 72.7747 9.5638 72.6758 9.69922C72.5768 9.83464 72.5 10 72.4453 10.1953C72.3906 10.3906 72.3633 10.6159 72.3633 10.8711V11.0352C72.3633 11.2357 72.3906 11.4245 72.4453 11.6016C72.5026 11.776 72.5846 11.9297 72.6914 12.0625C72.8008 12.1953 72.9323 12.2995 73.0859 12.375C73.2422 12.4505 73.4193 12.4883 73.6172 12.4883C73.8724 12.4883 74.0885 12.4362 74.2656 12.332C74.4427 12.2279 74.5977 12.0885 74.7305 11.9141L75.168 12.2617C75.0768 12.3997 74.9609 12.5312 74.8203 12.6562C74.6797 12.7812 74.5065 12.8828 74.3008 12.9609C74.0977 13.0391 73.8568 13.0781 73.5781 13.0781Z" fill="white"/>
<rect x="244" width="92" height="20" rx="10" fill="#506BED"/>
<path d="M258.898 7.3125H259.629L261.492 11.9492L263.352 7.3125H264.086L261.773 13H261.203L258.898 7.3125ZM258.66 7.3125H259.305L259.41 10.7812V13H258.66V7.3125ZM263.676 7.3125H264.32V13H263.57V10.7812L263.676 7.3125ZM265.344 10.9336V10.8438C265.344 10.5391 265.388 10.2565 265.477 9.99609C265.565 9.73307 265.693 9.50521 265.859 9.3125C266.026 9.11719 266.228 8.96615 266.465 8.85938C266.702 8.75 266.967 8.69531 267.262 8.69531C267.559 8.69531 267.826 8.75 268.062 8.85938C268.302 8.96615 268.505 9.11719 268.672 9.3125C268.841 9.50521 268.97 9.73307 269.059 9.99609C269.147 10.2565 269.191 10.5391 269.191 10.8438V10.9336C269.191 11.2383 269.147 11.5208 269.059 11.7812C268.97 12.0417 268.841 12.2695 268.672 12.4648C268.505 12.6576 268.303 12.8086 268.066 12.918C267.832 13.0247 267.566 13.0781 267.27 13.0781C266.973 13.0781 266.706 13.0247 266.469 12.918C266.232 12.8086 266.029 12.6576 265.859 12.4648C265.693 12.2695 265.565 12.0417 265.477 11.7812C265.388 11.5208 265.344 11.2383 265.344 10.9336ZM266.066 10.8438V10.9336C266.066 11.1445 266.091 11.3438 266.141 11.5312C266.19 11.7161 266.264 11.8802 266.363 12.0234C266.465 12.1667 266.591 12.2799 266.742 12.3633C266.893 12.444 267.069 12.4844 267.27 12.4844C267.467 12.4844 267.641 12.444 267.789 12.3633C267.94 12.2799 268.065 12.1667 268.164 12.0234C268.263 11.8802 268.337 11.7161 268.387 11.5312C268.439 11.3438 268.465 11.1445 268.465 10.9336V10.8438C268.465 10.6354 268.439 10.4388 268.387 10.2539C268.337 10.0664 268.262 9.90104 268.16 9.75781C268.061 9.61198 267.936 9.4974 267.785 9.41406C267.637 9.33073 267.462 9.28906 267.262 9.28906C267.064 9.28906 266.889 9.33073 266.738 9.41406C266.59 9.4974 266.465 9.61198 266.363 9.75781C266.264 9.90104 266.19 10.0664 266.141 10.2539C266.091 10.4388 266.066 10.6354 266.066 10.8438ZM270.82 9.4375V13H270.098V8.77344H270.801L270.82 9.4375ZM272.141 8.75L272.137 9.42188C272.077 9.40885 272.02 9.40104 271.965 9.39844C271.913 9.39323 271.853 9.39062 271.785 9.39062C271.618 9.39062 271.471 9.41667 271.344 9.46875C271.216 9.52083 271.108 9.59375 271.02 9.6875C270.931 9.78125 270.861 9.89323 270.809 10.0234C270.759 10.151 270.727 10.2917 270.711 10.4453L270.508 10.5625C270.508 10.3073 270.533 10.0677 270.582 9.84375C270.634 9.61979 270.714 9.42188 270.82 9.25C270.927 9.07552 271.062 8.9401 271.227 8.84375C271.393 8.74479 271.591 8.69531 271.82 8.69531C271.872 8.69531 271.932 8.70182 272 8.71484C272.068 8.72526 272.115 8.73698 272.141 8.75ZM274.484 13.0781C274.19 13.0781 273.923 13.0286 273.684 12.9297C273.447 12.8281 273.242 12.6862 273.07 12.5039C272.901 12.3216 272.771 12.1055 272.68 11.8555C272.589 11.6055 272.543 11.332 272.543 11.0352V10.8711C272.543 10.5273 272.594 10.2214 272.695 9.95312C272.797 9.68229 272.935 9.45312 273.109 9.26562C273.284 9.07812 273.482 8.9362 273.703 8.83984C273.924 8.74349 274.154 8.69531 274.391 8.69531C274.693 8.69531 274.953 8.7474 275.172 8.85156C275.393 8.95573 275.574 9.10156 275.715 9.28906C275.855 9.47396 275.96 9.69271 276.027 9.94531C276.095 10.1953 276.129 10.4688 276.129 10.7656V11.0898H272.973V10.5H275.406V10.4453C275.396 10.2578 275.357 10.0755 275.289 9.89844C275.224 9.72135 275.12 9.57552 274.977 9.46094C274.833 9.34635 274.638 9.28906 274.391 9.28906C274.227 9.28906 274.076 9.32422 273.938 9.39453C273.799 9.46224 273.681 9.5638 273.582 9.69922C273.483 9.83464 273.406 10 273.352 10.1953C273.297 10.3906 273.27 10.6159 273.27 10.8711V11.0352C273.27 11.2357 273.297 11.4245 273.352 11.6016C273.409 11.776 273.491 11.9297 273.598 12.0625C273.707 12.1953 273.839 12.2995 273.992 12.375C274.148 12.4505 274.326 12.4883 274.523 12.4883C274.779 12.4883 274.995 12.4362 275.172 12.332C275.349 12.2279 275.504 12.0885 275.637 11.9141L276.074 12.2617C275.983 12.3997 275.867 12.5312 275.727 12.6562C275.586 12.7812 275.413 12.8828 275.207 12.9609C275.004 13.0391 274.763 13.0781 274.484 13.0781ZM282.5 11.1914H283.25C283.211 11.5508 283.108 11.8724 282.941 12.1562C282.775 12.4401 282.539 12.6654 282.234 12.832C281.93 12.9961 281.549 13.0781 281.094 13.0781C280.76 13.0781 280.457 13.0156 280.184 12.8906C279.913 12.7656 279.68 12.5885 279.484 12.3594C279.289 12.1276 279.138 11.8503 279.031 11.5273C278.927 11.2018 278.875 10.8398 278.875 10.4414V9.875C278.875 9.47656 278.927 9.11589 279.031 8.79297C279.138 8.46745 279.29 8.1888 279.488 7.95703C279.689 7.72526 279.93 7.54688 280.211 7.42188C280.492 7.29688 280.809 7.23438 281.16 7.23438C281.59 7.23438 281.953 7.3151 282.25 7.47656C282.547 7.63802 282.777 7.86198 282.941 8.14844C283.108 8.43229 283.211 8.76172 283.25 9.13672H282.5C282.464 8.87109 282.396 8.64323 282.297 8.45312C282.198 8.26042 282.057 8.11198 281.875 8.00781C281.693 7.90365 281.454 7.85156 281.16 7.85156C280.908 7.85156 280.685 7.89974 280.492 7.99609C280.302 8.09245 280.142 8.22917 280.012 8.40625C279.884 8.58333 279.788 8.79557 279.723 9.04297C279.658 9.29036 279.625 9.5651 279.625 9.86719V10.4414C279.625 10.7201 279.654 10.9818 279.711 11.2266C279.771 11.4714 279.861 11.6862 279.98 11.8711C280.1 12.056 280.253 12.2018 280.438 12.3086C280.622 12.4128 280.841 12.4648 281.094 12.4648C281.414 12.4648 281.669 12.4141 281.859 12.3125C282.049 12.2109 282.193 12.0651 282.289 11.875C282.388 11.6849 282.458 11.457 282.5 11.1914ZM283.977 10.9336V10.8438C283.977 10.5391 284.021 10.2565 284.109 9.99609C284.198 9.73307 284.326 9.50521 284.492 9.3125C284.659 9.11719 284.861 8.96615 285.098 8.85938C285.335 8.75 285.6 8.69531 285.895 8.69531C286.191 8.69531 286.458 8.75 286.695 8.85938C286.935 8.96615 287.138 9.11719 287.305 9.3125C287.474 9.50521 287.603 9.73307 287.691 9.99609C287.78 10.2565 287.824 10.5391 287.824 10.8438V10.9336C287.824 11.2383 287.78 11.5208 287.691 11.7812C287.603 12.0417 287.474 12.2695 287.305 12.4648C287.138 12.6576 286.936 12.8086 286.699 12.918C286.465 13.0247 286.199 13.0781 285.902 13.0781C285.605 13.0781 285.339 13.0247 285.102 12.918C284.865 12.8086 284.661 12.6576 284.492 12.4648C284.326 12.2695 284.198 12.0417 284.109 11.7812C284.021 11.5208 283.977 11.2383 283.977 10.9336ZM284.699 10.8438V10.9336C284.699 11.1445 284.724 11.3438 284.773 11.5312C284.823 11.7161 284.897 11.8802 284.996 12.0234C285.098 12.1667 285.224 12.2799 285.375 12.3633C285.526 12.444 285.702 12.4844 285.902 12.4844C286.1 12.4844 286.273 12.444 286.422 12.3633C286.573 12.2799 286.698 12.1667 286.797 12.0234C286.896 11.8802 286.97 11.7161 287.02 11.5312C287.072 11.3438 287.098 11.1445 287.098 10.9336V10.8438C287.098 10.6354 287.072 10.4388 287.02 10.2539C286.97 10.0664 286.895 9.90104 286.793 9.75781C286.694 9.61198 286.569 9.4974 286.418 9.41406C286.27 9.33073 286.095 9.28906 285.895 9.28906C285.697 9.28906 285.522 9.33073 285.371 9.41406C285.223 9.4974 285.098 9.61198 284.996 9.75781C284.897 9.90104 284.823 10.0664 284.773 10.2539C284.724 10.4388 284.699 10.6354 284.699 10.8438ZM289.449 9.61328V13H288.723V8.77344H289.41L289.449 9.61328ZM289.301 10.7266L288.965 10.7148C288.967 10.4258 289.005 10.1589 289.078 9.91406C289.151 9.66667 289.259 9.45182 289.402 9.26953C289.546 9.08724 289.724 8.94661 289.938 8.84766C290.151 8.74609 290.398 8.69531 290.68 8.69531C290.878 8.69531 291.06 8.72396 291.227 8.78125C291.393 8.83594 291.538 8.92318 291.66 9.04297C291.783 9.16276 291.878 9.31641 291.945 9.50391C292.013 9.69141 292.047 9.91797 292.047 10.1836V13H291.324V10.2188C291.324 9.9974 291.286 9.82031 291.211 9.6875C291.138 9.55469 291.034 9.45833 290.898 9.39844C290.763 9.33594 290.604 9.30469 290.422 9.30469C290.208 9.30469 290.03 9.34245 289.887 9.41797C289.743 9.49349 289.629 9.59766 289.543 9.73047C289.457 9.86328 289.395 10.0156 289.355 10.1875C289.319 10.3568 289.301 10.5365 289.301 10.7266ZM292.039 10.3281L291.555 10.4766C291.557 10.2448 291.595 10.0221 291.668 9.80859C291.743 9.59505 291.852 9.40495 291.992 9.23828C292.135 9.07161 292.311 8.9401 292.52 8.84375C292.728 8.74479 292.966 8.69531 293.234 8.69531C293.461 8.69531 293.661 8.72526 293.836 8.78516C294.013 8.84505 294.161 8.9375 294.281 9.0625C294.404 9.1849 294.496 9.34245 294.559 9.53516C294.621 9.72786 294.652 9.95703 294.652 10.2227V13H293.926V10.2148C293.926 9.97786 293.888 9.79427 293.812 9.66406C293.74 9.53125 293.635 9.4388 293.5 9.38672C293.367 9.33203 293.208 9.30469 293.023 9.30469C292.865 9.30469 292.724 9.33203 292.602 9.38672C292.479 9.44141 292.376 9.51693 292.293 9.61328C292.21 9.70703 292.146 9.8151 292.102 9.9375C292.06 10.0599 292.039 10.1901 292.039 10.3281ZM296.469 9.58594V14.625H295.742V8.77344H296.406L296.469 9.58594ZM299.316 10.8516V10.9336C299.316 11.2409 299.28 11.526 299.207 11.7891C299.134 12.0495 299.027 12.276 298.887 12.4688C298.749 12.6615 298.578 12.8112 298.375 12.918C298.172 13.0247 297.939 13.0781 297.676 13.0781C297.408 13.0781 297.171 13.0339 296.965 12.9453C296.759 12.8568 296.585 12.7279 296.441 12.5586C296.298 12.3893 296.184 12.1862 296.098 11.9492C296.014 11.7122 295.957 11.4453 295.926 11.1484V10.7109C295.957 10.3984 296.016 10.1185 296.102 9.87109C296.188 9.6237 296.301 9.41276 296.441 9.23828C296.585 9.0612 296.758 8.92708 296.961 8.83594C297.164 8.74219 297.398 8.69531 297.664 8.69531C297.93 8.69531 298.165 8.7474 298.371 8.85156C298.577 8.95312 298.75 9.09896 298.891 9.28906C299.031 9.47917 299.137 9.70703 299.207 9.97266C299.28 10.2357 299.316 10.5286 299.316 10.8516ZM298.59 10.9336V10.8516C298.59 10.6406 298.568 10.4427 298.523 10.2578C298.479 10.0703 298.41 9.90625 298.316 9.76562C298.225 9.6224 298.108 9.51042 297.965 9.42969C297.822 9.34635 297.651 9.30469 297.453 9.30469C297.271 9.30469 297.112 9.33594 296.977 9.39844C296.844 9.46094 296.73 9.54557 296.637 9.65234C296.543 9.75651 296.466 9.8763 296.406 10.0117C296.349 10.1445 296.306 10.2826 296.277 10.4258V11.4375C296.329 11.6198 296.402 11.7917 296.496 11.9531C296.59 12.112 296.715 12.2409 296.871 12.3398C297.027 12.4362 297.224 12.4844 297.461 12.4844C297.656 12.4844 297.824 12.444 297.965 12.3633C298.108 12.2799 298.225 12.1667 298.316 12.0234C298.41 11.8802 298.479 11.7161 298.523 11.5312C298.568 11.3438 298.59 11.1445 298.59 10.9336ZM301.992 13.0781C301.698 13.0781 301.431 13.0286 301.191 12.9297C300.954 12.8281 300.75 12.6862 300.578 12.5039C300.409 12.3216 300.279 12.1055 300.188 11.8555C300.096 11.6055 300.051 11.332 300.051 11.0352V10.8711C300.051 10.5273 300.102 10.2214 300.203 9.95312C300.305 9.68229 300.443 9.45312 300.617 9.26562C300.792 9.07812 300.99 8.9362 301.211 8.83984C301.432 8.74349 301.661 8.69531 301.898 8.69531C302.201 8.69531 302.461 8.7474 302.68 8.85156C302.901 8.95573 303.082 9.10156 303.223 9.28906C303.363 9.47396 303.467 9.69271 303.535 9.94531C303.603 10.1953 303.637 10.4688 303.637 10.7656V11.0898H300.48V10.5H302.914V10.4453C302.904 10.2578 302.865 10.0755 302.797 9.89844C302.732 9.72135 302.628 9.57552 302.484 9.46094C302.341 9.34635 302.146 9.28906 301.898 9.28906C301.734 9.28906 301.583 9.32422 301.445 9.39453C301.307 9.46224 301.189 9.5638 301.09 9.69922C300.991 9.83464 300.914 10 300.859 10.1953C300.805 10.3906 300.777 10.6159 300.777 10.8711V11.0352C300.777 11.2357 300.805 11.4245 300.859 11.6016C300.917 11.776 300.999 11.9297 301.105 12.0625C301.215 12.1953 301.346 12.2995 301.5 12.375C301.656 12.4505 301.833 12.4883 302.031 12.4883C302.286 12.4883 302.503 12.4362 302.68 12.332C302.857 12.2279 303.012 12.0885 303.145 11.9141L303.582 12.2617C303.491 12.3997 303.375 12.5312 303.234 12.6562C303.094 12.7812 302.921 12.8828 302.715 12.9609C302.512 13.0391 302.271 13.0781 301.992 13.0781ZM306.25 8.77344V9.32812H303.965V8.77344H306.25ZM304.738 7.74609H305.461V11.9531C305.461 12.0964 305.483 12.2044 305.527 12.2773C305.572 12.3503 305.629 12.3984 305.699 12.4219C305.77 12.4453 305.845 12.457 305.926 12.457C305.986 12.457 306.048 12.4518 306.113 12.4414C306.181 12.4284 306.232 12.418 306.266 12.4102L306.27 13C306.212 13.0182 306.137 13.0352 306.043 13.0508C305.952 13.069 305.841 13.0781 305.711 13.0781C305.534 13.0781 305.371 13.043 305.223 12.9727C305.074 12.9023 304.956 12.7852 304.867 12.6211C304.781 12.4544 304.738 12.2305 304.738 11.9492V7.74609ZM307.883 8.77344V13H307.156V8.77344H307.883ZM307.102 7.65234C307.102 7.53516 307.137 7.4362 307.207 7.35547C307.28 7.27474 307.387 7.23438 307.527 7.23438C307.665 7.23438 307.771 7.27474 307.844 7.35547C307.919 7.4362 307.957 7.53516 307.957 7.65234C307.957 7.76432 307.919 7.86068 307.844 7.94141C307.771 8.01953 307.665 8.05859 307.527 8.05859C307.387 8.05859 307.28 8.01953 307.207 7.94141C307.137 7.86068 307.102 7.76432 307.102 7.65234ZM310.812 8.77344V9.32812H308.527V8.77344H310.812ZM309.301 7.74609H310.023V11.9531C310.023 12.0964 310.046 12.2044 310.09 12.2773C310.134 12.3503 310.191 12.3984 310.262 12.4219C310.332 12.4453 310.408 12.457 310.488 12.457C310.548 12.457 310.611 12.4518 310.676 12.4414C310.743 12.4284 310.794 12.418 310.828 12.4102L310.832 13C310.775 13.0182 310.699 13.0352 310.605 13.0508C310.514 13.069 310.404 13.0781 310.273 13.0781C310.096 13.0781 309.934 13.043 309.785 12.9727C309.637 12.9023 309.518 12.7852 309.43 12.6211C309.344 12.4544 309.301 12.2305 309.301 11.9492V7.74609ZM312.445 8.77344V13H311.719V8.77344H312.445ZM311.664 7.65234C311.664 7.53516 311.699 7.4362 311.77 7.35547C311.842 7.27474 311.949 7.23438 312.09 7.23438C312.228 7.23438 312.333 7.27474 312.406 7.35547C312.482 7.4362 312.52 7.53516 312.52 7.65234C312.52 7.76432 312.482 7.86068 312.406 7.94141C312.333 8.01953 312.228 8.05859 312.09 8.05859C311.949 8.05859 311.842 8.01953 311.77 7.94141C311.699 7.86068 311.664 7.76432 311.664 7.65234ZM314.891 12.3477L316.047 8.77344H316.785L315.266 13H314.781L314.891 12.3477ZM313.926 8.77344L315.117 12.3672L315.199 13H314.715L313.184 8.77344H313.926ZM319.18 13.0781C318.885 13.0781 318.618 13.0286 318.379 12.9297C318.142 12.8281 317.938 12.6862 317.766 12.5039C317.596 12.3216 317.466 12.1055 317.375 11.8555C317.284 11.6055 317.238 11.332 317.238 11.0352V10.8711C317.238 10.5273 317.289 10.2214 317.391 9.95312C317.492 9.68229 317.63 9.45312 317.805 9.26562C317.979 9.07812 318.177 8.9362 318.398 8.83984C318.62 8.74349 318.849 8.69531 319.086 8.69531C319.388 8.69531 319.648 8.7474 319.867 8.85156C320.089 8.95573 320.27 9.10156 320.41 9.28906C320.551 9.47396 320.655 9.69271 320.723 9.94531C320.79 10.1953 320.824 10.4688 320.824 10.7656V11.0898H317.668V10.5H320.102V10.4453C320.091 10.2578 320.052 10.0755 319.984 9.89844C319.919 9.72135 319.815 9.57552 319.672 9.46094C319.529 9.34635 319.333 9.28906 319.086 9.28906C318.922 9.28906 318.771 9.32422 318.633 9.39453C318.495 9.46224 318.376 9.5638 318.277 9.69922C318.178 9.83464 318.102 10 318.047 10.1953C317.992 10.3906 317.965 10.6159 317.965 10.8711V11.0352C317.965 11.2357 317.992 11.4245 318.047 11.6016C318.104 11.776 318.186 11.9297 318.293 12.0625C318.402 12.1953 318.534 12.2995 318.688 12.375C318.844 12.4505 319.021 12.4883 319.219 12.4883C319.474 12.4883 319.69 12.4362 319.867 12.332C320.044 12.2279 320.199 12.0885 320.332 11.9141L320.77 12.2617C320.678 12.3997 320.562 12.5312 320.422 12.6562C320.281 12.7812 320.108 12.8828 319.902 12.9609C319.699 13.0391 319.458 13.0781 319.18 13.0781Z" fill="white"/>
<rect x="8" y="24.0439" width="327" height="36" fill="url(#paint0_linear_593_7278)" fill-opacity="0.8"/>
<rect y="24" width="8" height="36" fill="#070452"/>
<rect x="328" y="24" width="8" height="36" fill="#070452"/>
<rect x="57" y="24" width="20" height="36" fill="#070452"/>
<rect x="261" y="24" width="20" height="36" fill="#32BEA6"/>
<g filter="url(#filter0_dddd_593_7278)">
<path d="M66.7664 60L71.7603 68.6496H61.7726L66.7664 60Z" fill="#0B1142"/>
</g>
<rect x="18" y="68.0732" width="97.2117" height="27.2993" rx="13.6496" fill="#0B1142"/>
<path d="M37.7816 78.9045H38.9719L40.3952 81.4783H40.4521L41.8754 78.9045H43.0657L40.9492 82.5522V84.7227H39.8981V82.5522L37.7816 78.9045ZM44.8576 84.8079C44.4315 84.8079 44.0621 84.7141 43.7496 84.5266C43.4371 84.3391 43.1947 84.0768 43.0224 83.7397C42.8519 83.4026 42.7667 83.0086 42.7667 82.5579C42.7667 82.1071 42.8519 81.7122 43.0224 81.3732C43.1947 81.0342 43.4371 80.771 43.7496 80.5835C44.0621 80.396 44.4315 80.3022 44.8576 80.3022C45.2837 80.3022 45.6531 80.396 45.9656 80.5835C46.2781 80.771 46.5195 81.0342 46.69 81.3732C46.8623 81.7122 46.9485 82.1071 46.9485 82.5579C46.9485 83.0086 46.8623 83.4026 46.69 83.7397C46.5195 84.0768 46.2781 84.3391 45.9656 84.5266C45.6531 84.7141 45.2837 84.8079 44.8576 84.8079ZM44.8633 83.984C45.0943 83.984 45.2875 83.9206 45.4428 83.7937C45.5981 83.6649 45.7137 83.4925 45.7894 83.2766C45.8671 83.0607 45.9059 82.8202 45.9059 82.555C45.9059 82.288 45.8671 82.0465 45.7894 81.8306C45.7137 81.6128 45.5981 81.4395 45.4428 81.3107C45.2875 81.1819 45.0943 81.1175 44.8633 81.1175C44.6265 81.1175 44.4296 81.1819 44.2724 81.3107C44.1171 81.4395 44.0006 81.6128 43.9229 81.8306C43.8472 82.0465 43.8093 82.288 43.8093 82.555C43.8093 82.8202 43.8472 83.0607 43.9229 83.2766C44.0006 83.4925 44.1171 83.6649 44.2724 83.7937C44.4296 83.9206 44.6265 83.984 44.8633 83.984ZM50.6026 82.8874V80.359H51.631V84.7227H50.6339V83.9471H50.5884C50.4899 84.1914 50.328 84.3912 50.1026 84.5465C49.8791 84.7018 49.6036 84.7795 49.2759 84.7795C48.9899 84.7795 48.7371 84.716 48.5174 84.5891C48.2996 84.4603 48.1291 84.2738 48.006 84.0295C47.8829 83.7833 47.8214 83.4859 47.8214 83.1374V80.359H48.8498V82.9783C48.8498 83.2549 48.9255 83.4746 49.0771 83.6374C49.2286 83.8003 49.4274 83.8817 49.6737 83.8817C49.8252 83.8817 49.9719 83.8448 50.114 83.771C50.256 83.6971 50.3725 83.5872 50.4634 83.4414C50.5562 83.2937 50.6026 83.109 50.6026 82.8874ZM55.9286 84.8107C55.6521 84.8107 55.4031 84.7615 55.1815 84.663C54.9618 84.5626 54.7875 84.4149 54.6587 84.2198C54.5318 84.0247 54.4684 83.7842 54.4684 83.4982C54.4684 83.252 54.5138 83.0484 54.6048 82.8874C54.6957 82.7264 54.8197 82.5977 54.9769 82.5011C55.1341 82.4045 55.3112 82.3316 55.5082 82.2823C55.707 82.2312 55.9125 82.1942 56.1246 82.1715C56.3803 82.145 56.5877 82.1213 56.7468 82.1005C56.9059 82.0778 57.0214 82.0437 57.0934 81.9982C57.1673 81.9509 57.2042 81.878 57.2042 81.7795V81.7624C57.2042 81.5484 57.1407 81.3827 57.0138 81.2653C56.887 81.1478 56.7042 81.0891 56.4656 81.0891C56.2137 81.0891 56.0138 81.1441 55.8661 81.2539C55.7203 81.3638 55.6218 81.4935 55.5707 81.6431L54.6104 81.5067C54.6862 81.2416 54.8112 81.02 54.9854 80.842C55.1597 80.662 55.3728 80.5276 55.6246 80.4386C55.8765 80.3477 56.1549 80.3022 56.4599 80.3022C56.6701 80.3022 56.8794 80.3268 57.0877 80.3761C57.296 80.4253 57.4864 80.5067 57.6587 80.6204C57.8311 80.7321 57.9693 80.8846 58.0735 81.0778C58.1796 81.271 58.2326 81.5124 58.2326 81.8022V84.7227H57.244V84.1232H57.2099C57.1474 84.2444 57.0593 84.3581 56.9457 84.4641C56.8339 84.5683 56.6928 84.6526 56.5224 84.717C56.3538 84.7795 56.1559 84.8107 55.9286 84.8107ZM56.1957 84.055C56.4021 84.055 56.5811 84.0143 56.7326 83.9329C56.8841 83.8496 57.0006 83.7397 57.082 83.6033C57.1654 83.467 57.207 83.3183 57.207 83.1573V82.6431C57.1748 82.6696 57.1199 82.6942 57.0423 82.717C56.9665 82.7397 56.8813 82.7596 56.7866 82.7766C56.6919 82.7937 56.5981 82.8088 56.5053 82.8221C56.4125 82.8353 56.332 82.8467 56.2638 82.8562C56.1104 82.877 55.9731 82.9111 55.8519 82.9585C55.7307 83.0058 55.6351 83.0721 55.565 83.1573C55.4949 83.2406 55.4599 83.3486 55.4599 83.4812C55.4599 83.6706 55.529 83.8136 55.6673 83.9102C55.8055 84.0067 55.9817 84.055 56.1957 84.055ZM59.2667 84.7227V80.359H60.2638V81.0863H60.3093C60.3888 80.8344 60.5252 80.6403 60.7184 80.5039C60.9135 80.3656 61.136 80.2965 61.386 80.2965C61.4428 80.2965 61.5063 80.2994 61.5763 80.305C61.6483 80.3088 61.708 80.3155 61.7553 80.3249V81.271C61.7118 81.2558 61.6426 81.2425 61.5479 81.2312C61.4551 81.2179 61.3652 81.2113 61.2781 81.2113C61.0906 81.2113 60.922 81.252 60.7724 81.3335C60.6246 81.413 60.5082 81.5238 60.4229 81.6658C60.3377 81.8079 60.2951 81.9717 60.2951 82.1573V84.7227H59.2667ZM64.1907 84.8079C63.7532 84.8079 63.3754 84.717 63.0572 84.5352C62.7409 84.3514 62.4975 84.092 62.3271 83.7567C62.1566 83.4196 62.0714 83.0228 62.0714 82.5664C62.0714 82.1175 62.1566 81.7236 62.3271 81.3846C62.4994 81.0437 62.7399 80.7785 63.0487 80.5891C63.3574 80.3978 63.7201 80.3022 64.1367 80.3022C64.4057 80.3022 64.6594 80.3458 64.8981 80.4329C65.1386 80.5181 65.3507 80.6507 65.5344 80.8306C65.7201 81.0105 65.8659 81.2397 65.9719 81.5181C66.078 81.7946 66.131 82.1242 66.131 82.5067V82.8221H62.5543V82.1289H65.1452C65.1433 81.9319 65.1007 81.7567 65.0174 81.6033C64.9341 81.448 64.8176 81.3259 64.668 81.2369C64.5202 81.1478 64.3479 81.1033 64.1509 81.1033C63.9407 81.1033 63.756 81.1545 63.5969 81.2567C63.4379 81.3571 63.3138 81.4897 63.2248 81.6545C63.1377 81.8174 63.0932 81.9963 63.0913 82.1914V82.7965C63.0913 83.0503 63.1377 83.2681 63.2305 83.4499C63.3233 83.6299 63.453 83.7681 63.6197 83.8647C63.7863 83.9594 63.9814 84.0067 64.2049 84.0067C64.3545 84.0067 64.4899 83.9859 64.6112 83.9442C64.7324 83.9007 64.8375 83.8372 64.9265 83.7539C65.0155 83.6706 65.0827 83.5674 65.1282 83.4442L66.0884 83.5522C66.0278 83.806 65.9123 84.0276 65.7418 84.217C65.5733 84.4045 65.3574 84.5503 65.0941 84.6545C64.8308 84.7567 64.5297 84.8079 64.1907 84.8079ZM70.2411 84.8107C69.9646 84.8107 69.7156 84.7615 69.494 84.663C69.2743 84.5626 69.1 84.4149 68.9712 84.2198C68.8443 84.0247 68.7809 83.7842 68.7809 83.4982C68.7809 83.252 68.8263 83.0484 68.9173 82.8874C69.0082 82.7264 69.1322 82.5977 69.2894 82.5011C69.4466 82.4045 69.6237 82.3316 69.8207 82.2823C70.0195 82.2312 70.225 82.1942 70.4371 82.1715C70.6928 82.145 70.9002 82.1213 71.0593 82.1005C71.2184 82.0778 71.3339 82.0437 71.4059 81.9982C71.4798 81.9509 71.5167 81.878 71.5167 81.7795V81.7624C71.5167 81.5484 71.4532 81.3827 71.3263 81.2653C71.1995 81.1478 71.0167 81.0891 70.7781 81.0891C70.5262 81.0891 70.3263 81.1441 70.1786 81.2539C70.0328 81.3638 69.9343 81.4935 69.8832 81.6431L68.9229 81.5067C68.9987 81.2416 69.1237 81.02 69.2979 80.842C69.4722 80.662 69.6853 80.5276 69.9371 80.4386C70.189 80.3477 70.4674 80.3022 70.7724 80.3022C70.9826 80.3022 71.1919 80.3268 71.4002 80.3761C71.6085 80.4253 71.7989 80.5067 71.9712 80.6204C72.1436 80.7321 72.2818 80.8846 72.386 81.0778C72.4921 81.271 72.5451 81.5124 72.5451 81.8022V84.7227H71.5565V84.1232H71.5224C71.4599 84.2444 71.3718 84.3581 71.2582 84.4641C71.1464 84.5683 71.0053 84.6526 70.8349 84.717C70.6663 84.7795 70.4684 84.8107 70.2411 84.8107ZM70.5082 84.055C70.7146 84.055 70.8936 84.0143 71.0451 83.9329C71.1966 83.8496 71.3131 83.7397 71.3945 83.6033C71.4779 83.467 71.5195 83.3183 71.5195 83.1573V82.6431C71.4873 82.6696 71.4324 82.6942 71.3548 82.717C71.279 82.7397 71.1938 82.7596 71.0991 82.7766C71.0044 82.7937 70.9106 82.8088 70.8178 82.8221C70.725 82.8353 70.6445 82.8467 70.5763 82.8562C70.4229 82.877 70.2856 82.9111 70.1644 82.9585C70.0432 83.0058 69.9476 83.0721 69.8775 83.1573C69.8074 83.2406 69.7724 83.3486 69.7724 83.4812C69.7724 83.6706 69.8415 83.8136 69.9798 83.9102C70.118 84.0067 70.2942 84.055 70.5082 84.055ZM75.7582 80.359V81.1545H73.2496V80.359H75.7582ZM73.869 79.3136H74.8974V83.4102C74.8974 83.5484 74.9182 83.6545 74.9599 83.7283C75.0034 83.8003 75.0603 83.8496 75.1303 83.8761C75.2004 83.9026 75.2781 83.9158 75.3633 83.9158C75.4277 83.9158 75.4864 83.9111 75.5394 83.9016C75.5943 83.8922 75.636 83.8836 75.6644 83.8761L75.8377 84.68C75.7828 84.699 75.7042 84.7198 75.6019 84.7425C75.5015 84.7653 75.3784 84.7785 75.2326 84.7823C74.975 84.7899 74.743 84.7511 74.5366 84.6658C74.3301 84.5787 74.1663 84.4442 74.0451 84.2624C73.9258 84.0806 73.8671 83.8533 73.869 83.5806V79.3136ZM79.631 82.1658V84.7227H78.6026V78.9045H79.6083V81.1005H79.6594C79.7617 80.8543 79.9199 80.6602 80.1339 80.5181C80.3498 80.3742 80.6244 80.3022 80.9577 80.3022C81.2608 80.3022 81.525 80.3656 81.7504 80.4925C81.9757 80.6194 82.15 80.805 82.2731 81.0494C82.3981 81.2937 82.4606 81.592 82.4606 81.9442V84.7227H81.4322V82.1033C81.4322 81.8098 81.3564 81.5816 81.2049 81.4187C81.0553 81.2539 80.8451 81.1715 80.5742 81.1715C80.3924 81.1715 80.2295 81.2113 80.0856 81.2908C79.9435 81.3685 79.8318 81.4812 79.7504 81.6289C79.6708 81.7766 79.631 81.9556 79.631 82.1658ZM85.4407 84.8079C85.0032 84.8079 84.6254 84.717 84.3072 84.5352C83.9909 84.3514 83.7475 84.092 83.5771 83.7567C83.4066 83.4196 83.3214 83.0228 83.3214 82.5664C83.3214 82.1175 83.4066 81.7236 83.5771 81.3846C83.7494 81.0437 83.9899 80.7785 84.2987 80.5891C84.6074 80.3978 84.9701 80.3022 85.3867 80.3022C85.6557 80.3022 85.9094 80.3458 86.1481 80.4329C86.3886 80.5181 86.6007 80.6507 86.7844 80.8306C86.9701 81.0105 87.1159 81.2397 87.2219 81.5181C87.328 81.7946 87.381 82.1242 87.381 82.5067V82.8221H83.8043V82.1289H86.3952C86.3933 81.9319 86.3507 81.7567 86.2674 81.6033C86.1841 81.448 86.0676 81.3259 85.918 81.2369C85.7702 81.1478 85.5979 81.1033 85.4009 81.1033C85.1907 81.1033 85.006 81.1545 84.8469 81.2567C84.6879 81.3571 84.5638 81.4897 84.4748 81.6545C84.3877 81.8174 84.3432 81.9963 84.3413 82.1914V82.7965C84.3413 83.0503 84.3877 83.2681 84.4805 83.4499C84.5733 83.6299 84.703 83.7681 84.8697 83.8647C85.0363 83.9594 85.2314 84.0067 85.4549 84.0067C85.6045 84.0067 85.7399 83.9859 85.8612 83.9442C85.9824 83.9007 86.0875 83.8372 86.1765 83.7539C86.2655 83.6706 86.3327 83.5674 86.3782 83.4442L87.3384 83.5522C87.2778 83.806 87.1623 84.0276 86.9918 84.217C86.8233 84.4045 86.6074 84.5503 86.3441 84.6545C86.0808 84.7567 85.7797 84.8079 85.4407 84.8079ZM88.2511 84.7227V80.359H89.2482V81.0863H89.2937C89.3732 80.8344 89.5096 80.6403 89.7028 80.5039C89.8978 80.3656 90.1204 80.2965 90.3704 80.2965C90.4272 80.2965 90.4906 80.2994 90.5607 80.305C90.6327 80.3088 90.6924 80.3155 90.7397 80.3249V81.271C90.6961 81.2558 90.627 81.2425 90.5323 81.2312C90.4395 81.2179 90.3496 81.2113 90.2624 81.2113C90.0749 81.2113 89.9064 81.252 89.7567 81.3335C89.609 81.413 89.4925 81.5238 89.4073 81.6658C89.3221 81.8079 89.2795 81.9717 89.2795 82.1573V84.7227H88.2511ZM93.1751 84.8079C92.7376 84.8079 92.3597 84.717 92.0415 84.5352C91.7253 84.3514 91.4819 84.092 91.3114 83.7567C91.141 83.4196 91.0558 83.0228 91.0558 82.5664C91.0558 82.1175 91.141 81.7236 91.3114 81.3846C91.4838 81.0437 91.7243 80.7785 92.033 80.5891C92.3417 80.3978 92.7044 80.3022 93.1211 80.3022C93.39 80.3022 93.6438 80.3458 93.8825 80.4329C94.123 80.5181 94.3351 80.6507 94.5188 80.8306C94.7044 81.0105 94.8503 81.2397 94.9563 81.5181C95.0624 81.7946 95.1154 82.1242 95.1154 82.5067V82.8221H91.5387V82.1289H94.1296C94.1277 81.9319 94.0851 81.7567 94.0018 81.6033C93.9184 81.448 93.802 81.3259 93.6523 81.2369C93.5046 81.1478 93.3323 81.1033 93.1353 81.1033C92.9251 81.1033 92.7404 81.1545 92.5813 81.2567C92.4222 81.3571 92.2982 81.4897 92.2092 81.6545C92.122 81.8174 92.0775 81.9963 92.0756 82.1914V82.7965C92.0756 83.0503 92.122 83.2681 92.2148 83.4499C92.3076 83.6299 92.4374 83.7681 92.604 83.8647C92.7707 83.9594 92.9658 84.0067 93.1893 84.0067C93.3389 84.0067 93.4743 83.9859 93.5955 83.9442C93.7167 83.9007 93.8219 83.8372 93.9109 83.7539C93.9999 83.6706 94.0671 83.5674 94.1126 83.4442L95.0728 83.5522C95.0122 83.806 94.8967 84.0276 94.7262 84.217C94.5576 84.4045 94.3417 84.5503 94.0785 84.6545C93.8152 84.7567 93.5141 84.8079 93.1751 84.8079Z" fill="white"/>
<path fill-rule="evenodd" clip-rule="evenodd" d="M276.119 68L271.5 60L266.881 68H148C141.373 68 136 73.3726 136 80V232C136 238.627 141.373 244 148 244H324C330.627 244 336 238.627 336 232V80C336 73.3726 330.627 68 324 68H276.119Z" fill="white"/>
<rect x="184" y="101" width="140" height="8" rx="4" fill="#E0DFE8"/>
<rect x="184" y="113" width="140" height="8" rx="4" fill="#E0DFE8"/>
<rect x="184" y="125" width="121" height="8" rx="4" fill="#E0DFE8"/>
<rect x="184" y="149" width="140" height="8" rx="4" fill="#E0DFE8"/>
<rect x="184" y="161" width="140" height="8" rx="4" fill="#E0DFE8"/>
<rect x="184" y="173" width="121" height="8" rx="4" fill="#E0DFE8"/>
<circle cx="161" cy="116" r="15" fill="#32BEA6"/>
<path d="M162.695 109.562V121H161.25V111.367L158.336 112.43V111.125L162.469 109.562H162.695Z" fill="white"/>
<circle cx="161" cy="164" r="15" fill="#32BEA6"/>
<path d="M165.398 167.812V169H157.953V167.961L161.68 163.812C162.138 163.302 162.492 162.87 162.742 162.516C162.997 162.156 163.174 161.836 163.273 161.555C163.378 161.268 163.43 160.977 163.43 160.68C163.43 160.305 163.352 159.966 163.195 159.664C163.044 159.357 162.82 159.112 162.523 158.93C162.227 158.747 161.867 158.656 161.445 158.656C160.94 158.656 160.518 158.755 160.18 158.953C159.846 159.146 159.596 159.417 159.43 159.766C159.263 160.115 159.18 160.516 159.18 160.969H157.734C157.734 160.328 157.875 159.742 158.156 159.211C158.438 158.68 158.854 158.258 159.406 157.945C159.958 157.628 160.638 157.469 161.445 157.469C162.164 157.469 162.779 157.596 163.289 157.852C163.799 158.102 164.19 158.456 164.461 158.914C164.737 159.367 164.875 159.898 164.875 160.508C164.875 160.841 164.818 161.18 164.703 161.523C164.594 161.862 164.44 162.201 164.242 162.539C164.049 162.878 163.823 163.211 163.562 163.539C163.307 163.867 163.034 164.19 162.742 164.508L159.695 167.812H165.398Z" fill="white"/>
<rect x="184" y="196" width="140" height="8" rx="4" fill="#E0DFE8"/>
<rect x="184" y="208" width="140" height="8" rx="4" fill="#E0DFE8"/>
<rect x="184" y="220" width="121" height="8" rx="4" fill="#E0DFE8"/>
<circle cx="161" cy="211" r="15" fill="#32BEA6"/>
<path d="M160.055 209.602H161.086C161.591 209.602 162.008 209.518 162.336 209.352C162.669 209.18 162.917 208.948 163.078 208.656C163.245 208.359 163.328 208.026 163.328 207.656C163.328 207.219 163.255 206.852 163.109 206.555C162.964 206.258 162.745 206.034 162.453 205.883C162.161 205.732 161.792 205.656 161.344 205.656C160.938 205.656 160.578 205.737 160.266 205.898C159.958 206.055 159.716 206.279 159.539 206.57C159.367 206.862 159.281 207.206 159.281 207.602H157.836C157.836 207.023 157.982 206.497 158.273 206.023C158.565 205.549 158.974 205.172 159.5 204.891C160.031 204.609 160.646 204.469 161.344 204.469C162.031 204.469 162.633 204.591 163.148 204.836C163.664 205.076 164.065 205.435 164.352 205.914C164.638 206.388 164.781 206.979 164.781 207.688C164.781 207.974 164.714 208.281 164.578 208.609C164.448 208.932 164.242 209.234 163.961 209.516C163.685 209.797 163.326 210.029 162.883 210.211C162.44 210.388 161.909 210.477 161.289 210.477H160.055V209.602ZM160.055 210.789V209.922H161.289C162.013 209.922 162.612 210.008 163.086 210.18C163.56 210.352 163.932 210.581 164.203 210.867C164.479 211.154 164.672 211.469 164.781 211.812C164.896 212.151 164.953 212.49 164.953 212.828C164.953 213.359 164.862 213.831 164.68 214.242C164.503 214.654 164.25 215.003 163.922 215.289C163.599 215.576 163.219 215.792 162.781 215.938C162.344 216.083 161.867 216.156 161.352 216.156C160.857 216.156 160.391 216.086 159.953 215.945C159.521 215.805 159.138 215.602 158.805 215.336C158.471 215.065 158.211 214.734 158.023 214.344C157.836 213.948 157.742 213.497 157.742 212.992H159.188C159.188 213.388 159.273 213.734 159.445 214.031C159.622 214.328 159.872 214.56 160.195 214.727C160.523 214.888 160.909 214.969 161.352 214.969C161.794 214.969 162.174 214.893 162.492 214.742C162.815 214.586 163.062 214.352 163.234 214.039C163.411 213.727 163.5 213.333 163.5 212.859C163.5 212.385 163.401 211.997 163.203 211.695C163.005 211.388 162.724 211.161 162.359 211.016C162 210.865 161.576 210.789 161.086 210.789H160.055Z" fill="white"/>
<path d="M149.318 82.0653V81.1818H153.96V82.0653H152.162V87H151.116V82.0653H149.318ZM156.08 87.0852C155.654 87.0852 155.285 86.9915 154.972 86.804C154.66 86.6165 154.417 86.3542 154.245 86.017C154.075 85.6799 153.989 85.286 153.989 84.8352C153.989 84.3845 154.075 83.9896 154.245 83.6506C154.417 83.3116 154.66 83.0483 154.972 82.8608C155.285 82.6733 155.654 82.5795 156.08 82.5795C156.506 82.5795 156.876 82.6733 157.188 82.8608C157.501 83.0483 157.742 83.3116 157.913 83.6506C158.085 83.9896 158.171 84.3845 158.171 84.8352C158.171 85.286 158.085 85.6799 157.913 86.017C157.742 86.3542 157.501 86.6165 157.188 86.804C156.876 86.9915 156.506 87.0852 156.08 87.0852ZM156.086 86.2614C156.317 86.2614 156.51 86.1979 156.665 86.071C156.821 85.9422 156.936 85.7699 157.012 85.554C157.09 85.3381 157.129 85.0975 157.129 84.8324C157.129 84.5653 157.09 84.3239 157.012 84.108C156.936 83.8902 156.821 83.7169 156.665 83.5881C156.51 83.4593 156.317 83.3949 156.086 83.3949C155.849 83.3949 155.652 83.4593 155.495 83.5881C155.34 83.7169 155.223 83.8902 155.146 84.108C155.07 84.3239 155.032 84.5653 155.032 84.8324C155.032 85.0975 155.07 85.3381 155.146 85.554C155.223 85.7699 155.34 85.9422 155.495 86.071C155.652 86.1979 155.849 86.2614 156.086 86.2614ZM161.028 87V82.6364H162.057V87H161.028ZM161.545 82.017C161.383 82.017 161.242 81.9631 161.125 81.8551C161.008 81.7453 160.949 81.6136 160.949 81.4602C160.949 81.3049 161.008 81.1733 161.125 81.0653C161.242 80.9555 161.383 80.9006 161.545 80.9006C161.71 80.9006 161.85 80.9555 161.966 81.0653C162.083 81.1733 162.142 81.3049 162.142 81.4602C162.142 81.6136 162.083 81.7453 161.966 81.8551C161.85 81.9631 161.71 82.017 161.545 82.017ZM163.114 87V82.6364H164.097V83.3778H164.148C164.239 83.1278 164.39 82.9328 164.6 82.7926C164.81 82.6506 165.061 82.5795 165.353 82.5795C165.648 82.5795 165.897 82.6515 166.1 82.7955C166.305 82.9375 166.449 83.1316 166.532 83.3778H166.577C166.674 83.1354 166.837 82.9422 167.066 82.7983C167.297 82.6525 167.571 82.5795 167.887 82.5795C168.289 82.5795 168.616 82.7064 168.87 82.9602C169.124 83.214 169.251 83.5843 169.251 84.071V87H168.219V84.2301C168.219 83.9593 168.147 83.7614 168.004 83.6364C167.86 83.5095 167.683 83.446 167.475 83.446C167.227 83.446 167.033 83.5237 166.893 83.679C166.754 83.8324 166.685 84.0322 166.685 84.2784V87H165.677V84.1875C165.677 83.9621 165.609 83.7822 165.472 83.6477C165.338 83.5133 165.162 83.446 164.944 83.446C164.796 83.446 164.662 83.4839 164.54 83.5597C164.419 83.6335 164.323 83.7386 164.251 83.875C164.179 84.0095 164.143 84.1667 164.143 84.3466V87H163.114ZM170.294 88.6364V82.6364H171.305V83.358H171.365C171.418 83.2519 171.493 83.1392 171.589 83.0199C171.686 82.8987 171.817 82.7955 171.982 82.7102C172.146 82.6231 172.357 82.5795 172.612 82.5795C172.949 82.5795 173.253 82.6657 173.524 82.8381C173.797 83.0085 174.013 83.2614 174.172 83.5966C174.333 83.9299 174.413 84.339 174.413 84.8239C174.413 85.303 174.335 85.7102 174.178 86.0455C174.02 86.3807 173.806 86.6364 173.536 86.8125C173.265 86.9886 172.958 87.0767 172.615 87.0767C172.365 87.0767 172.158 87.035 171.993 86.9517C171.828 86.8684 171.696 86.768 171.595 86.6506C171.497 86.5312 171.42 86.4186 171.365 86.3125H171.322V88.6364H170.294ZM171.303 84.8182C171.303 85.1004 171.342 85.3475 171.422 85.5597C171.503 85.7718 171.62 85.9375 171.771 86.0568C171.925 86.1742 172.11 86.233 172.328 86.233C172.555 86.233 172.746 86.1723 172.899 86.0511C173.053 85.928 173.168 85.7604 173.246 85.5483C173.325 85.3343 173.365 85.0909 173.365 84.8182C173.365 84.5473 173.326 84.3068 173.249 84.0966C173.171 83.8864 173.055 83.7216 172.902 83.6023C172.749 83.483 172.557 83.4233 172.328 83.4233C172.108 83.4233 171.922 83.4811 171.768 83.5966C171.615 83.7121 171.499 83.8741 171.419 84.0824C171.341 84.2907 171.303 84.536 171.303 84.8182ZM175.294 87V82.6364H176.291V83.3636H176.337C176.416 83.1117 176.553 82.9176 176.746 82.7812C176.941 82.643 177.163 82.5739 177.413 82.5739C177.47 82.5739 177.534 82.5767 177.604 82.5824C177.676 82.5862 177.735 82.5928 177.783 82.6023V83.5483C177.739 83.5331 177.67 83.5199 177.575 83.5085C177.482 83.4953 177.393 83.4886 177.305 83.4886C177.118 83.4886 176.949 83.5294 176.8 83.6108C176.652 83.6903 176.536 83.8011 176.45 83.9432C176.365 84.0852 176.322 84.2491 176.322 84.4347V87H175.294ZM180.19 87.0852C179.763 87.0852 179.394 86.9915 179.082 86.804C178.769 86.6165 178.527 86.3542 178.354 86.017C178.184 85.6799 178.099 85.286 178.099 84.8352C178.099 84.3845 178.184 83.9896 178.354 83.6506C178.527 83.3116 178.769 83.0483 179.082 82.8608C179.394 82.6733 179.763 82.5795 180.19 82.5795C180.616 82.5795 180.985 82.6733 181.298 82.8608C181.61 83.0483 181.852 83.3116 182.022 83.6506C182.194 83.9896 182.281 84.3845 182.281 84.8352C182.281 85.286 182.194 85.6799 182.022 86.017C181.852 86.3542 181.61 86.6165 181.298 86.804C180.985 86.9915 180.616 87.0852 180.19 87.0852ZM180.195 86.2614C180.426 86.2614 180.62 86.1979 180.775 86.071C180.93 85.9422 181.046 85.7699 181.121 85.554C181.199 85.3381 181.238 85.0975 181.238 84.8324C181.238 84.5653 181.199 84.3239 181.121 84.108C181.046 83.8902 180.93 83.7169 180.775 83.5881C180.62 83.4593 180.426 83.3949 180.195 83.3949C179.959 83.3949 179.762 83.4593 179.604 83.5881C179.449 83.7169 179.333 83.8902 179.255 84.108C179.179 84.3239 179.141 84.5653 179.141 84.8324C179.141 85.0975 179.179 85.3381 179.255 85.554C179.333 85.7699 179.449 85.9422 179.604 86.071C179.762 86.1979 179.959 86.2614 180.195 86.2614ZM186.903 82.6364L185.349 87H184.212L182.658 82.6364H183.755L184.758 85.8778H184.803L185.809 82.6364H186.903ZM189.398 87.0852C188.96 87.0852 188.582 86.9943 188.264 86.8125C187.948 86.6288 187.705 86.3693 187.534 86.0341C187.364 85.697 187.278 85.3002 187.278 84.8438C187.278 84.3949 187.364 84.0009 187.534 83.6619C187.706 83.321 187.947 83.0559 188.256 82.8665C188.564 82.6752 188.927 82.5795 189.344 82.5795C189.613 82.5795 189.866 82.6231 190.105 82.7102C190.346 82.7955 190.558 82.928 190.741 83.108C190.927 83.2879 191.073 83.517 191.179 83.7955C191.285 84.072 191.338 84.4015 191.338 84.7841V85.0994H187.761V84.4062H190.352C190.35 84.2093 190.308 84.0341 190.224 83.8807C190.141 83.7254 190.025 83.6032 189.875 83.5142C189.727 83.4252 189.555 83.3807 189.358 83.3807C189.148 83.3807 188.963 83.4318 188.804 83.5341C188.645 83.6345 188.521 83.767 188.432 83.9318C188.345 84.0947 188.3 84.2737 188.298 84.4688V85.0739C188.298 85.3277 188.345 85.5455 188.438 85.7273C188.53 85.9072 188.66 86.0455 188.827 86.142C188.993 86.2367 189.188 86.2841 189.412 86.2841C189.562 86.2841 189.697 86.2633 189.818 86.2216C189.939 86.178 190.045 86.1146 190.134 86.0312C190.223 85.9479 190.29 85.8447 190.335 85.7216L191.295 85.8295C191.235 86.0833 191.119 86.3049 190.949 86.4943C190.78 86.6818 190.564 86.8277 190.301 86.9318C190.038 87.0341 189.737 87.0852 189.398 87.0852ZM194.832 88.6364C194.692 88.6364 194.562 88.625 194.442 88.6023C194.325 88.5814 194.231 88.5568 194.161 88.5284L194.4 87.7273C194.549 87.7708 194.683 87.7917 194.8 87.7898C194.918 87.7879 195.021 87.7509 195.11 87.679C195.201 87.6089 195.278 87.4915 195.34 87.3267L195.428 87.0909L193.846 82.6364H194.937L195.942 85.9318H195.988L196.996 82.6364H198.09L196.343 87.5284C196.262 87.7595 196.154 87.9574 196.019 88.1222C195.885 88.2888 195.72 88.4157 195.525 88.5028C195.332 88.5919 195.101 88.6364 194.832 88.6364ZM200.557 87.0852C200.131 87.0852 199.761 86.9915 199.449 86.804C199.136 86.6165 198.894 86.3542 198.722 86.017C198.551 85.6799 198.466 85.286 198.466 84.8352C198.466 84.3845 198.551 83.9896 198.722 83.6506C198.894 83.3116 199.136 83.0483 199.449 82.8608C199.761 82.6733 200.131 82.5795 200.557 82.5795C200.983 82.5795 201.352 82.6733 201.665 82.8608C201.977 83.0483 202.219 83.3116 202.389 83.6506C202.562 83.9896 202.648 84.3845 202.648 84.8352C202.648 85.286 202.562 85.6799 202.389 86.017C202.219 86.3542 201.977 86.6165 201.665 86.804C201.352 86.9915 200.983 87.0852 200.557 87.0852ZM200.562 86.2614C200.794 86.2614 200.987 86.1979 201.142 86.071C201.297 85.9422 201.413 85.7699 201.489 85.554C201.566 85.3381 201.605 85.0975 201.605 84.8324C201.605 84.5653 201.566 84.3239 201.489 84.108C201.413 83.8902 201.297 83.7169 201.142 83.5881C200.987 83.4593 200.794 83.3949 200.562 83.3949C200.326 83.3949 200.129 83.4593 199.972 83.5881C199.816 83.7169 199.7 83.8902 199.622 84.108C199.546 84.3239 199.509 84.5653 199.509 84.8324C199.509 85.0975 199.546 85.3381 199.622 85.554C199.7 85.7699 199.816 85.9422 199.972 86.071C200.129 86.1979 200.326 86.2614 200.562 86.2614ZM206.302 85.1648V82.6364H207.33V87H206.333V86.2244H206.288C206.189 86.4687 206.027 86.6686 205.802 86.8239C205.578 86.9792 205.303 87.0568 204.975 87.0568C204.689 87.0568 204.436 86.9934 204.217 86.8665C203.999 86.7377 203.828 86.5511 203.705 86.3068C203.582 86.0606 203.521 85.7633 203.521 85.4148V82.6364H204.549V85.2557C204.549 85.5322 204.625 85.7519 204.776 85.9148C204.928 86.0777 205.127 86.1591 205.373 86.1591C205.524 86.1591 205.671 86.1222 205.813 86.0483C205.955 85.9744 206.072 85.8646 206.163 85.7188C206.255 85.571 206.302 85.3864 206.302 85.1648ZM208.388 87V82.6364H209.385V83.3636H209.43C209.51 83.1117 209.646 82.9176 209.839 82.7812C210.035 82.643 210.257 82.5739 210.507 82.5739C210.564 82.5739 210.627 82.5767 210.697 82.5824C210.769 82.5862 210.829 82.5928 210.876 82.6023V83.5483C210.833 83.5331 210.764 83.5199 210.669 83.5085C210.576 83.4953 210.486 83.4886 210.399 83.4886C210.212 83.4886 210.043 83.5294 209.893 83.6108C209.746 83.6903 209.629 83.8011 209.544 83.9432C209.459 84.0852 209.416 84.2491 209.416 84.4347V87H208.388ZM213.544 88.6364V82.6364H214.555V83.358H214.615C214.668 83.2519 214.743 83.1392 214.839 83.0199C214.936 82.8987 215.067 82.7955 215.232 82.7102C215.396 82.6231 215.607 82.5795 215.862 82.5795C216.199 82.5795 216.503 82.6657 216.774 82.8381C217.047 83.0085 217.263 83.2614 217.422 83.5966C217.583 83.9299 217.663 84.339 217.663 84.8239C217.663 85.303 217.585 85.7102 217.428 86.0455C217.27 86.3807 217.056 86.6364 216.786 86.8125C216.515 86.9886 216.208 87.0767 215.865 87.0767C215.615 87.0767 215.408 87.035 215.243 86.9517C215.078 86.8684 214.946 86.768 214.845 86.6506C214.747 86.5312 214.67 86.4186 214.615 86.3125H214.572V88.6364H213.544ZM214.553 84.8182C214.553 85.1004 214.592 85.3475 214.672 85.5597C214.753 85.7718 214.87 85.9375 215.021 86.0568C215.175 86.1742 215.36 86.233 215.578 86.233C215.805 86.233 215.996 86.1723 216.149 86.0511C216.303 85.928 216.418 85.7604 216.496 85.5483C216.575 85.3343 216.615 85.0909 216.615 84.8182C216.615 84.5473 216.576 84.3068 216.499 84.0966C216.421 83.8864 216.305 83.7216 216.152 83.6023C215.999 83.483 215.807 83.4233 215.578 83.4233C215.358 83.4233 215.172 83.4811 215.018 83.5966C214.865 83.7121 214.749 83.8741 214.669 84.0824C214.591 84.2907 214.553 84.536 214.553 84.8182ZM218.544 87V82.6364H219.541V83.3636H219.587C219.666 83.1117 219.803 82.9176 219.996 82.7812C220.191 82.643 220.413 82.5739 220.663 82.5739C220.72 82.5739 220.784 82.5767 220.854 82.5824C220.926 82.5862 220.985 82.5928 221.033 82.6023V83.5483C220.989 83.5331 220.92 83.5199 220.825 83.5085C220.732 83.4953 220.643 83.4886 220.555 83.4886C220.368 83.4886 220.199 83.5294 220.05 83.6108C219.902 83.6903 219.786 83.8011 219.7 83.9432C219.615 84.0852 219.572 84.2491 219.572 84.4347V87H218.544ZM223.44 87.0852C223.013 87.0852 222.644 86.9915 222.332 86.804C222.019 86.6165 221.777 86.3542 221.604 86.017C221.434 85.6799 221.349 85.286 221.349 84.8352C221.349 84.3845 221.434 83.9896 221.604 83.6506C221.777 83.3116 222.019 83.0483 222.332 82.8608C222.644 82.6733 223.013 82.5795 223.44 82.5795C223.866 82.5795 224.235 82.6733 224.548 82.8608C224.86 83.0483 225.102 83.3116 225.272 83.6506C225.444 83.9896 225.531 84.3845 225.531 84.8352C225.531 85.286 225.444 85.6799 225.272 86.017C225.102 86.3542 224.86 86.6165 224.548 86.804C224.235 86.9915 223.866 87.0852 223.44 87.0852ZM223.445 86.2614C223.676 86.2614 223.87 86.1979 224.025 86.071C224.18 85.9422 224.296 85.7699 224.371 85.554C224.449 85.3381 224.488 85.0975 224.488 84.8324C224.488 84.5653 224.449 84.3239 224.371 84.108C224.296 83.8902 224.18 83.7169 224.025 83.5881C223.87 83.4593 223.676 83.3949 223.445 83.3949C223.209 83.3949 223.012 83.4593 222.854 83.5881C222.699 83.7169 222.583 83.8902 222.505 84.108C222.429 84.3239 222.391 84.5653 222.391 84.8324C222.391 85.0975 222.429 85.3381 222.505 85.554C222.583 85.7699 222.699 85.9422 222.854 86.071C223.012 86.1979 223.209 86.2614 223.445 86.2614ZM228.614 82.6364V83.4318H226.034V82.6364H228.614ZM226.679 87V82.2244C226.679 81.9309 226.74 81.6866 226.861 81.4915C226.984 81.2964 227.149 81.1506 227.355 81.054C227.562 80.9574 227.791 80.9091 228.043 80.9091C228.221 80.9091 228.379 80.9233 228.517 80.9517C228.655 80.9801 228.758 81.0057 228.824 81.0284L228.619 81.8239C228.576 81.8106 228.521 81.7973 228.455 81.7841C228.388 81.7689 228.314 81.7614 228.233 81.7614C228.042 81.7614 227.906 81.8078 227.827 81.9006C227.749 81.9915 227.71 82.1222 227.71 82.2926V87H226.679ZM229.419 87V82.6364H230.447V87H229.419ZM229.936 82.017C229.773 82.017 229.633 81.9631 229.516 81.8551C229.398 81.7453 229.339 81.6136 229.339 81.4602C229.339 81.3049 229.398 81.1733 229.516 81.0653C229.633 80.9555 229.773 80.9006 229.936 80.9006C230.101 80.9006 230.241 80.9555 230.357 81.0653C230.474 81.1733 230.533 81.3049 230.533 81.4602C230.533 81.6136 230.474 81.7453 230.357 81.8551C230.241 81.9631 230.101 82.017 229.936 82.017ZM232.533 81.1818V87H231.505V81.1818H232.533ZM235.523 87.0852C235.085 87.0852 234.707 86.9943 234.389 86.8125C234.073 86.6288 233.83 86.3693 233.659 86.0341C233.489 85.697 233.403 85.3002 233.403 84.8438C233.403 84.3949 233.489 84.0009 233.659 83.6619C233.831 83.321 234.072 83.0559 234.381 82.8665C234.689 82.6752 235.052 82.5795 235.469 82.5795C235.738 82.5795 235.991 82.6231 236.23 82.7102C236.471 82.7955 236.683 82.928 236.866 83.108C237.052 83.2879 237.198 83.517 237.304 83.7955C237.41 84.072 237.463 84.4015 237.463 84.7841V85.0994H233.886V84.4062H236.477C236.475 84.2093 236.433 84.0341 236.349 83.8807C236.266 83.7254 236.15 83.6032 236 83.5142C235.852 83.4252 235.68 83.3807 235.483 83.3807C235.273 83.3807 235.088 83.4318 234.929 83.5341C234.77 83.6345 234.646 83.767 234.557 83.9318C234.47 84.0947 234.425 84.2737 234.423 84.4688V85.0739C234.423 85.3277 234.47 85.5455 234.562 85.7273C234.655 85.9072 234.785 86.0455 234.952 86.142C235.118 86.2367 235.313 86.2841 235.537 86.2841C235.687 86.2841 235.822 86.2633 235.943 86.2216C236.064 86.178 236.17 86.1146 236.259 86.0312C236.348 85.9479 236.415 85.8447 236.46 85.7216L237.42 85.8295C237.36 86.0833 237.244 86.3049 237.074 86.4943C236.905 86.6818 236.689 86.8277 236.426 86.9318C236.163 87.0341 235.862 87.0852 235.523 87.0852ZM242.221 87.0852C241.785 87.0852 241.411 86.9896 241.099 86.7983C240.788 86.607 240.549 86.3428 240.38 86.0057C240.213 85.6667 240.13 85.2765 240.13 84.8352C240.13 84.392 240.215 84.0009 240.386 83.6619C240.556 83.321 240.797 83.0559 241.107 82.8665C241.42 82.6752 241.789 82.5795 242.215 82.5795C242.569 82.5795 242.883 82.6449 243.156 82.7756C243.43 82.9044 243.649 83.0871 243.812 83.3239C243.975 83.5587 244.067 83.8333 244.09 84.1477H243.107C243.067 83.9375 242.973 83.7623 242.823 83.6222C242.675 83.4801 242.478 83.4091 242.229 83.4091C242.019 83.4091 241.835 83.4659 241.675 83.5795C241.516 83.6913 241.392 83.8523 241.303 84.0625C241.216 84.2727 241.173 84.5246 241.173 84.8182C241.173 85.1155 241.216 85.3712 241.303 85.5852C241.39 85.7973 241.513 85.9612 241.67 86.0767C241.829 86.1903 242.015 86.2472 242.229 86.2472C242.381 86.2472 242.516 86.2187 242.636 86.1619C242.757 86.1032 242.858 86.0189 242.94 85.9091C243.021 85.7992 243.077 85.6657 243.107 85.5085H244.09C244.066 85.8172 243.975 86.0909 243.817 86.3295C243.66 86.5663 243.446 86.7519 243.175 86.8864C242.905 87.0189 242.586 87.0852 242.221 87.0852ZM246.838 87.0852C246.412 87.0852 246.043 86.9915 245.73 86.804C245.418 86.6165 245.175 86.3542 245.003 86.017C244.832 85.6799 244.747 85.286 244.747 84.8352C244.747 84.3845 244.832 83.9896 245.003 83.6506C245.175 83.3116 245.418 83.0483 245.73 82.8608C246.043 82.6733 246.412 82.5795 246.838 82.5795C247.264 82.5795 247.634 82.6733 247.946 82.8608C248.259 83.0483 248.5 83.3116 248.67 83.6506C248.843 83.9896 248.929 84.3845 248.929 84.8352C248.929 85.286 248.843 85.6799 248.67 86.017C248.5 86.3542 248.259 86.6165 247.946 86.804C247.634 86.9915 247.264 87.0852 246.838 87.0852ZM246.844 86.2614C247.075 86.2614 247.268 86.1979 247.423 86.071C247.579 85.9422 247.694 85.7699 247.77 85.554C247.848 85.3381 247.886 85.0975 247.886 84.8324C247.886 84.5653 247.848 84.3239 247.77 84.108C247.694 83.8902 247.579 83.7169 247.423 83.5881C247.268 83.4593 247.075 83.3949 246.844 83.3949C246.607 83.3949 246.41 83.4593 246.253 83.5881C246.098 83.7169 245.981 83.8902 245.903 84.108C245.828 84.3239 245.79 84.5653 245.79 84.8324C245.79 85.0975 245.828 85.3381 245.903 85.554C245.981 85.7699 246.098 85.9422 246.253 86.071C246.41 86.1979 246.607 86.2614 246.844 86.2614ZM249.802 87V82.6364H250.785V83.3778H250.836C250.927 83.1278 251.077 82.9328 251.288 82.7926C251.498 82.6506 251.749 82.5795 252.04 82.5795C252.336 82.5795 252.585 82.6515 252.788 82.7955C252.992 82.9375 253.136 83.1316 253.219 83.3778H253.265C253.362 83.1354 253.524 82.9422 253.754 82.7983C253.985 82.6525 254.258 82.5795 254.575 82.5795C254.976 82.5795 255.304 82.7064 255.558 82.9602C255.811 83.214 255.938 83.5843 255.938 84.071V87H254.907V84.2301C254.907 83.9593 254.835 83.7614 254.691 83.6364C254.547 83.5095 254.371 83.446 254.163 83.446C253.915 83.446 253.72 83.5237 253.58 83.679C253.442 83.8324 253.373 84.0322 253.373 84.2784V87H252.364V84.1875C252.364 83.9621 252.296 83.7822 252.16 83.6477C252.025 83.5133 251.849 83.446 251.631 83.446C251.484 83.446 251.349 83.4839 251.228 83.5597C251.107 83.6335 251.01 83.7386 250.938 83.875C250.866 84.0095 250.83 84.1667 250.83 84.3466V87H249.802ZM256.982 88.6364V82.6364H257.993V83.358H258.053C258.106 83.2519 258.18 83.1392 258.277 83.0199C258.374 82.8987 258.504 82.7955 258.669 82.7102C258.834 82.6231 259.044 82.5795 259.3 82.5795C259.637 82.5795 259.941 82.6657 260.212 82.8381C260.484 83.0085 260.7 83.2614 260.859 83.5966C261.02 83.9299 261.101 84.339 261.101 84.8239C261.101 85.303 261.022 85.7102 260.865 86.0455C260.708 86.3807 260.494 86.6364 260.223 86.8125C259.952 86.9886 259.645 87.0767 259.303 87.0767C259.053 87.0767 258.845 87.035 258.68 86.9517C258.516 86.8684 258.383 86.768 258.283 86.6506C258.184 86.5312 258.107 86.4186 258.053 86.3125H258.01V88.6364H256.982ZM257.99 84.8182C257.99 85.1004 258.03 85.3475 258.109 85.5597C258.191 85.7718 258.307 85.9375 258.459 86.0568C258.612 86.1742 258.798 86.233 259.016 86.233C259.243 86.233 259.433 86.1723 259.587 86.0511C259.74 85.928 259.856 85.7604 259.933 85.5483C260.013 85.3343 260.053 85.0909 260.053 84.8182C260.053 84.5473 260.014 84.3068 259.936 84.0966C259.858 83.8864 259.743 83.7216 259.589 83.6023C259.436 83.483 259.245 83.4233 259.016 83.4233C258.796 83.4233 258.609 83.4811 258.456 83.5966C258.303 83.7121 258.186 83.8741 258.107 84.0824C258.029 84.2907 257.99 84.536 257.99 84.8182ZM263.913 87.0852C263.476 87.0852 263.098 86.9943 262.78 86.8125C262.464 86.6288 262.22 86.3693 262.05 86.0341C261.879 85.697 261.794 85.3002 261.794 84.8438C261.794 84.3949 261.879 84.0009 262.05 83.6619C262.222 83.321 262.463 83.0559 262.771 82.8665C263.08 82.6752 263.443 82.5795 263.859 82.5795C264.128 82.5795 264.382 82.6231 264.621 82.7102C264.861 82.7955 265.073 82.928 265.257 83.108C265.443 83.2879 265.589 83.517 265.695 83.7955C265.801 84.072 265.854 84.4015 265.854 84.7841V85.0994H262.277V84.4062H264.868C264.866 84.2093 264.823 84.0341 264.74 83.8807C264.657 83.7254 264.54 83.6032 264.391 83.5142C264.243 83.4252 264.071 83.3807 263.874 83.3807C263.663 83.3807 263.479 83.4318 263.32 83.5341C263.161 83.6345 263.036 83.767 262.947 83.9318C262.86 84.0947 262.816 84.2737 262.814 84.4688V85.0739C262.814 85.3277 262.86 85.5455 262.953 85.7273C263.046 85.9072 263.176 86.0455 263.342 86.142C263.509 86.2367 263.704 86.2841 263.928 86.2841C264.077 86.2841 264.213 86.2633 264.334 86.2216C264.455 86.178 264.56 86.1146 264.649 86.0312C264.738 85.9479 264.805 85.8447 264.851 85.7216L265.811 85.8295C265.75 86.0833 265.635 86.3049 265.464 86.4943C265.296 86.6818 265.08 86.8277 264.817 86.9318C264.554 87.0341 264.252 87.0852 263.913 87.0852ZM268.903 82.6364V83.4318H266.394V82.6364H268.903ZM267.013 81.5909H268.042V85.6875C268.042 85.8258 268.063 85.9318 268.104 86.0057C268.148 86.0777 268.205 86.1269 268.275 86.1534C268.345 86.1799 268.423 86.1932 268.508 86.1932C268.572 86.1932 268.631 86.1884 268.684 86.179C268.739 86.1695 268.781 86.161 268.809 86.1534L268.982 86.9574C268.927 86.9763 268.849 86.9972 268.746 87.0199C268.646 87.0426 268.523 87.0559 268.377 87.0597C268.12 87.0672 267.888 87.0284 267.681 86.9432C267.475 86.8561 267.311 86.7216 267.19 86.5398C267.07 86.358 267.012 86.1307 267.013 85.858V81.5909ZM269.763 87V82.6364H270.791V87H269.763ZM270.28 82.017C270.117 82.017 269.977 81.9631 269.859 81.8551C269.742 81.7453 269.683 81.6136 269.683 81.4602C269.683 81.3049 269.742 81.1733 269.859 81.0653C269.977 80.9555 270.117 80.9006 270.28 80.9006C270.445 80.9006 270.585 80.9555 270.7 81.0653C270.818 81.1733 270.876 81.3049 270.876 81.4602C270.876 81.6136 270.818 81.7453 270.7 81.8551C270.585 81.9631 270.445 82.017 270.28 82.017ZM274.028 82.6364V83.4318H271.519V82.6364H274.028ZM272.138 81.5909H273.167V85.6875C273.167 85.8258 273.188 85.9318 273.229 86.0057C273.273 86.0777 273.33 86.1269 273.4 86.1534C273.47 86.1799 273.548 86.1932 273.633 86.1932C273.697 86.1932 273.756 86.1884 273.809 86.179C273.864 86.1695 273.906 86.161 273.934 86.1534L274.107 86.9574C274.052 86.9763 273.974 86.9972 273.871 87.0199C273.771 87.0426 273.648 87.0559 273.502 87.0597C273.245 87.0672 273.013 87.0284 272.806 86.9432C272.6 86.8561 272.436 86.7216 272.315 86.5398C272.195 86.358 272.137 86.1307 272.138 85.858V81.5909ZM274.888 87V82.6364H275.916V87H274.888ZM275.405 82.017C275.242 82.017 275.102 81.9631 274.984 81.8551C274.867 81.7453 274.808 81.6136 274.808 81.4602C274.808 81.3049 274.867 81.1733 274.984 81.0653C275.102 80.9555 275.242 80.9006 275.405 80.9006C275.57 80.9006 275.71 80.9555 275.825 81.0653C275.943 81.1733 276.001 81.3049 276.001 81.4602C276.001 81.6136 275.943 81.7453 275.825 81.8551C275.71 81.9631 275.57 82.017 275.405 82.017ZM280.871 82.6364L279.317 87H278.181L276.627 82.6364H277.724L278.727 85.8778H278.772L279.778 82.6364H280.871ZM283.366 87.0852C282.929 87.0852 282.551 86.9943 282.233 86.8125C281.917 86.6288 281.673 86.3693 281.503 86.0341C281.332 85.697 281.247 85.3002 281.247 84.8438C281.247 84.3949 281.332 84.0009 281.503 83.6619C281.675 83.321 281.916 83.0559 282.224 82.8665C282.533 82.6752 282.896 82.5795 283.312 82.5795C283.581 82.5795 283.835 82.6231 284.074 82.7102C284.314 82.7955 284.527 82.928 284.71 83.108C284.896 83.2879 285.042 83.517 285.148 83.7955C285.254 84.072 285.307 84.4015 285.307 84.7841V85.0994H281.73V84.4062H284.321C284.319 84.2093 284.277 84.0341 284.193 83.8807C284.11 83.7254 283.993 83.6032 283.844 83.5142C283.696 83.4252 283.524 83.3807 283.327 83.3807C283.116 83.3807 282.932 83.4318 282.773 83.5341C282.614 83.6345 282.49 83.767 282.401 83.9318C282.313 84.0947 282.269 84.2737 282.267 84.4688V85.0739C282.267 85.3277 282.313 85.5455 282.406 85.7273C282.499 85.9072 282.629 86.0455 282.795 86.142C282.962 86.2367 283.157 86.2841 283.381 86.2841C283.53 86.2841 283.666 86.2633 283.787 86.2216C283.908 86.178 284.013 86.1146 284.102 86.0312C284.191 85.9479 284.259 85.8447 284.304 85.7216L285.264 85.8295C285.204 86.0833 285.088 86.3049 284.918 86.4943C284.749 86.6818 284.533 86.8277 284.27 86.9318C284.007 87.0341 283.705 87.0852 283.366 87.0852ZM287.205 84.4432V87H286.177V82.6364H287.16V83.3778H287.211C287.311 83.1335 287.471 82.9394 287.691 82.7955C287.913 82.6515 288.186 82.5795 288.512 82.5795C288.813 82.5795 289.076 82.6439 289.299 82.7727C289.524 82.9015 289.699 83.0881 289.822 83.3324C289.947 83.5767 290.008 83.8731 290.006 84.2216V87H288.978V84.3807C288.978 84.089 288.902 83.8608 288.751 83.696C288.601 83.5312 288.394 83.4489 288.129 83.4489C287.949 83.4489 287.789 83.4886 287.648 83.5682C287.51 83.6458 287.401 83.7585 287.322 83.9062C287.244 84.054 287.205 84.233 287.205 84.4432ZM292.984 87.0852C292.546 87.0852 292.168 86.9943 291.85 86.8125C291.534 86.6288 291.29 86.3693 291.12 86.0341C290.95 85.697 290.864 85.3002 290.864 84.8438C290.864 84.3949 290.95 84.0009 291.12 83.6619C291.292 83.321 291.533 83.0559 291.842 82.8665C292.15 82.6752 292.513 82.5795 292.93 82.5795C293.199 82.5795 293.452 82.6231 293.691 82.7102C293.932 82.7955 294.144 82.928 294.327 83.108C294.513 83.2879 294.659 83.517 294.765 83.7955C294.871 84.072 294.924 84.4015 294.924 84.7841V85.0994H291.347V84.4062H293.938C293.936 84.2093 293.894 84.0341 293.81 83.8807C293.727 83.7254 293.611 83.6032 293.461 83.5142C293.313 83.4252 293.141 83.3807 292.944 83.3807C292.734 83.3807 292.549 83.4318 292.39 83.5341C292.231 83.6345 292.107 83.767 292.018 83.9318C291.931 84.0947 291.886 84.2737 291.884 84.4688V85.0739C291.884 85.3277 291.931 85.5455 292.023 85.7273C292.116 85.9072 292.246 86.0455 292.413 86.142C292.579 86.2367 292.774 86.2841 292.998 86.2841C293.147 86.2841 293.283 86.2633 293.404 86.2216C293.525 86.178 293.63 86.1146 293.719 86.0312C293.808 85.9479 293.876 85.8447 293.921 85.7216L294.881 85.8295C294.821 86.0833 294.705 86.3049 294.535 86.4943C294.366 86.6818 294.15 86.8277 293.887 86.9318C293.624 87.0341 293.323 87.0852 292.984 87.0852ZM299.243 83.7898L298.305 83.892C298.279 83.7973 298.232 83.7083 298.166 83.625C298.102 83.5417 298.015 83.4744 297.905 83.4233C297.795 83.3722 297.661 83.3466 297.501 83.3466C297.287 83.3466 297.107 83.393 296.962 83.4858C296.818 83.5786 296.747 83.6989 296.749 83.8466C296.747 83.9735 296.793 84.0767 296.888 84.1562C296.984 84.2358 297.143 84.3011 297.365 84.3523L298.109 84.5114C298.522 84.6004 298.829 84.7415 299.03 84.9347C299.232 85.1278 299.335 85.3807 299.337 85.6932C299.335 85.9678 299.254 86.2102 299.095 86.4205C298.938 86.6288 298.719 86.7917 298.439 86.9091C298.159 87.0265 297.837 87.0852 297.473 87.0852C296.939 87.0852 296.509 86.9735 296.183 86.75C295.857 86.5246 295.663 86.2112 295.601 85.8097L296.604 85.7131C296.649 85.91 296.746 86.0587 296.893 86.1591C297.041 86.2595 297.233 86.3097 297.47 86.3097C297.714 86.3097 297.911 86.2595 298.058 86.1591C298.208 86.0587 298.283 85.9347 298.283 85.7869C298.283 85.6619 298.234 85.5587 298.138 85.4773C298.043 85.3958 297.895 85.3333 297.695 85.2898L296.95 85.1335C296.532 85.0464 296.222 84.8996 296.021 84.6932C295.821 84.4848 295.721 84.2216 295.723 83.9034C295.721 83.6345 295.794 83.4015 295.942 83.2045C296.091 83.0057 296.299 82.8523 296.564 82.7443C296.831 82.6345 297.139 82.5795 297.487 82.5795C297.999 82.5795 298.401 82.6884 298.695 82.9062C298.99 83.1241 299.173 83.4186 299.243 83.7898ZM303.634 83.7898L302.696 83.892C302.67 83.7973 302.623 83.7083 302.557 83.625C302.492 83.5417 302.405 83.4744 302.295 83.4233C302.186 83.3722 302.051 83.3466 301.892 83.3466C301.678 83.3466 301.498 83.393 301.352 83.4858C301.208 83.5786 301.137 83.6989 301.139 83.8466C301.137 83.9735 301.184 84.0767 301.278 84.1562C301.375 84.2358 301.534 84.3011 301.756 84.3523L302.5 84.5114C302.913 84.6004 303.22 84.7415 303.42 84.9347C303.623 85.1278 303.725 85.3807 303.727 85.6932C303.725 85.9678 303.645 86.2102 303.486 86.4205C303.329 86.6288 303.11 86.7917 302.83 86.9091C302.549 87.0265 302.227 87.0852 301.864 87.0852C301.33 87.0852 300.9 86.9735 300.574 86.75C300.248 86.5246 300.054 86.2112 299.991 85.8097L300.994 85.7131C301.04 85.91 301.136 86.0587 301.284 86.1591C301.432 86.2595 301.624 86.3097 301.861 86.3097C302.105 86.3097 302.301 86.2595 302.449 86.1591C302.598 86.0587 302.673 85.9347 302.673 85.7869C302.673 85.6619 302.625 85.5587 302.528 85.4773C302.434 85.3958 302.286 85.3333 302.085 85.2898L301.341 85.1335C300.922 85.0464 300.613 84.8996 300.412 84.6932C300.211 84.4848 300.112 84.2216 300.114 83.9034C300.112 83.6345 300.185 83.4015 300.332 83.2045C300.482 83.0057 300.689 82.8523 300.955 82.7443C301.222 82.6345 301.529 82.5795 301.878 82.5795C302.389 82.5795 302.792 82.6884 303.085 82.9062C303.381 83.1241 303.563 83.4186 303.634 83.7898Z" fill="#0B1142"/>
<defs>
<filter id="filter0_dddd_593_7278" x="13.3345" y="28.8613" width="106.864" height="105.525" filterUnits="userSpaceOnUse" color-interpolation-filters="sRGB">
<feFlood flood-opacity="0" result="BackgroundImageFix"/>
<feColorMatrix in="SourceAlpha" type="matrix" values="0 0 0 0 0 0 0 0 0 0 0 0 0 0 0 0 0 0 127 0" result="hardAlpha"/>
<feOffset dy="0.576642"/>
<feGaussianBlur stdDeviation="0.864964"/>
<feColorMatrix type="matrix" values="0 0 0 0 0.0745098 0 0 0 0 0.0392157 0 0 0 0 0.180392 0 0 0 0.13 0"/>
<feBlend mode="normal" in2="BackgroundImageFix" result="effect1_dropShadow_593_7278"/>
<feColorMatrix in="SourceAlpha" type="matrix" values="0 0 0 0 0 0 0 0 0 0 0 0 0 0 0 0 0 0 127 0" result="hardAlpha"/>
<feOffset dy="1.72993"/>
<feGaussianBlur stdDeviation="4.0365"/>
<feColorMatrix type="matrix" values="0 0 0 0 0.0745098 0 0 0 0 0.0392157 0 0 0 0 0.180392 0 0 0 0.03 0"/>
<feBlend mode="normal" in2="effect1_dropShadow_593_7278" result="effect2_dropShadow_593_7278"/>
<feColorMatrix in="SourceAlpha" type="matrix" values="0 0 0 0 0 0 0 0 0 0 0 0 0 0 0 0 0 0 127 0" result="hardAlpha"/>
<feOffset dy="4.61314"/>
<feGaussianBlur stdDeviation="9.22628"/>
<feColorMatrix type="matrix" values="0 0 0 0 0.0745098 0 0 0 0 0.0392157 0 0 0 0 0.180392 0 0 0 0.07 0"/>
<feBlend mode="normal" in2="effect2_dropShadow_593_7278" result="effect3_dropShadow_593_7278"/>
<feColorMatrix in="SourceAlpha" type="matrix" values="0 0 0 0 0 0 0 0 0 0 0 0 0 0 0 0 0 0 127 0" result="hardAlpha"/>
<feOffset dy="17.2993"/>
<feGaussianBlur stdDeviation="24.219"/>
<feColorMatrix type="matrix" values="0 0 0 0 0.0745098 0 0 0 0 0.0392157 0 0 0 0 0.180392 0 0 0 0.12 0"/>
<feBlend mode="normal" in2="effect3_dropShadow_593_7278" result="effect4_dropShadow_593_7278"/>
<feBlend mode="normal" in="SourceGraphic" in2="effect4_dropShadow_593_7278" result="shape"/>
</filter>
<linearGradient id="paint0_linear_593_7278" x1="8" y1="24.0439" x2="335" y2="24.0439" gradientUnits="userSpaceOnUse">
<stop stop-color="#5B7DF5"/>
<stop offset="1" stop-color="white"/>
</linearGradient>
</defs>
</svg>
