<svg width="32" height="31" viewBox="0 0 32 31" fill="none" xmlns="http://www.w3.org/2000/svg">
<path fill-rule="evenodd" clip-rule="evenodd" d="M16 30.0313C23.732 30.0313 30 23.9591 30 16.4688C30 8.97839 23.732 2.90625 16 2.90625C8.26801 2.90625 2 8.97839 2 16.4688C2 18.9012 2.661 21.184 3.81847 23.1579L2 30.0313L9.31486 28.3881C11.3014 29.4359 13.5789 30.0313 16 30.0313ZM16 27.9447C22.5425 27.9447 27.8462 22.8067 27.8462 16.4688C27.8462 10.1308 22.5425 4.99279 16 4.99279C9.45755 4.99279 4.15385 10.1308 4.15385 16.4688C4.15385 18.9159 4.9445 21.1841 6.29184 23.0468L5.23077 26.9014L9.27993 25.9208C11.1894 27.1972 13.5046 27.9447 16 27.9447Z" fill="#BFC8D0"/>
<path d="M28 15.5C28 21.9203 22.6274 27.125 16 27.125C13.4722 27.125 11.1269 26.3678 9.19266 25.0748L5.09091 26.0682L6.16576 22.1635C4.80092 20.2766 4 17.9789 4 15.5C4 9.07969 9.37258 3.875 16 3.875C22.6274 3.875 28 9.07969 28 15.5Z" fill="url(#paint0_linear_1895_1762)"/>
<path fill-rule="evenodd" clip-rule="evenodd" d="M16 29.0625C23.732 29.0625 30 22.9904 30 15.5C30 8.00964 23.732 1.9375 16 1.9375C8.26801 1.9375 2 8.00964 2 15.5C2 17.9324 2.661 20.2153 3.81847 22.1892L2 29.0625L9.31486 27.4193C11.3014 28.4671 13.5789 29.0625 16 29.0625ZM16 26.976C22.5425 26.976 27.8462 21.838 27.8462 15.5C27.8462 9.162 22.5425 4.02404 16 4.02404C9.45755 4.02404 4.15385 9.162 4.15385 15.5C4.15385 17.9471 4.9445 20.2154 6.29184 22.078L5.23077 25.9327L9.27993 24.952C11.1894 26.2285 13.5046 26.976 16 26.976Z" fill="white"/>
<path d="M12.5 9.20315C12.1672 8.55547 11.6565 8.61281 11.1407 8.61281C10.2188 8.61281 8.78125 9.68258 8.78125 11.6735C8.78125 13.3052 9.52345 15.0914 12.0244 17.7632C14.438 20.3418 17.6094 21.6757 20.2422 21.6303C22.875 21.5849 23.4167 19.3901 23.4167 18.6489C23.4167 18.3204 23.2062 18.1564 23.0613 18.1119C22.1641 17.6948 20.5093 16.9176 20.1328 16.7715C19.7563 16.6255 19.5597 16.823 19.4375 16.9305C19.0961 17.2457 18.4193 18.1746 18.1875 18.3836C17.9558 18.5925 17.6103 18.4868 17.4665 18.4078C16.9374 18.2021 15.5029 17.584 14.3595 16.5102C12.9453 15.1822 12.8623 14.7253 12.5959 14.3186C12.3828 13.9932 12.5392 13.7936 12.6172 13.7063C12.9219 13.3658 13.3426 12.8399 13.5313 12.5786C13.7199 12.3173 13.5702 11.9206 13.4803 11.6735C13.0938 10.6109 12.7663 9.7213 12.5 9.20315Z" fill="white"/>
<defs>
<linearGradient id="paint0_linear_1895_1762" x1="26.5" y1="6.78125" x2="4.66637" y2="27.8167" gradientUnits="userSpaceOnUse">
<stop stop-color="#5BD066"/>
<stop offset="1" stop-color="#27B43E"/>
</linearGradient>
</defs>
</svg>
